<svg xmlns="http://www.w3.org/2000/svg" viewBox="0 0 240 58" class="provider-logo bongacams" role="img">
    <title>Logo Bongacams</title>
    <defs>
        <style>
            .sprite { display: none; }
            .sprite:target { display: inline; }
        </style>
    </defs>
    <g id="default" class="sprite">
        <path style="fill: #a01f3c" d="M239.58,21v.05A.12.12,0,0,0,239.58,21Z" />
        <path style="fill: #a01f3c" d="M109.24,15l-.2-.13-.43-.21a6.08,6.08,0,0,0-2.78-.5,4.88,4.88,0,0,0-1.26.22,2.7,2.7,0,0,0-.69.32,1.06,1.06,0,0,0-.5.61l0,0a.38.38,0,0,1-.47.23l-.37-.1a12,12,0,0,0-1.62-.38,6.34,6.34,0,0,0-2.46.08,6.92,6.92,0,0,0-2.6,1.25,9.78,9.78,0,0,0-1.52,1.44,14.67,14.67,0,0,0-1.7,2.46,23.31,23.31,0,0,0-2,4.79c-.17.59-.09.48-.62.66a18.21,18.21,0,0,0-2.72,1.14l-.13.06a.14.14,0,0,1-.16-.07c-.08-.29-.16-.58-.24-.87-.35-1.38-.75-2.75-1.24-4.1A25.85,25.85,0,0,0,84,18.46a13.35,13.35,0,0,0-1-1.54,7.74,7.74,0,0,0-.93-1.08,4.69,4.69,0,0,0-.83-.64,3.15,3.15,0,0,0-1.06-.4,1.77,1.77,0,0,0-1.32.27,1,1,0,0,0-.46.64c0,.09,0,.19-.07.28a.43.43,0,0,1-.43.32l-.38,0c-.27,0-.53-.1-.8-.13a8.52,8.52,0,0,0-1.66,0l-.23,0a4.91,4.91,0,0,0-1.78.76,7.07,7.07,0,0,0-1,.84,11.34,11.34,0,0,0-1.65,2.09,19,19,0,0,0-1.36,2.62A32.27,32.27,0,0,0,67,29.72c-.18,1-.3,2-.4,3.07,0,.24-.05.47-.09.71a4.35,4.35,0,0,1-.19.79,1.61,1.61,0,0,1-.24.46.72.72,0,0,1-.39.26.23.23,0,0,1-.3-.16.93.93,0,0,1,0-.18c0-.33-.08-.66-.09-1,0-1.14-.07-2.28-.11-3.43,0-.71-.06-1.43-.12-2.14s-.14-1.58-.24-2.37a28,28,0,0,0-.5-2.81,14.77,14.77,0,0,0-.75-2.35,8.56,8.56,0,0,0-.94-1.71,5.26,5.26,0,0,0-1-1.07,4.08,4.08,0,0,0-2.9-.86,4.1,4.1,0,0,0-2.31.91,6.87,6.87,0,0,0-1.26,1.29,10.62,10.62,0,0,0-1.18,2c-.13.27-.24.55-.36.83a.66.66,0,0,1-.06.13.13.13,0,0,1-.08,0s-.05,0-.06-.06c0-.25,0-.51,0-.76a11.34,11.34,0,0,0-.54-2.31,8.57,8.57,0,0,0-.86-1.8,5.18,5.18,0,0,0-.88-1.06,3.51,3.51,0,0,0-1.76-.88,2.74,2.74,0,0,0-2.85,1.29,1.08,1.08,0,0,0-.16.42c0,.08.09.18.15.27a8.23,8.23,0,0,1,.78,1.52,12.24,12.24,0,0,1,.55,1.82,21,21,0,0,1,.41,2.63c.08.89.12,1.77.15,2.66,0,1.25,0,2.51-.1,3.76,0,.46-.06.92-.1,1.38-.07.79-.15,1.58-.24,2.37s-.21,1.76-.33,2.64-.22,1.47-.34,2.21c-.15.89-.3,1.78-.46,2.67,0,.23-.08.47-.12.7a.31.31,0,0,0,.07.27c.09.11.18.22.28.32a5.09,5.09,0,0,0,1.61,1.08,5.27,5.27,0,0,0,2.42.39,2.12,2.12,0,0,0,1-.34,1.07,1.07,0,0,0,.54-.89c0-.71.13-1.42.19-2.13s.15-1.58.22-2.37q0-.47.1-.95c.08-.68.16-1.35.25-2s.2-1.64.33-2.45.29-1.75.45-2.63a28,28,0,0,1,.75-3.1,13.71,13.71,0,0,1,.75-2,7.24,7.24,0,0,1,.6-1,4.13,4.13,0,0,1,.63-.71,2.57,2.57,0,0,1,1.26-.63,1.69,1.69,0,0,1,.76,0,1.52,1.52,0,0,1,.78.52,3.14,3.14,0,0,1,.49.87,7.59,7.59,0,0,1,.39,1.42,19.6,19.6,0,0,1,.27,2.84c.06,1.51,0,3-.1,4.52,0,.4-.05.79-.08,1.19s-.08.95-.12,1.42-.1,1-.14,1.47-.1,1.14-.16,1.71a3,3,0,0,0,0,.66c0,.14,0,.28,0,.43a5.18,5.18,0,0,0,.21,1.07,3.53,3.53,0,0,0,.39.87,2.59,2.59,0,0,0,1.57,1.16,3.81,3.81,0,0,0,1,.11,2.38,2.38,0,0,0,1.06-.25,3.33,3.33,0,0,0,.9-.62,8.71,8.71,0,0,0,.62-.66,8.27,8.27,0,0,0,1-1.56c.17-.34.32-.69.49-1a.74.74,0,0,1,.1-.16.08.08,0,0,1,.08,0,1.06,1.06,0,0,1,.07.17,5.28,5.28,0,0,0,1,1.7,4.93,4.93,0,0,0,1,.9,4,4,0,0,0,1.64.59,1.75,1.75,0,0,0,1.23-.27,4,4,0,0,0,.59-.48A8,8,0,0,0,74.13,40a18.31,18.31,0,0,0,1.14-1.81c.56-1,1.06-2,1.53-3.07,1-2.11,1.79-4.27,2.58-6.45C80,26.81,80.66,25,81.26,23.1c0-.1.08-.21.12-.31l0,0s.06,0,.07,0a2.29,2.29,0,0,1,.12.26c.35.94.66,1.89.94,2.84a29.59,29.59,0,0,1,.82,3.47,2.6,2.6,0,0,1,0,.66.62.62,0,0,1-.14.35l-.16.17c-.38.43-.77.85-1.13,1.29a38.61,38.61,0,0,0-4.28,6.51,29.11,29.11,0,0,0-2.15,5.23,19.93,19.93,0,0,0-.79,4.25,12.18,12.18,0,0,0,.18,3.27,9.74,9.74,0,0,0,1.39,3.47,8.08,8.08,0,0,0,1.53,1.75,6.91,6.91,0,0,0,3.31,1.59.34.34,0,0,1,.21.1h1.9a.31.31,0,0,1,.21-.1,5.45,5.45,0,0,0,2.85-1.53,7.71,7.71,0,0,0,.92-1.09,11.13,11.13,0,0,0,.86-1.48A21.74,21.74,0,0,0,89,51.64a13.47,13.47,0,0,0,.72-3.29,19.15,19.15,0,0,0,.12-2.09c0-.75,0-1.49,0-2.24,0-.19,0-.38,0-.57,0-.65-.09-1.3-.14-1.95s-.14-1.55-.23-2.32-.22-1.67-.34-2.5-.27-1.79-.43-2.68-.34-1.81-.51-2.71c0-.06,0-.13,0-.19a.3.3,0,0,1,.12-.29,8,8,0,0,1,1.58-1l.13-.05a.14.14,0,0,1,.2.12c0,.14,0,.29,0,.43A33.22,33.22,0,0,0,90.28,34a27.21,27.21,0,0,0,.37,2.78A15.52,15.52,0,0,0,91.21,39a8,8,0,0,0,.73,1.6,4.22,4.22,0,0,0,.71.89,2.55,2.55,0,0,0,.66.46,2.27,2.27,0,0,0,1.39.2,2.89,2.89,0,0,0,1.16-.52,5.44,5.44,0,0,0,1-.91,10.17,10.17,0,0,0,.82-1.11,17.66,17.66,0,0,0,1.12-2,32.5,32.5,0,0,0,1.53-3.9c0-.12.09-.24.13-.35h0l0,0a1.19,1.19,0,0,1,0,.18c0,.41.06.82.11,1.23q.11.87.25,1.74a18.53,18.53,0,0,0,.78,3.09,10.8,10.8,0,0,0,.93,2,6.21,6.21,0,0,0,1,1.27,4.1,4.1,0,0,0,.83.63,3.35,3.35,0,0,0,1.92.43,1.31,1.31,0,0,0,.71-.25.9.9,0,0,0,.37-.59,1.3,1.3,0,0,0-.09-.79,2.25,2.25,0,0,0-.24-.41,4,4,0,0,1-.63-1.22,11.79,11.79,0,0,1-.45-1.94,25,25,0,0,1-.28-2.94,47.38,47.38,0,0,1,.1-5.47q.09-1.23.24-2.46c.1-.8.2-1.61.33-2.4.22-1.39.5-2.78.85-4.15a37.14,37.14,0,0,1,1.22-4,3.7,3.7,0,0,1,.41-.8c.11-.16.22-.31.31-.48a2.33,2.33,0,0,0,.19-.38A.54.54,0,0,0,109.24,15Zm-31.8,5.7a3.21,3.21,0,0,1-.08.42,90.59,90.59,0,0,1-2.81,8.93c-.34.9-.72,1.8-1.14,2.67a12.07,12.07,0,0,1-.84,1.49,4,4,0,0,1-.64.76,1.34,1.34,0,0,1-.53.31.45.45,0,0,1-.5-.18,1,1,0,0,1-.17-.39c0-.22-.07-.44-.09-.66s0-.32,0-.48a9,9,0,0,1,.12-1.52,28.78,28.78,0,0,1,1.68-6.33,19.82,19.82,0,0,1,1.14-2.46,10.13,10.13,0,0,1,1-1.55c.19-.23.4-.45.61-.67a3.54,3.54,0,0,1,.72-.55,2.42,2.42,0,0,1,.84-.31,1.21,1.21,0,0,1,.38,0,.34.34,0,0,1,.29.27A.68.68,0,0,1,77.44,20.72ZM85.58,45c0,.68-.08,1.36-.16,2a15.51,15.51,0,0,1-.4,2.2,8.88,8.88,0,0,1-.57,1.56,5.45,5.45,0,0,1-.59,1,3.37,3.37,0,0,1-.64.64,2.13,2.13,0,0,1-.86.39,1.32,1.32,0,0,1-1.16-.29,2,2,0,0,1-.42-.51,3.3,3.3,0,0,1-.34-.78,4.68,4.68,0,0,1-.22-1.36c0-.51,0-1,0-1.52a16.82,16.82,0,0,1,.23-2,29,29,0,0,1,2.77-8.22c.35-.71.73-1.41,1.15-2.08.08-.14.17-.27.26-.4s.08,0,.14,0a5.35,5.35,0,0,1,.13.61c.17,1,.3,2,.41,3A41,41,0,0,1,85.58,45Zm16.3-24.93c0,.13,0,.25-.05.38-.19,1-.43,2-.71,3a40.7,40.7,0,0,1-1.83,5.25A21.38,21.38,0,0,1,98,31.27a10.85,10.85,0,0,1-.86,1.25,5.36,5.36,0,0,1-.8.81,2.5,2.5,0,0,1-.73.43,1.47,1.47,0,0,1-.89.07.73.73,0,0,1-.42-.29,1.42,1.42,0,0,1-.22-.52,4.9,4.9,0,0,1-.11-.7,7.79,7.79,0,0,1,0-1.38,18.41,18.41,0,0,1,2-6.7,11.54,11.54,0,0,1,1.39-2.1,7.63,7.63,0,0,1,1.27-1.22,5,5,0,0,1,1.83-.89,4.58,4.58,0,0,1,1-.14l.25,0A.16.16,0,0,1,101.88,20.09Z" />
        <path style="fill: #a01f3c" d="M.4,33.58c0,.21,0,.41,0,.62q0,1.26.19,2.51a16.74,16.74,0,0,0,.59,2.84,11.85,11.85,0,0,0,1.32,2.94A8.21,8.21,0,0,0,3.79,44a5.89,5.89,0,0,0,1.64,1.13,3.88,3.88,0,0,0,1.9.35,2.73,2.73,0,0,0,1.26-.4,2.11,2.11,0,0,0,.56-.51A1.58,1.58,0,0,0,9.44,44a.66.66,0,0,0-.15-.66,4.64,4.64,0,0,1-.8-1.23c-.13-.27-.25-.55-.36-.83a19,19,0,0,1-.93-3.24A32.16,32.16,0,0,1,6.63,34c-.07-.89-.12-1.77-.12-2.66,0-1.51,0-3,.09-4.52,0-.63.07-1.27.13-1.9s.15-1.48.24-2.22.2-1.54.32-2.31c.24-1.47.55-2.93.93-4.37a38,38,0,0,1,1.89-5.58,23,23,0,0,1,1.72-3.28A12.7,12.7,0,0,1,13,5.58a6.92,6.92,0,0,1,1-.92,4.11,4.11,0,0,1,.64-.41A2.43,2.43,0,0,1,15.3,4a.68.68,0,0,1,.64.23,1.34,1.34,0,0,1,.21.31,3,3,0,0,1,.19.49,5.62,5.62,0,0,1,.2,1.22,18,18,0,0,1-.12,3.18A30,30,0,0,1,15.75,13a38.84,38.84,0,0,1-4,9.93,8,8,0,0,1-1,1.42l-.91,1-.55.6a.45.45,0,0,0-.11.3,1.86,1.86,0,0,0,.16.74,5.64,5.64,0,0,0,1.5,2.17,4.1,4.1,0,0,0,.7.5,2.94,2.94,0,0,0,1.93.36,1.46,1.46,0,0,0,1.11-.74c.06-.11.12-.22.18-.34a28.61,28.61,0,0,1,5.47-7.39,20.46,20.46,0,0,1,2.55-2.14,12.91,12.91,0,0,1,2.18-1.26,7.06,7.06,0,0,1,2-.58,2.39,2.39,0,0,1,.8,0,1.94,1.94,0,0,1,1.11.69,2.84,2.84,0,0,1,.51,1,5.59,5.59,0,0,1,.23,2,8.8,8.8,0,0,1-.41,2.19,18.4,18.4,0,0,1-1.92,4.13.84.84,0,0,1-.35.31c-.59.31-1.16.66-1.72,1-1.31.83-2.6,1.71-3.86,2.62-2.25,1.61-4.44,3.28-6.55,5.07-.94.8-1.86,1.63-2.73,2.51a15.15,15.15,0,0,0-1.23,1.39,5.66,5.66,0,0,0-.55.84,2.35,2.35,0,0,0-.2.53.91.91,0,0,0,0,.38,10.07,10.07,0,0,0,.86,2.66,5.5,5.5,0,0,0,.63,1,3.37,3.37,0,0,0,.64.63,2,2,0,0,0,1.24.41,4.62,4.62,0,0,0,.9-.09,8.8,8.8,0,0,0,2.1-.76,17.9,17.9,0,0,0,2.48-1.51,31.35,31.35,0,0,0,3-2.44A45.76,45.76,0,0,0,26.6,37a40.47,40.47,0,0,0,3.21-4.6c.19-.31.36-.64.54-.95a3.16,3.16,0,0,1,.27-.39.71.71,0,0,1,.44-.27c.29,0,.36,0,.36.28s0,.32,0,.48a27.85,27.85,0,0,0,.08,3,21.08,21.08,0,0,0,.42,2.73,13.9,13.9,0,0,0,1,3,8.82,8.82,0,0,0,1.23,1.92,6,6,0,0,0,1.2,1.08,4.69,4.69,0,0,0,5,.19,6.46,6.46,0,0,0,1.32-1A9.87,9.87,0,0,0,43,40.71,16.48,16.48,0,0,0,44.41,38a25.93,25.93,0,0,0,1.24-3.84,30.74,30.74,0,0,0,.65-3.6c.08-.66.13-1.33.15-2a20.91,20.91,0,0,0-.1-2.95,16.23,16.23,0,0,0-.5-2.61,12.81,12.81,0,0,0-2.21-4.5,2.51,2.51,0,0,1-.29-.49,7.35,7.35,0,0,0-.93-1.49,5.56,5.56,0,0,0-1.13-1.08,4.1,4.1,0,0,0-1.24-.6,3.21,3.21,0,0,0-2.82.44,5.36,5.36,0,0,0-.73.6,8.57,8.57,0,0,0-1.21,1.53,14.6,14.6,0,0,0-1.12,2.15l-.17.39a.17.17,0,0,1-.07.06h0a1.24,1.24,0,0,1,0-.23,7.33,7.33,0,0,0-.19-1.51,6.57,6.57,0,0,0-3.26-4.42,7.53,7.53,0,0,0-3.17-.95,10.23,10.23,0,0,0-3.07.23,10.94,10.94,0,0,0-4.32,2l-.2.13h0s-.06,0-.05-.06,0-.25.07-.37c.24-1,.46-1.94.64-2.93.11-.64.21-1.28.29-1.93s.13-1.17.15-1.75a18.55,18.55,0,0,0-.07-2.85,11.61,11.61,0,0,0-.44-2.14,6.5,6.5,0,0,0-.76-1.64A4.11,4.11,0,0,0,18.65.7,2.45,2.45,0,0,0,17.37.12L17,.08A1.63,1.63,0,0,1,16.82,0h-.38a.82.82,0,0,1-.37.09A7.48,7.48,0,0,0,13.24,1a11.58,11.58,0,0,0-1.91,1.33A17.73,17.73,0,0,0,9.1,4.63a28.65,28.65,0,0,0-3,4.43,42.32,42.32,0,0,0-2.83,6.39,50.54,50.54,0,0,0-1.84,6.64c-.22,1.09-.42,2.18-.57,3.28-.11.8-.21,1.6-.28,2.41s-.16,1.9-.19,2.85c0,.17,0,.35,0,.52C.39,31.14.4,32.16.4,33.58ZM42.29,26A17.57,17.57,0,0,1,41.8,30a26.19,26.19,0,0,1-1.54,4.64,13.92,13.92,0,0,1-.88,1.69,7.22,7.22,0,0,1-.7,1A3.47,3.47,0,0,1,38,38a1.63,1.63,0,0,1-.7.28h0a.75.75,0,0,1-.86-.44,3,3,0,0,1-.23-.62,6.52,6.52,0,0,1-.18-1A16.75,16.75,0,0,1,35.91,33c0-.46.06-.92.13-1.37a12.94,12.94,0,0,1,.48-2.28,5.65,5.65,0,0,1,.36-.88,1.88,1.88,0,0,1,.91-.87,6.91,6.91,0,0,1,1.58-.49,6.83,6.83,0,0,1,1-.12l.33,0c.23,0,.33-.06.33-.36a3.28,3.28,0,0,0-.73-2.11,2,2,0,0,0-1.15-.71l-.37-.07a.13.13,0,0,1-.09-.18,5.53,5.53,0,0,1,1-1.63,2.41,2.41,0,0,1,.5-.44,1.54,1.54,0,0,1,.57-.23.54.54,0,0,1,.45.11,1.22,1.22,0,0,1,.28.32,3.41,3.41,0,0,1,.3.64,8.08,8.08,0,0,1,.37,1.52A13.61,13.61,0,0,1,42.29,26Z" />
        <path style="fill: #a01f3c" d="M239.58,21.1c0,.06-.06.11-.07.17s0,.19,0,.28,0,.22,0,.33a9.27,9.27,0,0,1-.25,2,17.86,17.86,0,0,1-3,6.82,20.17,20.17,0,0,1-8.62,6.91,16.25,16.25,0,0,1-3.64,1.07,13.24,13.24,0,0,1-2.75.2c-.33,0-.66-.05-1-.08s-.33,0-.45.29a18.38,18.38,0,0,1-1.59,3.13,25.86,25.86,0,0,1-4.4,5.35,17.61,17.61,0,0,1-2.64,2,11.55,11.55,0,0,1-2.4,1.15,7.86,7.86,0,0,1-2,.4,5.71,5.71,0,0,1-2.16-.29,1.3,1.3,0,0,1-.18-.09.39.39,0,0,1,0-.13c.08-.12.18-.22.27-.33a26.07,26.07,0,0,0,4.88-9.24,20.44,20.44,0,0,0,.69-3.26,12.93,12.93,0,0,0,.12-1.76,9.89,9.89,0,0,0-.1-1.14l0-.09a1.69,1.69,0,0,0-1.61-1.44,4.48,4.48,0,0,0-1.28,0,12.1,12.1,0,0,0-2.33.67,26.8,26.8,0,0,0-2.73,1.24q-1.25.64-2.45,1.38l-.37.21a.12.12,0,0,1-.15-.07,2.54,2.54,0,0,1-.1-.7,3,3,0,0,1,.15-.84,4,4,0,0,1,.56-1.1A7.08,7.08,0,0,1,201,33a12.15,12.15,0,0,1,2.22-1.56,16.12,16.12,0,0,1,4.43-1.68,10.48,10.48,0,0,1,2.79-.23,5.56,5.56,0,0,1,1.26.22A2.79,2.79,0,0,1,213.36,31a4.49,4.49,0,0,1,.48,1,7.7,7.7,0,0,1,.31,1.49,10.44,10.44,0,0,1,.06,1.57,16.57,16.57,0,0,1-.22,2.13,21.86,21.86,0,0,1-2.16,6.38c0,.08-.09.17-.12.26a.17.17,0,0,0,0,.09s.07,0,.12,0l.4-.26a13,13,0,0,0,2.18-2,19,19,0,0,0,1.84-2.48,28,28,0,0,0,2.46-5c.21-.55.39-1.11.58-1.66a.94.94,0,0,1,.14-.34.41.41,0,0,1,.24,0,7.7,7.7,0,0,0,2.72-.34,14,14,0,0,0,3.35-1.47,14.73,14.73,0,0,0,4.13-3.62A13.12,13.12,0,0,0,232.47,21a13.81,13.81,0,0,0,.24-2.7A13,13,0,0,0,229,9.2a14.19,14.19,0,0,0-5.49-3.5,16.71,16.71,0,0,0-3.13-.78,17.54,17.54,0,0,0-4-.14,16.78,16.78,0,0,0-5.47,1.36,20.1,20.1,0,0,0-5,3.13,26.85,26.85,0,0,0-4.45,4.87A33.84,33.84,0,0,0,199.09,18c-.07.13-.13.25-.21.37a.28.28,0,0,1-.24.13,1.12,1.12,0,0,1-.47-.07,3,3,0,0,1-1.4-1.1,1.89,1.89,0,0,1-.34-1.12,5.4,5.4,0,0,1,.25-1.5,9,9,0,0,1,.66-1.58,14.59,14.59,0,0,1,1.46-2.23,21.45,21.45,0,0,1,3.3-3.35,26.42,26.42,0,0,1,10.5-5.29,24.63,24.63,0,0,1,2.95-.53A26.71,26.71,0,0,1,220,1.57c.86,0,1.71.12,2.56.24a27.23,27.23,0,0,1,3.77.78,21.35,21.35,0,0,1,4.82,2,16.84,16.84,0,0,1,3.92,3.07,15.83,15.83,0,0,1,3.53,6,19.57,19.57,0,0,1,.78,3.52,11.19,11.19,0,0,1,.08,1.14c0,.22,0,.44,0,.67a1.69,1.69,0,0,0,.08.51V21A.12.12,0,0,1,239.58,21.1Z" />
        <path style="fill: #a01f3c" d="M195,38.28a13.43,13.43,0,0,0-.3-2.31,27.93,27.93,0,0,0-1-3.29c-.49-1.39-1.05-2.76-1.61-4.12s-1-2.49-1.52-3.75a22,22,0,0,1-.85-2.57,7.86,7.86,0,0,1-.26-2.17,14,14,0,0,1,.36-2.83,5.08,5.08,0,0,1,.44-1.3,1.08,1.08,0,0,0,.08-.92,2.48,2.48,0,0,0-.21-.48,2.09,2.09,0,0,0-1.69-1,2.51,2.51,0,0,0-1.58.41,3.46,3.46,0,0,0-.93.88,5.35,5.35,0,0,0-.7,1.3,9.35,9.35,0,0,0-.57,2.93,7.34,7.34,0,0,1-.13,1.09c-.06.31-.14.62-.22.93-.28,1.11-.63,2.19-1,3.27a39.63,39.63,0,0,1-1.61,4,13.42,13.42,0,0,1-.82,1.5c-.09.13-.18.26-.28.39a.17.17,0,0,1-.16.07c-.06,0-.12-.09-.11-.19s0-.29,0-.43c0-.38.07-.76.11-1.14.09-.9.14-1.8.15-2.71a30.22,30.22,0,0,0-.16-3.85,18.39,18.39,0,0,0-.41-2.39,9.43,9.43,0,0,0-.56-1.67,5.13,5.13,0,0,0-.63-1.06,2.83,2.83,0,0,0-.65-.62,2,2,0,0,0-1-.34,3.48,3.48,0,0,0-1.87.45,4.54,4.54,0,0,0-.95.71,6.73,6.73,0,0,0-.85,1,10.37,10.37,0,0,0-.84,1.49,16.32,16.32,0,0,0-.94,2.59c0,.12-.07.24-.11.36s0,0-.06.06,0,0,0-.06,0-.29,0-.43a15.17,15.17,0,0,0-.29-3,10.46,10.46,0,0,0-.66-2.18,6.11,6.11,0,0,0-.76-1.31,3.82,3.82,0,0,0-.9-.85,2.91,2.91,0,0,0-1.71-.49,4.39,4.39,0,0,0-1.53.31,5.46,5.46,0,0,0-1.78,1.17,7.8,7.8,0,0,0-1.22,1.52,10.65,10.65,0,0,0-1.31,3.2l-.14.55,0,0a0,0,0,0,1,0,0c-.06-.44-.07-.88-.1-1.33a12.26,12.26,0,0,0-.31-2.07,6.55,6.55,0,0,0-.55-1.52,3.9,3.9,0,0,0-.62-.9,3,3,0,0,0-2.77-.94,3.86,3.86,0,0,0-1.62.65,2.52,2.52,0,0,0-.47.4,1.44,1.44,0,0,0-.4,1c0,.65,0,1.3-.09,1.95s-.14,1.49-.24,2.22c-.14,1-.32,2-.53,3A44.32,44.32,0,0,1,152,28.81a26.28,26.28,0,0,1-1.42,3.43,12.62,12.62,0,0,1-.69,1.2,6.47,6.47,0,0,1-.6.8,3.13,3.13,0,0,1-.53.48,1.55,1.55,0,0,1-.47.23.68.68,0,0,1-.79-.28,1.51,1.51,0,0,1-.16-.29,3.34,3.34,0,0,1-.13-.41,5.79,5.79,0,0,1-.18-1.22,20.28,20.28,0,0,1,.12-3.33q.13-1.13.34-2.26a29.56,29.56,0,0,1,1-3.87,16.51,16.51,0,0,1,1.3-3,.72.72,0,0,0,.1-.81,2.27,2.27,0,0,0-.55-.93,3.29,3.29,0,0,0-.55-.45l-.26-.2c0-.19,0-.36,0-.53a1.69,1.69,0,0,0-.91-1.37l-.13-.07a6.59,6.59,0,0,0-4.71-.6,8,8,0,0,0-2.2.88,11.07,11.07,0,0,0-2.23,1.7,16.51,16.51,0,0,0-2.36,2.92A25.4,25.4,0,0,0,134,24.41a39.1,39.1,0,0,0-1.81,5.16c-.1.35-.19.71-.31,1a28.68,28.68,0,0,1-1.73,4A19,19,0,0,1,128.65,37a11.54,11.54,0,0,1-1.27,1.48,7.11,7.11,0,0,1-1.32,1,4.65,4.65,0,0,1-1.74.61,2.17,2.17,0,0,1-1.88-.59A4.64,4.64,0,0,1,122,39a5.5,5.5,0,0,1-.6-1,11.16,11.16,0,0,1-.56-1.46,24.44,24.44,0,0,1-.86-4.19c0-.38-.09-.76-.12-1.14-.06-.66-.12-1.33-.15-2-.07-1.3,0-2.6,0-3.9,0-.11,0-.22,0-.33,0-.59.1-1.17.14-1.75.07-.89.19-1.77.33-2.64q.25-1.62.64-3.22a32.07,32.07,0,0,1,2-5.79,22.09,22.09,0,0,1,2.27-3.9A13,13,0,0,1,126.47,6a6.8,6.8,0,0,1,.88-.73,3.16,3.16,0,0,1,.62-.34,1.21,1.21,0,0,1,.42-.09.76.76,0,0,1,.68.36,1.5,1.5,0,0,1,.23.57,4.51,4.51,0,0,1,.09.9,9.65,9.65,0,0,1-.12,1.28,15.37,15.37,0,0,1-.55,2.31,20.68,20.68,0,0,1-2.83,5.84,3.76,3.76,0,0,0-.23.41.71.71,0,0,0-.05.13.35.35,0,0,0,.22.46l0,0a2.36,2.36,0,0,0,.9.08,4.41,4.41,0,0,0,1-.22,6,6,0,0,0,1-.47,9.43,9.43,0,0,0,1.76-1.38A14.93,14.93,0,0,0,133,11.81a11.73,11.73,0,0,0,.86-1.85,7.26,7.26,0,0,0,.36-1.38,12.35,12.35,0,0,0,.1-2.18,7.94,7.94,0,0,0-.21-1.6A6.25,6.25,0,0,0,133,2.35,4.92,4.92,0,0,0,130.63.67,6.2,6.2,0,0,0,128,.42a8.48,8.48,0,0,0-2.17.51,11.75,11.75,0,0,0-3,1.7,16.63,16.63,0,0,0-2.75,2.69,23.11,23.11,0,0,0-2.71,4.19A32.34,32.34,0,0,0,114.74,17c-.22,1-.4,1.93-.55,2.9-.08.52-.15,1-.2,1.56s-.09,1-.13,1.47c-.09.93-.13,1.87-.15,2.8s0,1.74.06,2.62.13,1.68.24,2.51.27,1.76.45,2.62a24.86,24.86,0,0,0,1.15,3.87,15.4,15.4,0,0,0,1.7,3.23,10.15,10.15,0,0,0,1.47,1.68,7.7,7.7,0,0,0,3,1.72,8.55,8.55,0,0,0,1.92.33,5.72,5.72,0,0,0,1.61-.13,6.91,6.91,0,0,0,2.22-.94,10.52,10.52,0,0,0,1.71-1.37A16.36,16.36,0,0,0,130.9,40c.4-.53.77-1.09,1.13-1.65.08-.12.15-.24.24-.35s.08,0,.14,0l.14.46a7.32,7.32,0,0,0,.85,1.91,5,5,0,0,0,.82,1,3.73,3.73,0,0,0,2.45,1,3,3,0,0,0,1.69-.4,6.41,6.41,0,0,0,.63-.42,6.18,6.18,0,0,0,1-.93,11.58,11.58,0,0,0,1.18-1.67,16.06,16.06,0,0,0,1-2.09c0-.1.09-.2.14-.3h0l0,0a1,1,0,0,1,.08.17c.08.24.14.49.22.73a10.53,10.53,0,0,0,1.21,2.53,6.24,6.24,0,0,0,1.09,1.25,4.09,4.09,0,0,0,1.21.75,3.47,3.47,0,0,0,3.28-.29,5.74,5.74,0,0,0,.89-.71,9.39,9.39,0,0,0,1.14-1.34,16.11,16.11,0,0,0,1-1.7,28,28,0,0,0,1.35-2.94,53.25,53.25,0,0,0,2.08-6.57c.21-.85.42-1.69.59-2.55a.62.62,0,0,1,.07-.17s0,0,.08,0l0,0a.87.87,0,0,1,.1.21,4.57,4.57,0,0,1,.11.85c0,.59,0,1.17,0,1.76,0,.38,0,.76,0,1.14,0,.59-.09,1.17-.14,1.76,0,.43-.07.85-.13,1.28-.13,1-.26,1.92-.43,2.87a35.33,35.33,0,0,1-.91,3.89,3.79,3.79,0,0,0-.1.41,1,1,0,0,0,0,.28,2.33,2.33,0,0,0,.2.73,3.25,3.25,0,0,0,.6.85,4.37,4.37,0,0,0,1.4,1,6.63,6.63,0,0,0,3.07.51,1.24,1.24,0,0,0,.91-.46,1.53,1.53,0,0,0,.41-1.18c0-.24-.06-.47-.07-.71,0-1.16-.1-2.32-.07-3.47,0-.51,0-1,0-1.52,0-.86.1-1.71.13-2.57,0,0,0-.09,0-.14,0-.52.09-1,.14-1.56.07-.69.14-1.39.23-2.08s.22-1.47.35-2.21a27.15,27.15,0,0,1,.68-3,14.12,14.12,0,0,1,.74-2.06,6.71,6.71,0,0,1,.64-1.11,3.36,3.36,0,0,1,.58-.63A1.84,1.84,0,0,1,166,20a.72.72,0,0,1,.68.25,1.46,1.46,0,0,1,.26.45,4.55,4.55,0,0,1,.22.78,9.86,9.86,0,0,1,.16,1.42,25.92,25.92,0,0,1,0,2.9c0,.7-.09,1.39-.15,2.09,0,.47-.08.95-.13,1.42q-.11,1-.24,2c-.1.8-.2,1.61-.33,2.4s-.29,1.78-.44,2.68-.27,1.53-.45,2.29c-.08.35-.18.71-.26,1.06a2.19,2.19,0,0,0,.5,2,3.08,3.08,0,0,0,.61.53,4.34,4.34,0,0,0,1,.51,7.47,7.47,0,0,0,2.72.4,1.72,1.72,0,0,0,.56-.12,1,1,0,0,0,.65-.7,1.36,1.36,0,0,0,0-.61,11.4,11.4,0,0,1-.13-1.42,32.55,32.55,0,0,1,0-3.38c0-.73.07-1.46.13-2.19s.14-1.64.24-2.46.21-1.64.34-2.45c.17-1,.36-2.06.61-3.08a18.14,18.14,0,0,1,.74-2.41,8.4,8.4,0,0,1,.51-1.08,3.49,3.49,0,0,1,.5-.69,1.78,1.78,0,0,1,.49-.37,1,1,0,0,1,1.1.17,2.39,2.39,0,0,1,.29.37,2.73,2.73,0,0,1,.29.65,7.76,7.76,0,0,1,.28,1.3,14,14,0,0,1,.12,2,26,26,0,0,1-.09,2.71c-.05.52-.08,1-.14,1.56-.12,1-.26,2-.44,3a29.72,29.72,0,0,1-1.33,5.15,2,2,0,0,0,0,1.48,2.75,2.75,0,0,0,.54.83,3.44,3.44,0,0,0,.95.71,4.74,4.74,0,0,0,2.3.5,1,1,0,0,0,.72-.31,2.76,2.76,0,0,0,.32-.41,3.13,3.13,0,0,0,.31-.64,7.85,7.85,0,0,0,.37-1.47,15.63,15.63,0,0,0,.22-2.27c0-.19,0-.38,0-.57a.5.5,0,0,1,0-.13l0,0h0A1.43,1.43,0,0,1,181,37a11.2,11.2,0,0,0,.82,1.22,15.27,15.27,0,0,0,3.85,3.52,11.12,11.12,0,0,0,2.25,1.12,7,7,0,0,0,2.66.45,4.68,4.68,0,0,0,1.75-.4,4.1,4.1,0,0,0,2.44-2.87A6.29,6.29,0,0,0,195,38.28ZM144.28,20.83c0,.16,0,.31-.08.47a38.18,38.18,0,0,1-1.29,4.48,41.13,41.13,0,0,1-1.8,4.4,25.62,25.62,0,0,1-1.22,2.26,12.32,12.32,0,0,1-1,1.48,5,5,0,0,1-.74.74,2,2,0,0,1-.62.35.7.7,0,0,1-.91-.39,1.52,1.52,0,0,1-.15-.6c0-.22,0-.44,0-.67a10.3,10.3,0,0,1,.25-2A24,24,0,0,1,139,24.91a15.73,15.73,0,0,1,1.23-2,9.33,9.33,0,0,1,1.06-1.22,5.19,5.19,0,0,1,.94-.72,3,3,0,0,1,1.07-.39,1.87,1.87,0,0,1,.89.09A.18.18,0,0,1,144.28,20.83Zm45.31,14.74a3.24,3.24,0,0,1-.13.41,1.73,1.73,0,0,1-1.56,1.07,2.45,2.45,0,0,1-.93-.15,4.08,4.08,0,0,1-.9-.42,8.11,8.11,0,0,1-2.59-2.55,4.89,4.89,0,0,1-.29-.55,1,1,0,0,1,0-.83c.33-.79.63-1.59,1-2.38l2.1-5.15c.06-.15.12-.29.19-.43a.27.27,0,0,1,.1-.09s.09,0,.14.1l0,.08.06.13A41.16,41.16,0,0,1,189,30.71a19.7,19.7,0,0,1,.5,2.08,8.09,8.09,0,0,1,.16,1.49A4.57,4.57,0,0,1,189.59,35.58Z" />
        <path style="fill: #a01f3c" d="M224.88,13.26a3.14,3.14,0,0,1-1.74,2.08,6.78,6.78,0,0,1-.71.28c-.68.23-1.37.4-2.06.56-1.56.36-3.13.68-4.7,1l-4.72.86-1.77.34-.33.05a.18.18,0,0,1-.17-.07,3.24,3.24,0,0,1-.24-.36,3.44,3.44,0,0,1-.28-.71,8.5,8.5,0,0,1-.26-3.3,3.84,3.84,0,0,1,.18-.83,2.94,2.94,0,0,1,.35-.73.33.33,0,0,1,.28-.15H209l1.57,0,3.18.15.9,0,1.09,0h.14l2.57.12,3,.16h.14l2.42.13c.24,0,.47,0,.71.07S224.92,13.14,224.88,13.26Z" />
        <path style="fill: #a01f3c" d="M224.89,20.9a2.59,2.59,0,0,1-1,1.49,3.55,3.55,0,0,1-.89.44c-.57.19-1.15.34-1.74.48-1.23.29-2.47.55-3.72.78l-4.72.87-1.26.25a.29.29,0,0,1-.32-.14,2.58,2.58,0,0,1-.27-.55,5.08,5.08,0,0,1-.26-1.06c-.05-.38-.08-.76-.11-1.06a7,7,0,0,1,.18-1.44,2.88,2.88,0,0,1,.27-.66.39.39,0,0,1,.38-.23h.24l1.47,0,3.28.15h.14l3,.13,2.56.15h.24l2.23.12.24,0A.15.15,0,0,1,224.89,20.9Z" />
    </g>
    <g id="white" class="sprite">
        <path style="fill: #fff" d="M239.58,21v.05A.12.12,0,0,0,239.58,21Z" />
        <path style="fill: #fff" d="M109.24,15l-.2-.13-.43-.21a6.08,6.08,0,0,0-2.78-.5,4.88,4.88,0,0,0-1.26.22,2.7,2.7,0,0,0-.69.32,1.06,1.06,0,0,0-.5.61l0,0a.38.38,0,0,1-.47.23l-.37-.1a12,12,0,0,0-1.62-.38,6.34,6.34,0,0,0-2.46.08,6.92,6.92,0,0,0-2.6,1.25,9.78,9.78,0,0,0-1.52,1.44,14.67,14.67,0,0,0-1.7,2.46,23.31,23.31,0,0,0-2,4.79c-.17.59-.09.48-.62.66a18.21,18.21,0,0,0-2.72,1.14l-.13.06a.14.14,0,0,1-.16-.07c-.08-.29-.16-.58-.24-.87-.35-1.38-.75-2.75-1.24-4.1A25.85,25.85,0,0,0,84,18.46a13.35,13.35,0,0,0-1-1.54,7.74,7.74,0,0,0-.93-1.08,4.69,4.69,0,0,0-.83-.64,3.15,3.15,0,0,0-1.06-.4,1.77,1.77,0,0,0-1.32.27,1,1,0,0,0-.46.64c0,.09,0,.19-.07.28a.43.43,0,0,1-.43.32l-.38,0c-.27,0-.53-.1-.8-.13a8.52,8.52,0,0,0-1.66,0l-.23,0a4.91,4.91,0,0,0-1.78.76,7.07,7.07,0,0,0-1,.84,11.34,11.34,0,0,0-1.65,2.09,19,19,0,0,0-1.36,2.62A32.27,32.27,0,0,0,67,29.72c-.18,1-.3,2-.4,3.07,0,.24-.05.47-.09.71a4.35,4.35,0,0,1-.19.79,1.61,1.61,0,0,1-.24.46.72.72,0,0,1-.39.26.23.23,0,0,1-.3-.16.93.93,0,0,1,0-.18c0-.33-.08-.66-.09-1,0-1.14-.07-2.28-.11-3.43,0-.71-.06-1.43-.12-2.14s-.14-1.58-.24-2.37a28,28,0,0,0-.5-2.81,14.77,14.77,0,0,0-.75-2.35,8.56,8.56,0,0,0-.94-1.71,5.26,5.26,0,0,0-1-1.07,4.08,4.08,0,0,0-2.9-.86,4.1,4.1,0,0,0-2.31.91,6.87,6.87,0,0,0-1.26,1.29,10.62,10.62,0,0,0-1.18,2c-.13.27-.24.55-.36.83a.66.66,0,0,1-.06.13.13.13,0,0,1-.08,0s-.05,0-.06-.06c0-.25,0-.51,0-.76a11.34,11.34,0,0,0-.54-2.31,8.57,8.57,0,0,0-.86-1.8,5.18,5.18,0,0,0-.88-1.06,3.51,3.51,0,0,0-1.76-.88,2.74,2.74,0,0,0-2.85,1.29,1.08,1.08,0,0,0-.16.42c0,.08.09.18.15.27a8.23,8.23,0,0,1,.78,1.52,12.24,12.24,0,0,1,.55,1.82,21,21,0,0,1,.41,2.63c.08.89.12,1.77.15,2.66,0,1.25,0,2.51-.1,3.76,0,.46-.06.92-.1,1.38-.07.79-.15,1.58-.24,2.37s-.21,1.76-.33,2.64-.22,1.47-.34,2.21c-.15.89-.3,1.78-.46,2.67,0,.23-.08.47-.12.7a.31.31,0,0,0,.07.27c.09.11.18.22.28.32a5.09,5.09,0,0,0,1.61,1.08,5.27,5.27,0,0,0,2.42.39,2.12,2.12,0,0,0,1-.34,1.07,1.07,0,0,0,.54-.89c0-.71.13-1.42.19-2.13s.15-1.58.22-2.37q0-.47.1-.95c.08-.68.16-1.35.25-2s.2-1.64.33-2.45.29-1.75.45-2.63a28,28,0,0,1,.75-3.1,13.71,13.71,0,0,1,.75-2,7.24,7.24,0,0,1,.6-1,4.13,4.13,0,0,1,.63-.71,2.57,2.57,0,0,1,1.26-.63,1.69,1.69,0,0,1,.76,0,1.52,1.52,0,0,1,.78.52,3.14,3.14,0,0,1,.49.87,7.59,7.59,0,0,1,.39,1.42,19.6,19.6,0,0,1,.27,2.84c.06,1.51,0,3-.1,4.52,0,.4-.05.79-.08,1.19s-.08.95-.12,1.42-.1,1-.14,1.47-.1,1.14-.16,1.71a3,3,0,0,0,0,.66c0,.14,0,.28,0,.43a5.18,5.18,0,0,0,.21,1.07,3.53,3.53,0,0,0,.39.87,2.59,2.59,0,0,0,1.57,1.16,3.81,3.81,0,0,0,1,.11,2.38,2.38,0,0,0,1.06-.25,3.33,3.33,0,0,0,.9-.62,8.71,8.71,0,0,0,.62-.66,8.27,8.27,0,0,0,1-1.56c.17-.34.32-.69.49-1a.74.74,0,0,1,.1-.16.08.08,0,0,1,.08,0,1.06,1.06,0,0,1,.07.17,5.28,5.28,0,0,0,1,1.7,4.93,4.93,0,0,0,1,.9,4,4,0,0,0,1.64.59,1.75,1.75,0,0,0,1.23-.27,4,4,0,0,0,.59-.48A8,8,0,0,0,74.13,40a18.31,18.31,0,0,0,1.14-1.81c.56-1,1.06-2,1.53-3.07,1-2.11,1.79-4.27,2.58-6.45C80,26.81,80.66,25,81.26,23.1c0-.1.08-.21.12-.31l0,0s.06,0,.07,0a2.29,2.29,0,0,1,.12.26c.35.94.66,1.89.94,2.84a29.59,29.59,0,0,1,.82,3.47,2.6,2.6,0,0,1,0,.66.62.62,0,0,1-.14.35l-.16.17c-.38.43-.77.85-1.13,1.29a38.61,38.61,0,0,0-4.28,6.51,29.11,29.11,0,0,0-2.15,5.23,19.93,19.93,0,0,0-.79,4.25,12.18,12.18,0,0,0,.18,3.27,9.74,9.74,0,0,0,1.39,3.47,8.08,8.08,0,0,0,1.53,1.75,6.91,6.91,0,0,0,3.31,1.59.34.34,0,0,1,.21.1h1.9a.31.31,0,0,1,.21-.1,5.45,5.45,0,0,0,2.85-1.53,7.71,7.71,0,0,0,.92-1.09,11.13,11.13,0,0,0,.86-1.48A21.74,21.74,0,0,0,89,51.64a13.47,13.47,0,0,0,.72-3.29,19.15,19.15,0,0,0,.12-2.09c0-.75,0-1.49,0-2.24,0-.19,0-.38,0-.57,0-.65-.09-1.3-.14-1.95s-.14-1.55-.23-2.32-.22-1.67-.34-2.5-.27-1.79-.43-2.68-.34-1.81-.51-2.71c0-.06,0-.13,0-.19a.3.3,0,0,1,.12-.29,8,8,0,0,1,1.58-1l.13-.05a.14.14,0,0,1,.2.12c0,.14,0,.29,0,.43A33.22,33.22,0,0,0,90.28,34a27.21,27.21,0,0,0,.37,2.78A15.52,15.52,0,0,0,91.21,39a8,8,0,0,0,.73,1.6,4.22,4.22,0,0,0,.71.89,2.55,2.55,0,0,0,.66.46,2.27,2.27,0,0,0,1.39.2,2.89,2.89,0,0,0,1.16-.52,5.44,5.44,0,0,0,1-.91,10.17,10.17,0,0,0,.82-1.11,17.66,17.66,0,0,0,1.12-2,32.5,32.5,0,0,0,1.53-3.9c0-.12.09-.24.13-.35h0l0,0a1.19,1.19,0,0,1,0,.18c0,.41.06.82.11,1.23q.11.87.25,1.74a18.53,18.53,0,0,0,.78,3.09,10.8,10.8,0,0,0,.93,2,6.21,6.21,0,0,0,1,1.27,4.1,4.1,0,0,0,.83.63,3.35,3.35,0,0,0,1.92.43,1.31,1.31,0,0,0,.71-.25.9.9,0,0,0,.37-.59,1.3,1.3,0,0,0-.09-.79,2.25,2.25,0,0,0-.24-.41,4,4,0,0,1-.63-1.22,11.79,11.79,0,0,1-.45-1.94,25,25,0,0,1-.28-2.94,47.38,47.38,0,0,1,.1-5.47q.09-1.23.24-2.46c.1-.8.2-1.61.33-2.4.22-1.39.5-2.78.85-4.15a37.14,37.14,0,0,1,1.22-4,3.7,3.7,0,0,1,.41-.8c.11-.16.22-.31.31-.48a2.33,2.33,0,0,0,.19-.38A.54.54,0,0,0,109.24,15Zm-31.8,5.7a3.21,3.21,0,0,1-.08.42,90.59,90.59,0,0,1-2.81,8.93c-.34.9-.72,1.8-1.14,2.67a12.07,12.07,0,0,1-.84,1.49,4,4,0,0,1-.64.76,1.34,1.34,0,0,1-.53.31.45.45,0,0,1-.5-.18,1,1,0,0,1-.17-.39c0-.22-.07-.44-.09-.66s0-.32,0-.48a9,9,0,0,1,.12-1.52,28.78,28.78,0,0,1,1.68-6.33,19.82,19.82,0,0,1,1.14-2.46,10.13,10.13,0,0,1,1-1.55c.19-.23.4-.45.61-.67a3.54,3.54,0,0,1,.72-.55,2.42,2.42,0,0,1,.84-.31,1.21,1.21,0,0,1,.38,0,.34.34,0,0,1,.29.27A.68.68,0,0,1,77.44,20.72ZM85.58,45c0,.68-.08,1.36-.16,2a15.51,15.51,0,0,1-.4,2.2,8.88,8.88,0,0,1-.57,1.56,5.45,5.45,0,0,1-.59,1,3.37,3.37,0,0,1-.64.64,2.13,2.13,0,0,1-.86.39,1.32,1.32,0,0,1-1.16-.29,2,2,0,0,1-.42-.51,3.3,3.3,0,0,1-.34-.78,4.68,4.68,0,0,1-.22-1.36c0-.51,0-1,0-1.52a16.82,16.82,0,0,1,.23-2,29,29,0,0,1,2.77-8.22c.35-.71.73-1.41,1.15-2.08.08-.14.17-.27.26-.4s.08,0,.14,0a5.35,5.35,0,0,1,.13.61c.17,1,.3,2,.41,3A41,41,0,0,1,85.58,45Zm16.3-24.93c0,.13,0,.25-.05.38-.19,1-.43,2-.71,3a40.7,40.7,0,0,1-1.83,5.25A21.38,21.38,0,0,1,98,31.27a10.85,10.85,0,0,1-.86,1.25,5.36,5.36,0,0,1-.8.81,2.5,2.5,0,0,1-.73.43,1.47,1.47,0,0,1-.89.07.73.73,0,0,1-.42-.29,1.42,1.42,0,0,1-.22-.52,4.9,4.9,0,0,1-.11-.7,7.79,7.79,0,0,1,0-1.38,18.41,18.41,0,0,1,2-6.7,11.54,11.54,0,0,1,1.39-2.1,7.63,7.63,0,0,1,1.27-1.22,5,5,0,0,1,1.83-.89,4.58,4.58,0,0,1,1-.14l.25,0A.16.16,0,0,1,101.88,20.09Z" />
        <path style="fill: #fff" d="M.4,33.58c0,.21,0,.41,0,.62q0,1.26.19,2.51a16.74,16.74,0,0,0,.59,2.84,11.85,11.85,0,0,0,1.32,2.94A8.21,8.21,0,0,0,3.79,44a5.89,5.89,0,0,0,1.64,1.13,3.88,3.88,0,0,0,1.9.35,2.73,2.73,0,0,0,1.26-.4,2.11,2.11,0,0,0,.56-.51A1.58,1.58,0,0,0,9.44,44a.66.66,0,0,0-.15-.66,4.64,4.64,0,0,1-.8-1.23c-.13-.27-.25-.55-.36-.83a19,19,0,0,1-.93-3.24A32.16,32.16,0,0,1,6.63,34c-.07-.89-.12-1.77-.12-2.66,0-1.51,0-3,.09-4.52,0-.63.07-1.27.13-1.9s.15-1.48.24-2.22.2-1.54.32-2.31c.24-1.47.55-2.93.93-4.37a38,38,0,0,1,1.89-5.58,23,23,0,0,1,1.72-3.28A12.7,12.7,0,0,1,13,5.58a6.92,6.92,0,0,1,1-.92,4.11,4.11,0,0,1,.64-.41A2.43,2.43,0,0,1,15.3,4a.68.68,0,0,1,.64.23,1.34,1.34,0,0,1,.21.31,3,3,0,0,1,.19.49,5.62,5.62,0,0,1,.2,1.22,18,18,0,0,1-.12,3.18A30,30,0,0,1,15.75,13a38.84,38.84,0,0,1-4,9.93,8,8,0,0,1-1,1.42l-.91,1-.55.6a.45.45,0,0,0-.11.3,1.86,1.86,0,0,0,.16.74,5.64,5.64,0,0,0,1.5,2.17,4.1,4.1,0,0,0,.7.5,2.94,2.94,0,0,0,1.93.36,1.46,1.46,0,0,0,1.11-.74c.06-.11.12-.22.18-.34a28.61,28.61,0,0,1,5.47-7.39,20.46,20.46,0,0,1,2.55-2.14,12.91,12.91,0,0,1,2.18-1.26,7.06,7.06,0,0,1,2-.58,2.39,2.39,0,0,1,.8,0,1.94,1.94,0,0,1,1.11.69,2.84,2.84,0,0,1,.51,1,5.59,5.59,0,0,1,.23,2,8.8,8.8,0,0,1-.41,2.19,18.4,18.4,0,0,1-1.92,4.13.84.84,0,0,1-.35.31c-.59.31-1.16.66-1.72,1-1.31.83-2.6,1.71-3.86,2.62-2.25,1.61-4.44,3.28-6.55,5.07-.94.8-1.86,1.63-2.73,2.51a15.15,15.15,0,0,0-1.23,1.39,5.66,5.66,0,0,0-.55.84,2.35,2.35,0,0,0-.2.53.91.91,0,0,0,0,.38,10.07,10.07,0,0,0,.86,2.66,5.5,5.5,0,0,0,.63,1,3.37,3.37,0,0,0,.64.63,2,2,0,0,0,1.24.41,4.62,4.62,0,0,0,.9-.09,8.8,8.8,0,0,0,2.1-.76,17.9,17.9,0,0,0,2.48-1.51,31.35,31.35,0,0,0,3-2.44A45.76,45.76,0,0,0,26.6,37a40.47,40.47,0,0,0,3.21-4.6c.19-.31.36-.64.54-.95a3.16,3.16,0,0,1,.27-.39.71.71,0,0,1,.44-.27c.29,0,.36,0,.36.28s0,.32,0,.48a27.85,27.85,0,0,0,.08,3,21.08,21.08,0,0,0,.42,2.73,13.9,13.9,0,0,0,1,3,8.82,8.82,0,0,0,1.23,1.92,6,6,0,0,0,1.2,1.08,4.69,4.69,0,0,0,5,.19,6.46,6.46,0,0,0,1.32-1A9.87,9.87,0,0,0,43,40.71,16.48,16.48,0,0,0,44.41,38a25.93,25.93,0,0,0,1.24-3.84,30.74,30.74,0,0,0,.65-3.6c.08-.66.13-1.33.15-2a20.91,20.91,0,0,0-.1-2.95,16.23,16.23,0,0,0-.5-2.61,12.81,12.81,0,0,0-2.21-4.5,2.51,2.51,0,0,1-.29-.49,7.35,7.35,0,0,0-.93-1.49,5.56,5.56,0,0,0-1.13-1.08,4.1,4.1,0,0,0-1.24-.6,3.21,3.21,0,0,0-2.82.44,5.36,5.36,0,0,0-.73.6,8.57,8.57,0,0,0-1.21,1.53,14.6,14.6,0,0,0-1.12,2.15l-.17.39a.17.17,0,0,1-.07.06h0a1.24,1.24,0,0,1,0-.23,7.33,7.33,0,0,0-.19-1.51,6.57,6.57,0,0,0-3.26-4.42,7.53,7.53,0,0,0-3.17-.95,10.23,10.23,0,0,0-3.07.23,10.94,10.94,0,0,0-4.32,2l-.2.13h0s-.06,0-.05-.06,0-.25.07-.37c.24-1,.46-1.94.64-2.93.11-.64.21-1.28.29-1.93s.13-1.17.15-1.75a18.55,18.55,0,0,0-.07-2.85,11.61,11.61,0,0,0-.44-2.14,6.5,6.5,0,0,0-.76-1.64A4.11,4.11,0,0,0,18.65.7,2.45,2.45,0,0,0,17.37.12L17,.08A1.63,1.63,0,0,1,16.82,0h-.38a.82.82,0,0,1-.37.09A7.48,7.48,0,0,0,13.24,1a11.58,11.58,0,0,0-1.91,1.33A17.73,17.73,0,0,0,9.1,4.63a28.65,28.65,0,0,0-3,4.43,42.32,42.32,0,0,0-2.83,6.39,50.54,50.54,0,0,0-1.84,6.64c-.22,1.09-.42,2.18-.57,3.28-.11.8-.21,1.6-.28,2.41s-.16,1.9-.19,2.85c0,.17,0,.35,0,.52C.39,31.14.4,32.16.4,33.58ZM42.29,26A17.57,17.57,0,0,1,41.8,30a26.19,26.19,0,0,1-1.54,4.64,13.92,13.92,0,0,1-.88,1.69,7.22,7.22,0,0,1-.7,1A3.47,3.47,0,0,1,38,38a1.63,1.63,0,0,1-.7.28h0a.75.75,0,0,1-.86-.44,3,3,0,0,1-.23-.62,6.52,6.52,0,0,1-.18-1A16.75,16.75,0,0,1,35.91,33c0-.46.06-.92.13-1.37a12.94,12.94,0,0,1,.48-2.28,5.65,5.65,0,0,1,.36-.88,1.88,1.88,0,0,1,.91-.87,6.91,6.91,0,0,1,1.58-.49,6.83,6.83,0,0,1,1-.12l.33,0c.23,0,.33-.06.33-.36a3.28,3.28,0,0,0-.73-2.11,2,2,0,0,0-1.15-.71l-.37-.07a.13.13,0,0,1-.09-.18,5.53,5.53,0,0,1,1-1.63,2.41,2.41,0,0,1,.5-.44,1.54,1.54,0,0,1,.57-.23.54.54,0,0,1,.45.11,1.22,1.22,0,0,1,.28.32,3.41,3.41,0,0,1,.3.64,8.08,8.08,0,0,1,.37,1.52A13.61,13.61,0,0,1,42.29,26Z" />
        <path style="fill: #fff" d="M239.58,21.1c0,.06-.06.11-.07.17s0,.19,0,.28,0,.22,0,.33a9.27,9.27,0,0,1-.25,2,17.86,17.86,0,0,1-3,6.82,20.17,20.17,0,0,1-8.62,6.91,16.25,16.25,0,0,1-3.64,1.07,13.24,13.24,0,0,1-2.75.2c-.33,0-.66-.05-1-.08s-.33,0-.45.29a18.38,18.38,0,0,1-1.59,3.13,25.86,25.86,0,0,1-4.4,5.35,17.61,17.61,0,0,1-2.64,2,11.55,11.55,0,0,1-2.4,1.15,7.86,7.86,0,0,1-2,.4,5.71,5.71,0,0,1-2.16-.29,1.3,1.3,0,0,1-.18-.09.39.39,0,0,1,0-.13c.08-.12.18-.22.27-.33a26.07,26.07,0,0,0,4.88-9.24,20.44,20.44,0,0,0,.69-3.26,12.93,12.93,0,0,0,.12-1.76,9.89,9.89,0,0,0-.1-1.14l0-.09a1.69,1.69,0,0,0-1.61-1.44,4.48,4.48,0,0,0-1.28,0,12.1,12.1,0,0,0-2.33.67,26.8,26.8,0,0,0-2.73,1.24q-1.25.64-2.45,1.38l-.37.21a.12.12,0,0,1-.15-.07,2.54,2.54,0,0,1-.1-.7,3,3,0,0,1,.15-.84,4,4,0,0,1,.56-1.1A7.08,7.08,0,0,1,201,33a12.15,12.15,0,0,1,2.22-1.56,16.12,16.12,0,0,1,4.43-1.68,10.48,10.48,0,0,1,2.79-.23,5.56,5.56,0,0,1,1.26.22A2.79,2.79,0,0,1,213.36,31a4.49,4.49,0,0,1,.48,1,7.7,7.7,0,0,1,.31,1.49,10.44,10.44,0,0,1,.06,1.57,16.57,16.57,0,0,1-.22,2.13,21.86,21.86,0,0,1-2.16,6.38c0,.08-.09.17-.12.26a.17.17,0,0,0,0,.09s.07,0,.12,0l.4-.26a13,13,0,0,0,2.18-2,19,19,0,0,0,1.84-2.48,28,28,0,0,0,2.46-5c.21-.55.39-1.11.58-1.66a.94.94,0,0,1,.14-.34.41.41,0,0,1,.24,0,7.7,7.7,0,0,0,2.72-.34,14,14,0,0,0,3.35-1.47,14.73,14.73,0,0,0,4.13-3.62A13.12,13.12,0,0,0,232.47,21a13.81,13.81,0,0,0,.24-2.7A13,13,0,0,0,229,9.2a14.19,14.19,0,0,0-5.49-3.5,16.71,16.71,0,0,0-3.13-.78,17.54,17.54,0,0,0-4-.14,16.78,16.78,0,0,0-5.47,1.36,20.1,20.1,0,0,0-5,3.13,26.85,26.85,0,0,0-4.45,4.87A33.84,33.84,0,0,0,199.09,18c-.07.13-.13.25-.21.37a.28.28,0,0,1-.24.13,1.12,1.12,0,0,1-.47-.07,3,3,0,0,1-1.4-1.1,1.89,1.89,0,0,1-.34-1.12,5.4,5.4,0,0,1,.25-1.5,9,9,0,0,1,.66-1.58,14.59,14.59,0,0,1,1.46-2.23,21.45,21.45,0,0,1,3.3-3.35,26.42,26.42,0,0,1,10.5-5.29,24.63,24.63,0,0,1,2.95-.53A26.71,26.71,0,0,1,220,1.57c.86,0,1.71.12,2.56.24a27.23,27.23,0,0,1,3.77.78,21.35,21.35,0,0,1,4.82,2,16.84,16.84,0,0,1,3.92,3.07,15.83,15.83,0,0,1,3.53,6,19.57,19.57,0,0,1,.78,3.52,11.19,11.19,0,0,1,.08,1.14c0,.22,0,.44,0,.67a1.69,1.69,0,0,0,.08.51V21A.12.12,0,0,1,239.58,21.1Z" />
        <path style="fill: #fff" d="M195,38.28a13.43,13.43,0,0,0-.3-2.31,27.93,27.93,0,0,0-1-3.29c-.49-1.39-1.05-2.76-1.61-4.12s-1-2.49-1.52-3.75a22,22,0,0,1-.85-2.57,7.86,7.86,0,0,1-.26-2.17,14,14,0,0,1,.36-2.83,5.08,5.08,0,0,1,.44-1.3,1.08,1.08,0,0,0,.08-.92,2.48,2.48,0,0,0-.21-.48,2.09,2.09,0,0,0-1.69-1,2.51,2.51,0,0,0-1.58.41,3.46,3.46,0,0,0-.93.88,5.35,5.35,0,0,0-.7,1.3,9.35,9.35,0,0,0-.57,2.93,7.34,7.34,0,0,1-.13,1.09c-.06.31-.14.62-.22.93-.28,1.11-.63,2.19-1,3.27a39.63,39.63,0,0,1-1.61,4,13.42,13.42,0,0,1-.82,1.5c-.09.13-.18.26-.28.39a.17.17,0,0,1-.16.07c-.06,0-.12-.09-.11-.19s0-.29,0-.43c0-.38.07-.76.11-1.14.09-.9.14-1.8.15-2.71a30.22,30.22,0,0,0-.16-3.85,18.39,18.39,0,0,0-.41-2.39,9.43,9.43,0,0,0-.56-1.67,5.13,5.13,0,0,0-.63-1.06,2.83,2.83,0,0,0-.65-.62,2,2,0,0,0-1-.34,3.48,3.48,0,0,0-1.87.45,4.54,4.54,0,0,0-.95.71,6.73,6.73,0,0,0-.85,1,10.37,10.37,0,0,0-.84,1.49,16.32,16.32,0,0,0-.94,2.59c0,.12-.07.24-.11.36s0,0-.06.06,0,0,0-.06,0-.29,0-.43a15.17,15.17,0,0,0-.29-3,10.46,10.46,0,0,0-.66-2.18,6.11,6.11,0,0,0-.76-1.31,3.82,3.82,0,0,0-.9-.85,2.91,2.91,0,0,0-1.71-.49,4.39,4.39,0,0,0-1.53.31,5.46,5.46,0,0,0-1.78,1.17,7.8,7.8,0,0,0-1.22,1.52,10.65,10.65,0,0,0-1.31,3.2l-.14.55,0,0a0,0,0,0,1,0,0c-.06-.44-.07-.88-.1-1.33a12.26,12.26,0,0,0-.31-2.07,6.55,6.55,0,0,0-.55-1.52,3.9,3.9,0,0,0-.62-.9,3,3,0,0,0-2.77-.94,3.86,3.86,0,0,0-1.62.65,2.52,2.52,0,0,0-.47.4,1.44,1.44,0,0,0-.4,1c0,.65,0,1.3-.09,1.95s-.14,1.49-.24,2.22c-.14,1-.32,2-.53,3A44.32,44.32,0,0,1,152,28.81a26.28,26.28,0,0,1-1.42,3.43,12.62,12.62,0,0,1-.69,1.2,6.47,6.47,0,0,1-.6.8,3.13,3.13,0,0,1-.53.48,1.55,1.55,0,0,1-.47.23.68.68,0,0,1-.79-.28,1.51,1.51,0,0,1-.16-.29,3.34,3.34,0,0,1-.13-.41,5.79,5.79,0,0,1-.18-1.22,20.28,20.28,0,0,1,.12-3.33q.13-1.13.34-2.26a29.56,29.56,0,0,1,1-3.87,16.51,16.51,0,0,1,1.3-3,.72.72,0,0,0,.1-.81,2.27,2.27,0,0,0-.55-.93,3.29,3.29,0,0,0-.55-.45l-.26-.2c0-.19,0-.36,0-.53a1.69,1.69,0,0,0-.91-1.37l-.13-.07a6.59,6.59,0,0,0-4.71-.6,8,8,0,0,0-2.2.88,11.07,11.07,0,0,0-2.23,1.7,16.51,16.51,0,0,0-2.36,2.92A25.4,25.4,0,0,0,134,24.41a39.1,39.1,0,0,0-1.81,5.16c-.1.35-.19.71-.31,1a28.68,28.68,0,0,1-1.73,4A19,19,0,0,1,128.65,37a11.54,11.54,0,0,1-1.27,1.48,7.11,7.11,0,0,1-1.32,1,4.65,4.65,0,0,1-1.74.61,2.17,2.17,0,0,1-1.88-.59A4.64,4.64,0,0,1,122,39a5.5,5.5,0,0,1-.6-1,11.16,11.16,0,0,1-.56-1.46,24.44,24.44,0,0,1-.86-4.19c0-.38-.09-.76-.12-1.14-.06-.66-.12-1.33-.15-2-.07-1.3,0-2.6,0-3.9,0-.11,0-.22,0-.33,0-.59.1-1.17.14-1.75.07-.89.19-1.77.33-2.64q.25-1.62.64-3.22a32.07,32.07,0,0,1,2-5.79,22.09,22.09,0,0,1,2.27-3.9A13,13,0,0,1,126.47,6a6.8,6.8,0,0,1,.88-.73,3.16,3.16,0,0,1,.62-.34,1.21,1.21,0,0,1,.42-.09.76.76,0,0,1,.68.36,1.5,1.5,0,0,1,.23.57,4.51,4.51,0,0,1,.09.9,9.65,9.65,0,0,1-.12,1.28,15.37,15.37,0,0,1-.55,2.31,20.68,20.68,0,0,1-2.83,5.84,3.76,3.76,0,0,0-.23.41.71.71,0,0,0-.05.13.35.35,0,0,0,.22.46l0,0a2.36,2.36,0,0,0,.9.08,4.41,4.41,0,0,0,1-.22,6,6,0,0,0,1-.47,9.43,9.43,0,0,0,1.76-1.38A14.93,14.93,0,0,0,133,11.81a11.73,11.73,0,0,0,.86-1.85,7.26,7.26,0,0,0,.36-1.38,12.35,12.35,0,0,0,.1-2.18,7.94,7.94,0,0,0-.21-1.6A6.25,6.25,0,0,0,133,2.35,4.92,4.92,0,0,0,130.63.67,6.2,6.2,0,0,0,128,.42a8.48,8.48,0,0,0-2.17.51,11.75,11.75,0,0,0-3,1.7,16.63,16.63,0,0,0-2.75,2.69,23.11,23.11,0,0,0-2.71,4.19A32.34,32.34,0,0,0,114.74,17c-.22,1-.4,1.93-.55,2.9-.08.52-.15,1-.2,1.56s-.09,1-.13,1.47c-.09.93-.13,1.87-.15,2.8s0,1.74.06,2.62.13,1.68.24,2.51.27,1.76.45,2.62a24.86,24.86,0,0,0,1.15,3.87,15.4,15.4,0,0,0,1.7,3.23,10.15,10.15,0,0,0,1.47,1.68,7.7,7.7,0,0,0,3,1.72,8.55,8.55,0,0,0,1.92.33,5.72,5.72,0,0,0,1.61-.13,6.91,6.91,0,0,0,2.22-.94,10.52,10.52,0,0,0,1.71-1.37A16.36,16.36,0,0,0,130.9,40c.4-.53.77-1.09,1.13-1.65.08-.12.15-.24.24-.35s.08,0,.14,0l.14.46a7.32,7.32,0,0,0,.85,1.91,5,5,0,0,0,.82,1,3.73,3.73,0,0,0,2.45,1,3,3,0,0,0,1.69-.4,6.41,6.41,0,0,0,.63-.42,6.18,6.18,0,0,0,1-.93,11.58,11.58,0,0,0,1.18-1.67,16.06,16.06,0,0,0,1-2.09c0-.1.09-.2.14-.3h0l0,0a1,1,0,0,1,.08.17c.08.24.14.49.22.73a10.53,10.53,0,0,0,1.21,2.53,6.24,6.24,0,0,0,1.09,1.25,4.09,4.09,0,0,0,1.21.75,3.47,3.47,0,0,0,3.28-.29,5.74,5.74,0,0,0,.89-.71,9.39,9.39,0,0,0,1.14-1.34,16.11,16.11,0,0,0,1-1.7,28,28,0,0,0,1.35-2.94,53.25,53.25,0,0,0,2.08-6.57c.21-.85.42-1.69.59-2.55a.62.62,0,0,1,.07-.17s0,0,.08,0l0,0a.87.87,0,0,1,.1.21,4.57,4.57,0,0,1,.11.85c0,.59,0,1.17,0,1.76,0,.38,0,.76,0,1.14,0,.59-.09,1.17-.14,1.76,0,.43-.07.85-.13,1.28-.13,1-.26,1.92-.43,2.87a35.33,35.33,0,0,1-.91,3.89,3.79,3.79,0,0,0-.1.41,1,1,0,0,0,0,.28,2.33,2.33,0,0,0,.2.73,3.25,3.25,0,0,0,.6.85,4.37,4.37,0,0,0,1.4,1,6.63,6.63,0,0,0,3.07.51,1.24,1.24,0,0,0,.91-.46,1.53,1.53,0,0,0,.41-1.18c0-.24-.06-.47-.07-.71,0-1.16-.1-2.32-.07-3.47,0-.51,0-1,0-1.52,0-.86.1-1.71.13-2.57,0,0,0-.09,0-.14,0-.52.09-1,.14-1.56.07-.69.14-1.39.23-2.08s.22-1.47.35-2.21a27.15,27.15,0,0,1,.68-3,14.12,14.12,0,0,1,.74-2.06,6.71,6.71,0,0,1,.64-1.11,3.36,3.36,0,0,1,.58-.63A1.84,1.84,0,0,1,166,20a.72.72,0,0,1,.68.25,1.46,1.46,0,0,1,.26.45,4.55,4.55,0,0,1,.22.78,9.86,9.86,0,0,1,.16,1.42,25.92,25.92,0,0,1,0,2.9c0,.7-.09,1.39-.15,2.09,0,.47-.08.95-.13,1.42q-.11,1-.24,2c-.1.8-.2,1.61-.33,2.4s-.29,1.78-.44,2.68-.27,1.53-.45,2.29c-.08.35-.18.71-.26,1.06a2.19,2.19,0,0,0,.5,2,3.08,3.08,0,0,0,.61.53,4.34,4.34,0,0,0,1,.51,7.47,7.47,0,0,0,2.72.4,1.72,1.72,0,0,0,.56-.12,1,1,0,0,0,.65-.7,1.36,1.36,0,0,0,0-.61,11.4,11.4,0,0,1-.13-1.42,32.55,32.55,0,0,1,0-3.38c0-.73.07-1.46.13-2.19s.14-1.64.24-2.46.21-1.64.34-2.45c.17-1,.36-2.06.61-3.08a18.14,18.14,0,0,1,.74-2.41,8.4,8.4,0,0,1,.51-1.08,3.49,3.49,0,0,1,.5-.69,1.78,1.78,0,0,1,.49-.37,1,1,0,0,1,1.1.17,2.39,2.39,0,0,1,.29.37,2.73,2.73,0,0,1,.29.65,7.76,7.76,0,0,1,.28,1.3,14,14,0,0,1,.12,2,26,26,0,0,1-.09,2.71c-.05.52-.08,1-.14,1.56-.12,1-.26,2-.44,3a29.72,29.72,0,0,1-1.33,5.15,2,2,0,0,0,0,1.48,2.75,2.75,0,0,0,.54.83,3.44,3.44,0,0,0,.95.71,4.74,4.74,0,0,0,2.3.5,1,1,0,0,0,.72-.31,2.76,2.76,0,0,0,.32-.41,3.13,3.13,0,0,0,.31-.64,7.85,7.85,0,0,0,.37-1.47,15.63,15.63,0,0,0,.22-2.27c0-.19,0-.38,0-.57a.5.5,0,0,1,0-.13l0,0h0A1.43,1.43,0,0,1,181,37a11.2,11.2,0,0,0,.82,1.22,15.27,15.27,0,0,0,3.85,3.52,11.12,11.12,0,0,0,2.25,1.12,7,7,0,0,0,2.66.45,4.68,4.68,0,0,0,1.75-.4,4.1,4.1,0,0,0,2.44-2.87A6.29,6.29,0,0,0,195,38.28ZM144.28,20.83c0,.16,0,.31-.08.47a38.18,38.18,0,0,1-1.29,4.48,41.13,41.13,0,0,1-1.8,4.4,25.62,25.62,0,0,1-1.22,2.26,12.32,12.32,0,0,1-1,1.48,5,5,0,0,1-.74.74,2,2,0,0,1-.62.35.7.7,0,0,1-.91-.39,1.52,1.52,0,0,1-.15-.6c0-.22,0-.44,0-.67a10.3,10.3,0,0,1,.25-2A24,24,0,0,1,139,24.91a15.73,15.73,0,0,1,1.23-2,9.33,9.33,0,0,1,1.06-1.22,5.19,5.19,0,0,1,.94-.72,3,3,0,0,1,1.07-.39,1.87,1.87,0,0,1,.89.09A.18.18,0,0,1,144.28,20.83Zm45.31,14.74a3.24,3.24,0,0,1-.13.41,1.73,1.73,0,0,1-1.56,1.07,2.45,2.45,0,0,1-.93-.15,4.08,4.08,0,0,1-.9-.42,8.11,8.11,0,0,1-2.59-2.55,4.89,4.89,0,0,1-.29-.55,1,1,0,0,1,0-.83c.33-.79.63-1.59,1-2.38l2.1-5.15c.06-.15.12-.29.19-.43a.27.27,0,0,1,.1-.09s.09,0,.14.1l0,.08.06.13A41.16,41.16,0,0,1,189,30.71a19.7,19.7,0,0,1,.5,2.08,8.09,8.09,0,0,1,.16,1.49A4.57,4.57,0,0,1,189.59,35.58Z" />
        <path style="fill: #fff" d="M224.88,13.26a3.14,3.14,0,0,1-1.74,2.08,6.78,6.78,0,0,1-.71.28c-.68.23-1.37.4-2.06.56-1.56.36-3.13.68-4.7,1l-4.72.86-1.77.34-.33.05a.18.18,0,0,1-.17-.07,3.24,3.24,0,0,1-.24-.36,3.44,3.44,0,0,1-.28-.71,8.5,8.5,0,0,1-.26-3.3,3.84,3.84,0,0,1,.18-.83,2.94,2.94,0,0,1,.35-.73.33.33,0,0,1,.28-.15H209l1.57,0,3.18.15.9,0,1.09,0h.14l2.57.12,3,.16h.14l2.42.13c.24,0,.47,0,.71.07S224.92,13.14,224.88,13.26Z" />
        <path style="fill: #fff" d="M224.89,20.9a2.59,2.59,0,0,1-1,1.49,3.55,3.55,0,0,1-.89.44c-.57.19-1.15.34-1.74.48-1.23.29-2.47.55-3.72.78l-4.72.87-1.26.25a.29.29,0,0,1-.32-.14,2.58,2.58,0,0,1-.27-.55,5.08,5.08,0,0,1-.26-1.06c-.05-.38-.08-.76-.11-1.06a7,7,0,0,1,.18-1.44,2.88,2.88,0,0,1,.27-.66.39.39,0,0,1,.38-.23h.24l1.47,0,3.28.15h.14l3,.13,2.56.15h.24l2.23.12.24,0A.15.15,0,0,1,224.89,20.9Z" />
    </g>
</svg>
