<svg xmlns="http://www.w3.org/2000/svg" viewBox="0 0 705.43 154.61">
    <defs>
        <style>
            .sprite { display: none; }
            .sprite:target { display: inline; }
        </style>
    </defs>
    <g id="default" class="sprite">
        <path style="fill: #1b1464;" d="M22.21 70.75h5.24c3.12 0 4.87 1.75 4.87 4.87v49c0 18.59-12.35 22.46-29.08 18.84C1.12 143.13 0 141.51 0 138c0-4.12.62-6.11 4.62-6.11 1.49 0 3.49.37 5.11.37 5.62 0 7.74-2 7.74-7.73V75.62c-.12-3.12 1.62-4.87 4.74-4.87zM82 101.45l-22.21 2.37c1.87 5.87 6.74 8 13.73 8a52.41 52.41 0 0012.1-1.75c3.5-.75 5.49.62 5.49 4.12v1.62a5.18 5.18 0 01-4.11 5.48 64.41 64.41 0 01-16.1 2.37c-16 0-26.71-8.73-26.71-26.83 0-17.09 9.11-26.95 26.83-26.95 14.85 0 23.71 7 23.71 20.21-.02 7.24-3.14 10.36-12.73 11.36zM80.74 88.6c0-5-3.12-7.74-9.86-7.74-7.36 0-11.23 3.37-12 12.23l18.22-1.75c3.14-.34 3.64-.87 3.64-2.74zM135.89 75.12v3.12c0 3.12-1.87 4.87-5.36 4.87-11.11.12-11.61 1.12-11.61 5.11v29.7c0 3.12-1.75 4.87-4.87 4.87h-5.24c-3.12 0-4.86-1.75-4.86-4.87V86.1c0-12.1 4.36-15.35 26.7-15.72 3.49-.13 5.24 1.62 5.24 4.74zM189.3 122.66h-4.62c-3.12 0-5.49-.87-6.86-2.62l-19.59-22.71v20.47c0 3.12-1.75 4.86-4.87 4.86h-5c-3.12 0-4.87-1.74-4.87-4.86V53.66c0-3.12 1.75-4.87 4.87-4.87h5c3.12 0 4.87 1.75 4.87 4.87v39.06l19.59-19.6c1.37-1.62 3.74-2.37 6.74-2.37h4.24c4.49 0 6.36 2.5 3.87 5.12L173.33 95l20.09 22.59c2.12 2.7.37 5.07-4.12 5.07zM286.88 93.84v24c0 3.12-1.75 4.86-4.87 4.86h-4.74c-3.12 0-4.86-1.74-4.86-4.86V93.09c0-7.49-3.25-11-10.24-11s-9.61 3.37-9.61 11v24.71c0 3.12-1.74 4.86-4.86 4.86h-4.62c-3.12 0-4.87-1.74-4.87-4.86V93.09c0-7.49-2.62-11-9.6-11s-10.24 3.37-10.24 11v24.71c0 3.12-1.74 4.86-4.86 4.86h-4.74c-3.12 0-4.87-1.74-4.87-4.86v-24c0-17.6 9.11-24 23.33-24 9.36 0 14.85 2.74 18 7.49 3.12-4.75 8.61-7.49 18-7.49 14.54.08 23.65 6.44 23.65 24.04zM345.4 90.09v17.47c0 11-5 15.1-16.34 15.1h-12c-12.85 0-20.72-3.37-20.72-15.84S304.23 91 317.08 91h13.72v-.88c0-5.86-4.61-8.36-12.35-8.36a72.68 72.68 0 00-13.6 1.63c-3.37.62-5.37-.88-5.37-4.25v-2c0-2.87 1.63-4.74 5.12-5.49a77.64 77.64 0 0116-1.88c14.2.11 24.8 6.1 24.8 20.32zm-14.72 16.73v-5.37h-13c-6.36 0-7.73 1.5-7.73 5.37s1.37 5.36 7.61 5.36h7.73c4.64 0 5.39-1.87 5.39-5.36zM385.59 82.86h-14.35v20.71c0 5.37 2.37 7.61 8.23 7.61 2.75 0 4.62-.62 6.49-.62 3.24 0 4.49 1.25 4.49 3.87v2.62c0 2.74-1.25 4.62-3.87 5.11-16.72 4-30.19-.25-30.19-18.71V63.52c0-3.12 1.74-4.87 4.86-4.87h5.24c3.12 0 4.87 1.75 4.87 4.87v7.23h14.35c3.12 0 4.87 1.75 4.87 4.87V78c-.13 3.11-1.87 4.86-4.99 4.86zM434.88 101.45l-22.22 2.37c1.88 5.87 6.74 8 13.73 8a52.41 52.41 0 0012.1-1.75c3.5-.75 5.49.62 5.49 4.12v1.62a5.18 5.18 0 01-4.11 5.49 64.34 64.34 0 01-16.1 2.37c-16 0-26.7-8.73-26.7-26.83 0-17.09 9.1-26.95 26.82-26.95 14.85 0 23.71 7 23.71 20.21 0 7.23-3.12 10.35-12.72 11.35zm-1.25-12.85c0-5-3.12-7.74-9.86-7.74-7.36 0-11.23 3.37-12 12.23L430 91.22c3.13-.22 3.63-.75 3.63-2.62z"/>
        <path style="fill: #ff76a7;" d="M22.34 54.28l-.38.63h-.12A7.6 7.6 0 0017 62a3.22 3.22 0 003.25 3.24h8.61A3.21 3.21 0 0032.07 62a7.6 7.6 0 00-4.87-7.11l-.37-.63a2.33 2.33 0 00-2.37-1.62 2 2 0 00-2.12 1.64zM423.77 0H382a23.38 23.38 0 00-23.34 23.33 23.27 23.27 0 0023.21 23.34l2 11.6 13.23-11.6h26.57A23.38 23.38 0 00447 23.33 23.2 23.2 0 00423.77 0z"/>
        <path style="fill: #fff;" d="M376.48 15.22h3.61v13.61h7.12v3.11H376.6V15.22zM390.83 15.22h3.62v16.72h-3.62zM397.19 15.22h4.12l4.62 12.86 4.61-12.86h4.12l-6.49 16.72h-4.49zM417.41 15.22h11.85v3.12H421V22h8.12v3.12H421V29h8.24v3.12h-11.83z"/>
        <path id="Mouth" style="fill: #97f0ff;" d="M480.86 79.49a19.17 19.17 0 000 37.87z"/>
        <path id="Mouth-2" data-name="Mouth" style="fill: #ff76a7;" d="M689.27 79.49a19.17 19.17 0 010 37.87z"/>
        <path style="fill: #ff76a7;" d="M681.43 105.47a49.14 49.14 0 01-48.88 49.11h-47.48V31.85c.54 0 1.08 0 1.62.07a19.12 19.12 0 0114.56 8.85l31-.08a49.14 49.14 0 0149.11 48.89z"/>
        <path style="fill: #97f0ff;" d="M585.07 31.85v122.76h-47.49a49.13 49.13 0 01-48.88-49.11V89.61a49.15 49.15 0 0149.12-48.89l31 .08a19.14 19.14 0 0114.57-8.85c.61-.08 1.13-.1 1.68-.1z"/>
        <path style="fill: #1b1464;" d="M548.35 139.2a41.54 41.54 0 01.1-83.08l73.32.18a41.54 41.54 0 01-.09 83.08z"/>
        <path style="fill: #fff;" d="M548.45 58.71h.1l73.22.18a39 39 0 01-.09 77.9h-.1l-73.22-.18a39 39 0 01.09-77.9m0-5.18a44.27 44.27 0 00-44.13 44 44.26 44.26 0 0044 44.23l73.22.18h.11a44.27 44.27 0 0044.13-44 44.26 44.26 0 00-44-44.23l-73.22-.18z"/>
        <rect x="552" y="67.72" width="98.81" height="57.12" rx="28.56" fill="#2727a8" opacity=".56"/>
        <path style="fill: #fff;" d="M574.72 96.82h-.05a10.52 10.52 0 0020.77 0h-.05a29.2 29.2 0 01-20.67 0z"/>
        <circle cx="545.3" cy="99.17" r="11.79" stroke="#97f0ff" stroke-miterlimit="10" stroke-width="3.58" fill="#1b1464"/>
        <circle style="fill: #97f0ff;" cx="541.24" cy="103.95" r="1.84"/>
        <circle style="fill: #97f0ff;" cx="552.72" cy="99.85" r="1.73"/>
        <circle style="fill: #97f0ff;" cx="548.84" cy="94.84" r="3.66"/>
        <circle cx="624.82" cy="99.17" r="11.79" fill="none" stroke="#97f0ff" stroke-miterlimit="10" stroke-width="3.58"/>
        <circle style="fill: #97f0ff;" cx="620.24" cy="103.95" r="1.84"/>
        <circle style="fill: #97f0ff;" cx="631.72" cy="99.85" r="1.73"/>
        <circle style="fill: #97f0ff;" cx="627.84" cy="94.84" r="3.66"/>
    </g>
    <g id="white" class="sprite">
        <path style="fill:#fff;" d="M22.2 70.8h5.2c3.1 0 4.9 1.8 4.9 4.9v49c0 18.6-12.4 22.5-29.1 18.8-2.1-.3-3.2-2-3.2-5.5 0-4.1.6-6.1 4.6-6.1 1.5 0 3.5.4 5.1.4 5.6 0 7.7-2 7.7-7.7v-49c0-3.1 1.7-4.8 4.8-4.8zM82 101.4l-22.2 2.4c1.9 5.9 6.7 8 13.7 8 4.1-.1 8.1-.7 12.1-1.8 3.5-.8 5.5.6 5.5 4.1v1.6c.2 2.6-1.6 4.9-4.1 5.5-5.2 1.5-10.7 2.3-16.1 2.4-16 0-26.7-8.7-26.7-26.8 0-17.1 9.1-26.9 26.8-26.9 14.8 0 23.7 7 23.7 20.2 0 7.2-3.1 10.3-12.7 11.3zm-1.3-12.8c0-5-3.1-7.7-9.9-7.7-7.4 0-11.2 3.4-12 12.2L77 91.3c3.2-.3 3.7-.8 3.7-2.7zM135.9 75.1v3.1c0 3.1-1.9 4.9-5.4 4.9-11.1.1-11.6 1.1-11.6 5.1v29.7c0 3.1-1.8 4.9-4.9 4.9h-5.2c-3.1 0-4.9-1.8-4.9-4.9V86.1c0-12.1 4.4-15.3 26.7-15.7 3.5-.2 5.3 1.6 5.3 4.7zM189.3 122.7h-4.6c-3.1 0-5.5-.9-6.9-2.6l-19.6-22.7v20.5c0 3.1-1.8 4.9-4.9 4.9h-5c-3.1 0-4.9-1.7-4.9-4.9V53.7c0-3.1 1.8-4.9 4.9-4.9h5c3.1 0 4.9 1.8 4.9 4.9v39.1l19.6-19.6c1.4-1.6 3.7-2.4 6.7-2.4h4.2c4.5 0 6.4 2.5 3.9 5.1L173.3 95l20.1 22.6c2.1 2.7.4 5.1-4.1 5.1zM286.9 93.8v24c0 3.1-1.8 4.9-4.9 4.9h-4.7c-3.1 0-4.9-1.7-4.9-4.9V93.1c0-7.5-3.2-11-10.2-11s-9.6 3.4-9.6 11v24.7c0 3.1-1.7 4.9-4.9 4.9h-4.6c-3.1 0-4.9-1.7-4.9-4.9V93.1c0-7.5-2.6-11-9.6-11s-10.2 3.4-10.2 11v24.7c0 3.1-1.7 4.9-4.9 4.9h-4.7c-3.1 0-4.9-1.7-4.9-4.9v-24c0-17.6 9.1-24 23.3-24 9.4 0 14.9 2.7 18 7.5 3.1-4.8 8.6-7.5 18-7.5 14.6.1 23.7 6.4 23.7 24zM345.4 90.1v17.5c0 11-5 15.1-16.3 15.1h-12c-12.9 0-20.7-3.4-20.7-15.8S304.2 91 317.1 91h13.7v-.9c0-5.9-4.6-8.4-12.4-8.4-4.6.1-9.1.7-13.6 1.6-3.4.6-5.4-.9-5.4-4.2v-2c0-2.9 1.6-4.7 5.1-5.5 5.3-1.2 10.6-1.8 16-1.9 14.3.2 24.9 6.2 24.9 20.4zm-14.7 16.7v-5.4h-13c-6.4 0-7.7 1.5-7.7 5.4s1.4 5.4 7.6 5.4h7.7c4.6 0 5.4-1.9 5.4-5.4zM385.6 82.9h-14.4v20.7c0 5.4 2.4 7.6 8.2 7.6 2.8 0 4.6-.6 6.5-.6 3.2 0 4.5 1.2 4.5 3.9v2.6c0 2.7-1.2 4.6-3.9 5.1-16.7 4-30.2-.2-30.2-18.7v-40c0-3.1 1.7-4.9 4.9-4.9h5.2c3.1 0 4.9 1.8 4.9 4.9v7.2h14.4c3.1 0 4.9 1.8 4.9 4.9V78c-.1 3.1-1.9 4.9-5 4.9zM434.9 101.4l-22.2 2.4c1.9 5.9 6.7 8 13.7 8 4.1-.1 8.1-.7 12.1-1.8 3.5-.8 5.5.6 5.5 4.1v1.6c.2 2.6-1.6 5-4.1 5.5-5.2 1.5-10.7 2.3-16.1 2.4-16 0-26.7-8.7-26.7-26.8 0-17.1 9.1-27 26.8-27 14.9 0 23.7 7 23.7 20.2 0 7.3-3.1 10.4-12.7 11.4zm-1.3-12.8c0-5-3.1-7.7-9.9-7.7-7.4 0-11.2 3.4-12 12.2l18.2-1.9c3.2-.2 3.7-.7 3.7-2.6zM22.3 54.3l-.3.6h-.1c-3 1.1-4.9 4-4.9 7.1 0 1.8 1.4 3.2 3.2 3.2h8.7c1.8 0 3.2-1.4 3.2-3.2 0-3.2-1.9-6-4.9-7.1l-.4-.6c-.3-1-1.3-1.7-2.4-1.6-1-.1-1.9.6-2.1 1.6zM423.9 0H382c-12.9 0-23.3 10.5-23.3 23.3 0 12.9 10.3 23.3 23.2 23.3l2 11.6 13.2-11.6h26.6c12.9 0 23.3-10.5 23.3-23.3.1-12.8-10.3-23.2-23.1-23.3zm-36.7 31.9h-10.6V15.2h3.5v13.6h7.1v3.1zm7.3 0h-3.6V15.2h3.6v16.7zm13.7 0h-4.5l-6.5-16.7h4.1l4.6 12.9 4.6-12.9h4.1l-6.4 16.7zm21.1-13.6H421V22h8.1v3.1H421V29h8.2v3.1h-11.8V15.2h11.8v3.1z"/>
        <path id="Mouth_2_" style="fill:#fff;" d="M480.9 79.5c-10.5 1.7-17.6 11.5-15.9 21.9 1.3 8.2 7.7 14.6 15.9 15.9V79.5z"/>
        <path id="Mouth-2_2_" style="fill:#fff;" d="M689.3 79.5c10.5 1.7 17.6 11.5 15.9 21.9-1.3 8.2-7.7 14.6-15.9 15.9V79.5z"/>
        <path style="fill:#fff;" d="M681.4 89.6c-.1-27-22.1-48.9-49.1-48.9l-31 .1c-3.2-5.1-8.6-8.3-14.6-8.8-.5-.1-1.1-.1-1.6-.1s-1.1 0-1.7.1c-6 .5-11.4 3.8-14.6 8.8l-31-.1c-27 0-49 21.9-49.1 48.9v15.9c0 27 21.9 49 48.9 49.1h95c27-.1 48.9-22.1 48.9-49.1l-.1-15.9zm-59.7 52.3h-.1l-73.2-.2c-24.3-.1-44-19.9-44-44.2.1-24.3 19.8-43.9 44.1-44h.1l73.2.2c24.3.1 44 19.9 44 44.2-.2 24.3-19.9 44-44.1 44z"/>
        <path style="fill:#fff;" d="M552.3 92.1c-1.8-1.8-4.3-2.9-7-2.9-5.5 0-10 4.5-10 10s4.5 10 10 10c3.3 0 6.3-1.6 8.1-4.1 1.2-1.7 1.9-3.7 1.9-5.9 0-2.8-1.1-5.3-3-7.1zm-11.1 13.7c-1 0-1.8-.8-1.8-1.8s.8-1.8 1.8-1.8 1.8.8 1.8 1.8c.1 1-.7 1.8-1.8 1.8zm4-11c0-2 1.6-3.7 3.7-3.7 1.5 0 2.7.9 3.3 2.1.2.5.3 1 .3 1.5 0 .7-.2 1.3-.5 1.8-.6 1.1-1.8 1.9-3.2 1.9-2 .1-3.6-1.5-3.6-3.6zm7.5 6.8h-.2c-.8-.1-1.5-.8-1.5-1.7 0-.7.4-1.3 1.1-1.6.2-.1.4-.1.6-.1 1 0 1.7.8 1.7 1.7s-.7 1.7-1.7 1.7z"/>
        <path style="fill:#fff;" d="M621.8 58.9l-73.2-.2h-.1c-20 1-36 16.9-37 36.9-1.1 21.5 15.4 39.9 36.9 41l73.2.2h.1c20-1 36-16.9 37-36.9 1.1-21.6-15.4-39.9-36.9-41zm3 53.9c-7.5 0-13.6-6.1-13.6-13.6s6.1-13.6 13.6-13.6 13.6 6.1 13.6 13.6-6.1 13.6-13.6 13.6zm-50.1-16c6.7 2.5 14.1 2.5 20.7 0-.7 4.5-4.2 8-8.7 8.7-5.7 1-11.1-2.9-12-8.7zm-29.4 16c-7.5 0-13.6-6.1-13.6-13.6s6.1-13.6 13.6-13.6c2.9 0 5.7.9 7.9 2.5 3.4 2.5 5.7 6.5 5.7 11 0 3.8-1.5 7.2-4 9.6-2.5 2.5-5.9 4.1-9.6 4.1z"/>
        <path style="fill:#fff;" d="M624.8 89.2c-5.5 0-10 4.5-10 10s4.5 10 10 10 10-4.5 10-10-4.5-10-10-10zm-4.6 16.6c-1 0-1.8-.8-1.8-1.8s.8-1.8 1.8-1.8 1.8.8 1.8 1.8c.1 1-.7 1.8-1.8 1.8zm4-11c0-2 1.6-3.7 3.7-3.7s3.7 1.6 3.7 3.7-1.6 3.7-3.7 3.7-3.7-1.6-3.7-3.7zm9.2 5c0 1-.8 1.7-1.7 1.7s-1.7-.8-1.7-1.7.8-1.7 1.7-1.7 1.7.8 1.7 1.7z"/>
    </g>
</svg>
