<svg class="provider-logo livejasmin" xmlns="http://www.w3.org/2000/svg" viewBox="0 0 226.92 25.24">
    <title>LIVEJASMIN</title>
    <defs>
        <style>
            .sprite { display: none; }
            .sprite:target { display: inline; }
        </style>
    </defs>
    <g id="default" class="sprite">
        <path style="fill: #bb2025" d="M180.52,24.72h-3.2c-.8,0-1.1-.3-1.2-1.1-.4-3.2-.9-6.3-1.4-9.5a.4.4,0,0,0-.2-.4c-.3.6-.7,1.3-1,1.9-1.5,2.9-3,5.7-4.5,8.6a1.08,1.08,0,0,1-1.1.8c-.7,0-.9-.4-1.2-.9-1.7-3.3-3.4-6.6-5.2-9.9a4.45,4.45,0,0,0-.5-.8c-.3,1.9-.5,3.6-.8,5.3s-.5,3.3-.7,5c-.1.6-.3.8-.9.8H155c-.7,0-.9-.3-.8-1,.7-3.9,1.3-7.8,1.9-11.7l1.8-10.5c.1-.5,0-1.2.8-1.3s1.1.3,1.4.9c2.3,4.4,4.7,8.8,7.1,13.1.2.4.4.7.7,1.2l1.5-2.7c2.1-3.9,4.2-7.9,6.3-11.8A1.1,1.1,0,0,1,177,0c.7.1.7.6.8,1.1,1.3,7.4,2.5,14.8,3.7,22.2C181.62,24.52,181.42,24.72,180.52,24.72Z" />
        <path style="fill: #bb2025" d="M226.92,23.82c0,.5.1,1-.5,1.2a1.39,1.39,0,0,1-1.5-.4c-2.1-2.1-4.2-4.2-6.2-6.3-2.2-2.2-4.4-4.5-6.7-6.7-.1-.1-.2-.1-.3-.2-.2.3-.1.6-.1.9v11.1c0,1.2-.1,1.3-1.3,1.3h-3.1c-1,0-1.1-.1-1.1-1.1v-22c0-.4-.2-1,.4-1.2a1.42,1.42,0,0,1,1.6.4c1.1,1.2,2.3,2.3,3.5,3.4,3.1,3,6.2,5.9,9.2,8.9.1.1.2.3.5.2V1.82c0-1.1,0-1.1,1.1-1.1h3.3c.8,0,1,.3,1,1v9.4C226.92,15.32,226.92,19.62,226.92,23.82Z" />
        <path style="fill: #bb2025" d="M124.82,23.42c-3.4-7.4-6.9-14.8-10.3-22.2-.2-.4-.4-.9-1-.9s-.8.5-1,.9c-1.7,3.7-3.4,7.3-5.1,11s-3.5,7.6-5.3,11.3c-.4.9-.2,1.2.8,1.2h3.3a1.34,1.34,0,0,0,1.4-.8,18.94,18.94,0,0,0,.9-2.1c.2-.5.4-.6,1-.6,2.4,0,4.9.1,7.3,0a1.76,1.76,0,0,1,1.9,1.2c1.2,2.9.7,2.3,3.7,2.4H124C125.12,24.72,125.32,24.42,124.82,23.42Zm-13.9-7c.9-1.9,1.7-3.7,2.6-5.6.9,2,1.7,3.8,2.6,5.6Z" />
        <path style="fill: #bb2025" d="M143,24.12a9.55,9.55,0,0,1-4.2,1,12.2,12.2,0,0,1-7.3-2.3c-.9-.7-.9-.9-.4-1.9.4-.6.7-1.3,1.1-1.9.5-.8.9-.9,1.7-.4a12.49,12.49,0,0,0,3.9,1.7,2.05,2.05,0,0,0,1.1,0,2.24,2.24,0,0,0,1.9-1.2,2.15,2.15,0,0,0-.3-2.3,6.6,6.6,0,0,0-2.9-2,15,15,0,0,1-4.1-2.3c-3.6-2.9-3.7-7.9-.2-10.6a8.18,8.18,0,0,1,5.6-1.6,11.53,11.53,0,0,1,6.7,2.3c.9.6,1,1,.4,1.8-.4.7-.9,1.3-1.3,2-.6.9-.9,1-1.8.4a11.71,11.71,0,0,0-3.4-1.6,5.7,5.7,0,0,0-1.3-.1c-.8.1-1.5.4-1.7,1.2a1.92,1.92,0,0,0,.5,2,8.4,8.4,0,0,0,3.3,1.9,15.81,15.81,0,0,1,4.2,2.4A6.8,6.8,0,0,1,143,24.12Z" />
        <path style="fill: #bb2025" d="M95.22,9.92v7.9a7.21,7.21,0,0,1-9.4,7.1,5.54,5.54,0,0,1-3-2,.9.9,0,0,1,.1-1.4c.7-.6,1.3-1.3,2-1.9a.85.85,0,0,1,1.3,0c1.5,1.2,3.1.6,3.5-1.3a6.6,6.6,0,0,0,.1-1.4V1.82c0-1,0-1.1,1.1-1.1h3.5c.7,0,1,.3,1,1C95.22,4.42,95.22,7.12,95.22,9.92Z" />
        <path style="fill: #bb2025" d="M195.82,1.72v21.8c0,1.2-.1,1.2-1.3,1.3h-3.1c-.7,0-1-.2-1-1V1.62c0-.7.3-.9.9-.9h3.5C195.62.62,195.82,1,195.82,1.72Z" />
        <path style="fill: #b82127" d="M76.32,23.92c0,.6-.2.8-.8.8H62.32c-.7,0-.8-.3-.8-.9V1.62c0-.8.2-1,1-1h12.9c.5,0,.9.1.9.7s-.3.7-.8.7H63.92c-.4,0-.6.1-.6.5V11c0,.6.3.5.7.5h9.8c.5,0,.9,0,.9.7s-.3.8-.9.8h-9.6c-.6,0-.9.1-.8.8v8.5c0,.7.2.9.9.8h11.3C75.92,23.32,76.32,23.32,76.32,23.92Z" />
        <path style="fill: #b92126" d="M53,1.82c-3.3,7.5-6.7,15-10,22.4-.2.4-.2.9-.7.9s-.6-.5-.7-.9c-3.3-7.4-6.6-14.9-9.8-22.4-.1-.3-.7-.8-.1-1.1a1.23,1.23,0,0,1,1.6.6c2.9,6.7,5.8,13.3,8.7,20a7.93,7.93,0,0,1,.4.9c.6-1.3,1.1-2.5,1.6-3.7l7.5-17.1c.2-.4.2-.8.8-.8C53.32.62,53.42.72,53,1.82Z" />
        <path style="fill: #b82226" d="M13.12,24c0,.7-.3.8-.9.8H.92c-.7,0-1-.3-.9-1V1.62c0-.6.1-.9.8-.9s.8.4.8,1v20.6c0,.8.2,1.1,1,1,3.2-.1,6.4,0,9.5,0C12.72,23.32,13.12,23.22,13.12,24Z" />
        <path style="fill: #b82327" d="M23,1.62v22.2c0,.6-.1.9-.8.9s-.8-.2-.8-.9V1.62c0-.6,0-1,.8-1S23,1,23,1.62Z" />
    </g>
    <g id="white" class="sprite">
        <path style="fill: #fff" d="M180.52,24.72h-3.2c-.8,0-1.1-.3-1.2-1.1-.4-3.2-.9-6.3-1.4-9.5a.4.4,0,0,0-.2-.4c-.3.6-.7,1.3-1,1.9-1.5,2.9-3,5.7-4.5,8.6a1.08,1.08,0,0,1-1.1.8c-.7,0-.9-.4-1.2-.9-1.7-3.3-3.4-6.6-5.2-9.9a4.45,4.45,0,0,0-.5-.8c-.3,1.9-.5,3.6-.8,5.3s-.5,3.3-.7,5c-.1.6-.3.8-.9.8H155c-.7,0-.9-.3-.8-1,.7-3.9,1.3-7.8,1.9-11.7l1.8-10.5c.1-.5,0-1.2.8-1.3s1.1.3,1.4.9c2.3,4.4,4.7,8.8,7.1,13.1.2.4.4.7.7,1.2l1.5-2.7c2.1-3.9,4.2-7.9,6.3-11.8A1.1,1.1,0,0,1,177,0c.7.1.7.6.8,1.1,1.3,7.4,2.5,14.8,3.7,22.2C181.62,24.52,181.42,24.72,180.52,24.72Z" />
        <path style="fill: #fff" d="M226.92,23.82c0,.5.1,1-.5,1.2a1.39,1.39,0,0,1-1.5-.4c-2.1-2.1-4.2-4.2-6.2-6.3-2.2-2.2-4.4-4.5-6.7-6.7-.1-.1-.2-.1-.3-.2-.2.3-.1.6-.1.9v11.1c0,1.2-.1,1.3-1.3,1.3h-3.1c-1,0-1.1-.1-1.1-1.1v-22c0-.4-.2-1,.4-1.2a1.42,1.42,0,0,1,1.6.4c1.1,1.2,2.3,2.3,3.5,3.4,3.1,3,6.2,5.9,9.2,8.9.1.1.2.3.5.2V1.82c0-1.1,0-1.1,1.1-1.1h3.3c.8,0,1,.3,1,1v9.4C226.92,15.32,226.92,19.62,226.92,23.82Z" />
        <path style="fill: #fff" d="M124.82,23.42c-3.4-7.4-6.9-14.8-10.3-22.2-.2-.4-.4-.9-1-.9s-.8.5-1,.9c-1.7,3.7-3.4,7.3-5.1,11s-3.5,7.6-5.3,11.3c-.4.9-.2,1.2.8,1.2h3.3a1.34,1.34,0,0,0,1.4-.8,18.94,18.94,0,0,0,.9-2.1c.2-.5.4-.6,1-.6,2.4,0,4.9.1,7.3,0a1.76,1.76,0,0,1,1.9,1.2c1.2,2.9.7,2.3,3.7,2.4H124C125.12,24.72,125.32,24.42,124.82,23.42Zm-13.9-7c.9-1.9,1.7-3.7,2.6-5.6.9,2,1.7,3.8,2.6,5.6Z" />
        <path style="fill: #fff" d="M143,24.12a9.55,9.55,0,0,1-4.2,1,12.2,12.2,0,0,1-7.3-2.3c-.9-.7-.9-.9-.4-1.9.4-.6.7-1.3,1.1-1.9.5-.8.9-.9,1.7-.4a12.49,12.49,0,0,0,3.9,1.7,2.05,2.05,0,0,0,1.1,0,2.24,2.24,0,0,0,1.9-1.2,2.15,2.15,0,0,0-.3-2.3,6.6,6.6,0,0,0-2.9-2,15,15,0,0,1-4.1-2.3c-3.6-2.9-3.7-7.9-.2-10.6a8.18,8.18,0,0,1,5.6-1.6,11.53,11.53,0,0,1,6.7,2.3c.9.6,1,1,.4,1.8-.4.7-.9,1.3-1.3,2-.6.9-.9,1-1.8.4a11.71,11.71,0,0,0-3.4-1.6,5.7,5.7,0,0,0-1.3-.1c-.8.1-1.5.4-1.7,1.2a1.92,1.92,0,0,0,.5,2,8.4,8.4,0,0,0,3.3,1.9,15.81,15.81,0,0,1,4.2,2.4A6.8,6.8,0,0,1,143,24.12Z" />
        <path style="fill: #fff" d="M95.22,9.92v7.9a7.21,7.21,0,0,1-9.4,7.1,5.54,5.54,0,0,1-3-2,.9.9,0,0,1,.1-1.4c.7-.6,1.3-1.3,2-1.9a.85.85,0,0,1,1.3,0c1.5,1.2,3.1.6,3.5-1.3a6.6,6.6,0,0,0,.1-1.4V1.82c0-1,0-1.1,1.1-1.1h3.5c.7,0,1,.3,1,1C95.22,4.42,95.22,7.12,95.22,9.92Z" />
        <path style="fill: #fff" d="M195.82,1.72v21.8c0,1.2-.1,1.2-1.3,1.3h-3.1c-.7,0-1-.2-1-1V1.62c0-.7.3-.9.9-.9h3.5C195.62.62,195.82,1,195.82,1.72Z" />
        <path style="fill: #fff" d="M76.32,23.92c0,.6-.2.8-.8.8H62.32c-.7,0-.8-.3-.8-.9V1.62c0-.8.2-1,1-1h12.9c.5,0,.9.1.9.7s-.3.7-.8.7H63.92c-.4,0-.6.1-.6.5V11c0,.6.3.5.7.5h9.8c.5,0,.9,0,.9.7s-.3.8-.9.8h-9.6c-.6,0-.9.1-.8.8v8.5c0,.7.2.9.9.8h11.3C75.92,23.32,76.32,23.32,76.32,23.92Z" />
        <path style="fill: #fff" d="M53,1.82c-3.3,7.5-6.7,15-10,22.4-.2.4-.2.9-.7.9s-.6-.5-.7-.9c-3.3-7.4-6.6-14.9-9.8-22.4-.1-.3-.7-.8-.1-1.1a1.23,1.23,0,0,1,1.6.6c2.9,6.7,5.8,13.3,8.7,20a7.93,7.93,0,0,1,.4.9c.6-1.3,1.1-2.5,1.6-3.7l7.5-17.1c.2-.4.2-.8.8-.8C53.32.62,53.42.72,53,1.82Z" />
        <path style="fill: #fff" d="M13.12,24c0,.7-.3.8-.9.8H.92c-.7,0-1-.3-.9-1V1.62c0-.6.1-.9.8-.9s.8.4.8,1v20.6c0,.8.2,1.1,1,1,3.2-.1,6.4,0,9.5,0C12.72,23.32,13.12,23.22,13.12,24Z" />
        <path style="fill: #fff" d="M23,1.62v22.2c0,.6-.1.9-.8.9s-.8-.2-.8-.9V1.62c0-.6,0-1,.8-1S23,1,23,1.62Z" />
    </g>
</svg>
