<svg xmlns="http://www.w3.org/2000/svg" viewBox="0 0 712.58 73.71" class="provider-logo myfreecams" role="img">
    <title>Logo MyFreeCams</title>
    <defs>
        <style>
            .sprite { display: none; }
            .sprite:target { display: inline; }
        </style>
    </defs>
    <g id="default" class="sprite">
        <path style="fill: #269324" d="M0,.65H27.62L48,38.4,68.29.65H95.91V59.29H78.41V17.17h-.16L54.68,59.29H41.23L17.66,17.17H17.5V59.29H0Z" />
        <path style="fill: #269324" d="M115.27,63.51h1.29a18.51,18.51,0,0,0,7.37-1.22q2.76-1.22,2.76-4.78h-5.51L102.23,18h16.84L131,46.74,142.89,18h16.85L136.57,66.91a10.43,10.43,0,0,1-5.47,5.3,25.12,25.12,0,0,1-9.51,1.5q-2.19,0-3.69-.12l-2.63-.2Z" />
        <path style="fill: #269324" d="M166.06.65h61.23V14.74H184V25.68h41.23V39.29H184v20h-18Z" />
        <path style="fill: #269324" d="M237.42,18H252v7.86h.16a10,10,0,0,1,2.11-4.09,10.61,10.61,0,0,1,3.48-2.63,16.48,16.48,0,0,1,4.46-1.38,31,31,0,0,1,5.1-.41q8.51,0,12.15,3.85t3.64,12.44c0,.54,0,1.09,0,1.66s-.06,1.23-.12,2H269.5a17.89,17.89,0,0,0-.29-3.4,5.33,5.33,0,0,0-1.09-2.43A4.92,4.92,0,0,0,265.85,30a12.45,12.45,0,0,0-3.81-.48,11.94,11.94,0,0,0-6.56,1.62Q253,32.73,253,36.45V59.29H237.42Z" />
        <path style="fill: #269324" d="M289.5,36.37a28,28,0,0,1,1.38-9.56A13.38,13.38,0,0,1,294.81,21a14.22,14.22,0,0,1,6-2.88,36.36,36.36,0,0,1,7.78-.77h10.85a63.66,63.66,0,0,1,10.62.77,17.74,17.74,0,0,1,7.25,2.76,11.58,11.58,0,0,1,4.13,5.47,24.92,24.92,0,0,1,1.33,8.83v7H305.06v2.51c0,2.22.78,3.7,2.35,4.46a17.43,17.43,0,0,0,7.2,1.13h4.78a23.41,23.41,0,0,0,4.94-.4A6.89,6.89,0,0,0,327,48.76a2.72,2.72,0,0,0,1-1.49,7.83,7.83,0,0,0,.2-1.75H342.8v1.79a11.35,11.35,0,0,1-1.62,6.35,10.94,10.94,0,0,1-4.41,3.85,21.42,21.42,0,0,1-6.52,1.91,57,57,0,0,1-7.94.52H310.64a52.39,52.39,0,0,1-7.65-.56,16.21,16.21,0,0,1-6.76-2.6,14.43,14.43,0,0,1-4.86-5.91Q289.5,47,289.5,40.34Zm38.24-3.48a7.82,7.82,0,0,0-.49-3,3.54,3.54,0,0,0-1.78-1.78,10,10,0,0,0-3.48-.85c-1.46-.14-3.33-.21-5.59-.21q-3.81,0-6,.21a8.82,8.82,0,0,0-3.4.85,3.07,3.07,0,0,0-1.54,1.78,10.23,10.23,0,0,0-.36,3Z" />
        <path style="fill: #269324" d="M349.61,36.37A28,28,0,0,1,351,26.81,13.38,13.38,0,0,1,354.91,21a14.2,14.2,0,0,1,6-2.88,36.27,36.27,0,0,1,7.77-.77h10.86a63.62,63.62,0,0,1,10.61.77,17.68,17.68,0,0,1,7.25,2.76,11.58,11.58,0,0,1,4.13,5.47,24.9,24.9,0,0,1,1.34,8.83v7H365.16v2.51c0,2.22.78,3.7,2.35,4.46a17.49,17.49,0,0,0,7.21,1.13h4.78a23.54,23.54,0,0,0,4.94-.4,6.83,6.83,0,0,0,2.63-1.06,2.62,2.62,0,0,0,1.05-1.49,7.29,7.29,0,0,0,.21-1.75h14.58v1.79a11.35,11.35,0,0,1-1.62,6.35,10.91,10.91,0,0,1-4.42,3.85,21.42,21.42,0,0,1-6.52,1.91,56.94,56.94,0,0,1-7.94.52H370.75a52.63,52.63,0,0,1-7.66-.56,16.27,16.27,0,0,1-6.76-2.6,14.43,14.43,0,0,1-4.86-5.91q-1.86-3.88-1.86-10.53Zm38.23-3.48a7.64,7.64,0,0,0-.49-3,3.5,3.5,0,0,0-1.78-1.78,9.83,9.83,0,0,0-3.48-.85c-1.46-.14-3.32-.21-5.59-.21q-3.81,0-6,.21a8.88,8.88,0,0,0-3.41.85,3.11,3.11,0,0,0-1.54,1.78,10.23,10.23,0,0,0-.36,3Z" />
        <path style="fill: #269324" d="M411.09,21.22a27.38,27.38,0,0,1,1.74-10.53,14.93,14.93,0,0,1,5.1-6.52A20.42,20.42,0,0,1,426.07.89,60.06,60.06,0,0,1,436.93,0h21.14a83,83,0,0,1,15.31,1.13q5.75,1.14,8.75,3.73a12.09,12.09,0,0,1,3.89,6.8,49.1,49.1,0,0,1,.81,10.45h-18V20.49q0-3.15-2.18-4.29a13.8,13.8,0,0,0-6.24-1.13h-19.6a16.94,16.94,0,0,0-5.76.81,7.55,7.55,0,0,0-3.4,2.35A8.69,8.69,0,0,0,430,21.91a24.1,24.1,0,0,0-.44,4.9v6.32a31.39,31.39,0,0,0,.4,5.43,7.74,7.74,0,0,0,1.54,3.64,6.56,6.56,0,0,0,3.16,2,17.4,17.4,0,0,0,5.18.65H459a43.46,43.46,0,0,0,5-.25,7,7,0,0,0,3.24-1.09,4.75,4.75,0,0,0,1.75-2.43,14.25,14.25,0,0,0,.52-4.33h18v5.5a26.74,26.74,0,0,1-.85,6.93,12.29,12.29,0,0,1-3.2,5.59,16,16,0,0,1-6.56,3.77,36.57,36.57,0,0,1-11,1.37h-29a60.06,60.06,0,0,1-10.86-.89,20.28,20.28,0,0,1-8.14-3.28,14.87,14.87,0,0,1-5.1-6.48,27.28,27.28,0,0,1-1.74-10.57Z" />
        <path style="fill: #269324" d="M495.09,44.79a12.62,12.62,0,0,1,1.46-6.6,8.75,8.75,0,0,1,4.33-3.56A23.15,23.15,0,0,1,508,33.17q4.25-.29,9.92-.28c2.11,0,4,0,5.67.08a35.84,35.84,0,0,1,4.5.4,13,13,0,0,1,3.44,1,9.19,9.19,0,0,1,2.59,1.82V32.56a10.1,10.1,0,0,0-.28-2.59,3.18,3.18,0,0,0-1.1-1.7,5.17,5.17,0,0,0-2.22-.93,19.38,19.38,0,0,0-3.69-.29h-9.15a12.81,12.81,0,0,0-4.66.57c-.84.38-1.28,1.3-1.34,2.76H496.63a18.11,18.11,0,0,1,1.05-6.77A8.07,8.07,0,0,1,501,19.68a15.13,15.13,0,0,1,5.79-1.86,63.74,63.74,0,0,1,8.47-.49h18.06q8.1,0,12.23,3.73c2.76,2.49,4.13,6.18,4.13,11.1V59.29H534.94V54.6a31.64,31.64,0,0,1-2.87,2.71,11.4,11.4,0,0,1-2.68,1.62,11.79,11.79,0,0,1-3.32.81c-1.27.13-2.87.2-4.82.2H510.64a43.26,43.26,0,0,1-6.44-.44,12.65,12.65,0,0,1-4.9-1.74,8.53,8.53,0,0,1-3.12-3.61,13.93,13.93,0,0,1-1.09-5.95Zm27.7,5.43a55.28,55.28,0,0,0,6.32-.28,11.7,11.7,0,0,0,3.52-.85,2.85,2.85,0,0,0,1.5-1.38,4.9,4.9,0,0,0,.32-1.86,5.91,5.91,0,0,0-.28-2,2.34,2.34,0,0,0-1.25-1.29,9.09,9.09,0,0,0-2.84-.73,42.06,42.06,0,0,0-5.1-.24h-6.89a23.37,23.37,0,0,0-4,.28,6.16,6.16,0,0,0-2.43.89,3.14,3.14,0,0,0-1.17,1.5,6.31,6.31,0,0,0-.33,2.19,3,3,0,0,0,1.79,2.87c1.18.57,3.32.85,6.4.85Z" />
        <path style="fill: #269324" d="M558.92,18h14.82v8.1h.16a8.68,8.68,0,0,1,4.34-6.6,18.54,18.54,0,0,1,9.43-2.15h5.92q10.93,0,15.31,9.64A22.89,22.89,0,0,1,611,22.36a10.08,10.08,0,0,1,2.88-3A10.8,10.8,0,0,1,618,17.78a30.63,30.63,0,0,1,5.67-.45h4.78a27.78,27.78,0,0,1,9,1.26,14.78,14.78,0,0,1,6,3.65,13.78,13.78,0,0,1,3.32,5.87,28.27,28.27,0,0,1,1,7.94V59.29H632.14V37.1a15.08,15.08,0,0,0-.36-3.56,4.12,4.12,0,0,0-1.5-2.35,7.36,7.36,0,0,0-3.2-1.3,29.57,29.57,0,0,0-5.47-.4c-3.72,0-6.41.49-8.06,1.49s-2.47,2.85-2.47,5.55V59.29H595.53V35.88a9.5,9.5,0,0,0-.44-3.15,3.78,3.78,0,0,0-1.66-1.95,9.14,9.14,0,0,0-3.45-1,46.66,46.66,0,0,0-5.71-.28q-5,0-7.41,1.62t-2.39,6.39V59.29H558.92Z" />
        <path style="fill: #269324" d="M672.16,46.41a4.05,4.05,0,0,0,.28,1.58,2.48,2.48,0,0,0,1.26,1.18,10.13,10.13,0,0,0,2.87.77,37.38,37.38,0,0,0,5.23.28h5.51q2.75,0,4.53-.12a10.93,10.93,0,0,0,2.84-.49,2.88,2.88,0,0,0,1.46-.93,2.58,2.58,0,0,0,.4-1.54,2.82,2.82,0,0,0-1.29-2.63q-1.31-.76-5.43-.77H675.24a49.19,49.19,0,0,1-9-.69,13.71,13.71,0,0,1-5.8-2.35,8.76,8.76,0,0,1-3.07-4.45,23.53,23.53,0,0,1-.9-7.09A11.54,11.54,0,0,1,657.9,23a9.76,9.76,0,0,1,4-3.56,18.3,18.3,0,0,1,6-1.66,64.19,64.19,0,0,1,7.49-.41h10.85a101.07,101.07,0,0,1,12.32.61,21.18,21.18,0,0,1,7.29,2,7.15,7.15,0,0,1,3.48,3.84,19.1,19.1,0,0,1,1,6.08H694.76a4.39,4.39,0,0,0-.85-1.46,3.37,3.37,0,0,0-1.74-.85,20.57,20.57,0,0,0-3.36-.4c-1.44-.08-3.31-.13-5.63-.13s-4.09,0-5.47.09a15.07,15.07,0,0,0-3.24.4,2.7,2.7,0,0,0-1.58.93,3,3,0,0,0-.41,1.66,2,2,0,0,0,.33,1.14,2.28,2.28,0,0,0,1.29.77,13.81,13.81,0,0,0,2.8.4c1.21.08,2.85.12,4.9.12h10.77a43.39,43.39,0,0,1,11,1.1,14.13,14.13,0,0,1,6,3A8.18,8.18,0,0,1,712.05,41a25,25,0,0,1,.53,5.22,19.81,19.81,0,0,1-1,6.77,8.41,8.41,0,0,1-3.44,4.21,17.06,17.06,0,0,1-6.77,2.18,79.69,79.69,0,0,1-10.93.61H675.72a51.46,51.46,0,0,1-9.11-.69A15.53,15.53,0,0,1,660.54,57a9.21,9.21,0,0,1-3.37-4.18,17.07,17.07,0,0,1-1-6.4Z" />
    </g>
    <g id="white" class="sprite">
        <path style="fill: #fff" d="M0,.65H27.62L48,38.4,68.29.65H95.91V59.29H78.41V17.17h-.16L54.68,59.29H41.23L17.66,17.17H17.5V59.29H0Z" />
        <path style="fill: #fff" d="M115.27,63.51h1.29a18.51,18.51,0,0,0,7.37-1.22q2.76-1.22,2.76-4.78h-5.51L102.23,18h16.84L131,46.74,142.89,18h16.85L136.57,66.91a10.43,10.43,0,0,1-5.47,5.3,25.12,25.12,0,0,1-9.51,1.5q-2.19,0-3.69-.12l-2.63-.2Z" />
        <path style="fill: #fff" d="M166.06.65h61.23V14.74H184V25.68h41.23V39.29H184v20h-18Z" />
        <path style="fill: #fff" d="M237.42,18H252v7.86h.16a10,10,0,0,1,2.11-4.09,10.61,10.61,0,0,1,3.48-2.63,16.48,16.48,0,0,1,4.46-1.38,31,31,0,0,1,5.1-.41q8.51,0,12.15,3.85t3.64,12.44c0,.54,0,1.09,0,1.66s-.06,1.23-.12,2H269.5a17.89,17.89,0,0,0-.29-3.4,5.33,5.33,0,0,0-1.09-2.43A4.92,4.92,0,0,0,265.85,30a12.45,12.45,0,0,0-3.81-.48,11.94,11.94,0,0,0-6.56,1.62Q253,32.73,253,36.45V59.29H237.42Z" />
        <path style="fill: #fff" d="M289.5,36.37a28,28,0,0,1,1.38-9.56A13.38,13.38,0,0,1,294.81,21a14.22,14.22,0,0,1,6-2.88,36.36,36.36,0,0,1,7.78-.77h10.85a63.66,63.66,0,0,1,10.62.77,17.74,17.74,0,0,1,7.25,2.76,11.58,11.58,0,0,1,4.13,5.47,24.92,24.92,0,0,1,1.33,8.83v7H305.06v2.51c0,2.22.78,3.7,2.35,4.46a17.43,17.43,0,0,0,7.2,1.13h4.78a23.41,23.41,0,0,0,4.94-.4A6.89,6.89,0,0,0,327,48.76a2.72,2.72,0,0,0,1-1.49,7.83,7.83,0,0,0,.2-1.75H342.8v1.79a11.35,11.35,0,0,1-1.62,6.35,10.94,10.94,0,0,1-4.41,3.85,21.42,21.42,0,0,1-6.52,1.91,57,57,0,0,1-7.94.52H310.64a52.39,52.39,0,0,1-7.65-.56,16.21,16.21,0,0,1-6.76-2.6,14.43,14.43,0,0,1-4.86-5.91Q289.5,47,289.5,40.34Zm38.24-3.48a7.82,7.82,0,0,0-.49-3,3.54,3.54,0,0,0-1.78-1.78,10,10,0,0,0-3.48-.85c-1.46-.14-3.33-.21-5.59-.21q-3.81,0-6,.21a8.82,8.82,0,0,0-3.4.85,3.07,3.07,0,0,0-1.54,1.78,10.23,10.23,0,0,0-.36,3Z" />
        <path style="fill: #fff" d="M349.61,36.37A28,28,0,0,1,351,26.81,13.38,13.38,0,0,1,354.91,21a14.2,14.2,0,0,1,6-2.88,36.27,36.27,0,0,1,7.77-.77h10.86a63.62,63.62,0,0,1,10.61.77,17.68,17.68,0,0,1,7.25,2.76,11.58,11.58,0,0,1,4.13,5.47,24.9,24.9,0,0,1,1.34,8.83v7H365.16v2.51c0,2.22.78,3.7,2.35,4.46a17.49,17.49,0,0,0,7.21,1.13h4.78a23.54,23.54,0,0,0,4.94-.4,6.83,6.83,0,0,0,2.63-1.06,2.62,2.62,0,0,0,1.05-1.49,7.29,7.29,0,0,0,.21-1.75h14.58v1.79a11.35,11.35,0,0,1-1.62,6.35,10.91,10.91,0,0,1-4.42,3.85,21.42,21.42,0,0,1-6.52,1.91,56.94,56.94,0,0,1-7.94.52H370.75a52.63,52.63,0,0,1-7.66-.56,16.27,16.27,0,0,1-6.76-2.6,14.43,14.43,0,0,1-4.86-5.91q-1.86-3.88-1.86-10.53Zm38.23-3.48a7.64,7.64,0,0,0-.49-3,3.5,3.5,0,0,0-1.78-1.78,9.83,9.83,0,0,0-3.48-.85c-1.46-.14-3.32-.21-5.59-.21q-3.81,0-6,.21a8.88,8.88,0,0,0-3.41.85,3.11,3.11,0,0,0-1.54,1.78,10.23,10.23,0,0,0-.36,3Z" />
        <path style="fill: #fff" d="M411.09,21.22a27.38,27.38,0,0,1,1.74-10.53,14.93,14.93,0,0,1,5.1-6.52A20.42,20.42,0,0,1,426.07.89,60.06,60.06,0,0,1,436.93,0h21.14a83,83,0,0,1,15.31,1.13q5.75,1.14,8.75,3.73a12.09,12.09,0,0,1,3.89,6.8,49.1,49.1,0,0,1,.81,10.45h-18V20.49q0-3.15-2.18-4.29a13.8,13.8,0,0,0-6.24-1.13h-19.6a16.94,16.94,0,0,0-5.76.81,7.55,7.55,0,0,0-3.4,2.35A8.69,8.69,0,0,0,430,21.91a24.1,24.1,0,0,0-.44,4.9v6.32a31.39,31.39,0,0,0,.4,5.43,7.74,7.74,0,0,0,1.54,3.64,6.56,6.56,0,0,0,3.16,2,17.4,17.4,0,0,0,5.18.65H459a43.46,43.46,0,0,0,5-.25,7,7,0,0,0,3.24-1.09,4.75,4.75,0,0,0,1.75-2.43,14.25,14.25,0,0,0,.52-4.33h18v5.5a26.74,26.74,0,0,1-.85,6.93,12.29,12.29,0,0,1-3.2,5.59,16,16,0,0,1-6.56,3.77,36.57,36.57,0,0,1-11,1.37h-29a60.06,60.06,0,0,1-10.86-.89,20.28,20.28,0,0,1-8.14-3.28,14.87,14.87,0,0,1-5.1-6.48,27.28,27.28,0,0,1-1.74-10.57Z" />
        <path style="fill: #fff" d="M495.09,44.79a12.62,12.62,0,0,1,1.46-6.6,8.75,8.75,0,0,1,4.33-3.56A23.15,23.15,0,0,1,508,33.17q4.25-.29,9.92-.28c2.11,0,4,0,5.67.08a35.84,35.84,0,0,1,4.5.4,13,13,0,0,1,3.44,1,9.19,9.19,0,0,1,2.59,1.82V32.56a10.1,10.1,0,0,0-.28-2.59,3.18,3.18,0,0,0-1.1-1.7,5.17,5.17,0,0,0-2.22-.93,19.38,19.38,0,0,0-3.69-.29h-9.15a12.81,12.81,0,0,0-4.66.57c-.84.38-1.28,1.3-1.34,2.76H496.63a18.11,18.11,0,0,1,1.05-6.77A8.07,8.07,0,0,1,501,19.68a15.13,15.13,0,0,1,5.79-1.86,63.74,63.74,0,0,1,8.47-.49h18.06q8.1,0,12.23,3.73c2.76,2.49,4.13,6.18,4.13,11.1V59.29H534.94V54.6a31.64,31.64,0,0,1-2.87,2.71,11.4,11.4,0,0,1-2.68,1.62,11.79,11.79,0,0,1-3.32.81c-1.27.13-2.87.2-4.82.2H510.64a43.26,43.26,0,0,1-6.44-.44,12.65,12.65,0,0,1-4.9-1.74,8.53,8.53,0,0,1-3.12-3.61,13.93,13.93,0,0,1-1.09-5.95Zm27.7,5.43a55.28,55.28,0,0,0,6.32-.28,11.7,11.7,0,0,0,3.52-.85,2.85,2.85,0,0,0,1.5-1.38,4.9,4.9,0,0,0,.32-1.86,5.91,5.91,0,0,0-.28-2,2.34,2.34,0,0,0-1.25-1.29,9.09,9.09,0,0,0-2.84-.73,42.06,42.06,0,0,0-5.1-.24h-6.89a23.37,23.37,0,0,0-4,.28,6.16,6.16,0,0,0-2.43.89,3.14,3.14,0,0,0-1.17,1.5,6.31,6.31,0,0,0-.33,2.19,3,3,0,0,0,1.79,2.87c1.18.57,3.32.85,6.4.85Z" />
        <path style="fill: #fff" d="M558.92,18h14.82v8.1h.16a8.68,8.68,0,0,1,4.34-6.6,18.54,18.54,0,0,1,9.43-2.15h5.92q10.93,0,15.31,9.64A22.89,22.89,0,0,1,611,22.36a10.08,10.08,0,0,1,2.88-3A10.8,10.8,0,0,1,618,17.78a30.63,30.63,0,0,1,5.67-.45h4.78a27.78,27.78,0,0,1,9,1.26,14.78,14.78,0,0,1,6,3.65,13.78,13.78,0,0,1,3.32,5.87,28.27,28.27,0,0,1,1,7.94V59.29H632.14V37.1a15.08,15.08,0,0,0-.36-3.56,4.12,4.12,0,0,0-1.5-2.35,7.36,7.36,0,0,0-3.2-1.3,29.57,29.57,0,0,0-5.47-.4c-3.72,0-6.41.49-8.06,1.49s-2.47,2.85-2.47,5.55V59.29H595.53V35.88a9.5,9.5,0,0,0-.44-3.15,3.78,3.78,0,0,0-1.66-1.95,9.14,9.14,0,0,0-3.45-1,46.66,46.66,0,0,0-5.71-.28q-5,0-7.41,1.62t-2.39,6.39V59.29H558.92Z" />
        <path style="fill: #fff" d="M672.16,46.41a4.05,4.05,0,0,0,.28,1.58,2.48,2.48,0,0,0,1.26,1.18,10.13,10.13,0,0,0,2.87.77,37.38,37.38,0,0,0,5.23.28h5.51q2.75,0,4.53-.12a10.93,10.93,0,0,0,2.84-.49,2.88,2.88,0,0,0,1.46-.93,2.58,2.58,0,0,0,.4-1.54,2.82,2.82,0,0,0-1.29-2.63q-1.31-.76-5.43-.77H675.24a49.19,49.19,0,0,1-9-.69,13.71,13.71,0,0,1-5.8-2.35,8.76,8.76,0,0,1-3.07-4.45,23.53,23.53,0,0,1-.9-7.09A11.54,11.54,0,0,1,657.9,23a9.76,9.76,0,0,1,4-3.56,18.3,18.3,0,0,1,6-1.66,64.19,64.19,0,0,1,7.49-.41h10.85a101.07,101.07,0,0,1,12.32.61,21.18,21.18,0,0,1,7.29,2,7.15,7.15,0,0,1,3.48,3.84,19.1,19.1,0,0,1,1,6.08H694.76a4.39,4.39,0,0,0-.85-1.46,3.37,3.37,0,0,0-1.74-.85,20.57,20.57,0,0,0-3.36-.4c-1.44-.08-3.31-.13-5.63-.13s-4.09,0-5.47.09a15.07,15.07,0,0,0-3.24.4,2.7,2.7,0,0,0-1.58.93,3,3,0,0,0-.41,1.66,2,2,0,0,0,.33,1.14,2.28,2.28,0,0,0,1.29.77,13.81,13.81,0,0,0,2.8.4c1.21.08,2.85.12,4.9.12h10.77a43.39,43.39,0,0,1,11,1.1,14.13,14.13,0,0,1,6,3A8.18,8.18,0,0,1,712.05,41a25,25,0,0,1,.53,5.22,19.81,19.81,0,0,1-1,6.77,8.41,8.41,0,0,1-3.44,4.21,17.06,17.06,0,0,1-6.77,2.18,79.69,79.69,0,0,1-10.93.61H675.72a51.46,51.46,0,0,1-9.11-.69A15.53,15.53,0,0,1,660.54,57a9.21,9.21,0,0,1-3.37-4.18,17.07,17.07,0,0,1-1-6.4Z" />
    </g>
</svg>
