<svg xmlns="http://www.w3.org/2000/svg" viewBox="0 0 1087.54 212.34">
    <defs>
        <style>
            .sprite { display: none; }
            .sprite:target { display: inline; }
        </style>
    </defs>
    <g id="default" class="sprite">
        <path fill="#ffdc00" d="M156.09 156.85l21.88-71.81-42.72 20.59-24.33-36.29-24.32 36.29-42.72-20.59 21.87 71.81h90.34z"/>
        <path style="fill:#ffc000;" d="M177.97 85.04l-42.72 20.59-24.33-36.29v87.51h45.17l21.88-71.81z"/>
        <circle style="fill:#ffb344;" cx="110.92" cy="69.34" r="11.07"/>
        <path style="fill:#ff9451;" d="M110.92 58.27v22.14a11.07 11.07 0 000-22.14z"/>
        <circle style="fill:#ffb344;" cx="45.93" cy="85.68" r="7.59"/>
        <circle style="fill:#ff9451;" cx="175.91" cy="85.68" r="7.59"/>
        <path id="SVGCleanerId_0" data-name="SVGCleanerId 0" d="M208.21 120.8A22.07 22.07 0 00220.16 92L217 84.28l-7.68 3.18a22.18 22.18 0 00-5.76 3.5 92.39 92.39 0 00-7.4-23.32l1.59-2a22.07 22.07 0 00-3.2-31l-6.45-5.25-5.24 6.45a21.91 21.91 0 00-3.78 6.85 93.51 93.51 0 00-20.36-16.19v-2.41A24.09 24.09 0 00134.63 0h-9.07v9.07A24.1 24.1 0 00146.73 33a82.71 82.71 0 11-71.61 0A24.1 24.1 0 0096.29 9.07V0h-9.07a24.1 24.1 0 00-24.1 24.09v2.41a93.69 93.69 0 00-20.33 16.19A21.91 21.91 0 0039 35.84l-5.25-6.45-6.45 5.25a22.06 22.06 0 00-3.19 31.05l1.58 2A92.77 92.77 0 0018.31 91a22.07 22.07 0 00-5.77-3.5l-7.68-3.22L1.68 92a22.07 22.07 0 0012 28.84l4.43 1.84a93.25 93.25 0 008.76 27.05 22.09 22.09 0 00-7.17.78l-8 2.25 2.25 8A22.07 22.07 0 0041.1 176l4.17-1.17a94.7 94.7 0 0022.35 16.19 22 22 0 00-6.39 7.12l-4.08 7.25 7.25 4.08a22.07 22.07 0 0030.06-8.42l.46-.82a94.17 94.17 0 0032 0l.46.82a22.07 22.07 0 0030.06 8.42l7.25-4.08-4.08-7.25a22 22 0 00-6.39-7.12 94.5 94.5 0 0022.35-16.19l4.16 1.17A22.09 22.09 0 00208 160.72l2.24-8-8-2.25a22.07 22.07 0 00-7.17-.78 93.26 93.26 0 008.77-27z"/>
        <path id="SVGCleanerId_0-2" data-name="SVGCleanerId 0" d="M208.21 120.8A22.07 22.07 0 00220.16 92L217 84.28l-7.68 3.18a22.18 22.18 0 00-5.76 3.5 92.39 92.39 0 00-7.4-23.32l1.59-2a22.07 22.07 0 00-3.2-31l-6.45-5.25-5.24 6.45a21.91 21.91 0 00-3.78 6.85 93.51 93.51 0 00-20.36-16.19v-2.41A24.09 24.09 0 00134.63 0h-9.07v9.07A24.1 24.1 0 00146.73 33a82.71 82.71 0 11-71.61 0A24.1 24.1 0 0096.29 9.07V0h-9.07a24.1 24.1 0 00-24.1 24.09v2.41a93.69 93.69 0 00-20.33 16.19A21.91 21.91 0 0039 35.84l-5.25-6.45-6.45 5.25a22.06 22.06 0 00-3.19 31.05l1.58 2A92.77 92.77 0 0018.31 91a22.07 22.07 0 00-5.77-3.5l-7.68-3.22L1.68 92a22.07 22.07 0 0012 28.84l4.43 1.84a93.25 93.25 0 008.76 27.05 22.09 22.09 0 00-7.17.78l-8 2.25 2.25 8A22.07 22.07 0 0041.1 176l4.17-1.17a94.7 94.7 0 0022.35 16.19 22 22 0 00-6.39 7.12l-4.08 7.25 7.25 4.08a22.07 22.07 0 0030.06-8.42l.46-.82a94.17 94.17 0 0032 0l.46.82a22.07 22.07 0 0030.06 8.42l7.25-4.08-4.08-7.25a22 22 0 00-6.39-7.12 94.5 94.5 0 0022.35-16.19l4.16 1.17A22.09 22.09 0 00208 160.72l2.24-8-8-2.25a22.07 22.07 0 00-7.17-.78 93.26 93.26 0 008.77-27z"/>
        <path d="M208.21 120.8A22.07 22.07 0 00220.16 92L217 84.28l-7.68 3.18a22.18 22.18 0 00-5.76 3.5 92.39 92.39 0 00-7.4-23.32l1.59-2a22.07 22.07 0 00-3.2-31l-6.45-5.25-5.24 6.45a21.91 21.91 0 00-3.78 6.85 93.51 93.51 0 00-20.36-16.19v-2.41A24.09 24.09 0 00134.63 0h-9.07v9.07A24.1 24.1 0 00146.73 33a82.72 82.72 0 01-35.81 157.28v11.37a93.92 93.92 0 0016-1.37l.46.82a22.07 22.07 0 0030.06 8.42l7.25-4.08-4.08-7.25a22 22 0 00-6.39-7.12 94.5 94.5 0 0022.35-16.19l4.16 1.17A22.09 22.09 0 00208 160.72l2.24-8-8-2.25a22.07 22.07 0 00-7.17-.78 93.26 93.26 0 008.77-27zM276.54 62.75a3.1 3.1 0 01.69-2.11 2.62 2.62 0 012.07-.78h40.56A30.47 30.47 0 01332 62.28a31.38 31.38 0 019.86 6.56 30.54 30.54 0 016.63 9.7 29.39 29.39 0 012.41 11.84 27.94 27.94 0 01-1.16 8.13 30.28 30.28 0 01-3.23 7.22 30.74 30.74 0 01-4.93 6.09 32.58 32.58 0 01-6.25 4.68l16.14 30.39c.29.59.67 1.28 1.13 2.07a4.33 4.33 0 01.69 2.08 1.87 1.87 0 01-.66 1.54 2.81 2.81 0 01-1.79.53h-21.56a3.11 3.11 0 01-1.91-.63 2.84 2.84 0 01-1.1-1.69L311 122.09h-10.16v28.32c0 1.8-1 2.7-2.89 2.7H279.3a2.93 2.93 0 01-2-.66 2.58 2.58 0 01-.75-2zm49.16 27.88a10.9 10.9 0 00-.69-3.77 12.22 12.22 0 00-1.94-3.45 11.42 11.42 0 00-3-2.64 10.34 10.34 0 00-3.89-1.38l-3.3-.22c-1-.07-2.14-.1-3.36-.1h-8.66v23.05h11.55q1.13 0 2-.06c.59 0 1.23-.11 2-.19a10 10 0 003.95-1.29 10.2 10.2 0 002.89-2.58 11.36 11.36 0 001.83-3.46 12.7 12.7 0 00.62-3.91zM360.43 106.58a47.66 47.66 0 011.69-12.78 48.43 48.43 0 0112.35-21.26 46.75 46.75 0 019.71-7.5 49.66 49.66 0 0111.47-4.84 48.26 48.26 0 0125.54 0 49.7 49.7 0 0111.5 4.8 47.61 47.61 0 0117.25 17.27 50.36 50.36 0 014.84 11.49 48.34 48.34 0 010 25.56 49.17 49.17 0 01-4.84 11.43 47.71 47.71 0 01-7.51 9.67 48.91 48.91 0 01-9.74 7.5 48.12 48.12 0 01-48.51 0 48.15 48.15 0 01-9.71-7.5 49.18 49.18 0 01-7.51-9.67 47.16 47.16 0 01-6.53-24.21zm24.3-.06a26.68 26.68 0 001.75 9.73 24.28 24.28 0 004.93 7.88 22.84 22.84 0 007.49 5.27 23.25 23.25 0 009.53 1.92 23.51 23.51 0 009.57-1.92 22.76 22.76 0 007.52-5.27 24.12 24.12 0 004.93-7.88 27.87 27.87 0 000-19.44 24.39 24.39 0 00-4.93-7.94 23.1 23.1 0 00-7.52-5.34 23.35 23.35 0 00-9.57-1.94 22.77 22.77 0 00-17 7.28 24.56 24.56 0 00-4.93 7.94 26.77 26.77 0 00-1.77 9.71zM500.37 94.27l15.16-32.46a7.48 7.48 0 01.63-1.1 1.87 1.87 0 01.5-.51 1.34 1.34 0 01.53-.18 4.44 4.44 0 00.66-.16H542a1 1 0 01.72.28.9.9 0 01.28.66 2.39 2.39 0 01-.88 1.57l-29.76 52.68v35.11c0 2-1 3-2.88 3h-18.76a2.42 2.42 0 01-1.94-.79 3.15 3.15 0 01-.69-2.16v-35.28l-29.7-52.56a2.29 2.29 0 01-.82-1.57 1 1 0 01.25-.66.88.88 0 01.69-.28h24.18c.29.08.52.13.69.16a1.26 1.26 0 01.5.18 1.87 1.87 0 01.5.51 11.57 11.57 0 01.69 1.1zM569.09 62.31a1.91 1.91 0 01.41-.82 4.4 4.4 0 01.85-.81 4.19 4.19 0 011.07-.6 2.84 2.84 0 011.06-.22h16.08a2.66 2.66 0 011.82.66 8.45 8.45 0 011.13 1.16l1.57 3.58 33 85a1.86 1.86 0 01-.19 2 3 3 0 01-2.39.79h-18a4 4 0 01-2.23-.53 3.5 3.5 0 01-1.22-1.79c-.84-2.14-1.66-4.26-2.45-6.38s-1.59-4.24-2.39-6.37h-33.39c-.8 2.13-1.6 4.26-2.42 6.37s-1.62 4.24-2.42 6.38a3.14 3.14 0 01-3.2 2.32h-18.52a3.05 3.05 0 01-2-.63 1.47 1.47 0 01-.28-1.88zm11.43 26.87c-.8 2.14-1.6 4.44-2.42 6.91s-1.62 5-2.41 7.47-1.61 5-2.42 7.44-1.62 4.75-2.42 6.88h19.28zM636.34 62.56a2.77 2.77 0 01.76-2 2.68 2.68 0 012.07-.81h18.59a2.9 2.9 0 011.94.75 2.67 2.67 0 01.94 2v68.32h34.54a2.79 2.79 0 012 .75 2.7 2.7 0 01.81 2.07v16.52a3 3 0 01-.72 1.95 2.67 2.67 0 01-2 .94h-56.16a2.44 2.44 0 01-2.77-2.76z"/>
        <path style="fill:#ffc000;" d="M786.06 66.64a4 4 0 011.57 1.63 2.59 2.59 0 01-.19 2.39l-10.61 15.07a2.44 2.44 0 01-1.48 1.27 2.73 2.73 0 01-1.91-.53 23.94 23.94 0 00-6.78-3.58 24.23 24.23 0 00-7.85-1.25 22.73 22.73 0 00-17 7.28 24.71 24.71 0 00-4.81 7.86 26.31 26.31 0 00-1.76 9.67 26 26 0 001.76 9.64 24.43 24.43 0 004.89 7.85 22.85 22.85 0 0017 7.25 24.38 24.38 0 0014.76-4.89 2.86 2.86 0 011.88-.57 2.58 2.58 0 011.51 1.13l10.73 15.45a2.45 2.45 0 01.19 2.32 4 4 0 01-1.57 1.57 49.54 49.54 0 01-12.71 6.12 47 47 0 01-14.35 2.17 47.71 47.71 0 01-33.94-14 49.18 49.18 0 01-7.51-9.67 47.1 47.1 0 01-4.88-11.46 48.89 48.89 0 010-25.56 48.2 48.2 0 014.83-11.49 48.94 48.94 0 017.51-9.77A46.69 46.69 0 01735 65a49.76 49.76 0 0111.46-4.84 48.79 48.79 0 0127 .38 48.56 48.56 0 0112.6 6.1zM830.08 62.31a1.91 1.91 0 01.41-.82 4.4 4.4 0 01.85-.81 4.31 4.31 0 011.06-.6 2.92 2.92 0 011.07-.22h16.08a2.66 2.66 0 011.82.66 8.45 8.45 0 011.13 1.16l1.57 3.58 33 85a1.86 1.86 0 01-.19 2 3.06 3.06 0 01-2.39.79h-18a4 4 0 01-2.23-.53 3.57 3.57 0 01-1.23-1.79c-.83-2.14-1.65-4.26-2.45-6.38s-1.59-4.24-2.38-6.37h-33.39c-.8 2.13-1.6 4.26-2.42 6.37s-1.62 4.24-2.42 6.38a3.14 3.14 0 01-3.2 2.32h-18.53a3 3 0 01-2-.63 1.48 1.48 0 01-.29-1.88zm11.43 26.87c-.8 2.14-1.6 4.44-2.42 6.91s-1.62 5-2.42 7.47-1.6 5-2.41 7.44-1.63 4.75-2.42 6.88h19.28zM904.74 62.62a3.31 3.31 0 01.88-1.94 2.73 2.73 0 012.13-.82h21.73a2.93 2.93 0 013 2.39l17.08 57 17.2-57a3.21 3.21 0 013.2-2.39h21.48a3.07 3.07 0 012 .78 3 3 0 011 2q2.19 22.11 4.49 43.86t4.49 43.87v.31c0 1.63-.93 2.45-2.77 2.45H983c-1.92 0-2.93-.92-3-2.76l-5.46-48.54-14.13 48.85a3.66 3.66 0 01-.91 1.51 2.2 2.2 0 01-1.54.88h-16.55a2.42 2.42 0 01-1.6-.85 2.74 2.74 0 01-.91-1.54l-14.13-48.73-5.46 48.42c-.09 1.84-1.11 2.76-3.08 2.76h-17.77q-2.7 0-2.7-2.76zM1031.9 123c.71.58 1.62 1.37 2.73 2.35a36 36 0 003.8 2.92 31.52 31.52 0 006.34 3.33 18.34 18.34 0 006.6 1.19 17.16 17.16 0 005.36-.72 9.11 9.11 0 003.43-1.91 7 7 0 001.79-2.76 10.46 10.46 0 00.53-3.33 4.86 4.86 0 00-1.48-3.48 15.34 15.34 0 00-3.61-2.73 32 32 0 00-4.45-2q-2.32-.84-4-1.41a92 92 0 01-13.19-5.68 40.86 40.86 0 01-9.42-6.77 24.37 24.37 0 01-7.53-18.23 23.57 23.57 0 012.35-10.6 23.3 23.3 0 016.72-8.16 32 32 0 0110.52-5.24 47.75 47.75 0 0113.75-1.85 45.75 45.75 0 0111 1.29 41.62 41.62 0 0110.33 4.11q2.13 1.26 4 2.61c1.27.9 2.39 1.76 3.36 2.6a16.1 16.1 0 012.29 2.39 3.5 3.5 0 01.85 1.94 2.93 2.93 0 01-.41 1.51 9 9 0 01-1.23 1.57l-9.6 10.24a3.1 3.1 0 01-2.14 1.06 2.69 2.69 0 01-1.6-.5 18.91 18.91 0 01-1.6-1.25l-.57-.51c-.83-.71-1.77-1.44-2.79-2.19a25 25 0 00-3.3-2 23.1 23.1 0 00-3.7-1.5 13.39 13.39 0 00-4-.6 20.84 20.84 0 00-3.89.35 10.74 10.74 0 00-3.14.96 6.06 6.06 0 00-2.19 2 5.77 5.77 0 00.06 6 8.63 8.63 0 002.64 2.39 24.44 24.44 0 004.36 2.07q2.61 1 6.06 2.1 6.66 2.2 12.28 4.62a41.64 41.64 0 019.7 5.71 23.72 23.72 0 016.37 7.88 24.66 24.66 0 012.3 11.12 27.58 27.58 0 01-2.83 12.53A28.64 28.64 0 011077 146a36.16 36.16 0 01-11.58 6.13 46.14 46.14 0 01-14.32 2.16 40.61 40.61 0 01-14.19-2.58 54.33 54.33 0 01-13-6.93 33.63 33.63 0 01-4.24-3.59c-1.15-1.17-2.06-2.12-2.73-2.83l-.19-.19a.37.37 0 00-.12-.16.38.38 0 01-.13-.09.31.31 0 00-.12-.16.38.38 0 01-.13-.09 4.41 4.41 0 01-1.44-2.52 3.57 3.57 0 011.44-2.4l10.86-10.36a4.09 4.09 0 012.14-.94 2.33 2.33 0 011.19.38 11 11 0 011.46 1.17z"/>
    </g>
    <g id="white" class="sprite">
        <path fill="#fff" d="M156.09 156.85l21.88-71.81-42.72 20.59-24.33-36.29-24.32 36.29-42.72-20.59 21.87 71.81h90.34z"/>
        <path style="fill:#fff;" d="M177.97 85.04l-42.72 20.59-24.33-36.29v87.51h45.17l21.88-71.81z"/>
        <circle style="fill:#fff;" cx="110.92" cy="69.34" r="11.07"/>
        <path style="fill:#fff;" d="M110.92 58.27v22.14a11.07 11.07 0 000-22.14z"/>
        <circle style="fill:#fff;" cx="45.93" cy="85.68" r="7.59"/>
        <circle style="fill:#fff;" cx="175.91" cy="85.68" r="7.59"/>
        <path style="fill:#fff;" id="SVGCleanerId_0" data-name="SVGCleanerId 0" d="M208.21 120.8A22.07 22.07 0 00220.16 92L217 84.28l-7.68 3.18a22.18 22.18 0 00-5.76 3.5 92.39 92.39 0 00-7.4-23.32l1.59-2a22.07 22.07 0 00-3.2-31l-6.45-5.25-5.24 6.45a21.91 21.91 0 00-3.78 6.85 93.51 93.51 0 00-20.36-16.19v-2.41A24.09 24.09 0 00134.63 0h-9.07v9.07A24.1 24.1 0 00146.73 33a82.71 82.71 0 11-71.61 0A24.1 24.1 0 0096.29 9.07V0h-9.07a24.1 24.1 0 00-24.1 24.09v2.41a93.69 93.69 0 00-20.33 16.19A21.91 21.91 0 0039 35.84l-5.25-6.45-6.45 5.25a22.06 22.06 0 00-3.19 31.05l1.58 2A92.77 92.77 0 0018.31 91a22.07 22.07 0 00-5.77-3.5l-7.68-3.22L1.68 92a22.07 22.07 0 0012 28.84l4.43 1.84a93.25 93.25 0 008.76 27.05 22.09 22.09 0 00-7.17.78l-8 2.25 2.25 8A22.07 22.07 0 0041.1 176l4.17-1.17a94.7 94.7 0 0022.35 16.19 22 22 0 00-6.39 7.12l-4.08 7.25 7.25 4.08a22.07 22.07 0 0030.06-8.42l.46-.82a94.17 94.17 0 0032 0l.46.82a22.07 22.07 0 0030.06 8.42l7.25-4.08-4.08-7.25a22 22 0 00-6.39-7.12 94.5 94.5 0 0022.35-16.19l4.16 1.17A22.09 22.09 0 00208 160.72l2.24-8-8-2.25a22.07 22.07 0 00-7.17-.78 93.26 93.26 0 008.77-27z"/>
        <path style="fill:#fff;" id="SVGCleanerId_0-2" data-name="SVGCleanerId 0" d="M208.21 120.8A22.07 22.07 0 00220.16 92L217 84.28l-7.68 3.18a22.18 22.18 0 00-5.76 3.5 92.39 92.39 0 00-7.4-23.32l1.59-2a22.07 22.07 0 00-3.2-31l-6.45-5.25-5.24 6.45a21.91 21.91 0 00-3.78 6.85 93.51 93.51 0 00-20.36-16.19v-2.41A24.09 24.09 0 00134.63 0h-9.07v9.07A24.1 24.1 0 00146.73 33a82.71 82.71 0 11-71.61 0A24.1 24.1 0 0096.29 9.07V0h-9.07a24.1 24.1 0 00-24.1 24.09v2.41a93.69 93.69 0 00-20.33 16.19A21.91 21.91 0 0039 35.84l-5.25-6.45-6.45 5.25a22.06 22.06 0 00-3.19 31.05l1.58 2A92.77 92.77 0 0018.31 91a22.07 22.07 0 00-5.77-3.5l-7.68-3.22L1.68 92a22.07 22.07 0 0012 28.84l4.43 1.84a93.25 93.25 0 008.76 27.05 22.09 22.09 0 00-7.17.78l-8 2.25 2.25 8A22.07 22.07 0 0041.1 176l4.17-1.17a94.7 94.7 0 0022.35 16.19 22 22 0 00-6.39 7.12l-4.08 7.25 7.25 4.08a22.07 22.07 0 0030.06-8.42l.46-.82a94.17 94.17 0 0032 0l.46.82a22.07 22.07 0 0030.06 8.42l7.25-4.08-4.08-7.25a22 22 0 00-6.39-7.12 94.5 94.5 0 0022.35-16.19l4.16 1.17A22.09 22.09 0 00208 160.72l2.24-8-8-2.25a22.07 22.07 0 00-7.17-.78 93.26 93.26 0 008.77-27z"/>
        <path style="fill:#fff;" d="M208.21 120.8A22.07 22.07 0 00220.16 92L217 84.28l-7.68 3.18a22.18 22.18 0 00-5.76 3.5 92.39 92.39 0 00-7.4-23.32l1.59-2a22.07 22.07 0 00-3.2-31l-6.45-5.25-5.24 6.45a21.91 21.91 0 00-3.78 6.85 93.51 93.51 0 00-20.36-16.19v-2.41A24.09 24.09 0 00134.63 0h-9.07v9.07A24.1 24.1 0 00146.73 33a82.72 82.72 0 01-35.81 157.28v11.37a93.92 93.92 0 0016-1.37l.46.82a22.07 22.07 0 0030.06 8.42l7.25-4.08-4.08-7.25a22 22 0 00-6.39-7.12 94.5 94.5 0 0022.35-16.19l4.16 1.17A22.09 22.09 0 00208 160.72l2.24-8-8-2.25a22.07 22.07 0 00-7.17-.78 93.26 93.26 0 008.77-27zM276.54 62.75a3.1 3.1 0 01.69-2.11 2.62 2.62 0 012.07-.78h40.56A30.47 30.47 0 01332 62.28a31.38 31.38 0 019.86 6.56 30.54 30.54 0 016.63 9.7 29.39 29.39 0 012.41 11.84 27.94 27.94 0 01-1.16 8.13 30.28 30.28 0 01-3.23 7.22 30.74 30.74 0 01-4.93 6.09 32.58 32.58 0 01-6.25 4.68l16.14 30.39c.29.59.67 1.28 1.13 2.07a4.33 4.33 0 01.69 2.08 1.87 1.87 0 01-.66 1.54 2.81 2.81 0 01-1.79.53h-21.56a3.11 3.11 0 01-1.91-.63 2.84 2.84 0 01-1.1-1.69L311 122.09h-10.16v28.32c0 1.8-1 2.7-2.89 2.7H279.3a2.93 2.93 0 01-2-.66 2.58 2.58 0 01-.75-2zm49.16 27.88a10.9 10.9 0 00-.69-3.77 12.22 12.22 0 00-1.94-3.45 11.42 11.42 0 00-3-2.64 10.34 10.34 0 00-3.89-1.38l-3.3-.22c-1-.07-2.14-.1-3.36-.1h-8.66v23.05h11.55q1.13 0 2-.06c.59 0 1.23-.11 2-.19a10 10 0 003.95-1.29 10.2 10.2 0 002.89-2.58 11.36 11.36 0 001.83-3.46 12.7 12.7 0 00.62-3.91zM360.43 106.58a47.66 47.66 0 011.69-12.78 48.43 48.43 0 0112.35-21.26 46.75 46.75 0 019.71-7.5 49.66 49.66 0 0111.47-4.84 48.26 48.26 0 0125.54 0 49.7 49.7 0 0111.5 4.8 47.61 47.61 0 0117.25 17.27 50.36 50.36 0 014.84 11.49 48.34 48.34 0 010 25.56 49.17 49.17 0 01-4.84 11.43 47.71 47.71 0 01-7.51 9.67 48.91 48.91 0 01-9.74 7.5 48.12 48.12 0 01-48.51 0 48.15 48.15 0 01-9.71-7.5 49.18 49.18 0 01-7.51-9.67 47.16 47.16 0 01-6.53-24.21zm24.3-.06a26.68 26.68 0 001.75 9.73 24.28 24.28 0 004.93 7.88 22.84 22.84 0 007.49 5.27 23.25 23.25 0 009.53 1.92 23.51 23.51 0 009.57-1.92 22.76 22.76 0 007.52-5.27 24.12 24.12 0 004.93-7.88 27.87 27.87 0 000-19.44 24.39 24.39 0 00-4.93-7.94 23.1 23.1 0 00-7.52-5.34 23.35 23.35 0 00-9.57-1.94 22.77 22.77 0 00-17 7.28 24.56 24.56 0 00-4.93 7.94 26.77 26.77 0 00-1.77 9.71zM500.37 94.27l15.16-32.46a7.48 7.48 0 01.63-1.1 1.87 1.87 0 01.5-.51 1.34 1.34 0 01.53-.18 4.44 4.44 0 00.66-.16H542a1 1 0 01.72.28.9.9 0 01.28.66 2.39 2.39 0 01-.88 1.57l-29.76 52.68v35.11c0 2-1 3-2.88 3h-18.76a2.42 2.42 0 01-1.94-.79 3.15 3.15 0 01-.69-2.16v-35.28l-29.7-52.56a2.29 2.29 0 01-.82-1.57 1 1 0 01.25-.66.88.88 0 01.69-.28h24.18c.29.08.52.13.69.16a1.26 1.26 0 01.5.18 1.87 1.87 0 01.5.51 11.57 11.57 0 01.69 1.1zM569.09 62.31a1.91 1.91 0 01.41-.82 4.4 4.4 0 01.85-.81 4.19 4.19 0 011.07-.6 2.84 2.84 0 011.06-.22h16.08a2.66 2.66 0 011.82.66 8.45 8.45 0 011.13 1.16l1.57 3.58 33 85a1.86 1.86 0 01-.19 2 3 3 0 01-2.39.79h-18a4 4 0 01-2.23-.53 3.5 3.5 0 01-1.22-1.79c-.84-2.14-1.66-4.26-2.45-6.38s-1.59-4.24-2.39-6.37h-33.39c-.8 2.13-1.6 4.26-2.42 6.37s-1.62 4.24-2.42 6.38a3.14 3.14 0 01-3.2 2.32h-18.52a3.05 3.05 0 01-2-.63 1.47 1.47 0 01-.28-1.88zm11.43 26.87c-.8 2.14-1.6 4.44-2.42 6.91s-1.62 5-2.41 7.47-1.61 5-2.42 7.44-1.62 4.75-2.42 6.88h19.28zM636.34 62.56a2.77 2.77 0 01.76-2 2.68 2.68 0 012.07-.81h18.59a2.9 2.9 0 011.94.75 2.67 2.67 0 01.94 2v68.32h34.54a2.79 2.79 0 012 .75 2.7 2.7 0 01.81 2.07v16.52a3 3 0 01-.72 1.95 2.67 2.67 0 01-2 .94h-56.16a2.44 2.44 0 01-2.77-2.76z"/>
        <path style="fill:#fff;" d="M786.06 66.64a4 4 0 011.57 1.63 2.59 2.59 0 01-.19 2.39l-10.61 15.07a2.44 2.44 0 01-1.48 1.27 2.73 2.73 0 01-1.91-.53 23.94 23.94 0 00-6.78-3.58 24.23 24.23 0 00-7.85-1.25 22.73 22.73 0 00-17 7.28 24.71 24.71 0 00-4.81 7.86 26.31 26.31 0 00-1.76 9.67 26 26 0 001.76 9.64 24.43 24.43 0 004.89 7.85 22.85 22.85 0 0017 7.25 24.38 24.38 0 0014.76-4.89 2.86 2.86 0 011.88-.57 2.58 2.58 0 011.51 1.13l10.73 15.45a2.45 2.45 0 01.19 2.32 4 4 0 01-1.57 1.57 49.54 49.54 0 01-12.71 6.12 47 47 0 01-14.35 2.17 47.71 47.71 0 01-33.94-14 49.18 49.18 0 01-7.51-9.67 47.1 47.1 0 01-4.88-11.46 48.89 48.89 0 010-25.56 48.2 48.2 0 014.83-11.49 48.94 48.94 0 017.51-9.77A46.69 46.69 0 01735 65a49.76 49.76 0 0111.46-4.84 48.79 48.79 0 0127 .38 48.56 48.56 0 0112.6 6.1zM830.08 62.31a1.91 1.91 0 01.41-.82 4.4 4.4 0 01.85-.81 4.31 4.31 0 011.06-.6 2.92 2.92 0 011.07-.22h16.08a2.66 2.66 0 011.82.66 8.45 8.45 0 011.13 1.16l1.57 3.58 33 85a1.86 1.86 0 01-.19 2 3.06 3.06 0 01-2.39.79h-18a4 4 0 01-2.23-.53 3.57 3.57 0 01-1.23-1.79c-.83-2.14-1.65-4.26-2.45-6.38s-1.59-4.24-2.38-6.37h-33.39c-.8 2.13-1.6 4.26-2.42 6.37s-1.62 4.24-2.42 6.38a3.14 3.14 0 01-3.2 2.32h-18.53a3 3 0 01-2-.63 1.48 1.48 0 01-.29-1.88zm11.43 26.87c-.8 2.14-1.6 4.44-2.42 6.91s-1.62 5-2.42 7.47-1.6 5-2.41 7.44-1.63 4.75-2.42 6.88h19.28zM904.74 62.62a3.31 3.31 0 01.88-1.94 2.73 2.73 0 012.13-.82h21.73a2.93 2.93 0 013 2.39l17.08 57 17.2-57a3.21 3.21 0 013.2-2.39h21.48a3.07 3.07 0 012 .78 3 3 0 011 2q2.19 22.11 4.49 43.86t4.49 43.87v.31c0 1.63-.93 2.45-2.77 2.45H983c-1.92 0-2.93-.92-3-2.76l-5.46-48.54-14.13 48.85a3.66 3.66 0 01-.91 1.51 2.2 2.2 0 01-1.54.88h-16.55a2.42 2.42 0 01-1.6-.85 2.74 2.74 0 01-.91-1.54l-14.13-48.73-5.46 48.42c-.09 1.84-1.11 2.76-3.08 2.76h-17.77q-2.7 0-2.7-2.76zM1031.9 123c.71.58 1.62 1.37 2.73 2.35a36 36 0 003.8 2.92 31.52 31.52 0 006.34 3.33 18.34 18.34 0 006.6 1.19 17.16 17.16 0 005.36-.72 9.11 9.11 0 003.43-1.91 7 7 0 001.79-2.76 10.46 10.46 0 00.53-3.33 4.86 4.86 0 00-1.48-3.48 15.34 15.34 0 00-3.61-2.73 32 32 0 00-4.45-2q-2.32-.84-4-1.41a92 92 0 01-13.19-5.68 40.86 40.86 0 01-9.42-6.77 24.37 24.37 0 01-7.53-18.23 23.57 23.57 0 012.35-10.6 23.3 23.3 0 016.72-8.16 32 32 0 0110.52-5.24 47.75 47.75 0 0113.75-1.85 45.75 45.75 0 0111 1.29 41.62 41.62 0 0110.33 4.11q2.13 1.26 4 2.61c1.27.9 2.39 1.76 3.36 2.6a16.1 16.1 0 012.29 2.39 3.5 3.5 0 01.85 1.94 2.93 2.93 0 01-.41 1.51 9 9 0 01-1.23 1.57l-9.6 10.24a3.1 3.1 0 01-2.14 1.06 2.69 2.69 0 01-1.6-.5 18.91 18.91 0 01-1.6-1.25l-.57-.51c-.83-.71-1.77-1.44-2.79-2.19a25 25 0 00-3.3-2 23.1 23.1 0 00-3.7-1.5 13.39 13.39 0 00-4-.6 20.84 20.84 0 00-3.89.35 10.74 10.74 0 00-3.14.96 6.06 6.06 0 00-2.19 2 5.77 5.77 0 00.06 6 8.63 8.63 0 002.64 2.39 24.44 24.44 0 004.36 2.07q2.61 1 6.06 2.1 6.66 2.2 12.28 4.62a41.64 41.64 0 019.7 5.71 23.72 23.72 0 016.37 7.88 24.66 24.66 0 012.3 11.12 27.58 27.58 0 01-2.83 12.53A28.64 28.64 0 011077 146a36.16 36.16 0 01-11.58 6.13 46.14 46.14 0 01-14.32 2.16 40.61 40.61 0 01-14.19-2.58 54.33 54.33 0 01-13-6.93 33.63 33.63 0 01-4.24-3.59c-1.15-1.17-2.06-2.12-2.73-2.83l-.19-.19a.37.37 0 00-.12-.16.38.38 0 01-.13-.09.31.31 0 00-.12-.16.38.38 0 01-.13-.09 4.41 4.41 0 01-1.44-2.52 3.57 3.57 0 011.44-2.4l10.86-10.36a4.09 4.09 0 012.14-.94 2.33 2.33 0 011.19.38 11 11 0 011.46 1.17z"/>
    </g>
</svg>
