<svg xmlns="http://www.w3.org/2000/svg" fill="none" viewBox="0 0 142 29"><path fill="#ECFD6C" d="M53.2 15.84h-1.64c0-.36-.07-.67-.2-.94-.12-.27-.29-.5-.5-.69a2.14 2.14 0 0 0-.76-.42c-.29-.1-.6-.15-.93-.15-.64 0-1.25.17-1.81.5-.57.32-1.05.8-1.44 1.42-.4.63-.68 1.39-.83 2.29-.14.87-.12 1.6.06 2.2.18.59.48 1.04.91 1.34.44.3.96.46 1.56.46a3.92 3.92 0 0 0 2-.56 3.34 3.34 0 0 0 1.3-1.6h1.65a5.39 5.39 0 0 1-3.35 3.4c-.52.17-1.08.26-1.66.26a4.3 4.3 0 0 1-2.47-.69 3.82 3.82 0 0 1-1.45-1.97 6.29 6.29 0 0 1-.15-3.05c.2-1.14.57-2.13 1.12-2.95a5.8 5.8 0 0 1 2.02-1.89 5.28 5.28 0 0 1 4.2-.4c.49.15.9.4 1.26.72.35.31.63.7.82 1.16.2.45.28.97.28 1.56Zm1.6 7.36h-1.75l5.74-10.91h1.9l2.12 10.9h-1.75l-1.6-8.92h-.08L54.8 23.2Zm1-4.27h5.67l-.24 1.38h-5.66l.23-1.38Zm10.4-6.64h1.99l2.08 8.48h.13l4.86-8.48h2l-1.81 10.9h-1.57l1.32-7.89h-.1l-4.53 7.88h-1.3l-1.9-7.88h-.1l-1.32 7.9h-1.57l1.81-10.91Zm18.91 2.93c0-.54-.17-.95-.52-1.23a2.25 2.25 0 0 0-1.46-.43c-.44 0-.84.07-1.2.22-.34.13-.63.33-.85.57a1.6 1.6 0 0 0-.4.83c-.04.26-.02.48.07.67.1.19.23.34.41.47.18.13.38.23.6.32.22.08.42.15.63.2l1.02.28c.33.08.67.2 1 .34.35.15.65.34.93.58.27.24.48.53.61.88.14.35.16.77.08 1.26-.1.62-.36 1.17-.75 1.65-.4.48-.92.86-1.56 1.13-.65.28-1.4.42-2.25.42-.82 0-1.5-.13-2.06-.39a2.58 2.58 0 0 1-1.22-1.1 2.84 2.84 0 0 1-.28-1.7h1.66c-.04.39.03.72.21.98.19.26.45.45.78.58a3.62 3.62 0 0 0 2.42-.03c.39-.15.7-.36.96-.62.25-.27.4-.58.46-.93.06-.33.01-.59-.14-.8a1.6 1.6 0 0 0-.66-.5c-.29-.14-.62-.26-1-.36l-1.22-.36a4.04 4.04 0 0 1-1.9-1.04c-.43-.47-.59-1.08-.46-1.84.1-.63.36-1.17.78-1.64.42-.47.94-.84 1.57-1.1a5.2 5.2 0 0 1 3.92 0c.52.27.9.63 1.15 1.1.25.45.34.99.26 1.59h-1.59Zm5.15-2.93 1.57 8.88h.13l4.5-8.88h1.78l-5.74 10.9h-1.9l-2.12-10.9h1.78Zm7.55 10.9h-1.75l5.74-10.9h1.9l2.11 10.9h-1.74l-1.6-8.92h-.08L97.8 23.2Zm1-4.26h5.67l-.24 1.38h-5.67l.24-1.38Zm8.58 4.27 1.81-10.91h1.65l-1.58 9.5h4.94l-.23 1.4h-6.6Zm8.47 0 1.8-10.91h6.85l-.24 1.42h-5.2l-.54 3.32h4.83l-.23 1.41h-4.84l-.55 3.34h5.25l-.23 1.42h-6.9Zm10.07-9.5.24-1.41h8.44l-.23 1.42h-3.4l-1.58 9.49h-1.65l1.58-9.5h-3.4ZM6.03 18.49c1.4 1.61 2.7 3.31 3.9 5.08 2.37 3.55 8.47 3.6 8.53 3.6.06 0 6.16-.05 8.52-3.6 1.2-1.77 2.5-3.47 3.9-5.08a12.48 12.48 0 0 1-4.56-.5c-3.18 1.38-6.9 3.76-7.22 6.03a.65.65 0 0 1-1.28 0c-.33-2.28-4.03-4.64-7.23-6.04-1.47.46-3.02.63-4.56.5ZM30.99 12.4c-2.83-1.6-7.1-4.01-8-4.01-1.19 0-3.1 1.84-4.03 3a.65.65 0 0 1-1 0c-.94-1.16-2.85-3-4.04-3-.9 0-5.17 2.42-8 4.01a83.42 83.42 0 0 1-5 2.72 9.98 9.98 0 0 0 2.69 1.5c2.66 1 5.52.8 8.5-.6a5.85 5.85 0 0 1-.68-.83 3.84 3.84 0 0 1-.74-2.24v-.03a.65.65 0 0 1 1.29 0v.15c.05.47.2.93.48 1.32.35.5.8.9 1.3 1.22 1.25.79 2.92 1.23 4.7 1.23 1.78 0 3.44-.44 4.69-1.23.51-.31.96-.73 1.3-1.22.27-.4.44-.85.48-1.32v-.15a.65.65 0 0 1 1.3 0v.03c-.01.8-.27 1.6-.75 2.24-.2.3-.43.57-.68.83 3 1.4 5.88 1.6 8.56.59A9.97 9.97 0 0 0 36 15.1c-.97-.44-2.52-1.3-5-2.7ZM30 .72a2.68 2.68 0 0 0-3.66 0 2.38 2.38 0 0 0 0 3.49l.76.72 3.66 3.49 3.66-3.49.76-.72a2.38 2.38 0 0 0 0-3.49 2.69 2.69 0 0 0-3.66 0l-.76.72L30 .72Z"/></svg>