<svg xmlns="http://www.w3.org/2000/svg" fill="none" viewBox="0 0 18 17">
  <path fill="#000" d="M17.136 6.293a.486.486 0 0 0-.36-.309l-5.139-.719L9.325.615a.458.458 0 0 0-.822 0l-2.287 4.65-5.138.77a.447.447 0 0 0-.36.31.46.46 0 0 0 .128.462l3.726 3.596-.874 5.113c-.051.257.129.489.386.54h.077a.484.484 0 0 0 .205-.052L8.94 13.59l4.624 2.39c.077.026.129.051.206.051a.46.46 0 0 0 .462-.462c0-.026 0-.077-.025-.103l-.9-5.062 3.7-3.622a.49.49 0 0 0 .129-.488ZM12.51 9.915a.474.474 0 0 0-.129.411l.771 4.42-3.982-2.082c-.129-.077-.283-.077-.437 0l-3.982 2.107.745-4.445a.474.474 0 0 0-.129-.41l-3.211-3.11 4.445-.667c.154-.026.282-.103.334-.257l1.978-4.034 2.004 4.034a.545.545 0 0 0 .334.257l4.445.642-3.186 3.134Z"/>
</svg>