<svg xmlns="http://www.w3.org/2000/svg" fill="none" viewBox="0 0 17 17"><path fill="#BD83E8" d="M16.688 6.672a.486.486 0 0 0-.36-.308l-5.138-.72L8.878.995a.458.458 0 0 0-.822 0l-2.287 4.65-5.139.771a.447.447 0 0 0-.36.309.46.46 0 0 0 .13.462l3.725 3.597-.874 5.113c-.051.257.128.488.385.54h.077a.484.484 0 0 0 .206-.052l4.573-2.415 4.625 2.39c.077.025.128.05.206.05a.46.46 0 0 0 .462-.462c0-.025 0-.077-.026-.102l-.899-5.062 3.7-3.623a.49.49 0 0 0 .128-.488Zm-4.624 3.623a.474.474 0 0 0-.129.411l.77 4.42-3.981-2.082c-.129-.077-.283-.077-.437 0l-3.983 2.107.746-4.445a.474.474 0 0 0-.129-.411L1.709 7.186l4.445-.668c.154-.026.283-.103.334-.257l1.979-4.034 2.004 4.034a.545.545 0 0 0 .334.257l4.444.642-3.185 3.135Z"/></svg>