<svg width="21" height="17" viewBox="0 0 21 17" fill="none" xmlns="http://www.w3.org/2000/svg">
<path d="M20.3779 2.24903C19.6256 2.57219 18.8299 2.78687 18.0154 2.88645C18.8738 2.38522 19.5156 1.59136 19.8193 0.655275C19.0155 1.12456 18.1362 1.45515 17.2193 1.63276C16.6568 1.04239 15.9272 0.632104 15.125 0.455123C14.3228 0.278142 13.4851 0.342633 12.7206 0.64023C11.9561 0.937828 11.3 1.4548 10.8375 2.12408C10.375 2.79337 10.1274 3.58408 10.1268 4.39365C10.1235 4.70302 10.1553 5.01179 10.2217 5.3142C6.81309 5.15032 3.79668 3.54157 1.77051 1.09074C1.24297 1.97901 1.07958 3.03207 1.3137 4.03495C1.54782 5.03783 2.16179 5.9149 3.03027 6.48711C2.3813 6.47002 1.74601 6.29956 1.17793 5.99009V6.03433C1.17901 6.96673 1.50627 7.87028 2.10462 8.59287C2.70298 9.31546 3.53587 9.81296 4.46309 10.0016C4.11234 10.0927 3.75083 10.1375 3.38809 10.1347C3.12747 10.1393 2.86711 10.1162 2.61152 10.0658C3.14277 11.665 4.65059 12.8406 6.44277 12.8787C4.99143 13.9963 3.20158 14.6027 1.35918 14.6009C1.03123 14.603 0.703487 14.5845 0.37793 14.5455C2.25258 15.735 4.43694 16.3643 6.66699 16.3574C14.2123 16.3574 18.3373 10.2024 18.3373 4.8672C18.3373 4.6887 18.3311 4.51636 18.3221 4.34518C19.1311 3.77544 19.8278 3.06508 20.3779 2.24903Z" fill="#BD83E8"/>
</svg>
