<svg xmlns="http://www.w3.org/2000/svg" fill="none" viewBox="0 0 13 16"><path fill="#BD83E8" d="M2.495 12.742a5.484 5.484 0 0 0 .744.753l.076.062c.026.02.078.055-.03-.024l.052.04a4.818 4.818 0 0 0 .942.547l.053.023c-.003-.001-.109-.045-.042-.018l.133.053a5.823 5.823 0 0 0 1.182.308c.045.007.092.01.136.02-.14-.029.008 0 .048.005a8.574 8.574 0 0 0 1.98-.005c.093-.014.187-.028.28-.046a6.513 6.513 0 0 0 1.014-.273 6.615 6.615 0 0 0 .182-.07l.057-.024.11-.05a5.375 5.375 0 0 0 .973-.587c.023-.018.063-.053-.038.03l.043-.035a5.405 5.405 0 0 0 .677-.644l.06-.072c.014-.017.08-.1.025-.03-.056.072.012-.017.024-.034a3.862 3.862 0 0 0 .29-.45 4.294 4.294 0 0 0 .146-.29l.03-.066c.032-.074-.041.1-.009.018a3.903 3.903 0 0 0 .237-.812c.006-.035.028-.22.013-.069a3.941 3.941 0 0 0 .005-.98c-.004-.032-.025-.098.002.012-.008-.03-.01-.064-.015-.095-.104-.632-.34-1.24-.58-1.831-.181-.444-.367-.889-.446-1.364-.113-.676-.053-1.347.085-2.015.042-.204.09-.406.144-.607l.554.554a2.012 2.012 0 0 0-.253.092c-.092.037.097-.043.044-.02l-.056.026a4.404 4.404 0 0 0-.823.488c-.054.04.043-.034.042-.034-.016.009-.033.027-.048.039a3.588 3.588 0 0 0-.224.196 3.615 3.615 0 0 0-.325.35c-.047.059-.015.022.011-.016-.027.04-.058.078-.085.117a3.346 3.346 0 0 0-.27.457c-.02.04-.038.08-.056.12-.046.1.064-.153-.01.021a.416.416 0 0 1-.193.22c-.224.11-.478.056-.616-.162-.089-.14-.06-.29-.037-.44.012-.084-.02.153-.008.057l.009-.078a5.435 5.435 0 0 0-.01-1.161l-.008-.067a.88.88 0 0 1 .01.065l-.007-.04a5.222 5.222 0 0 0-.308-1.157l-.03-.078c-.03-.07.048.113.018.044l-.017-.039a4.956 4.956 0 0 0-.57-.972l-.03-.04a6.315 6.315 0 0 0-.126-.15 5.264 5.264 0 0 0-.739-.704c-.011-.009-.074-.057-.01-.008.069.052-.016-.012-.029-.021a6.18 6.18 0 0 0-.379-.264A7.137 7.137 0 0 0 5.483.975L5.403.94a4.377 4.377 0 0 1 .027.012L5.376.929l.508-.661a3.97 3.97 0 0 1 .426 1.8 2.9 2.9 0 0 1-.435 1.546c-.284.44-.698.792-1.049 1.18-.162.178-.32.362-.47.552-.064.082.05-.065.004-.005l-.058.077a7.328 7.328 0 0 0-.305.45 5.072 5.072 0 0 0-.296.556c-.09.227-.165.458-.213.698-.012.061-.02.123-.031.184a3.754 3.754 0 0 1 .002-.007 3.534 3.534 0 0 0 0 .788l.007.055a4.56 4.56 0 0 0 .144.612c.033.105.09.22.087.33a.482.482 0 0 1-.345.46.488.488 0 0 1-.467-.135c-.094-.09-.173-.199-.253-.302a5.298 5.298 0 0 1-.553-.912 7.61 7.61 0 0 1-.663-2.079l.824.108c-.076.115-.141.239-.203.362a5.744 5.744 0 0 0-.141.3l-.026.059c-.013.03-.03.076.028-.067l-.017.041a6.896 6.896 0 0 0-.448 1.638c-.015.098.015-.12 0 .003a5.355 5.355 0 0 0-.03.31 6.202 6.202 0 0 0 .016 1.105l.012.105.006.052c-.014-.138-.006-.047 0-.014a5.99 5.99 0 0 0 .353 1.32c.018.047.034.098.057.143-.059-.114.016.034.03.063.189.418.422.815.688 1.19.137.192.04.509-.162.615-.231.123-.47.044-.616-.161C.922 12.068.432 10.598.49 9.096c.037-.99.289-1.963.717-2.856.077-.16.158-.322.256-.471.101-.153.263-.24.449-.215.161.021.345.149.374.322a7.718 7.718 0 0 0 .367 1.383c.022.06.046.121.07.182l.02.046a5.514 5.514 0 0 0 .63 1.113l.03.042c-.103-.14-.05-.066-.025-.034l.058.07c.032.037.065.073.1.107l-.198-.115.015.004-.347.046.013-.008-.223.389.007.073a6.815 6.815 0 0 1-.09-.284 4.736 4.736 0 0 1-.168-.993c-.024-.39.018-.79.111-1.17.17-.69.527-1.32.958-1.879.225-.292.464-.572.715-.842.117-.125.234-.248.353-.37l.171-.176a3.01 3.01 0 0 0 .131-.143c.009-.01.083-.103.034-.04-.047.062.007-.01.014-.02a2.714 2.714 0 0 0 .115-.176c.047-.08.08-.167.125-.247-.002.004-.042.107-.017.04l.026-.069a2.506 2.506 0 0 0 .1-.365c.007-.037.011-.076.018-.113-.03.156-.004.025 0-.016a2.855 2.855 0 0 0-.003-.563c-.003-.04-.027-.196 0-.023a4.192 4.192 0 0 0-.228-.874l-.02-.045a1.712 1.712 0 0 0-.04-.083.457.457 0 0 1 .036-.5c.1-.13.309-.23.473-.162.781.32 1.51.73 2.15 1.287a5.55 5.55 0 0 1 1.194 1.47c.467.84.703 1.8.703 2.76 0 .293-.025.587-.074.876l-.045-.346a.316.316 0 0 1 .005.008l-.616-.162a.145.145 0 0 0 .01-.004l-.208.269a4.008 4.008 0 0 1 1.2-1.615c.38-.3.785-.537 1.234-.716.074-.03.149-.058.225-.08.333-.094.642.225.554.554a10.685 10.685 0 0 0-.203.921l-.02.135c-.005.029-.007.085.005-.041l-.01.077a4.412 4.412 0 0 0-.01.99c0 .014.003.027.004.04a4.626 4.626 0 0 0 .026.14c.024.117.054.234.088.35.07.231.158.457.25.681.228.565.457 1.13.601 1.724a4.538 4.538 0 0 1-.07 2.452c-.393 1.221-1.29 2.197-2.401 2.816-1.352.752-2.983.948-4.503.755-.729-.093-1.43-.274-2.09-.602a5.299 5.299 0 0 1-1.757-1.42.486.486 0 0 1-.132-.32c0-.11.049-.242.132-.318.165-.151.478-.195.637 0Z"/></svg>