<svg width="19" height="19" viewBox="0 0 19 19" fill="none" xmlns="http://www.w3.org/2000/svg">
  <path d="M12.7529 0.357422H6.00293C4.51109 0.357422 3.08035 0.950054 2.02545 2.00495C0.970562 3.05984 0.37793 4.49058 0.37793 5.98242V12.7324C0.37793 14.2243 0.970562 15.655 2.02545 16.7099C3.08035 17.7648 4.51109 18.3574 6.00293 18.3574H12.7529C14.2448 18.3574 15.6755 17.7648 16.7304 16.7099C17.7853 15.655 18.3779 14.2243 18.3779 12.7324V5.98242C18.3779 4.49058 17.7853 3.05984 16.7304 2.00495C15.6755 0.950054 14.2448 0.357422 12.7529 0.357422ZM16.6904 12.7324C16.6893 13.7764 16.2741 14.7772 15.5359 15.5154C14.7977 16.2536 13.7969 16.6688 12.7529 16.6699H6.00293C4.95898 16.6688 3.95811 16.2536 3.21993 15.5154C2.48175 14.7772 2.06655 13.7764 2.06543 12.7324V5.98242C2.06655 4.93847 2.48175 3.9376 3.21993 3.19942C3.95811 2.46124 4.95898 2.04604 6.00293 2.04492H12.7529C13.7969 2.04604 14.7977 2.46124 15.5359 3.19942C16.2741 3.9376 16.6893 4.93847 16.6904 5.98242V12.7324Z" fill="#BD83E8"/>
  <path d="M9.37793 4.85742C8.48791 4.85742 7.61788 5.12134 6.87786 5.61581C6.13784 6.11027 5.56107 6.81308 5.22047 7.63535C4.87988 8.45761 4.79076 9.36241 4.9644 10.2353C5.13803 11.1082 5.56661 11.9101 6.19595 12.5394C6.82529 13.1687 7.62711 13.5973 8.50002 13.771C9.37294 13.9446 10.2777 13.8555 11.1 13.5149C11.9223 13.1743 12.6251 12.5975 13.1195 11.8575C13.614 11.1175 13.8779 10.2474 13.8779 9.35742C13.8779 8.16395 13.4038 7.01935 12.5599 6.17544C11.716 5.33153 10.5714 4.85742 9.37793 4.85742ZM9.37793 12.1699C8.82167 12.1699 8.2779 12.005 7.81539 11.6959C7.35288 11.3869 6.99239 10.9476 6.77952 10.4337C6.56665 9.9198 6.51095 9.3543 6.61947 8.80873C6.72799 8.26316 6.99586 7.76202 7.38919 7.36868C7.78253 6.97535 8.28367 6.70748 8.82924 6.59896C9.37481 6.49044 9.94031 6.54614 10.4542 6.75901C10.9681 6.97188 11.4074 7.33237 11.7164 7.79488C12.0255 8.25739 12.1904 8.80116 12.1904 9.35742C12.1894 10.103 11.8928 10.8178 11.3655 11.345C10.8383 11.8723 10.1235 12.1689 9.37793 12.1699Z" fill="#BD83E8"/>
  <path d="M14.2154 5.11969C14.5467 5.11969 14.8152 4.85116 14.8152 4.51992C14.8152 4.18868 14.5467 3.92016 14.2154 3.92016C13.8842 3.92016 13.6157 4.18868 13.6157 4.51992C13.6157 4.85116 13.8842 5.11969 14.2154 5.11969Z" fill="#BD83E8"/>
</svg>
