<svg xmlns="http://www.w3.org/2000/svg" fill="none" viewBox="0 0 235 47"><path fill="#ECFD6C" d="M93.57 27.3h-2.82a4.04 4.04 0 0 0-.34-1.63 3.72 3.72 0 0 0-2.19-1.93 5.08 5.08 0 0 0-1.62-.25c-1.11 0-2.16.29-3.14.85a7.33 7.33 0 0 0-2.5 2.48 10.51 10.51 0 0 0-1.42 3.96 8.43 8.43 0 0 0 .1 3.81c.3 1.03.84 1.8 1.58 2.34.75.52 1.65.78 2.7.78a6.17 6.17 0 0 0 4.78-2.14c.4-.47.71-1 .93-1.6h2.86a9.34 9.34 0 0 1-3.28 4.57 9.05 9.05 0 0 1-5.4 1.78c-1.67 0-3.1-.4-4.27-1.2a6.62 6.62 0 0 1-2.52-3.41 10.9 10.9 0 0 1-.26-5.28c.34-1.99.99-3.7 1.94-5.12a10.04 10.04 0 0 1 3.5-3.27 9.15 9.15 0 0 1 7.28-.71c.85.28 1.57.7 2.18 1.25a5.5 5.5 0 0 1 1.43 2.01c.33.8.5 1.7.48 2.7ZM96.36 40.06h-3.03l9.95-18.91h3.3l3.66 18.9h-3.03l-2.76-15.47h-.15l-7.94 15.48Zm1.74-7.4h9.82l-.4 2.4h-9.83l.4-2.4ZM116.11 21.15h3.46l3.6 14.7h.22l8.44-14.7h3.47l-3.14 18.9h-2.72l2.28-13.67h-.17l-7.85 13.65h-2.26l-3.29-13.66h-.18l-2.28 13.69h-2.72l3.14-18.91ZM148.9 26.23c.01-.93-.29-1.64-.9-2.14a3.9 3.9 0 0 0-2.53-.73 5.5 5.5 0 0 0-2.07.37c-.6.24-1.1.57-1.48 1-.38.41-.6.89-.7 1.42-.07.45-.03.84.13 1.17.16.32.4.6.7.82.32.21.67.4 1.04.54.38.15.74.26 1.09.35l1.77.48c.58.15 1.16.35 1.75.6.59.26 1.12.59 1.6 1 .47.41.82.93 1.06 1.53.23.61.28 1.34.14 2.2a6.04 6.04 0 0 1-1.3 2.85 6.99 6.99 0 0 1-2.71 1.96 9.83 9.83 0 0 1-3.9.72c-1.41 0-2.6-.22-3.57-.67a4.47 4.47 0 0 1-2.12-1.91 4.92 4.92 0 0 1-.47-2.96h2.87a2.5 2.5 0 0 0 .37 1.71c.32.45.77.79 1.34 1a6.27 6.27 0 0 0 4.2-.06 4.5 4.5 0 0 0 1.66-1.06 3 3 0 0 0 .8-1.61c.1-.57.02-1.02-.24-1.38a2.77 2.77 0 0 0-1.14-.89c-.5-.23-1.08-.44-1.73-.62l-2.13-.6a7.01 7.01 0 0 1-3.3-1.82c-.74-.8-1-1.86-.8-3.18a5.6 5.6 0 0 1 1.37-2.85 7.37 7.37 0 0 1 2.72-1.9 9 9 0 0 1 3.52-.68c1.28 0 2.37.23 3.27.68a4.5 4.5 0 0 1 2 1.89c.43.8.58 1.72.45 2.77h-2.75ZM157.83 21.15l2.72 15.4h.21l7.8-15.4h3.1l-9.95 18.9h-3.3l-3.66-18.9h3.08ZM170.91 40.06h-3.03l9.94-18.91h3.3l3.67 18.9h-3.03L179 24.59h-.15l-7.94 15.48Zm1.74-7.4h9.82l-.4 2.4h-9.83l.4-2.4ZM187.52 40.06l3.14-18.91h2.85l-2.73 16.45h8.56l-.4 2.46h-11.42ZM202.2 40.06l3.13-18.91h11.86l-.4 2.46h-9.01l-.96 5.76h8.38l-.4 2.44h-8.39l-.96 5.8h9.12l-.41 2.45h-11.97ZM219.66 23.6l.4-2.45h14.64l-.4 2.46h-5.9l-2.74 16.45h-2.84l2.73-16.45h-5.89ZM9.63 31.66a91.75 91.75 0 0 1 6.6 8.61c4 6 14.33 6.09 14.43 6.09.1 0 10.43-.09 14.43-6.09 2.03-3 4.23-5.87 6.6-8.6a21.12 21.12 0 0 1-7.72-.85c-5.38 2.35-11.67 6.36-12.22 10.21a1.1 1.1 0 0 1-2.17 0c-.56-3.85-6.82-7.85-12.23-10.21-2.5.77-5.11 1.05-7.72.84Z"/><path fill="#ECFD6C" d="M30.66 37.86a16.7 16.7 0 0 1 4.3-4.42 39.33 39.33 0 0 1 6.1-3.7c-.56-.24-1.14-.52-1.73-.82a17.44 17.44 0 0 1-8.67 2.15c-3.22 0-6.28-.77-8.67-2.15-.59.3-1.17.58-1.74.83 3.34 1.65 8.21 4.52 10.41 8.1Z"/><path fill="#ECFD6C" d="M51.87 21.38c-4.79-2.71-12.02-6.8-13.54-6.8-2 0-5.24 3.11-6.81 5.07a1.1 1.1 0 0 1-1.71 0c-1.58-1.96-4.81-5.07-6.82-5.07-1.52 0-8.75 4.09-13.54 6.8A141.2 141.2 0 0 1 1 25.96a16.9 16.9 0 0 0 4.54 2.56c4.5 1.68 9.35 1.33 14.4-1.03-.43-.43-.81-.9-1.16-1.4a6.49 6.49 0 0 1-1.26-3.79v-.05a1.1 1.1 0 0 1 2.19 0l.01.25c.07.8.34 1.57.8 2.24.59.83 1.34 1.53 2.21 2.06a14.96 14.96 0 0 0 7.94 2.07c3.01 0 5.83-.73 7.93-2.07a7.57 7.57 0 0 0 2.22-2.06c.45-.67.73-1.44.8-2.24v-.25a1.1 1.1 0 0 1 2.2 0v.05a6.49 6.49 0 0 1-1.27 3.8c-.34.5-.72.96-1.15 1.39 5.09 2.38 9.96 2.72 14.5 1 1.6-.61 3.1-1.46 4.45-2.52-1.66-.76-4.28-2.22-8.48-4.6ZM50.2 1.6a4.54 4.54 0 0 0-6.2 0 4.04 4.04 0 0 0 0 5.9l1.28 1.23 6.2 5.9 6.2-5.9 1.28-1.22a4.03 4.03 0 0 0 0-5.9 4.54 4.54 0 0 0-6.2 0l-1.28 1.22L50.2 1.6Z"/></svg>