<svg xmlns="http://www.w3.org/2000/svg" fill="none" viewBox="0 0 36 28"><path fill="#ECFD6C" d="M6.03 18.49c1.4 1.61 2.7 3.31 3.9 5.08 2.37 3.55 8.47 3.6 8.53 3.6.06 0 6.16-.05 8.52-3.6 1.2-1.77 2.5-3.47 3.9-5.08a12.48 12.48 0 0 1-4.56-.5c-3.18 1.38-6.9 3.76-7.22 6.03a.65.65 0 0 1-1.28 0c-.33-2.28-4.03-4.64-7.23-6.04-1.47.46-3.02.63-4.56.5ZM30.99 12.4c-2.83-1.6-7.1-4.01-8-4.01-1.19 0-3.1 1.84-4.03 3a.65.65 0 0 1-1 0c-.94-1.16-2.85-3-4.04-3-.9 0-5.17 2.42-8 4.01a83.42 83.42 0 0 1-5 2.72 9.98 9.98 0 0 0 2.69 1.5c2.66 1 5.52.8 8.5-.6a5.85 5.85 0 0 1-.68-.83 3.84 3.84 0 0 1-.74-2.24v-.03a.65.65 0 0 1 1.29 0v.15c.05.47.2.93.48 1.32.35.5.8.9 1.3 1.22 1.25.79 2.92 1.23 4.7 1.23 1.78 0 3.44-.44 4.69-1.23.51-.31.96-.73 1.3-1.22.27-.4.44-.85.48-1.32v-.15a.65.65 0 0 1 1.3 0v.03c-.01.8-.27 1.6-.75 2.24-.2.3-.43.57-.68.83 3 1.4 5.88 1.6 8.56.59A9.97 9.97 0 0 0 36 15.1c-.97-.44-2.52-1.3-5-2.7ZM30 .72a2.68 2.68 0 0 0-3.66 0 2.38 2.38 0 0 0 0 3.49l.76.72 3.66 3.49 3.66-3.49.76-.72a2.38 2.38 0 0 0 0-3.49 2.69 2.69 0 0 0-3.66 0l-.76.72L30 .72Z"/></svg>