<svg xmlns="http://www.w3.org/2000/svg" fill="none" viewBox="0 0 19 20">
  <path fill="#ECFD6C" d="M0 15.75h10.86a2.96 2.96 0 0 1 2.83-2.16c1.32 0 2.5.9 2.82 2.16h1.67v1.55h-1.67a2.96 2.96 0 0 1-2.82 2.16c-1.32 0-2.5-.9-2.83-2.16H0v-1.55Zm13.69-.78c-.85 0-1.55.7-1.55 1.54 0 .85.7 1.55 1.55 1.55.84 0 1.54-.7 1.54-1.55 0-.84-.7-1.54-1.54-1.54ZM0 9.22h1.26a2.96 2.96 0 0 1 2.82-2.17c1.32 0 2.5.9 2.83 2.17h11.27v1.54H6.91a2.96 2.96 0 0 1-2.83 2.17c-1.32 0-2.5-.91-2.82-2.17H0V9.22Zm4.08-.77c-.84 0-1.54.7-1.54 1.55 0 .85.7 1.55 1.54 1.55.85 0 1.55-.7 1.55-1.55 0-.85-.7-1.55-1.55-1.55ZM0 2.7h8.35a2.92 2.92 0 0 1 5.65 0h4.18v1.55H14a2.96 2.96 0 0 1-2.83 2.16c-1.32 0-2.5-.9-2.82-2.16H0V2.7Zm11.21-.76c-.84 0-1.54.7-1.54 1.55 0 .84.7 1.54 1.54 1.54.85 0 1.55-.7 1.55-1.54 0-.85-.7-1.55-1.55-1.55Z"/>
</svg>