<svg xmlns="http://www.w3.org/2000/svg" fill="none" viewBox="0 0 21 23">
  <path fill="#BD83E8" d="M17.32 9.24a8.4 8.4 0 0 1-2.26 5.9l5.34 5.59c.3.31.3.84 0 1.16a.8.8 0 0 1-1.13 0l-5.34-5.7a8.52 8.52 0 0 1-5.03 1.7 8.18 8.18 0 0 1-5.96-2.54 8.72 8.72 0 0 1-.1-12.23A8.36 8.36 0 0 1 8.8.6c2.36 0 4.41.95 5.95 2.53a8.91 8.91 0 0 1 2.57 6.12Zm-3.6 5.06a7.27 7.27 0 0 0 0-10.12A6.9 6.9 0 0 0 8.8 2.07a6.9 6.9 0 0 0-4.93 2.1 7.27 7.27 0 0 0 0 10.13 6.9 6.9 0 0 0 4.93 2.1 6.9 6.9 0 0 0 4.92-2.1Z"/>
</svg>