<svg xmlns="http://www.w3.org/2000/svg" fill="none" viewBox="0 0 16 13">
  <path fill="#BD83E8" d="M.987 3.44a.455.455 0 0 1-.4-.262.585.585 0 0 1 0-.523.455.455 0 0 1 .4-.262H4.89c.127 0 .248.06.335.165l2.676 3.216 2.675-3.216a.439.439 0 0 1 .337-.165h3.202l-.842-.955a.559.559 0 0 1-.141-.372.561.561 0 0 1 .135-.375.436.436 0 0 1 .33-.153.438.438 0 0 1 .329.16l1.63 1.849a.561.561 0 0 1 .136.371c0 .14-.05.273-.136.371l-1.662 1.866a.426.426 0 0 1-.446.133.497.497 0 0 1-.325-.372.572.572 0 0 1 .121-.505l.864-.97h-2.996L8.537 6.538l2.576 3.098h2.981l-.876-.967a.572.572 0 0 1-.125-.504.499.499 0 0 1 .322-.375.425.425 0 0 1 .448.128l1.69 1.867a.56.56 0 0 1 .14.372c.001.14-.048.274-.135.373l-1.631 1.85a.438.438 0 0 1-.328.159.436.436 0 0 1-.331-.153.562.562 0 0 1-.135-.375.56.56 0 0 1 .14-.372l.843-.955h-3.202a.438.438 0 0 1-.337-.165L7.902 7.301l-2.676 3.217a.438.438 0 0 1-.336.165H.987a.455.455 0 0 1-.4-.262.585.585 0 0 1 0-.524.455.455 0 0 1 .4-.262h3.705l2.576-3.097L4.692 3.44H.987Z"/>
</svg>