<svg xmlns="http://www.w3.org/2000/svg" fill="none" viewBox="0 0 16 16"><path fill="#BD83E8" d="M7.926 0A7.503 7.503 0 0 0 .378 7.548c0 1.815.669 3.63 1.91 4.968 0 .095-.095.287-.286.478-.286.382-.669.86-1.05 1.242-.096.095-.192.286-.096.382.095.095.19.287.286.287 1.147.095 1.911-.096 2.675-.383.096-.19.191-.19.287-.286l.191-.096c1.051.573 2.293.955 3.63.955 4.109 0 7.548-3.343 7.548-7.547S12.034 0 7.926 0ZM2.862 12.038a6.762 6.762 0 0 1-1.815-4.586C1.142 3.822 4.2.764 7.926.764c3.726 0 6.783 3.058 6.783 6.784s-3.057 6.783-6.783 6.783a6.97 6.97 0 0 1-3.344-.86H4.296c-.192 0-.288.096-.383.191l-.191.096c-.096.096-.191.096-.191.096-.382.19-.86.286-1.338.382.382-.67 1.147-1.72.669-2.198Z"/><path fill="#BD83E8" d="M6.015 8.217 5.25 10.7c0 .19 0 .286.096.382.095.095.287.095.478 0L8.02 9.554l2.197 1.529c.096 0 .096.095.192.095.095 0 .19 0 .19-.095.096-.096.192-.287.096-.382l-.764-2.484 2.102-1.625c.095-.095.19-.286.095-.382-.095-.19-.19-.286-.382-.286h-2.58l-.86-2.485c0-.19-.19-.286-.381-.286-.192 0-.287.095-.383.286L6.78 5.924H4.104c-.191 0-.287.095-.382.286-.096.191 0 .287.095.382l2.198 1.625Zm3.248-.383c-.095.096-.191.191-.095.383l.573 1.72-1.529-1.052c-.095 0-.19-.095-.286-.095-.096 0-.192 0-.192.095L6.206 9.936l.573-1.72c0-.19 0-.286-.096-.382L5.155 6.688h1.91c.192 0 .287-.096.383-.287l.573-1.72.573 1.72c0 .191.191.287.287.287h1.815L9.263 7.834Z"/></svg>