<svg xmlns="http://www.w3.org/2000/svg" fill="none" viewBox="0 0 18 19"><path fill="#fff" d="M3.273 4.379v11.843c0 .277.116.54.32.72.188.181.463.306.753.306h9.567c.29 0 .566-.11.754-.305.188-.18.319-.444.319-.721V4.379H3.273Zm3.262 3.356v5.741h-1.16V7.735h1.16Zm6.364 0v5.741h-1.16V7.735h1.16ZM9.724 6.154v8.903h-1.16V6.154h1.16Zm1.884-4.687H7.1L6.622 3.27h5.494l-.508-1.803Zm.885-1.11.826 2.913h4.059v1.109h-1.232v11.843c0 .582-.247 1.123-.653 1.511a2.263 2.263 0 0 1-1.58.624H4.346a2.289 2.289 0 0 1-1.58-.624 2.07 2.07 0 0 1-.652-1.511V4.379H.896v-1.11h4.537L6.216.358h6.277Z"/></svg>