<?xml version="1.0" standalone="no"?>
<!DOCTYPE svg PUBLIC "-//W3C//DTD SVG 20010904//EN"
 "http://www.w3.org/TR/2001/REC-SVG-20010904/DTD/svg10.dtd">
<svg version="1.0" xmlns="http://www.w3.org/2000/svg"
 width="1152.000000pt" height="1152.000000pt" viewBox="0 0 1152.000000 1152.000000"
 preserveAspectRatio="xMidYMid meet">
<metadata>
Created by potrace 1.14, written by Peter Selinger 2001-2017
</metadata>
<g transform="translate(0.000000,1152.000000) scale(0.100000,-0.100000)"
fill="#000000" stroke="none">
<path d="M8899 10236 c-2 -2 -17 -7 -34 -10 -59 -10 -89 -17 -97 -22 -5 -3
-19 -7 -31 -10 -40 -7 -160 -70 -227 -119 -217 -159 -333 -393 -323 -650 1
-38 5 -81 9 -95 4 -14 8 -34 9 -45 11 -79 77 -220 139 -298 43 -56 45 -57 241
-242 76 -71 163 -155 195 -185 31 -30 127 -122 214 -205 87 -82 189 -179 226
-215 37 -36 138 -132 225 -215 87 -82 184 -175 216 -205 186 -179 178 -173
196 -159 10 8 56 51 103 95 76 73 226 217 375 359 29 28 111 105 181 172 71
67 168 160 216 205 47 46 155 148 239 228 84 80 184 175 222 213 38 37 71 67
73 67 22 0 151 193 181 270 58 147 69 316 32 465 -13 54 -58 166 -73 185 -6 8
-17 26 -24 40 -51 101 -236 257 -367 308 -16 6 -43 17 -60 23 -16 7 -36 13
-44 15 -7 1 -36 8 -65 15 -67 17 -286 17 -356 1 -69 -17 -210 -71 -231 -89 -8
-7 -20 -13 -25 -13 -6 0 -19 -8 -30 -18 -10 -9 -31 -25 -47 -35 -25 -16 -86
-72 -202 -182 -23 -22 -57 -55 -76 -72 l-35 -33 -51 48 c-28 26 -96 89 -150
140 -92 86 -192 162 -214 162 -5 0 -9 5 -9 10 0 6 -7 10 -15 10 -8 0 -30 9
-50 20 -19 11 -35 17 -35 14 0 -4 -7 -1 -15 6 -8 7 -15 9 -15 5 0 -4 -7 -2
-15 5 -8 7 -15 10 -15 6 0 -3 -12 -1 -27 5 -16 6 -39 13 -53 15 -33 6 -276 14
-281 10z"/>
<path d="M4363 7539 c-32 -9 -92 -28 -133 -43 -41 -16 -83 -30 -92 -33 -10 -3
-18 -9 -18 -12 0 -4 -6 -8 -12 -8 -7 0 -35 -10 -63 -23 -101 -46 -400 -191
-415 -200 -8 -6 -26 -15 -40 -20 -14 -6 -32 -14 -40 -19 -14 -9 -111 -60 -245
-129 -27 -14 -51 -29 -53 -34 -2 -4 -11 -8 -21 -8 -9 0 -21 -4 -26 -9 -6 -5
-41 -26 -80 -46 -38 -21 -90 -49 -115 -63 -42 -23 -98 -53 -195 -105 -22 -12
-42 -25 -45 -28 -3 -3 -24 -14 -47 -24 -24 -11 -43 -22 -43 -27 0 -4 -9 -8
-20 -8 -11 0 -20 -4 -20 -10 0 -5 -4 -10 -9 -10 -5 0 -52 -25 -105 -55 -52
-30 -97 -55 -100 -55 -3 0 -38 -19 -78 -43 -40 -23 -84 -48 -98 -55 -14 -7
-47 -26 -75 -42 -27 -17 -57 -33 -65 -37 -8 -3 -23 -13 -32 -21 -10 -8 -18
-12 -18 -9 0 4 -24 -8 -53 -27 -28 -18 -62 -36 -74 -40 -13 -4 -23 -12 -23
-17 0 -5 -4 -9 -10 -9 -5 0 -71 -36 -146 -80 -75 -44 -138 -80 -140 -80 -1 0
-37 -20 -78 -45 -42 -25 -81 -45 -85 -45 -5 0 -11 -3 -13 -7 -3 -8 -12 -13
-158 -91 -47 -24 -92 -50 -100 -56 -8 -6 -33 -20 -55 -31 -22 -10 -52 -28 -67
-38 -16 -10 -28 -15 -28 -11 0 4 -8 1 -17 -7 -22 -17 -28 -21 -188 -104 -72
-37 -136 -72 -142 -77 -7 -6 -13 -7 -13 -2 0 5 -4 4 -8 -1 -6 -9 -156 -88
-297 -158 -73 -35 -74 -36 -54 -47 9 -5 38 -27 65 -50 27 -22 54 -40 61 -40 7
0 13 -4 13 -8 0 -4 15 -16 32 -27 18 -10 39 -25 46 -32 7 -7 20 -13 27 -13 8
0 18 -6 22 -12 4 -7 24 -21 43 -31 19 -9 51 -27 70 -38 39 -24 221 -116 290
-147 111 -50 384 -146 449 -158 14 -3 29 -7 33 -10 5 -3 24 -8 41 -11 39 -6
48 -8 67 -16 8 -3 31 -8 50 -12 107 -19 149 -26 189 -30 24 -2 51 -7 60 -9 26
-8 157 -18 273 -21 58 -1 111 -6 117 -9 6 -4 11 -4 11 1 0 4 35 8 78 9 74 1
257 12 257 15 0 1 14 3 30 4 50 6 109 14 135 19 14 3 41 7 60 10 58 9 93 16
129 26 19 5 38 7 42 4 4 -2 10 0 14 6 4 6 10 8 15 5 5 -3 11 -1 15 5 4 6 10 8
15 5 5 -3 20 -1 34 5 15 5 39 12 54 15 30 7 40 9 62 17 8 3 51 16 95 28 44 13
85 25 90 29 6 3 12 6 15 7 3 0 12 3 20 7 8 3 47 17 85 30 141 50 355 143 355
155 0 4 -13 18 -30 32 -16 14 -30 28 -30 31 0 4 -16 24 -36 45 -37 41 -145
191 -173 240 -9 16 -18 31 -21 34 -12 11 -69 139 -94 212 -56 164 -80 368 -52
443 31 79 115 134 202 130 115 -4 188 -82 199 -212 3 -37 9 -86 14 -108 5 -22
12 -51 15 -64 33 -143 123 -288 269 -436 69 -69 109 -103 212 -183 26 -20 116
-72 125 -72 6 0 10 -4 10 -10 0 -5 5 -10 11 -10 6 0 23 -9 39 -20 15 -11 30
-17 34 -13 3 3 6 1 6 -5 0 -7 3 -11 8 -10 4 1 42 -15 85 -36 43 -20 97 -43
120 -52 85 -32 283 -96 307 -101 14 -2 43 -9 65 -15 22 -5 51 -12 65 -15 14
-2 44 -8 68 -14 24 -5 48 -7 53 -4 5 4 9 2 9 -3 0 -5 12 -10 28 -10 15 -1 43
-4 62 -7 212 -35 626 -40 865 -10 17 2 50 6 75 9 25 3 69 11 99 17 30 6 64 13
75 14 18 3 142 31 171 39 83 22 103 28 120 36 11 5 38 14 60 20 22 6 49 15 60
20 11 4 52 20 90 36 200 80 418 208 544 319 84 75 201 204 201 223 0 5 6 12
13 15 6 3 30 40 52 83 22 44 44 82 48 85 5 3 8 8 6 10 -1 2 7 33 19 69 27 81
31 106 38 204 3 43 10 90 15 105 31 79 112 133 201 133 28 -1 56 -6 61 -11 6
-6 18 -11 26 -11 8 0 34 -21 57 -46 33 -35 45 -57 50 -92 12 -75 1 -228 -22
-304 -3 -9 -7 -27 -9 -39 -16 -82 -124 -335 -159 -373 -6 -6 -22 -28 -36 -48
-14 -21 -28 -38 -32 -38 -5 0 -8 -5 -8 -11 0 -12 -50 -78 -97 -129 -72 -79
-82 -93 -77 -101 3 -5 10 -9 15 -9 5 0 42 -15 82 -33 40 -19 110 -48 157 -66
47 -18 94 -37 105 -41 22 -10 203 -71 220 -75 5 -1 17 -4 25 -7 15 -6 89 -26
119 -34 55 -13 108 -27 121 -31 8 -3 24 -7 35 -8 11 -1 45 -8 75 -14 30 -7 71
-14 90 -17 19 -2 42 -6 50 -8 15 -3 74 -11 145 -21 66 -9 185 -17 258 -19 37
0 67 -4 67 -9 0 -4 5 -5 12 -1 6 4 66 8 132 10 67 1 148 5 181 8 104 10 159
17 185 21 14 3 41 7 60 10 67 11 85 15 175 35 50 11 101 23 115 26 42 9 271
85 335 111 116 48 131 55 254 115 68 34 160 84 205 111 110 66 276 178 276
186 0 4 16 15 35 25 20 11 34 24 32 29 -1 5 -115 67 -252 137 -138 70 -270
139 -295 153 -25 14 -61 34 -80 44 -19 9 -81 43 -137 75 -57 32 -107 58 -113
58 -5 0 -10 4 -10 8 0 4 -15 15 -32 23 -45 20 -142 73 -148 80 -3 3 -20 12
-37 20 -18 8 -33 18 -33 22 0 5 -4 6 -9 2 -5 -3 -13 0 -16 5 -4 6 -17 15 -28
20 -12 6 -49 26 -82 45 -33 19 -71 40 -85 47 -14 7 -41 22 -60 34 -56 34 -141
81 -290 160 -19 11 -37 21 -40 24 -5 5 -55 33 -105 58 -16 9 -32 18 -35 21 -6
7 -63 39 -107 60 -18 8 -33 19 -33 23 0 4 -6 8 -13 8 -7 0 -34 13 -60 30 -26
16 -47 27 -47 23 0 -3 -8 1 -18 9 -9 8 -46 30 -82 49 -36 18 -67 36 -70 39 -7
7 -37 24 -139 77 -47 25 -99 53 -116 63 -16 10 -52 30 -80 45 -47 26 -80 43
-237 129 -232 125 -792 407 -818 411 -3 0 -31 13 -64 28 -32 15 -61 27 -63 27
-3 0 -19 6 -36 14 -32 14 -68 28 -77 31 -3 0 -27 8 -55 18 -27 9 -66 19 -85
23 -49 9 -149 5 -171 -7 -11 -5 -19 -7 -19 -4 0 4 -49 -13 -137 -50 -21 -9
-40 -15 -42 -15 -2 1 -7 -2 -10 -7 -3 -5 -22 -17 -41 -26 -56 -28 -56 -28
-215 -145 -66 -49 -132 -99 -147 -113 -15 -13 -55 -49 -89 -79 -124 -110 -297
-287 -419 -429 -92 -107 -103 -118 -152 -136 -73 -27 -153 -11 -213 42 -11 10
-36 38 -55 63 -55 70 -133 153 -291 310 -182 180 -318 297 -474 404 -77 53
-92 62 -206 118 -156 78 -269 98 -376 67z"/>
<path d="M3361 4479 c-34 -13 -241 -67 -281 -74 -19 -3 -51 -10 -70 -15 -19
-5 -64 -14 -100 -20 -36 -5 -76 -12 -90 -14 -50 -9 -204 -27 -255 -30 -22 -1
-46 -5 -52 -9 -6 -4 -14 -3 -18 3 -4 6 -12 7 -18 3 -17 -11 -428 -11 -449 -1
-12 6 -18 5 -18 -2 0 -6 -5 -8 -11 -4 -11 6 -69 14 -69 9 0 -1 8 -11 18 -22 9
-12 31 -37 47 -58 17 -20 41 -49 55 -64 14 -15 41 -46 60 -70 19 -23 44 -52
55 -65 11 -12 34 -39 50 -60 17 -22 35 -44 40 -50 19 -20 226 -281 294 -371
17 -22 34 -44 39 -50 4 -5 30 -39 57 -75 28 -36 53 -66 58 -68 4 -2 7 -10 7
-18 0 -8 4 -14 8 -14 4 0 15 -12 24 -27 9 -16 28 -41 42 -58 14 -16 26 -33 26
-37 0 -4 6 -13 13 -20 13 -13 267 -372 357 -503 25 -37 51 -73 58 -80 6 -8 12
-16 12 -18 0 -9 73 -89 160 -177 136 -137 312 -269 495 -371 86 -48 294 -151
310 -153 5 -1 17 -6 25 -11 8 -5 24 -11 34 -12 11 -2 24 -7 30 -12 6 -4 40
-18 76 -30 36 -13 74 -27 85 -31 11 -5 49 -17 85 -28 36 -10 90 -27 120 -36
30 -9 64 -18 75 -20 11 -3 47 -12 80 -21 33 -9 103 -25 155 -36 52 -11 104
-21 115 -24 11 -2 47 -8 80 -14 33 -5 78 -13 100 -17 22 -3 56 -8 75 -9 19 -2
35 -4 35 -5 0 -1 11 -3 25 -5 40 -4 152 -16 190 -20 282 -31 537 -20 948 41
20 3 75 12 122 21 47 8 96 17 110 20 14 2 41 8 60 13 19 5 49 12 65 15 17 3
64 14 105 25 41 11 84 22 94 25 230 56 645 225 831 338 95 58 161 101 167 111
4 6 8 7 8 3 0 -5 6 -2 14 5 7 7 24 20 36 28 12 8 28 20 34 25 6 6 38 32 72 59
125 100 264 253 365 401 62 91 57 85 104 148 19 26 35 49 35 52 0 5 109 158
130 182 5 7 10 16 10 22 0 5 4 11 8 13 5 2 39 46 77 98 82 115 186 253 195
260 4 3 11 12 16 21 11 20 63 86 87 111 9 10 17 20 17 23 0 5 46 64 109 140 9
11 31 40 50 65 19 25 43 54 53 65 10 11 34 40 54 65 44 54 105 129 119 144 15
17 159 189 172 207 11 13 8 15 -20 11 -53 -6 -511 -9 -522 -3 -5 3 -37 7 -70
8 -33 1 -80 5 -105 8 -25 3 -61 7 -80 9 -19 2 -48 7 -65 10 -36 6 -162 27
-190 31 -11 2 -20 4 -20 5 0 1 -9 3 -20 5 -58 10 -71 13 -155 35 -25 6 -61 15
-81 19 -19 4 -40 11 -46 14 -20 13 -84 18 -96 9 -7 -5 -23 -13 -37 -17 -14 -4
-108 -48 -209 -96 -101 -49 -188 -89 -192 -89 -5 0 -9 -4 -9 -10 0 -5 -9 -10
-19 -10 -11 0 -22 -4 -25 -9 -3 -4 -32 -21 -63 -37 -72 -36 -244 -132 -260
-146 -7 -6 -13 -7 -13 -4 0 4 -6 2 -12 -4 -32 -26 -87 -58 -92 -52 -3 3 -6 0
-6 -6 0 -7 -7 -12 -15 -12 -8 0 -15 -4 -15 -10 0 -5 -4 -10 -10 -10 -8 0 -36
-17 -150 -90 -30 -19 -295 -204 -310 -217 -8 -6 -55 -44 -105 -83 -431 -342
-696 -701 -742 -1005 -2 -16 -14 -50 -27 -75 -64 -128 -252 -142 -344 -25 -23
30 -47 93 -38 102 3 4 2 11 -3 17 -5 6 -11 25 -14 41 -14 87 -110 294 -167
362 -5 7 -10 15 -10 18 0 6 -86 119 -130 170 -36 42 -238 243 -285 284 -66 57
-228 185 -265 211 -19 13 -41 30 -48 37 -7 7 -26 20 -42 30 -17 9 -30 21 -30
25 0 4 -4 8 -9 8 -8 0 -222 138 -248 160 -7 5 -15 10 -17 10 -3 0 -37 20 -76
45 -39 25 -75 45 -80 45 -6 0 -10 3 -10 8 0 4 -17 15 -37 25 -21 10 -51 26
-68 36 -131 74 -255 139 -400 210 -93 46 -187 92 -207 103 -21 10 -38 16 -38
12 0 -4 -8 0 -17 8 -34 28 -117 56 -142 47z"/>
</g>
</svg>
