<svg xmlns="http://www.w3.org/2000/svg" xmlns:xlink="http://www.w3.org/1999/xlink" viewBox="0 0 739.01 219.93" class="provider-logo chaturbate"  role="img">
    <title id="camsitesSVGcam">Logo Chaturbat</title>
    <defs>
        <style>
            .sprite { display: none; }
            .sprite:target { display: inline; }
        </style>
        <linearGradient id="linear-gradient-chat" x1="89.57" y1="38.61" x2="89.57" y2="141.96" gradientUnits="userSpaceOnUse">
            <stop offset="0" stop-color="#02729d"></stop>
            <stop offset="1" stop-color="#00333f"></stop>
        </linearGradient>
        <linearGradient id="linear-gradient-chat-2" x1="209.68" y1="38.61" x2="209.68" y2="141.96" xlink:href="#linear-gradient-chat"></linearGradient>
        <linearGradient id="linear-gradient-chat-3" x1="271.81" y1="38.61" x2="271.81" y2="141.97" xlink:href="#linear-gradient-chat"></linearGradient>
        <linearGradient id="linear-gradient-chat-4" x1="310.72" y1="38.61" x2="310.72" y2="141.96" xlink:href="#linear-gradient-chat"></linearGradient>
        <linearGradient id="linear-gradient-chat-5" x1="367.19" y1="38.61" x2="367.19" y2="141.96" xlink:href="#linear-gradient-chat"></linearGradient>
        <linearGradient id="linear-gradient-chat-6" x1="415" y1="38.61" x2="415" y2="141.96" xlink:href="#linear-gradient-chat"></linearGradient>
        <linearGradient id="linear-gradient-chat-7" x1="464.95" y1="38.61" x2="464.95" y2="141.96" xlink:href="#linear-gradient-chat"></linearGradient>
        <linearGradient id="linear-gradient-chat-8" x1="541.28" y1="38.61" x2="541.28" y2="141.97" xlink:href="#linear-gradient-chat"></linearGradient>
        <linearGradient id="linear-gradient-chat-9" x1="631.28" y1="38.61" x2="631.28" y2="141.96" xlink:href="#linear-gradient-chat"></linearGradient>
        <linearGradient id="linear-gradient-chat-10" x1="626.87" y1="38.61" x2="626.87" y2="141.96" xlink:href="#linear-gradient-chat"></linearGradient>
        <linearGradient id="linear-gradient-chat-11" x1="365.18" y1="38.61" x2="365.18" y2="141.96" xlink:href="#linear-gradient-chat"></linearGradient>
        <linearGradient id="linear-gradient-chat-12" x1="110.63" y1="232.62" x2="91.99" y2="59.78" gradientUnits="userSpaceOnUse">
            <stop offset="0" stop-color="#ffe5be"></stop>
            <stop offset="0.58" stop-color="#febe1d"></stop>
            <stop offset="0.69" stop-color="#fcae1e"></stop>
            <stop offset="0.92" stop-color="#f58420"></stop>
            <stop offset="1" stop-color="#f37321"></stop>
        </linearGradient>
        <linearGradient id="linear-gradient-chat-13" x1="214.26" y1="221.44" x2="195.62" y2="48.61" xlink:href="#linear-gradient-chat-12"></linearGradient>
        <linearGradient id="linear-gradient-chat-14" x1="275.13" y1="214.88" x2="256.49" y2="42.04" xlink:href="#linear-gradient-chat-12"></linearGradient>
        <linearGradient id="linear-gradient-chat-15" x1="326.08" y1="209.38" x2="307.44" y2="36.55" xlink:href="#linear-gradient-chat-12"></linearGradient>
        <linearGradient id="linear-gradient-chat-16" x1="371.31" y1="204.51" x2="352.68" y2="31.67" xlink:href="#linear-gradient-chat-12"></linearGradient>
        <linearGradient id="linear-gradient-chat-17" x1="429.33" y1="198.25" x2="410.69" y2="25.42" xlink:href="#linear-gradient-chat-12"></linearGradient>
        <linearGradient id="linear-gradient-chat-18" x1="479.12" y1="192.88" x2="460.48" y2="20.05" xlink:href="#linear-gradient-chat-12"></linearGradient>
        <linearGradient id="linear-gradient-chat-19" x1="541.5" y1="186.15" x2="522.86" y2="13.32" xlink:href="#linear-gradient-chat-12"></linearGradient>
        <linearGradient id="linear-gradient-chat-20" x1="644.36" y1="175.06" x2="625.73" y2="2.23" xlink:href="#linear-gradient-chat-12"></linearGradient>
        <linearGradient id="linear-gradient-chat-21" x1="634.48" y1="176.13" x2="615.84" y2="3.3" xlink:href="#linear-gradient-chat-12"></linearGradient>
        <linearGradient id="linear-gradient-chat-22" x1="367.05" y1="204.97" x2="348.41" y2="32.13" xlink:href="#linear-gradient-chat-12"></linearGradient>
    </defs>

    <g id="default" class="sprite">
        <g style="isolation:isolate;">
            <g id="Layer_1" data-name="Layer 1">
                <path fill="url(#linear-gradient-chat)" d="M124.6,165.2C88.48,165.2,65.14,138,65.14,96a114.75,114.75,0,0,1,1.06-15.2C24.51,75.63,0,61.3,0,41.64c0-13,10.53-24.37,32.18-34.85L46.21,0l0.56,15.58C47.49,35.72,62,45.45,74.52,50.1,87.39,20,111,1.74,137.9,1.74c28.49,0,41.24,15.91,41.24,31.68,0,20.59-21.57,43.11-62.89,48.22C112.93,89.82,111,98.25,111,105c0,12.84,5.79,12.84,9.25,12.84,4.86,0,16.73-9.88,18.5-20.87l1.37-8.56h8.67c16.79,0,27.65,10.26,27.65,26.15C176.45,135.2,156.25,165.2,124.6,165.2Z"></path>
                <path fill="url(#linear-gradient-chat-2)" d="M223.34,171.32c-8.59,0-18.26-2.74-23.85-13.21l-0.56.08A103.39,103.39,0,0,1,183,159.67c-16.46,0-24.81-8.7-24.81-25.86a395.6,395.6,0,0,1,3.5-55.26c-7.26-3.59-8.58-9.15-8.58-12.71a13.45,13.45,0,0,1,2.82-8.29l4-5,6.48,1.55c10.76-42.2,29.06-51.42,43-51.42,18.48,0,31.38,13.27,31.38,32.28,0,11.78-5.36,24.21-15.81,33.37,6.8,3.65,12.67,11.36,12.67,27.13a174,174,0,0,1-1.23,17.51c-0.57,5.51-1.16,11.2-1.16,16.11,0,12.46,3.54,12.81,7.29,13.19l23.66,2.39-18.07,15.45C246,161.95,234.45,171.32,223.34,171.32Z"></path>
                <path fill="url(#linear-gradient-chat-3)" d="M285.63,171.18c-12.23,0-18.47-7.69-21.79-17.07a26.62,26.62,0,0,1-17.95,6.77c-16.16,0-26.6-14.43-26.6-36.76,0-29.32,16.28-61,42.59-61,7.95,0,14.55,4,18.9,11.37l1,0c11.36,0,16.44,7.43,16.44,14.8,0,5.93-.09,11.28-0.17,16.14-0.07,3.94-.13,7.56-0.13,10.9,0,20.13,2.13,23.19,10.52,26.58l15.92,6.44L311,160.21C308.79,162,297,171.18,285.63,171.18Z"></path>
                <path fill="url(#linear-gradient-chat-4)" d="M303.7,162.51c-10.46,0-17.49-6.91-17.49-17.19,0-7.81.79-19.46,1.71-32.95,0.6-8.78,1.25-18.41,1.73-27.79l-2.73-.05c-7.7-.13-16.55-7.92-16.55-17.94a18,18,0,0,1,2-8L275,53.27l6-.27c3.07-.14,6.05-0.35,9-0.62-0.66-12.16-2.22-15.14-2.43-15.5l-9-11.38,13.9-4.42c7.09-2.36,13-3.5,18-3.5,13.37,0,21.67,8.59,21.67,22.42,0,0.81-.06,1.81-0.18,3.28h1.81c9.84,0,17.34,16.13,17.34,24.21s-5.36,17.19-20.48,17.19h-1.87c-0.34,7.35-.51,14.16-0.51,20.31,0,23.28,2.75,33.11,4.39,36.89l3.67,8.48-8.1,4.46C325.85,156.11,313.72,162.51,303.7,162.51Z"></path>
                <path fill="url(#linear-gradient-chat-5)" d="M380.78,173c-6.83,0-15-3.08-20.75-15.06a18.23,18.23,0,0,1-10.93,3.86c-11.61,0-31.08-6.38-31.08-49.16a190.07,190.07,0,0,1,2.52-29.4l0.07-.46,0.12-.45c0.55-2.15,4.25-12.87,22.84-12.87a70.32,70.32,0,0,1,12.25,1.21l5.64,1c2.91-2.17,7.45-3.86,14.54-3.86,4.64,0,16,.8,21.39,8.25L402,82.39l-4.44,5.39c-1.43,3.53-4.35,16.86-4.35,30.5,0,5.59.65,24,9,26l14.2,3.43-8.15,12.13C407.29,161.15,398.82,173,380.78,173Z"></path>
                <path fill="url(#linear-gradient-chat-6)" d="M408.26,159.67c-16.46,0-24.81-8.7-24.81-25.86a187.12,187.12,0,0,1,1.85-22.24,160.42,160.42,0,0,0,1.58-18.09c0-6.54-1.29-8.06-1.33-8.1h0a4.89,4.89,0,0,0-1.94-.26,26.18,26.18,0,0,0-4.55.57l-12.76,2.4,0.73-13C368,58.47,383.26,48.5,397.51,48.5A29.12,29.12,0,0,1,418,56.73c7.61-12.27,16.54-15.55,23.92-15.55,13.25,0,21.82,8.45,21.82,21.53a34.09,34.09,0,0,1-1.57,10.09L460,79.31l-6.86.41c-23.53,1.42-27,30.19-27,47.22,0,6.36,2.06,10.9,5.14,15.77l8.28,13.07-15.28,2.42A103.42,103.42,0,0,1,408.26,159.67Z"></path>
                <path fill="url(#linear-gradient-chat-7)" d="M467.56,160a26.08,26.08,0,0,1-7.25-.94,86.38,86.38,0,0,1-11,.79c-23.16,0-23.16-19.57-23.16-26a395.52,395.52,0,0,1,3.51-55.26c-7.26-3.59-8.59-9.15-8.59-12.71a13.46,13.46,0,0,1,2.82-8.29l4-5,6.48,1.55c10.76-42.2,29.06-51.42,43-51.42,18.48,0,31.38,13.27,31.38,32.28,0,12-5.61,24.77-16.53,34,9.84,4.77,15.78,16.61,15.78,32.79C508.06,126.12,494,160,467.56,160Z"></path>
                <path fill="url(#linear-gradient-chat-8)" d="M555.1,171.18c-12.23,0-18.47-7.69-21.79-17.07a26.61,26.61,0,0,1-18,6.77c-16.16,0-26.6-14.43-26.6-36.76,0-29.32,16.28-61,42.58-61,8,0,14.54,4,18.9,11.37l1,0c11.36,0,16.44,7.43,16.44,14.8,0,5.93-.09,11.28-0.17,16.14-0.07,3.94-.13,7.56-0.13,10.9,0,20.13,2.13,23.19,10.52,26.58l15.92,6.44-13.3,10.86C578.27,162,566.51,171.18,555.1,171.18Z"></path>
                <path fill="url(#linear-gradient-chat-9)" d="M573.62,162.51c-10.46,0-17.49-6.91-17.49-17.19,0-7.63.77-18.93,1.65-32s1.87-27.59,2.24-40.78c-6.93,1.61-10.73,3.9-12.79,5.83l-7.41,6.9-6.93-7.39c-4.34-4.63-9.32-10.9-9.32-18.3,0-16.79,20.67-19.51,34.76-19.95a11.12,11.12,0,0,0-1-2.85l-8.62-11.31,13.58-4.37c7.09-2.36,13-3.5,18-3.5C593.71,17.58,602,26.17,602,40c0,0.34,0,.7,0,1.11l3.75,0.25c10.17,0.68,19.78,1.32,26.9,1.32,37.91,0,61.52-7.67,74.28-24.15l5.37-6.93,7.64,4.29C731.34,22.3,739,35.59,739,49c0,16.07-11.83,32.28-38.25,32.28-20.94,0-42.74-2.92-63.83-5.74-13.19-1.77-25.82-3.46-37.49-4.34-0.7,10.09-1.31,22.23-1.31,33.82,0,23.28,2.75,33.11,4.39,36.89l3.67,8.48-8.1,4.46C595.77,156.11,583.65,162.51,573.62,162.51Z"></path>
                <path fill="url(#linear-gradient-chat-10)" d="M628.74,161.61c-19.58,0-42.44-11.89-42.44-45.42,0-26.67,21.79-51,45.72-51a34.55,34.55,0,0,1,13.31,2.61,16.49,16.49,0,0,1,4-.52c10.65,0,18.08,10.88,18.08,26.45,0,10.17-3.36,20.77-10.43,28.32a18.27,18.27,0,0,1,8.19,15.15C665.2,152.3,646.28,161.61,628.74,161.61Z"></path>
                <path fill="url(#linear-gradient-chat-11)" d="M118.05,219.53c-28.63-4.22-55.12-10.65-55.12-29,0-28.56,68-34.56,125-34.56,52.19,0,109.12,3.08,164.18,6.07,52.74,2.86,102.54,5.56,146.24,5.56,53.21,0,88.6-4.33,108.23-13.22l2.75-1.24,3,0.45c25.13,3.8,55.09,12.32,55.09,31.26,0,17.88-23.54,20.41-34.85,21.62-18.26,2-45.41,2.34-86.13,2.34-33.74,0-77.41-2.94-123.65-6.06-53-3.57-113.13-7.62-166.4-7.62-54.06,0-104.21,12.28-133.12,23.78l-2.53,1Z"></path>
                <path fill="url(#linear-gradient-chat-12)" d="M120.27,128c10.91,0,26.14-14.49,28.54-29.43,11.35,0,17.48,6,17.48,16C166.28,130.23,150,155,124.6,155c-34.36,0-49.3-27.79-49.3-59a111.46,111.46,0,0,1,2.84-24.2c-39-3.14-68-14.94-68-30.18,0-7.92,7.92-16.73,26.44-25.7C37.5,41,56,56.73,80.68,62.56c9.11-27.64,29.43-50.65,57.22-50.65,20.62,0,31.08,9.86,31.08,21.51,0,16-19.57,35.56-59.61,38.69-5.08,10.46-8.52,22.56-8.52,32.87C100.85,118,106.23,128,120.27,128Zm-6.72-63.2c20-1.49,27-7.77,27-12.25,0-2.54-2.39-4.63-5.83-4.63C127.44,47.92,119.67,54.94,113.55,64.8Z"></path>
                <path fill="url(#linear-gradient-chat-13)" d="M173.15,71.37c-8.22-1.2-9.86-3.73-9.86-5.53a3.33,3.33,0,0,1,.6-1.94c3.74,0.9,7.17,1.49,10.31,1.94,6.87-33.77,19.42-53,35.26-53,13.89,0,21.22,10.16,21.22,22.11,0,15.54-12.4,33.91-39.29,36.75-0.6,5.53-1,11.2-1.2,16.88,7-9,16.29-13.14,21.51-13.14,12.85,0,15.84,8.51,15.84,20,0,10.31-2.39,22.86-2.39,33.61,0,12.1,3.14,22,16.43,23.31,0,0-10.31,8.81-18.23,8.81C208.1,161.15,205,149.21,205,135c0-9.27,1.35-19.27,1.35-27.49,0-9.56-1.79-16.43-9.26-16.43-2.39,0-4.93,1.49-7.17,4.48V102c0,19.57,2.54,40.64,7.47,46.16A94.51,94.51,0,0,1,183,149.5c-10.46,0-14.64-3.88-14.64-15.69C168.37,109.91,170,89,173.15,71.37Zm19-7c11.36-3.89,14.79-13.6,14.79-21.52,0-6.28-2.24-11.35-4.33-11.35C198.39,31.48,194.51,45.82,192.12,64.35Z"></path>
                <path fill="url(#linear-gradient-chat-14)" d="M274.58,85.71a30.88,30.88,0,0,1,7.17-1c3.58,0,6.27,1,6.27,4.63,0,10.75-.3,19.57-0.3,27,0,20.61,2.09,30,16.88,36,0,0-10.61,8.67-19,8.67-12.4,0-14.49-14.94-15.69-32.12h-0.6c-9.11,18.68-16.73,21.81-23.45,21.81-11.2,0-16.43-12-16.43-26.59,0-22.41,12.1-50.8,32.42-50.8C269.64,73.31,273.08,80.63,274.58,85.71Zm-8.22,11.06a53.65,53.65,0,0,0-1.49-5.23C256.65,98.86,252,117.38,252,127.09c0,3.73.75,6.28,2.24,6.28,3.88,0,13-9.86,13-27A55.57,55.57,0,0,0,266.36,96.77Z"></path>
                <path fill="url(#linear-gradient-chat-15)" d="M340.9,67.49c0,3.88-2.54,7-10.31,7h-11.5c-0.6,9.71-1,20.32-1,30.48,0,16.43,1.34,32,5.23,40.94,0,0-11.65,6.42-19.57,6.42-4.18,0-7.32-1.64-7.32-7,0-14.49,3-44.82,3.88-70.81-7.47,0-13.15-.15-13.15-0.15-2.24,0-6.57-3.29-6.57-7.77a7.83,7.83,0,0,1,.9-3.43,189.41,189.41,0,0,0,19-1.79c-0.15-14.49-1.34-26.29-4.78-30.63,5.83-1.94,10.76-3,14.79-3,7.47,0,11.51,3.73,11.51,12.25,0,1.94-.75,8.51-1.49,17.48a69.21,69.21,0,0,0,13.29-4C334.77,53.44,340.9,61.36,340.9,67.49Z"></path>
                <path fill="url(#linear-gradient-chat-16)" d="M380.78,162.8c-9.71,0-14.64-13-16.73-28.83-4.18,11.05-9.71,17.63-14.94,17.63-17,0-20.91-20.47-20.91-39a184.11,184.11,0,0,1,2.39-27.79s1.34-5.23,13-5.23a60.19,60.19,0,0,1,10.46,1,118.15,118.15,0,0,0-3.58,27.19c0,12.55,3,20,6.87,20,1.79,0,3.88-1.64,5.83-5.38-0.15-2.69-.15-5.52-0.15-8.22,0-13.45,1.49-26.14,3.44-32.87,0.3-2.24,4.63-3.44,9.56-3.44,5.38,0,11.2,1.35,13.14,4-2.09,2.54-6.13,19.42-6.13,36.3,0,16.43,3.74,32.72,16.73,35.85C399.75,154.13,393.93,162.8,380.78,162.8Z"></path>
                <path fill="url(#linear-gradient-chat-17)" d="M397.51,58.67c9.71,0,19.28,6.42,19.28,22.11,0,3.29-.15,6.72-0.3,10,4.33-21.21,12.4-39.44,25.4-39.44,9.56,0,11.65,6.12,11.65,11.36a24.15,24.15,0,0,1-1,6.87c-32.27,1.94-36.6,38.4-36.6,57.37,0,8.66,2.84,15.09,6.72,21.21a94.43,94.43,0,0,1-14.34,1.35c-10.46,0-14.64-3.88-14.64-15.69,0-12.85,3.44-28.53,3.44-40.33,0-10.76-2.84-18.53-13.44-18.53a35.19,35.19,0,0,0-6.43.75C377.78,65.09,387.8,58.67,397.51,58.67Z"></path>
                <path fill="url(#linear-gradient-chat-18)" d="M461.44,148.61a82.27,82.27,0,0,1-12.1,1c-10,0-13-3.88-13-15.84,0-23.9,1.64-44.82,4.78-62.44-8.22-1.2-9.86-3.73-9.86-5.53a3.32,3.32,0,0,1,.6-1.94c3.74,0.9,7.17,1.49,10.31,1.94,6.87-33.77,19.42-53,35.26-53,13.89,0,21.21,10.16,21.21,22.11,0,15.54-12.4,33.91-39.29,36.75-0.6,6-1,12.4-1.35,18.82,8.36-12.1,17.93-13.74,23.75-13.74,11.2,0,16.13,11.35,16.13,24.95,0,21.21-11.8,48.1-30.33,48.1A13.46,13.46,0,0,1,461.44,148.61Zm-3.59-39c0.15,11.35.6,22.71,2.09,30.33,9.26-.6,13.15-18.37,13.15-31.67,0-7.92-1.34-14.19-3.74-14.19C466.37,94.08,460.54,99.61,457.85,109.61Zm2.24-45.26c11.36-3.89,14.79-13.6,14.79-21.52,0-6.28-2.24-11.35-4.33-11.35C466.22,31.48,462.49,45.82,460.09,64.35Z"></path>
                <path fill="url(#linear-gradient-chat-19)" d="M544,85.71a30.92,30.92,0,0,1,7.17-1c3.59,0,6.27,1,6.27,4.63,0,10.75-.3,19.57-0.3,27,0,20.61,2.09,30,16.88,36,0,0-10.61,8.67-19,8.67-12.4,0-14.49-14.94-15.69-32.12h-0.6c-9.11,18.68-16.73,21.81-23.46,21.81-11.2,0-16.43-12-16.43-26.59,0-22.41,12.1-50.8,32.42-50.8C539.11,73.31,542.55,80.63,544,85.71Zm-8.22,11.06c-0.45-1.79-.9-3.58-1.49-5.23-8.22,7.32-12.85,25.84-12.85,35.56,0,3.73.74,6.28,2.24,6.28,3.89,0,13-9.86,13-27A55.78,55.78,0,0,0,535.83,96.77Z"></path>
                <path fill="url(#linear-gradient-chat-20)" d="M533.73,59.57c0-7.77,13.9-9.86,31.82-9.86h4.33c-0.6-9-1.94-15.84-4.33-19,5.83-1.94,10.76-3,14.79-3,7.47,0,11.5,3.73,11.5,12.25,0,1.34-.45,5.23-0.89,10.6,15.54,0.9,30.93,2.24,41.68,2.24,33,0,64.84-5.53,82.32-28.09,8.51,4.78,13.89,14.79,13.89,24.2,0,11.36-7.92,22.11-28.08,22.11-36.9,0-78-9.56-110.7-10.61C589,73,588,89.45,588,105c0,16.43,1.35,32,5.23,40.94,0,0-11.65,6.42-19.57,6.42-4.18,0-7.32-1.64-7.32-7,0-16.73,4-54.53,4-82.61V60.76c-13,1-23.61,4.18-30,10.16C535.82,66.14,533.73,62.56,533.73,59.57Z"></path>
                <path fill="url(#linear-gradient-chat-21)" d="M618.43,120.52c0.15,13,6.13,18.82,12.4,18.82,5.23,0,10.61-4,13.15-11.2,7.47,0.74,11.05,4.63,11.05,9.11,0,7.47-12.7,14.19-26.29,14.19-15.54,0-32.27-8.81-32.27-35.26,0-21.36,17.63-40.78,35.56-40.78A24.27,24.27,0,0,1,644.87,79a9.33,9.33,0,0,1,4.48-1.5c4.63,0,7.92,7.47,7.92,16.29,0,12.85-6.87,28.68-26.14,28.68A46.16,46.16,0,0,1,618.43,120.52Zm17.33-26.44c-8.66,1.65-15.54,11.5-17,21.66,14.64-1,18.67-8.21,18.67-14.64A16.19,16.19,0,0,0,635.76,94.08Z"></path>
                <path fill="url(#linear-gradient-chat-22)" d="M498.4,177.78c48.89,0,88.8-3.42,112.43-14.13,30.15,4.56,46.45,13,46.45,21.2,0,12.3-31.78,13.79-110.81,13.79C474,198.64,355.81,185,256.41,185c-54.59,0-105.92,12.19-136.88,24.5-31-4.56-46.44-10.71-46.44-18.92,0-12.31,35-24.39,114.88-24.39C289,166.15,408,177.78,498.4,177.78Z"></path>
                <g style="opacity:.4;mix-blend-mode:overlay;">
                    <path style="fill:#fff;" d="M124,135.43c12.46,0,27.43-14.27,31.5-29.27a14.63,14.63,0,0,1,5.62,1.75c-1.68-3.1-4.79-4.94-9.33-5.47-4.07,15-19,29.27-31.5,29.27-5.69,0-10.43-1.47-14.11-4.25C110.1,132.63,116.14,135.43,124,135.43Z"></path>
                    <path style="fill:#fff;" d="M143.5,49.16a7.57,7.57,0,0,1,.8,3.39c0,3.25-1.93,6.76-6.56,9.68a67,67,0,0,0,10.21-5,8.53,8.53,0,0,0,.07-1A8.08,8.08,0,0,0,143.5,49.16Z"></path>
                    <path style="fill:#fff;" d="M82.74,99.74a107.77,107.77,0,0,1,2.75-23.38,3.72,3.72,0,0,0-3.33-4.53l-0.3,0a3.76,3.76,0,0,1-.09.84A107.75,107.75,0,0,0,79,96c0,17,4.85,34.7,17,45.37C86.59,130.6,82.74,114.88,82.74,99.74Z"></path>
                    <path style="fill:#fff;" d="M17.61,45.36c0-5.64,5.93-12.05,16.88-18.4a49.49,49.49,0,0,1-1.08-5.2c-12.64,6.83-19.52,13.8-19.52,19.88,0,3.48,2.16,6.86,6.1,10A10.35,10.35,0,0,1,17.61,45.36Z"></path>
                    <path style="fill:#fff;" d="M76.77,68l1.67,0.15a3.68,3.68,0,0,1,2.26,1c0.94,0.25,1.87.53,2.84,0.76a3.66,3.66,0,0,0,.86.1,3.72,3.72,0,0,0,3.53-2.56c7.67-23.25,25.8-48.09,53.69-48.09,8.93,0,16.14,2,20.93,5.58-4.17-5.82-12.94-9.3-24.64-9.3-27.89,0-46,24.84-53.68,48.09a3.72,3.72,0,0,1-3.53,2.56,3.65,3.65,0,0,1-.86-0.1c-12.64-3-23.1-8.35-30.93-15.53C55.7,58.27,65.16,64.19,76.77,68Z"></path>
                    <path style="fill:#fff;" d="M232.14,154.38l0.89-.52A18.11,18.11,0,0,1,230,152,18.12,18.12,0,0,0,232.14,154.38Z"></path>
                    <path style="fill:#fff;" d="M214.35,46.55c0-6.5-2.09-13.06-6.09-14.69a24,24,0,0,1,2.37,11c0,11.62-6.1,20.78-16.38,24.7a46.45,46.45,0,0,0,15.38-5.22A27,27,0,0,0,214.35,46.55Z"></path>
                    <path style="fill:#fff;" d="M212.4,138.73c0-4.64.35-9.55,0.69-14.3s0.65-9.08.65-13.19,0-14.59-6.76-18.58c3,4.87,3,11.8,3,14.87,0,4.11-.32,8.52-0.65,13.19s-0.69,9.66-.69,14.3c0,12.39,2.61,18.2,6.94,20.72C213.57,152.34,212.4,147,212.4,138.73Z"></path>
                    <path style="fill:#fff;" d="M215.41,82.84a14.25,14.25,0,0,1,6.44,1.25c-1.84-3.5-5.08-5-10.16-5-3.1,0-9.57,2.31-15.55,8.29,0.3,0,.61,0,0.91,0a12.19,12.19,0,0,1,5.63,1.26C207.77,84.52,212.79,82.84,215.41,82.84Z"></path>
                    <path style="fill:#fff;" d="M175.8,137.53c0-23.4,1.59-44.19,4.72-61.79a3.71,3.71,0,0,0-.64-2.83l-0.1-.13a3.71,3.71,0,0,0,1.78-2.47c6.48-31.82,18-50.06,31.61-50.06A17.62,17.62,0,0,1,223.5,23.2c-2.72-3.88-7.21-6.67-14.05-6.67-13.61,0-25.14,18.24-31.61,50.06a3.71,3.71,0,0,1-1.78,2.47l0.1,0.13a3.71,3.71,0,0,1,.64,2.83c-3.13,17.6-4.72,38.39-4.72,61.79,0,6.92,1.33,10,4.71,11.2A21.26,21.26,0,0,1,175.8,137.53Z"></path>
                    <path style="fill:#fff;" d="M274.73,90.48A3.73,3.73,0,0,0,279.19,93a30.62,30.62,0,0,1,5.1-.88c0-.95,0-1.88,0-2.86,0-.33,0-0.5,0-0.5h0a4.6,4.6,0,0,0-2.52-.41,26.83,26.83,0,0,0-6.27.93,3.68,3.68,0,0,1-.9.11c-0.07,0-.14,0-0.21,0C274.48,89.75,274.61,90.09,274.73,90.48Z"></path>
                    <path style="fill:#fff;" d="M296.7,153.27l0.66-.39a28.3,28.3,0,0,1-3-2.17A23.72,23.72,0,0,0,296.7,153.27Z"></path>
                    <path style="fill:#fff;" d="M236.89,127.82c0-22.27,11.79-47.08,28.7-47.08a7,7,0,0,1,3.18.77c-1.79-3-4.09-4.49-6.9-4.49-16.91,0-28.7,24.81-28.7,47.08,0,8.86,2.15,18.18,7.82,21.55C238.08,141.19,236.89,134.38,236.89,127.82Z"></path>
                    <path style="fill:#fff;" d="M277.37,132.35a3.71,3.71,0,0,0-3.7-3.46c1.09,15.41,2.89,24.89,8.34,27.58C279.33,151.82,278.16,143.67,277.37,132.35Z"></path>
                    <path style="fill:#fff;" d="M273.74,99.85c0-.09,0-0.17-0.06-0.26a57.27,57.27,0,0,0-1.61-5.6,3.73,3.73,0,0,0-2.59-2.34,3.79,3.79,0,0,0-.73-0.09c0.45,1.42.84,2.87,1.2,4.3,0,0.09,0,.18.06,0.27a59.19,59.19,0,0,1,1,10.2c0,18.49-10.06,30.76-16.71,30.76a5.45,5.45,0,0,1-1.33-.17c1.14,3,3.13,3.76,4.64,3.87A62.09,62.09,0,0,0,266,127.25a3.72,3.72,0,0,1,3.34-2.09h0.6a3.72,3.72,0,0,1,2.05.62,45.64,45.64,0,0,0,2.7-15.74A59.23,59.23,0,0,0,273.74,99.85Z"></path>
                    <path style="fill:#fff;" d="M320.45,61.19a3.7,3.7,0,0,0,4.49,3.63,93.81,93.81,0,0,0,10.57-2.91A26.11,26.11,0,0,0,333,57.79a89.43,89.43,0,0,1-11.74,3.32A3.71,3.71,0,0,1,320.45,61.19Z"></path>
                    <path style="fill:#fff;" d="M305.49,117.06c0.83-12.2,1.77-26,2.2-38.7A3.72,3.72,0,0,0,304,74.51h0s0,0.08,0,.13c-0.44,12.67-1.38,26.5-2.2,38.7-0.9,13.22-1.68,24.65-1.68,32,0,2.48.52,3.3,3.6,3.3h0.12C303.85,141.27,304.61,130,305.49,117.06Z"></path>
                    <path style="fill:#fff;" d="M288,70.45c5.71-.33,11.19-0.89,16.68-1.69A3.72,3.72,0,0,0,307.85,65c-0.14-13.57-1.14-22.67-3.18-28.33a36.59,36.59,0,0,1,9.47-1.53,12.42,12.42,0,0,1,3.5.41c-1.08-3.34-3.64-4.13-7.22-4.13A36.59,36.59,0,0,0,301,33c2,5.66,3,14.76,3.18,28.33A3.72,3.72,0,0,1,300.95,65c-5.49.8-11,1.36-16.68,1.69a5,5,0,0,0,2.95,3.91l0.81,0C288,70.59,288,70.52,288,70.45Z"></path>
                    <path style="fill:#fff;" d="M359.58,135.11c0.33-.78.66-1.59,1-2.46a3.72,3.72,0,0,1,3.48-2.4l0.43,0a3.7,3.7,0,0,1,2.79,1.89,19.61,19.61,0,0,0,2.9-4.26,3.73,3.73,0,0,0,.41-1.93c-0.15-2.58-.15-5.34-0.15-8,0-13.95,1.61-25.86,3.23-31.62a14.68,14.68,0,0,1,6.05-1,28.41,28.41,0,0,1,3.94.27c0.28-.93.56-1.79,0.85-2.55a22.81,22.81,0,0,0-8.5-1.43,14.68,14.68,0,0,0-6.05,1c-1.62,5.75-3.23,17.67-3.23,31.62,0,2.67,0,5.42.15,8a3.72,3.72,0,0,1-.41,1.93c-3.17,6.1-6.72,7.38-9.13,7.38a6.79,6.79,0,0,1-3.11-.76A8.48,8.48,0,0,0,359.58,135.11Z"></path>
                    <path style="fill:#fff;" d="M392.61,155.73l0.5-.32a19.75,19.75,0,0,1-2-1.41A23,23,0,0,0,392.61,155.73Z"></path>
                    <path style="fill:#fff;" d="M335.63,116.32a176,176,0,0,1,2.26-26.7c0.4-.55,2.37-2.6,9.4-2.6,0.5,0,1.05,0,1.59.05,0.21-1.12.4-2.23,0.64-3.37a48.56,48.56,0,0,0-5.95-.4c-7,0-9,2-9.4,2.6a176,176,0,0,0-2.26,26.7c0,12.85,1.91,27.66,9.91,33.11C336.92,138.79,335.63,126.89,335.63,116.32Z"></path>
                    <path style="fill:#fff;" d="M371.45,137.2A3.72,3.72,0,0,0,368.2,134l-0.39,0c1.8,13.18,5.33,21.7,9.93,24.27C374.91,154,372.72,146.8,371.45,137.2Z"></path>
                    <path style="fill:#fff;" d="M416.66,95.62c0.13-.38.25-0.78,0.38-1.16a3.93,3.93,0,0,1-.55,0A3.68,3.68,0,0,0,416.66,95.62Z"></path>
                    <path style="fill:#fff;" d="M401.22,66.11A16.23,16.23,0,0,1,410,68.65c-3.79-5.63-10-6.26-12.46-6.26-6.24,0-12.84,3.25-15.46,8.9,0.52,0,1-.05,1.57-0.05a21.1,21.1,0,0,1,4.41.45A18.17,18.17,0,0,1,401.22,66.11Z"></path>
                    <path style="fill:#fff;" d="M430,74.59c4.36-10.21,9.75-15.8,15.64-15.8a12.14,12.14,0,0,1,3.77.52c-0.92-2.93-3.3-4.23-7.49-4.23-8.12,0-15.31,10.59-20.12,29.35A40.73,40.73,0,0,1,430,74.59Z"></path>
                    <path style="fill:#fff;" d="M401.06,137.53A177.32,177.32,0,0,1,402.8,117a169.4,169.4,0,0,0,1.69-19.78c0-9.76-2.54-16.31-7.53-19.65,2.53,3.7,3.81,9,3.81,15.93a169.4,169.4,0,0,1-1.69,19.78,177.32,177.32,0,0,0-1.75,20.55c0,6.92,1.33,10,4.71,11.2A21.24,21.24,0,0,1,401.06,137.53Z"></path>
                    <path style="fill:#fff;" d="M476.23,31.87a24,24,0,0,1,2.37,11c0,11.62-6.1,20.78-16.38,24.7a46.46,46.46,0,0,0,15.38-5.22,27,27,0,0,0,4.71-15.76C482.32,40.05,480.24,33.49,476.23,31.87Z"></path>
                    <path style="fill:#fff;" d="M480.53,112c0-10.51-2-16.43-5.84-17.66q2.11,4.47,2.12,13.94c0,12.74-3.5,34.54-16.63,35.38h-0.29c0,0.23.08,0.49,0.12,0.72a3.63,3.63,0,0,0,.19.65l0.68-.09a3.63,3.63,0,0,1,.56,0,3.69,3.69,0,0,1,1.66.4,10.07,10.07,0,0,0,4.46.8c0.33,0,.66,0,1,0C477.87,141,480.53,123.07,480.53,112Z"></path>
                    <path style="fill:#fff;" d="M469.36,90.36a5.24,5.24,0,0,1,.54,0,22.27,22.27,0,0,1,15.58-6.21,9.73,9.73,0,0,1,5,1.33,9.9,9.9,0,0,0-8.75-5c-8.28,0-15,4-20.7,12.14a3.72,3.72,0,0,1-3,1.6,3.69,3.69,0,0,0,1.51,3C462.51,93,466.08,90.36,469.36,90.36Z"></path>
                    <path style="fill:#fff;" d="M443.78,137.53c0-23.39,1.59-44.18,4.72-61.79a3.73,3.73,0,0,0-.64-2.83l-0.1-.13a3.71,3.71,0,0,0,1.78-2.48c6.47-31.81,18-50.06,31.61-50.06a17.62,17.62,0,0,1,10.33,2.95c-2.72-3.88-7.21-6.67-14-6.67-13.62,0-25.14,18.24-31.61,50.05A3.71,3.71,0,0,1,444,69.06l0.1,0.13a3.73,3.73,0,0,1,.64,2.83c-3.13,17.61-4.72,38.4-4.72,61.79,0,8.05,1.27,10.79,4.57,11.69A26.89,26.89,0,0,1,443.78,137.53Z"></path>
                    <path style="fill:#fff;" d="M566.17,153.27l0.66-.39a28.74,28.74,0,0,1-3-2.17A23.83,23.83,0,0,0,566.17,153.27Z"></path>
                    <path style="fill:#fff;" d="M544.19,90.48a3.72,3.72,0,0,0,3.57,2.67,3.66,3.66,0,0,0,.9-0.11,30.71,30.71,0,0,1,5.1-.88c0-.95,0-1.88,0-2.86,0-.33,0-0.5,0-0.5a4.61,4.61,0,0,0-2.52-.41,26.91,26.91,0,0,0-6.27.93,3.66,3.66,0,0,1-.9.11c-0.07,0-.14,0-0.21,0C543.95,89.76,544.08,90.09,544.19,90.48Z"></path>
                    <path style="fill:#fff;" d="M546.84,132.35a3.72,3.72,0,0,0-3.7-3.46c1.08,15.4,2.89,24.88,8.34,27.58C548.8,151.82,547.63,143.67,546.84,132.35Z"></path>
                    <path style="fill:#fff;" d="M506.37,127.82c0-22.27,11.79-47.08,28.7-47.08a7,7,0,0,1,3.18.77c-1.79-3-4.09-4.49-6.9-4.49-16.91,0-28.7,24.81-28.7,47.08,0,8.86,2.15,18.18,7.82,21.55C507.56,141.19,506.37,134.38,506.37,127.82Z"></path>
                    <path style="fill:#fff;" d="M543.21,99.85c0-.09,0-0.18-0.06-0.27-0.44-1.75-.94-3.74-1.6-5.59A3.72,3.72,0,0,0,539,91.65a3.55,3.55,0,0,0-.73-0.09c0.46,1.46.86,2.95,1.2,4.3,0,0.09,0,.18.06,0.27a59.35,59.35,0,0,1,1,10.19c0,18.49-10.06,30.76-16.72,30.76a5.38,5.38,0,0,1-1.32-.17c1.14,3,3.13,3.76,4.64,3.87a62.12,62.12,0,0,0,8.44-13.54,3.72,3.72,0,0,1,3.34-2.09h0.6a3.71,3.71,0,0,1,2,.62,45.6,45.6,0,0,0,2.7-15.74A59.35,59.35,0,0,0,543.21,99.85Z"></path>
                    <path style="fill:#fff;" d="M541.17,63.29c0-1.44,2-6.13,28-6.15l0.86-.09h0.3a3.56,3.56,0,0,1,.81.1h2.46a3.72,3.72,0,0,0,3.71-4c-0.48-7.22-1.37-12.61-2.75-16.46a36.71,36.71,0,0,1,9.5-1.54,12.53,12.53,0,0,1,3.5.41c-1.08-3.33-3.64-4.13-7.22-4.13a36.72,36.72,0,0,0-9.5,1.54c1.38,3.85,2.27,9.24,2.75,16.46a3.72,3.72,0,0,1-3.71,4h-4.33c-26.08,0-28.1,4.7-28.1,6.15,0,1.06.63,2.95,3.29,6.22,0.29-.21.62-0.39,0.92-0.58A5,5,0,0,1,541.17,63.29Z"></path>
                    <path style="fill:#fff;" d="M591.86,56.76l0.07,0.06c10.5,0.42,21.67,1.64,33.36,3.13,4,0.2,7.76.33,11.06,0.33,40.63,0,67.16-8.55,83.06-26.85l0.15,0.13a23.37,23.37,0,0,0-3.87-3.85c-15.9,18.3-42.44,26.85-83.06,26.85-7.59,0-17.43-.66-27.85-1.35-4.51-.3-9.15-0.61-13.81-0.88A3.71,3.71,0,0,0,591.86,56.76Z"></path>
                    <path style="fill:#fff;" d="M575.36,118c1.13-16.67,2.41-35.57,2.41-51.54V64.48A3.72,3.72,0,0,0,574,60.76v1.95c0,16-1.28,34.87-2.41,51.54-0.87,12.83-1.62,23.91-1.62,31.07,0,2.48.52,3.3,3.6,3.3h0.12C573.77,141.44,574.5,130.56,575.36,118Z"></path>
                    <path style="fill:#fff;" d="M639.81,94.12a20.17,20.17,0,0,1,1.31,7c0,4.37-1.62,13.89-15.08,17.27a37.41,37.41,0,0,0,5.09.37,24.48,24.48,0,0,0,8.1-1.28,16.5,16.5,0,0,0,5.61-12.64,20,20,0,0,0-2-8.69A3.7,3.7,0,0,0,639.81,94.12Z"></path>
                    <path style="fill:#fff;" d="M646.24,132.3c-3.32,6.63-9.12,10.76-15.41,10.76a13.59,13.59,0,0,1-7.86-2.55,14.27,14.27,0,0,0,11.58,6.27c6.29,0,12.09-4.13,15.41-10.76a11.59,11.59,0,0,1,1.27.42C650.84,134.51,649.07,133.06,646.24,132.3Z"></path>
                    <path style="fill:#fff;" d="M603.91,119.91c0-19.05,15.47-37.06,31.84-37.06a20.44,20.44,0,0,1,10.92,3,3.72,3.72,0,0,0,3.85,0,8.13,8.13,0,0,1,1.65-.77c-0.94-2.54-2.13-3.91-2.8-3.91a5.86,5.86,0,0,0-2.57,1,3.71,3.71,0,0,1-3.85,0,20.44,20.44,0,0,0-10.92-3c-16.37,0-31.84,18-31.84,37.06,0,13.49,4.48,21.27,10.11,25.72C606.54,137.21,603.91,130.23,603.91,119.91Z"></path>
                    <path style="fill:#fff;" d="M80.53,194.26c0-8,30.18-20.67,111.16-20.67,51.81,0,108.56,3.08,163.43,6.05,52.93,2.87,102.92,5.58,147,5.58,55.12,0,91.08-4.45,112.95-14,20.41,3.19,32.26,7.82,38,11.87-2.55-4.55-14.55-11.35-41.68-15.58-21.87,9.56-57.82,14-112.95,14-44.07,0-94.06-2.71-147-5.58-54.88-3-111.62-6.05-163.43-6.05-81,0-111.16,12.68-111.16,20.67,0,0.85.53,2.58,3.93,4.73A2.72,2.72,0,0,1,80.53,194.26Z"></path>
                </g>
            </g>
        </g>
    </g>
    <g id="white" class="sprite">
        <g fill="#fff">
            <path d="M473.1 108.3c0-7.9-1.3-14.2-3.7-14.2-3 0-8.8 5.5-11.5 15.5.1 11.4.6 22.7 2.1 30.3 9.2-.6 13.1-18.3 13.1-31.6zM618.8 115.7c14.6-1 18.7-8.2 18.7-14.6 0-2.4-.6-4.8-1.7-7-8.7 1.6-15.6 11.5-17 21.6zM254.2 133.4c3.9 0 13-9.9 13-27 0-3.2-.3-6.4-.9-9.6-.4-1.8-.9-3.5-1.5-5.2-8.2 7.3-12.9 25.8-12.9 35.5.1 3.7.9 6.3 2.3 6.3zM474.9 42.8c0-6.3-2.2-11.4-4.3-11.4-4.3 0-8.1 14.3-10.5 32.9 11.4-3.8 14.8-13.5 14.8-21.5z"/>
            <path d="M719.9 15.9l-7.6-4.3-5.4 6.9c-12.8 16.5-36.4 24.1-74.3 24.1-7.1 0-16.7-.6-26.9-1.3l-3.8-.2V40c0-13.8-8.3-22.4-21.7-22.4-5 0-10.9 1.1-18 3.5l-13.6 4.4 8.6 11.3c.5.9.8 1.9 1 2.9-14.1.4-34.8 3.2-34.8 20 0 1.5.2 2.9.6 4.4-8.6 2-15.8 7.5-21.5 15.1-2.6-4.5-6.2-7.9-10.4-10 10.9-9.2 16.5-22 16.5-34 0-19-12.9-32.3-31.4-32.3-12.4 0-28.3 7.3-39.2 38.8-6.5 1-13.8 5-20.2 15.2-5.5-5.3-12.8-8.3-20.5-8.2-12.3 0-25.3 7.4-29.3 20.2-2.9.7-5.1 1.8-6.7 3l-5.6-1c-1.6-.3-3.2-.5-4.9-.7.1-.8.2-1.6.2-2.5 0-8.1-7.5-24.2-17.3-24.2H332c.1-1.5.2-2.5.2-3.3 0-13.8-8.3-22.4-21.7-22.4-5 0-10.9 1.1-18 3.5l-13.9 4.4 9 11.4c.2.4 1.8 3.3 2.4 15.5-3 .3-5.9.5-9 .6l-6 .3-2.6 5.3c-1 2-1.7 4.1-1.9 6.3-2.6-1.2-5.5-1.8-8.6-1.8-11.3 0-20.7 5.8-27.8 14.7-2.3-4.6-5.6-7.6-9.1-9.5 10.4-9.2 15.8-21.6 15.8-33.4 0-19-12.9-32.3-31.4-32.3-9.8 0-21.7 4.6-31.7 21.9-4-12.3-16.8-22.8-39.8-22.8C111 1.7 87.4 20 74.5 50.1c-12.5-4.6-27-14.4-27.8-34.5L46.2 0l-14 6.8C10.5 17.3 0 28.6 0 41.6c0 19.7 24.5 34 66.2 39.2-.7 5-1 10.1-1.1 15.2 0 34 15.3 58.2 40.2 66.3-24.8 5-42.4 13.7-42.4 28.2 0 18.4 26.5 24.8 55.1 29l2.7.4 2.5-1c28.9-11.5 79.1-23.8 133.1-23.8 53.3 0 113.4 4 166.4 7.6 46.2 3.1 89.9 6.1 123.6 6.1 40.7 0 67.9-.3 86.1-2.3 11.3-1.2 34.8-3.7 34.8-21.6 0-11.8-11.7-19.6-26.6-24.7 13.2-3.2 24.4-11.3 24.3-23 0-6.1-3.1-11.8-8.2-15.2 7.1-7.5 10.4-18.1 10.4-28.3 0-5.6-1-10.6-2.7-14.7 12.1 1.3 24.2 2.3 36 2.3 26.4 0 38.2-16.2 38.2-32.3.4-13.4-7.3-26.7-18.7-33.1zm-204.6 145c6.6.1 13.1-2.3 18-6.8 1.7 4.8 4.2 9.2 7.9 12.3-12.7.8-27 1.2-42.9 1.2-29.1 0-61-1.2-94.7-2.9 2.7-2.3 4.2-4.4 4.6-4.9l.1-.2c5.3-.1 10.6-.6 15.9-1.5l11.2-1.8c3.3 2.1 7.8 3.4 13.8 3.4 3.7 0 7.4-.3 11-.8 2.4.7 4.8 1 7.2.9 10.6 0 19.2-5.5 25.7-13.6 4.7 9.4 12.4 14.7 22.2 14.7zm-89.2-34c0-1.8 0-3.7.1-5.7-.1 2.1-.1 4.2-.1 6.3.1-.2 0-.4 0-.6zm-28.6-68.2c9.7 0 19.3 6.4 19.3 22.1 0 3.3-.2 6.7-.3 10 4.3-21.2 12.4-39.4 25.4-39.4 1.4 0 2.6.1 3.7.4 7.2-25 18.3-38.9 31.8-38.9 13.9 0 21.2 10.2 21.2 22.1 0 15.5-12.4 33.9-39.3 36.8-.6 6-1 12.4-1.4 18.8 8.4-12.1 17.9-13.7 23.8-13.7 11.2 0 16.1 11.4 16.1 25 0 21.2-11.8 48.1-30.3 48.1-2.1.1-4.2-.3-6.1-1.2-4 .6-8 1-12.1 1-10 0-13-3.9-13-15.8 0-23.5 1.6-44.2 4.6-61.6-21.8 8.9-25 38.4-25 54.8 0 8.7 2.8 15.1 6.7 21.2-4.7.8-9.5 1.3-14.3 1.4-10.5 0-14.6-3.9-14.6-15.7 0-12.8 3.4-28.5 3.4-40.3 0-10.8-2.8-18.5-13.4-18.5-2.2.1-4.3.3-6.4.8.5-11 10.5-17.4 20.2-17.4zm-53.9 20.9c3.5 0 7 .4 10.5 1-2.2 8.9-3.4 18-3.6 27.2 0 12.5 3 20 6.9 20 1.8 0 3.9-1.6 5.8-5.4-.1-2.7-.1-5.5-.1-8.2 0-13.4 1.5-26.1 3.4-32.9.3-2.2 4.6-3.4 9.6-3.4 5.4 0 11.2 1.4 13.1 4-2.1 2.5-6.1 19.4-6.1 36.3 0 16.4 3.7 32.7 16.7 35.9 0 .1-5.8 8.8-19 8.8-9.7 0-14.6-13-16.7-28.8-4.2 11.1-9.7 17.6-14.9 17.6-17 0-20.9-20.5-20.9-39 .1-9.3.9-18.6 2.4-27.8-.1-.1 1.2-5.3 12.9-5.3zm19.1 83c-3.5-.2-7-.4-10.6-.6-11.9-.6-23.9-1.3-36-1.9 5.8-2 10.7-4.5 12.1-5.3l1.6-.9c6.2 6.4 13.6 7.9 19.3 7.9 4-.1 7.8-1.4 10.9-3.9.9 1.8 1.8 3.3 2.7 4.7zM261.8 73.3c7.8 0 11.2 7.3 12.7 12.4 2.3-.6 4.7-.9 7.2-1 3.6 0 6.3 1 6.3 4.6 0 10.8-.3 19.6-.3 27 0 16.2 1.3 25.5 9 31.6-.2-.8-.3-1.6-.3-2.6 0-14.5 3-44.8 3.9-70.8-7.5 0-13.1-.2-13.1-.2-2.2 0-6.6-3.3-6.6-7.8 0-1.2.3-2.4.9-3.4 6.4-.3 12.7-.9 19-1.8-.1-14.5-1.3-26.3-4.8-30.6 5.8-1.9 10.8-3 14.8-3 7.5 0 11.5 3.7 11.5 12.2 0 1.9-.8 8.5-1.5 17.5 4.6-.9 9-2.2 13.3-4 1 0 7.1 7.9 7.1 14 0 3.9-2.5 7-10.3 7h-11.5c-.6 9.7-1 20.3-1 30.5 0 16.4 1.3 32 5.2 40.9 0 0-10.9 6-18.8 6.4h.1s-10.6 8.7-19 8.7c-12.4 0-14.5-14.9-15.7-32.1h-.6c-9.1 18.7-16.7 21.8-23.5 21.8-11.2 0-16.4-12-16.4-26.6 0-22.3 12.1-50.7 32.4-50.7zm3.5 84.4c-2.1-.1-4.2-.2-6.2-.2 1.7-.9 3.3-2.1 4.8-3.4.4 1.3.9 2.5 1.4 3.6zm-91.1-91.9c6.9-33.8 19.4-53 35.3-53 13.9 0 21.2 10.2 21.2 22.1 0 15.5-12.4 33.9-39.3 36.8-.6 5.5-1 11.2-1.2 16.9 7-9 16.3-13.1 21.5-13.1 12.8 0 15.8 8.5 15.8 20 0 10.3-2.4 22.9-2.4 33.6 0 12.1 3.1 22 16.4 23.3 0 0-10.3 8.8-18.2 8.8-15.2 0-18.3-12-18.3-26.2 0-9.3 1.4-19.3 1.4-27.5 0-9.6-1.8-16.4-9.3-16.4-2.4 0-4.9 1.5-7.2 4.5v6.4c0 19.6 2.5 40.6 7.5 46.2-4.8.8-9.6 1.3-14.4 1.3-10.5 0-14.6-3.9-14.6-15.7 0-23.9 1.6-44.8 4.8-62.4-8.2-1.2-9.9-3.7-9.9-5.5 0-.7.2-1.4.6-1.9 3.7.8 7.2 1.4 10.3 1.8zM75.3 96c.1-8.1 1-16.3 2.8-24.2-39-3.1-68-14.9-68-30.2 0-7.9 7.9-16.7 26.4-25.7C37.5 41 56 56.7 80.7 62.6c9.1-27.6 29.4-50.7 57.2-50.7 20.6 0 31.1 9.9 31.1 21.5 0 16-19.6 35.6-59.6 38.7-5.1 10.5-8.5 22.6-8.5 32.9 0 13 5.4 23 19.4 23 10.9 0 26.1-14.5 28.5-29.4 11.4 0 17.5 6 17.5 16 0 15.7-16.3 40.4-41.7 40.4-34.4 0-49.3-27.8-49.3-59zm86.4-17.5c-.5 3.9-1 7.8-1.4 11.8-3.4-1.2-7.3-1.9-11.5-1.9h-8.7l-1.4 8.6c-1.8 11-13.6 20.9-18.5 20.9-3.5 0-9.2 0-9.2-12.8 0-6.8 1.9-15.2 5.2-23.4 15.2-1.9 27.7-6.1 37.5-11.7.9 2.9 3.1 6.1 8 8.5zm6.6 77.7c-5.5.1-11.1.4-16.6.7 3.5-2.4 6.7-5.1 9.6-8.1 1.7 3.1 4 5.6 7 7.4zm489 28.6c0 12.3-31.8 13.8-110.8 13.8-72.5 0-190.7-13.6-290.1-13.6-54.6 0-105.9 12.2-136.9 24.5-31-4.6-46.4-10.7-46.4-18.9 0-12.3 35-24.4 114.9-24.4 101 0 220 11.6 310.4 11.6 48.9 0 88.8-3.4 112.4-14.1 30.2 4.5 46.5 12.9 46.5 21.1zm-79.9-22.3c.2-.1.3-.2.5-.4 8.9-1.3 18.2-6.2 20.2-7.3l3.7-2c1 .8 2.1 1.6 3.2 2.3-7.2 3-16.4 5.5-27.6 7.4zm53.7-40c-4.3-.1-8.6-.7-12.7-1.9.2 13 6.1 18.8 12.4 18.8 5.2 0 10.6-4 13.2-11.2 7.5.7 11 4.6 11 9.1 0 7.5-12.7 14.2-26.3 14.2-15.5 0-32.3-8.8-32.3-35.3 0-21.4 17.6-40.8 35.6-40.8 4.5 0 9 1.2 12.8 3.6 1.3-.9 2.9-1.4 4.5-1.5 4.6 0 7.9 7.5 7.9 16.3.1 12.8-6.8 28.7-26.1 28.7zm-32.3-40.1c.2-3.9.4-7.7.7-11.2 3.4.3 7 .6 10.6 1-4.2 2.7-8.1 6.2-11.3 10.2zm102-11.4c-36.9 0-78-9.6-110.7-10.6C589 73 588 89.5 588 105c0 16.4 1.3 32 5.2 40.9 0 0-11.3 6.2-19.2 6.4-.3.2-10.7 8.7-19 8.7-12.4 0-14.5-14.9-15.7-32.1h-.6c-9.1 18.7-16.7 21.8-23.5 21.8-11.2 0-16.4-12-16.4-26.6 0-22.4 12.1-50.8 32.4-50.8 7.8 0 11.3 7.3 12.7 12.4 2.3-.6 4.7-.9 7.2-1 3.6 0 6.3 1 6.3 4.6 0 10.8-.3 19.6-.3 27 0 16.6 1.4 26 9.7 32.1-.3-.9-.5-1.9-.5-3.1 0-16.7 4-54.5 4-82.6v-2c-13 1-23.6 4.2-30 10.2-4.5-4.8-6.6-8.4-6.6-11.3 0-7.8 13.9-9.9 31.8-9.9h4.3c-.6-9-1.9-15.8-4.3-19 5.8-1.9 10.8-3 14.8-3 7.5 0 11.5 3.7 11.5 12.2 0 1.3-.5 5.2-.9 10.6 15.5.9 30.9 2.2 41.7 2.2 33 0 64.8-5.5 82.3-28.1 8.5 4.8 13.9 14.8 13.9 24.2 0 11.5-7.9 22.2-28 22.2zm-147.4 3.6c1.8-.7 4-1.5 6.6-2.1 0 1.3-.1 2.5-.1 3.8-1.8-.8-4-1.5-6.5-1.7z"/>
            <path d="M206.9 42.8c0-6.3-2.2-11.3-4.3-11.3-4.2 0-8.1 14.3-10.5 32.8 11.4-3.8 14.8-13.5 14.8-21.5zM140.5 52.5c0-2.5-2.4-4.6-5.8-4.6-7.3 0-15 7-21.2 16.9 20-1.5 27-7.8 27-12.3zM535.8 96.8c-.5-1.8-.9-3.6-1.5-5.2-8.2 7.3-12.8 25.8-12.8 35.6 0 3.7.7 6.3 2.2 6.3 3.9 0 13-9.9 13-27 0-3.3-.3-6.6-.9-9.7z"/>
        </g>
        <g opacity=".4" fill="#fff">
            <path d="M124 134.9c12.5 0 27.4-14.3 31.5-29.3 2 .2 3.9.8 5.6 1.8-1.7-3.1-4.8-4.9-9.3-5.5-4.1 15-19 29.3-31.5 29.3-5.7 0-10.4-1.5-14.1-4.2 3.9 5.1 9.9 7.9 17.8 7.9zM143.5 48.6c.5 1.1.8 2.2.8 3.4 0 3.2-1.9 6.8-6.6 9.7 3.5-1.4 7-3 10.2-5 0-.3.1-.7.1-1 0-3-1.8-5.8-4.5-7.1zM82.7 99.2c.1-7.9 1-15.7 2.8-23.4.5-2-.8-4-2.8-4.5-.2 0-.3-.1-.5-.1h-.3c0 .3 0 .6-.1.8-1.8 7.8-2.7 15.6-2.8 23.4 0 17 4.8 34.7 17 45.4-9.4-10.7-13.3-26.5-13.3-41.6zM17.6 44.8c0-5.6 5.9-12 16.9-18.4-.5-1.7-.8-3.4-1.1-5.2C20.8 28 13.9 35 13.9 41.1c0 3.5 2.2 6.9 6.1 10-1.5-1.8-2.3-4-2.4-6.3zM76.8 67.4l1.7.2c.8.1 1.6.4 2.3 1 .9.2 1.9.5 2.8.8.3.1.6.1.9.1 1.6 0 3-1 3.5-2.6 7.7-23.2 25.8-48.1 53.7-48.1 8.9 0 16.1 2 20.9 5.6-4.2-5.8-12.9-9.3-24.6-9.3-27.9 0-46 24.8-53.7 48.1-.5 1.5-1.9 2.6-3.5 2.6-.3 0-.6 0-.9-.1-12.6-3-23.1-8.3-30.9-15.5 6.7 7.5 16.2 13.4 27.8 17.2zM232.1 153.8l.9-.5c-1.1-.5-2.1-1.1-3-1.9.6.9 1.4 1.7 2.1 2.4zM214.4 46c0-6.5-2.1-13.1-6.1-14.7 1.7 3.4 2.5 7.2 2.4 11 0 11.6-6.1 20.8-16.4 24.7 5.4-.8 10.6-2.6 15.4-5.2 3.1-4.7 4.8-10.2 4.7-15.8zM212.4 138.2c0-4.6.4-9.6.7-14.3s.6-9.1.6-13.2 0-14.6-6.8-18.6c3 4.9 3 11.8 3 14.9 0 4.1-.3 8.5-.6 13.2s-.7 9.7-.7 14.3c0 12.4 2.6 18.2 6.9 20.7-1.9-3.4-3.1-8.8-3.1-17zM215.4 82.3c2.2-.1 4.4.3 6.4 1.2-1.8-3.5-5.1-5-10.2-5-3.1 0-9.6 2.3-15.6 8.3h.9c2 0 3.9.4 5.6 1.3 5.3-4.1 10.3-5.8 12.9-5.8z"/>
            <path d="M175.8 137c0-23.4 1.6-44.2 4.7-61.8.2-1-.1-2-.6-2.8l-.1-.1c.9-.5 1.6-1.4 1.8-2.5 6.5-31.8 18-50.1 31.6-50.1 3.7-.1 7.3.9 10.3 3-2.7-3.9-7.2-6.7-14.1-6.7-13.6 0-25.1 18.2-31.6 50.1-.2 1-.9 1.9-1.8 2.5l.1.1c.6.8.8 1.8.6 2.8-3.1 17.6-4.7 38.4-4.7 61.8 0 6.9 1.3 10 4.7 11.2-.7-2.5-1-5-.9-7.5zM274.7 89.9c.6 1.9 2.5 3 4.5 2.5 1.7-.4 3.4-.7 5.1-.9v-2.9-.5c-.8-.4-1.7-.5-2.5-.4-2.1.1-4.2.4-6.3.9-.3.1-.6.1-.9.1h-.2c.1.5.2.8.3 1.2zM296.7 152.7l.7-.4c-1-.7-2-1.4-3-2.2.7 1 1.5 1.8 2.3 2.6zM236.9 127.3c0-22.3 11.8-47.1 28.7-47.1 1.1 0 2.2.3 3.2.8-1.8-3-4.1-4.5-6.9-4.5-16.9 0-28.7 24.8-28.7 47.1 0 8.9 2.1 18.2 7.8 21.5-2.9-4.5-4.1-11.3-4.1-17.8zM277.4 131.8c-.1-1.9-1.7-3.5-3.7-3.5 1.1 15.4 2.9 24.9 8.3 27.6-2.7-4.6-3.8-12.8-4.6-24.1zM273.7 99.3c0-.1 0-.2-.1-.3-.4-1.9-1-3.8-1.6-5.6-.4-1.2-1.4-2-2.6-2.3-.2-.1-.5-.1-.7-.1.5 1.4.8 2.9 1.2 4.3 0 .1 0 .2.1.3.6 3.4 1 6.8 1 10.2 0 18.5-10.1 30.8-16.7 30.8-.4 0-.9-.1-1.3-.2 1.1 3 3.1 3.8 4.6 3.9 3.4-4.1 6.2-8.7 8.4-13.5.6-1.3 1.9-2.1 3.3-2.1h.6c.7 0 1.4.2 2 .6 1.8-5 2.7-10.4 2.7-15.7.1-3.5-.2-6.9-.9-10.3zM320.5 60.6c0 2 1.6 3.7 3.7 3.7.3 0 .5 0 .8-.1 3.6-.8 7.1-1.7 10.6-2.9-.7-1.4-1.5-2.8-2.5-4.1-3.8 1.4-7.8 2.5-11.7 3.3-.4.1-.7.1-.9.1zM305.5 116.5c.8-12.2 1.8-26 2.2-38.7.1-2.1-1.5-3.8-3.6-3.8h-.1v.1c-.4 12.7-1.4 26.5-2.2 38.7-.9 13.2-1.7 24.6-1.7 32 0 2.5.5 3.3 3.6 3.3h.1c.1-7.4.8-18.7 1.7-31.6zM288 69.9c5.7-.3 11.2-.9 16.7-1.7 1.9-.3 3.2-1.9 3.2-3.8-.1-13.6-1.1-22.7-3.2-28.3 3.1-.9 6.3-1.4 9.5-1.5 1.2 0 2.4.1 3.5.4-1.1-3.3-3.6-4.1-7.2-4.1-3.2.1-6.4.6-9.4 1.6 2 5.7 3 14.8 3.2 28.3 0 1.9-1.4 3.4-3.2 3.7-5.5.8-11 1.4-16.7 1.7.2 1.7 1.4 3.2 3 3.9h.8c-.2-.1-.2-.1-.2-.2zM359.6 134.6c.3-.8.7-1.6 1-2.5.5-1.4 1.9-2.4 3.5-2.4h.4c1.2.1 2.2.8 2.8 1.9 1.1-1.3 2.1-2.7 2.9-4.3.3-.6.4-1.3.4-1.9-.1-2.6-.1-5.3-.1-8 0-13.9 1.6-25.9 3.2-31.6 1.9-.8 4-1.1 6-1 1.3 0 2.6.1 3.9.3.3-.9.6-1.8.9-2.6-2.7-1-5.6-1.5-8.5-1.4-2.1-.1-4.1.2-6 1-1.6 5.8-3.2 17.7-3.2 31.6 0 2.7 0 5.4.1 8 0 .7-.1 1.3-.4 1.9-3.2 6.1-6.7 7.4-9.1 7.4-1.1 0-2.1-.3-3.1-.8 1 2.2 3 3.7 5.3 4.4zM392.6 155.2l.5-.3c-.7-.4-1.4-.9-2-1.4.5.6 1 1.1 1.5 1.7zM335.6 115.8c.1-8.9.8-17.9 2.3-26.7.4-.6 2.4-2.6 9.4-2.6.5 0 1 0 1.6.1.2-1.1.4-2.2.6-3.4-2-.3-4-.4-6-.4-7 0-9 2-9.4 2.6-1.4 8.8-2.2 17.8-2.3 26.7 0 12.8 1.9 27.7 9.9 33.1-4.8-7-6.1-18.9-6.1-29.4zM371.5 136.6c-.2-1.7-1.6-3-3.2-3.2h-.4c1.8 13.2 5.3 21.7 9.9 24.3-2.9-4.3-5.1-11.5-6.3-21.1zM416.7 95.1c.1-.4.2-.8.4-1.2h-.5c-.1.4-.1.8.1 1.2zM401.2 65.6c3.1 0 6.2.9 8.8 2.5-3.8-5.6-10-6.3-12.5-6.3-6.2 0-12.8 3.2-15.5 8.9.5 0 1-.1 1.6-.1 1.5 0 3 .1 4.4.4 3.5-3.4 8.3-5.5 13.2-5.4zM430 74c4.4-10.2 9.8-15.8 15.6-15.8 1.3 0 2.5.1 3.8.5-.9-2.9-3.3-4.2-7.5-4.2-8.1 0-15.3 10.6-20.1 29.4 2.2-3.7 5-7 8.2-9.9zM401.1 137c.2-6.9.8-13.7 1.7-20.5.9-6.6 1.5-13.2 1.7-19.8 0-9.8-2.5-16.3-7.5-19.7 2.5 3.7 3.8 9 3.8 15.9-.2 6.6-.7 13.2-1.7 19.8-1 6.8-1.6 13.7-1.8 20.6 0 6.9 1.3 10 4.7 11.2-.7-2.4-1.1-5-.9-7.5zM476.2 31.3c1.7 3.4 2.5 7.2 2.4 11 0 11.6-6.1 20.8-16.4 24.7 5.4-.8 10.6-2.6 15.4-5.2 3.2-4.6 4.8-10.1 4.7-15.8 0-6.5-2.1-13.1-6.1-14.7zM480.5 111.4c0-10.5-2-16.4-5.8-17.7 1.4 3 2.1 7.6 2.1 13.9 0 12.7-3.5 34.5-16.6 35.4h-.3c0 .2.1.5.1.7s.1.4.2.6l.7-.1h.6c.6 0 1.1.1 1.7.4 1.4.6 2.9.9 4.5.8h1c9.2-5 11.8-22.9 11.8-34zM469.4 89.8h.5c4.2-4 9.8-6.2 15.6-6.2 1.8 0 3.5.4 5 1.3-1.8-3.1-5.1-5.1-8.8-5-8.3 0-15 4-20.7 12.1-.7 1-1.8 1.6-3 1.6 0 1.2.6 2.3 1.5 3 3-4.2 6.6-6.8 9.9-6.8z"/>
            <path d="M443.8 137c0-23.4 1.6-44.2 4.7-61.8.2-1-.1-2-.6-2.8l-.1-.1c.9-.5 1.6-1.4 1.8-2.5 6.5-31.8 18-50.1 31.6-50.1 3.7-.1 7.3.9 10.3 3-2.7-3.9-7.2-6.7-14-6.7-13.6 0-25.1 18.2-31.6 50-.2 1.1-.9 2-1.9 2.5l.1.1c.6.8.8 1.8.6 2.8-3.1 17.6-4.7 38.4-4.7 61.8 0 8.1 1.3 10.8 4.6 11.7-.7-2.6-.9-5.2-.8-7.9zM566.2 152.7l.7-.4c-1-.7-2-1.4-3-2.2.6 1 1.4 1.8 2.3 2.6zM544.2 89.9c.5 1.6 1.9 2.7 3.6 2.7.3 0 .6 0 .9-.1 1.7-.4 3.4-.7 5.1-.9v-2.9-.5c-.8-.4-1.7-.5-2.5-.4-2.1.1-4.2.4-6.3.9-.3.1-.6.1-.9.1h-.2c.1.4.2.7.3 1.1zM546.8 131.8c-.1-1.9-1.8-3.5-3.7-3.5 1.1 15.4 2.9 24.9 8.3 27.6-2.6-4.6-3.8-12.8-4.6-24.1zM506.4 127.3c0-22.3 11.8-47.1 28.7-47.1 1.1 0 2.2.3 3.2.8-1.8-3-4.1-4.5-6.9-4.5-16.9 0-28.7 24.8-28.7 47.1 0 8.9 2.1 18.2 7.8 21.5-2.9-4.5-4.1-11.3-4.1-17.8zM543.2 99.3c0-.1 0-.2-.1-.3-.4-1.8-.9-3.7-1.6-5.6-.4-1.2-1.4-2-2.6-2.3-.2-.1-.5-.1-.7-.1.5 1.5.9 2.9 1.2 4.3 0 .1 0 .2.1.3.6 3.4 1 6.8 1 10.2 0 18.5-10.1 30.8-16.7 30.8-.4 0-.9-.1-1.3-.2 1.1 3 3.1 3.8 4.6 3.9 3.4-4.1 6.2-8.7 8.4-13.5.6-1.3 1.9-2.1 3.3-2.1h.6c.7 0 1.4.2 2 .6 1.8-5 2.7-10.4 2.7-15.7.1-3.5-.3-6.9-.9-10.3zM541.2 62.7c0-1.4 2-6.1 28-6.2l.9-.1h.3c.3 0 .5 0 .8.1h2.5c2.1 0 3.7-1.7 3.7-3.7v-.3c-.5-7.2-1.4-12.6-2.8-16.5 3.1-.9 6.3-1.4 9.5-1.5 1.2 0 2.4.1 3.5.4-1.1-3.3-3.6-4.1-7.2-4.1-3.2.1-6.4.6-9.5 1.5 1.4 3.8 2.3 9.2 2.8 16.5.2 2-1.4 3.8-3.4 4h-4.6c-26.1 0-28.1 4.7-28.1 6.2 0 1.1.6 3 3.3 6.2l.9-.6c-.4-.5-.6-1.2-.6-1.9zM591.9 56.2c10.6.5 21.7 1.7 33.4 3.2 4 .2 7.8.3 11.1.3 40.6 0 67.2-8.5 83.1-26.9l.2.1c-1.1-1.4-2.4-2.7-3.9-3.8-16 18.4-42.6 26.9-83.2 26.9-7.6 0-17.4-.7-27.8-1.3-4.5-.3-9.2-.6-13.8-.9 0 .9.3 1.7.9 2.4zM575.4 117.4c1.1-16.7 2.4-35.6 2.4-51.5v-2c0-2.1-1.7-3.7-3.7-3.7h-.1v2c0 16-1.3 34.9-2.4 51.5-.9 12.8-1.6 23.9-1.6 31.1 0 2.5.5 3.3 3.6 3.3h.1c.1-7.2.8-18.1 1.7-30.7zM639.8 93.6c.8 2.2 1.3 4.6 1.3 7 0 4.4-1.6 13.9-15.1 17.3 1.7.2 3.4.4 5.1.4 2.8 0 5.5-.4 8.1-1.3 3.6-3.2 5.7-7.8 5.6-12.6 0-3-.7-6-2-8.7-.5-1.3-1.7-2-3-2.1zM646.2 131.8c-3.3 6.6-9.1 10.8-15.4 10.8-2.8 0-5.6-.9-7.9-2.6 2.6 3.9 6.9 6.2 11.6 6.3 6.3 0 12.1-4.1 15.4-10.8.4.1.9.3 1.3.4-.4-1.9-2.1-3.4-5-4.1z"/>
            <path d="M603.9 119.4c0-19.1 15.5-37.1 31.8-37.1 3.8 0 7.6 1 10.9 3 1.2.7 2.7.7 3.8 0 .5-.3 1.1-.6 1.7-.8-.9-2.5-2.1-3.9-2.8-3.9-.9.1-1.8.5-2.6 1-1.2.7-2.7.7-3.8 0-3.3-2-7.1-3-10.9-3-16.4 0-31.8 18-31.8 37.1 0 13.5 4.5 21.3 10.1 25.7-3.8-4.7-6.4-11.7-6.4-22zM80.5 193.7c0-8 30.2-20.7 111.2-20.7 51.8 0 108.6 3.1 163.4 6.1 52.9 2.9 102.9 5.6 147 5.6 55.1 0 91.1-4.4 113-14 20.4 3.2 32.3 7.8 38 11.9-2.5-4.6-14.5-11.4-41.7-15.6-21.9 9.6-57.8 14-113 14-44.1 0-94.1-2.7-147-5.6-54.9-3-111.6-6.1-163.4-6.1-81 0-111.2 12.7-111.2 20.7 0 .9.5 2.6 3.9 4.7-.1-.3-.2-.6-.2-1z"/>
        </g>
    </g>
</svg>
