<svg width="345" height="142" viewBox="0 0 345 142" fill="none" xmlns="http://www.w3.org/2000/svg">
<title id="camsitesSVGcam">Logo ImLive.com</title>
    <defs>
        <style>
            .sprite { display: none; }
            .sprite:target { display: inline; }
        </style>
    </defs>
    <g id="default" class="sprite">

        <path fill-rule="evenodd" clip-rule="evenodd"
              d="M264.959 4.74723C265.389 4.99617 265.891 5.22867 266.455 5.44355C266.589 5.45999 266.997 5.50814 268.328 4.76132L268.333 4.75839C268.433 4.70181 269.907 3.86361 270.074 3.48728L270.055 3.46438L270.037 3.44148C269.639 3.29001 269.286 3.12679 268.982 2.95065C268.703 2.78861 268.479 2.62186 268.308 2.45395L268.314 2.45219L268.32 2.45043C268.794 1.78933 273.623 0.9157 274.725 0.916874L274.727 0.916676L274.729 0.916287L274.732 0.915848L274.734 0.915699C274.798 0.979108 274.882 1.04017 274.987 1.10123L274.994 1.10514L275.001 1.10982L275.002 1.10985C275.009 1.11449 275.017 1.11924 275.026 1.12354C275.17 1.12706 275.17 1.12706 276.79 0.785359C277.792 0.573997 278.251 0.497671 278.585 0.442482C275.533 0.110173 274.794 0.235817 274.787 0.236991L274.784 0.239505C274.762 0.258536 274.741 0.276581 274.724 0.295703H274.694C274.636 0.301574 268.695 0.883995 268.311 0.797102C268.306 0.797645 268.301 0.798439 268.296 0.799252C268.29 0.800197 268.285 0.801167 268.278 0.801799C268.071 1.01551 267.944 1.23509 267.905 1.4582C267.952 1.17403 268.133 0.892215 268.443 0.619792C267.775 0.53055 264.912 1.06835 264.2 1.47698C262.971 2.51384 263.129 3.68455 264.959 4.74723ZM277.892 1.70949C277.903 1.71536 277.917 1.72358 277.927 1.72945C278.026 1.73415 278.124 1.73767 278.224 1.74119C278.224 1.74237 278.224 1.74354 278.223 1.74471C278.474 1.94199 278.786 4.31277 277.623 4.6486C277.623 4.64977 277.622 4.65065 277.622 4.65154C277.622 4.65242 277.621 4.6533 277.621 4.65447C276.961 4.63568 276.309 4.60046 275.674 4.54879C275.591 4.55818 275.479 4.58284 275.404 4.61924C274.72 4.96095 273.455 6.74109 274.452 7.01351C277.926 7.29885 281.762 7.23544 285.259 6.75518C285.594 6.70938 285.92 6.66007 286.237 6.6084C286.747 6.40643 286.173 5.72068 285.985 5.51519C285.607 5.10185 284.597 4.28224 283.978 4.26345C283.801 4.29281 283.619 4.31981 283.433 4.34682L283.428 4.34196C283.425 4.33844 283.422 4.33473 283.418 4.33156C282.077 4.03917 280.439 1.7999 280.416 1.63786L280.402 1.62729C280.679 1.58737 280.932 1.5404 281.161 1.48638C281.162 1.47934 281.163 1.46994 281.163 1.46407C280.958 1.2985 280.422 1.0801 280.01 0.926271C279.502 0.736435 278.997 0.577412 278.621 0.458789L278.621 0.458782L278.584 0.447183C278.144 1.03548 277.826 1.4629 277.892 1.70949ZM249.463 8.67067L249.371 8.74551C249.459 8.67036 249.551 8.59639 249.648 8.52124C249.587 8.57003 249.526 8.61988 249.463 8.67043L249.463 8.67067ZM246.065 17.5217C246.608 17.7742 247.447 17.0873 247.899 16.6563C247.916 16.6399 249.652 14.9279 249.216 14.1987C249.038 14.0401 248.877 13.8816 248.732 13.7219L248.74 13.7153L248.744 13.7114L248.749 13.707L248.755 13.7008C248.687 12.2588 252.417 9.42891 253.75 9.58978C253.757 9.58518 253.765 9.57987 253.771 9.57496L253.777 9.57099C254.082 9.90565 254.475 10.238 254.958 10.5656C255.497 10.7394 256.44 10.1734 256.953 9.81993L256.956 9.81804C257.039 9.75896 258.941 8.40805 258.605 7.90593C256.357 6.38294 256.424 4.73549 258.399 3.29705C258.406 3.27944 258.415 3.25713 258.422 3.24069C257.762 3.39451 255.616 4.50769 254.715 5.11712C254.484 5.28503 254.275 5.4553 254.089 5.62791L254.086 5.62962L254.085 5.63028C254.083 5.63137 254.081 5.63236 254.08 5.63378C253.535 6.06355 249.219 9.01441 249.057 9.03907L249.072 9.02199L249.072 9.02197C249.085 9.00672 249.1 8.98998 249.111 8.97566C249.194 8.89816 249.281 8.82183 249.372 8.74551C248.587 9.38808 247.674 10.1889 246.887 10.8795L246.886 10.8797L246.885 10.8814C246.723 11.0231 246.567 11.1601 246.418 11.2901L245.833 11.8478C243.955 13.6585 243.934 15.6324 246.065 17.5217ZM276.495 2.00775L276.51 2.01949C276.474 2.27313 275.808 3.0129 275.678 3.14793C274.975 3.88066 274.632 3.90766 274.519 3.91588C273.581 3.79141 272.708 3.62467 271.941 3.41918L271.918 3.39922L271.895 3.37926C272.056 2.83206 274.703 1.76116 275.144 1.73885C275.541 1.84571 275.994 1.93142 276.48 1.99601L276.495 2.00775ZM256.631 17.7472C257.671 18.0478 258.781 18.3249 259.946 18.5774C259.614 19.1622 259.289 19.7563 258.97 20.3599C258.433 21.5799 258.614 22.3256 259.526 22.6391C266.584 23.9965 275.277 24.5801 283.83 24.2137C285.196 24.0012 285.36 22.9784 285.367 22.5498C285.375 22.0954 285.037 20.3716 283.252 20.2472C281.106 20.3376 278.95 20.3611 276.928 20.3446C276.599 20.2906 276.124 20.1356 275.699 19.6683C274.47 18.3132 275.183 15.7252 276.724 15.0488C277.786 15.0723 278.855 15.0782 279.926 15.0641C280.982 14.9149 281.13 14.0354 281.144 13.6632C281.159 13.2886 280.959 11.8584 279.721 11.7105C275.533 11.7656 271.385 11.4721 267.788 10.8803C267.085 10.8697 266.397 11.3183 265.685 12.2518C265.362 12.7262 265.045 13.21 264.732 13.7043H264.731C265.051 13.1982 265.377 12.7039 265.707 12.2189C265.234 12.9 264.619 13.3931 264.06 13.5751C262.796 13.3239 261.605 13.0385 260.507 12.7215C260.226 12.6886 259.909 12.6522 259.335 12.8765C257.354 13.6456 254.669 16.7738 256.631 17.7472ZM277.255 20.374C277.191 20.3716 277.088 20.3669 276.963 20.3481C277.056 20.3599 277.168 20.3693 277.255 20.374ZM277.393 14.8832C277.408 14.8827 277.425 14.8827 277.443 14.8827C277.454 14.8827 277.466 14.8827 277.476 14.8825C277.432 14.8838 277.39 14.8858 277.349 14.8879C277.364 14.8868 277.378 14.8844 277.393 14.8832ZM306.903 39.1817C306.387 39.6725 306.052 40.5145 306.248 41.5502L306.238 41.5008C306.403 42.9581 305.872 43.8599 304.614 44.2579C302.716 44.6313 300.693 44.9672 298.55 45.2619C293.878 45.9054 289.004 46.2988 284.115 46.462C281.296 46.2823 281.122 43.6168 282.242 42.4813C282.822 41.893 283.387 41.819 283.932 41.7486L284.625 41.7239C284.515 41.7686 284.413 41.805 284.316 41.8367C286.834 41.0793 287.439 38.0615 285.675 36.2438C285.267 35.8246 284.58 35.3255 283.544 35.1799C283.113 35.194 282.682 35.2069 282.25 35.2175C279.488 35.0014 279.476 32.114 280.793 31.1617C281.2 30.8681 281.612 30.8153 281.943 30.7742C286.539 30.6673 291.139 30.3221 295.528 29.7185C298.266 29.3428 300.774 28.886 303.034 28.3635C304.127 28.2519 304.96 28.8238 305.58 30.1096L305.704 30.4301C306.174 31.2803 306.926 31.8169 307.645 31.8169C308.571 31.5539 309.448 31.2803 310.273 30.9949C312.864 30.5123 313.807 34.0844 313.815 34.1208C313.987 34.8699 314.212 36.7053 312.593 37.5542C310.895 38.1402 308.994 38.6862 306.903 39.1817ZM307.55 38.7836C307.489 38.8036 307.428 38.8294 307.368 38.8576C307.446 38.8236 307.537 38.7919 307.658 38.7519L307.626 38.7611C307.6 38.7684 307.572 38.7763 307.55 38.7836ZM307.714 31.8146C307.809 31.8052 307.916 31.7899 308 31.7723C307.907 31.7981 307.81 31.8099 307.714 31.8146ZM243.82 36.9471C243.536 36.8426 243.255 36.7358 242.981 36.6277C242.611 36.3647 242.412 36.0136 242.369 35.9314C241.165 33.637 243.493 29.6105 245.645 30.2622C245.661 30.2669 245.678 30.2731 245.696 30.2792C245.713 30.2854 245.731 30.2916 245.746 30.2963C245.389 30.1882 245.295 30.18 244.906 30.2223C249.004 31.8979 254.462 33.1966 260.632 34.0562C262.186 34.0949 262.8 33.0111 262.993 32.5426C263.002 32.5203 263.837 30.2317 261.719 29.681C254.238 28.6394 247.868 26.9086 243.924 24.6177C242.075 23.5432 240.898 22.4265 240.346 21.3051L240.346 21.305C240.113 21.2064 239.848 21.0945 238.831 22.5639L238.853 22.5287L238.833 22.5588L238.833 22.5588L238.833 22.559C238.788 22.6278 238.736 22.7056 238.668 22.8046C238.294 23.3471 237.885 23.8321 237.666 23.9249C237.538 23.2156 237.643 22.5099 237.967 21.8148C237.971 21.8007 237.975 21.7842 237.979 21.7678C237.984 21.7513 237.988 21.7349 237.992 21.7208L236.819 23.7851C236.333 24.7091 235.78 25.902 235.29 26.96L235.289 26.9602C235.147 27.2668 235.01 27.5621 234.882 27.8362C234.737 28.1756 234.642 28.5185 234.603 28.8343C234.496 29.2852 234.211 30.1976 233.892 31.1112C233.852 31.2179 233.813 31.3247 233.774 31.4315L233.774 31.4317C233.281 32.8537 233.073 33.7861 233.12 34.3662C233.485 36.0113 234.973 37.6658 237.685 39.2416C239.094 40.06 240.765 40.8174 242.656 41.5102C243.861 41.7615 244.439 40.7129 244.632 40.2503C244.644 40.2326 245.536 37.8677 243.82 36.9471ZM234.167 30.4524L234.406 29.8407L234.351 29.9832L234.351 29.9834C234.291 30.1367 234.23 30.2942 234.167 30.4524ZM234.637 28.6864L234.635 28.6962L234.636 28.6907L234.637 28.6864ZM234.636 28.6942L234.633 28.7092C234.628 28.7367 234.621 28.7674 234.613 28.8003L234.624 28.7472L234.629 28.7234L234.636 28.6942ZM237.569 23.9366C237.55 23.9284 237.534 23.9131 237.523 23.8873C237.538 23.9037 237.554 23.9213 237.569 23.9366ZM237.755 24.2983V24.2971L237.813 24.2055L237.79 24.2421C237.778 24.261 237.767 24.2796 237.755 24.2983ZM237.636 24.5002C237.618 24.4075 237.597 24.2989 237.577 24.1902C237.556 24.0816 237.535 23.973 237.518 23.8802L237.519 23.8814L237.636 24.5002ZM295.55 18.9661C292.81 19.2843 290.891 15.3388 292.011 14.1024C292.205 13.8863 292.397 13.8358 292.6 13.783C293.256 13.662 293.886 13.5329 294.49 13.3967C295.844 13.1994 297.471 14.6566 298.145 15.7029C298.647 16.4837 299.228 18.0713 297.838 18.4987C297.108 18.6631 296.344 18.8193 295.55 18.9661ZM315.077 28.9764C316.231 28.3365 317.174 27.6683 317.893 26.9791L317.894 26.9809C317.895 26.983 317.896 26.9855 317.897 26.9873C317.918 26.9803 317.94 26.9709 317.963 26.9612C318.013 26.9401 318.067 26.9173 318.113 26.9133C319.254 26.8006 321.669 31.0255 320.656 32.9594L320.656 32.9595C320.657 32.963 320.658 32.9665 320.661 32.97C320.384 33.2354 320.076 33.4972 319.738 33.7568C319.64 33.8671 319.52 34.0339 319.471 34.1748C319.03 35.416 319.978 38.7414 321.181 38.1895C323.491 36.4199 324.435 34.5071 323.847 32.5896L323.399 31.1981L322.277 28.2343L322.276 28.2334C322.269 28.2149 322.263 28.1964 322.256 28.1768L322.249 28.158L322.249 28.1577C322.246 28.1499 322.244 28.1422 322.241 28.1344C322.239 28.1297 322.237 28.1251 322.235 28.1204L322.229 28.1029C322.209 28.051 322.189 27.9984 322.166 27.9466V27.9455C321.766 27.0109 321.206 25.8661 320.706 24.8438L320.706 24.8432C320.551 24.5272 320.402 24.2229 320.266 23.9401L319.125 21.924C319.086 21.85 319.045 21.776 319 21.7032C318.342 20.6296 317.421 19.3 316.647 18.1839L316.485 17.9504C318.04 20.3528 316.686 22.7988 312.877 24.9101C312.773 25.0005 312.64 25.1414 312.589 25.2717C312.195 26.2992 313.529 29.4579 315.077 28.9764ZM316.281 17.6544C316.355 17.7519 316.423 17.8505 316.486 17.9492L316.415 17.8467L316.414 17.8446L316.412 17.842C316.368 17.7782 316.324 17.7156 316.281 17.6544ZM300.98 11.3535C301.288 11.195 301.575 11.0341 301.839 10.8709C301.843 10.8732 301.845 10.8756 301.849 10.8779C303.384 10.6501 307.373 13.9392 306.555 15.2801L306.561 15.286C305.767 15.7757 304.815 16.2465 303.709 16.6892L303.697 16.6973L303.684 16.7051C303.674 16.711 303.664 16.717 303.654 16.7231L303.653 16.7231C303.612 16.7472 303.568 16.773 303.539 16.8031C302.904 17.4642 304.599 20.637 306.398 20.2789C311.572 18.2099 313.733 15.6019 312.178 13.0444C311.763 12.4655 310.758 11.5331 310.562 11.3511C309.282 10.176 308.997 10.1077 308.904 10.0853L308.93 10.1546C309.028 10.3143 309.107 10.474 309.171 10.6337L309.167 10.6304L309.16 10.6249C309.157 10.6219 309.153 10.619 309.149 10.6161L309.124 10.6363C309.115 10.6437 309.105 10.6511 309.097 10.6572C308.362 10.5069 304.798 7.88245 304.039 7.02173C304.034 7.0188 304.03 7.01616 304.025 7.01351L304.019 7.01013L304.011 7.0053C303.873 6.66712 303.652 6.33011 303.34 5.99545C302.84 5.54689 301.695 4.92572 301.47 4.80595C300.663 4.37618 299.699 3.94406 299.499 3.99103C299.503 4.00085 299.509 4.01261 299.515 4.0235L299.515 4.02504L299.515 4.02543L299.523 4.04035C300.964 5.59739 300.165 7.21901 297.527 8.5729C297.519 8.58128 297.509 8.58979 297.499 8.59858C297.478 8.61688 297.456 8.63641 297.446 8.65862C297.26 9.09309 299.766 11.6341 300.98 11.3535ZM274.36 38.7508C274.21 39.7641 273.266 41.6793 270.759 41.6746C269.489 41.6077 268.231 41.5243 266.989 41.4268C266.919 41.4177 266.851 41.407 266.784 41.395C266.521 41.3153 266.257 41.2392 265.992 41.1668C263.618 40.1912 263.422 37.0928 265.412 35.457C266.401 34.6445 267.371 34.6703 267.786 34.682C268.943 34.7736 270.116 34.8511 271.299 34.9134C273.761 35.1693 274.571 37.3111 274.36 38.7508ZM282.402 53.8426C285.038 58.5415 286.229 63.9912 286.027 69.6417C290.41 69.4443 294.763 69.0637 298.957 68.4871C299.983 68.3462 300.983 68.1959 301.955 68.0362C303.703 67.5865 304.224 66.4029 304.366 65.9144C304.373 65.8897 304.972 63.4368 302.331 63.6176C301.547 63.7456 300.744 63.8689 299.925 63.9851L299.925 63.9773L299.925 63.9704C299.926 63.9655 299.926 63.9605 299.926 63.9558L299.922 63.9555C299.452 63.9215 298.808 63.8749 298.221 63.5107C296.238 62.2836 296.4 58.6106 300.039 57.2931V57.2579C303.321 56.7894 306.326 56.2258 309.036 55.5858C310.549 55.0421 310.845 53.7293 310.902 53.1904C310.904 53.1633 311.08 50.5307 308.767 50.8043C305.908 51.4807 302.716 52.069 299.215 52.5504C293.783 53.297 288.088 53.7189 282.402 53.8426ZM282.513 84.1785C282.079 85.1356 281.605 86.085 281.093 87.0237C282.106 87.0049 283.12 86.974 284.132 86.9309C285.652 86.7606 286.152 86.0608 286.296 85.7672C286.498 85.355 286.597 84.1667 284.462 84.1104C283.812 84.1377 283.161 84.1603 282.513 84.1785ZM231.247 42.4874C231.323 41.6236 231.407 40.7584 231.504 40.0102C231.256 42.1257 232.782 44.2905 236.291 46.3293C236.398 46.3915 236.506 46.453 236.616 46.5144C235.468 47.2435 234.34 48.0335 233.238 48.8841C231.956 47.5973 231.157 45.8301 231.132 43.8761C231.168 43.4278 231.206 42.9603 231.247 42.4923C231.247 42.4906 231.248 42.489 231.248 42.4874H231.247ZM231.518 39.9015C231.513 39.9377 231.508 39.9739 231.504 40.0102L231.518 39.9015ZM280.704 0.780667H280.702L280.733 0.786213C281.329 0.900166 281.736 1.00018 281.951 1.06835C281.922 1.08528 281.891 1.10201 281.859 1.11931L281.859 1.11933C281.782 1.16082 281.699 1.20562 281.617 1.26445C281.661 1.28794 286.26 3.55304 287.194 3.48258C287.395 3.40626 287.582 3.32758 287.738 3.24656C288.031 3.24891 288.805 3.4955 289.59 3.83603C289.688 3.88182 289.788 3.92879 289.887 3.97576C291.029 4.50417 291.868 4.84118 292.256 4.76485C293.509 4.02508 294.009 3.18668 293.631 2.35297C293.328 2.07702 291.96 1.71536 291.805 1.67543C290.659 1.37718 289.316 1.16934 289.193 1.2715C289.206 1.30085 289.22 1.33021 289.243 1.35604C288.808 1.44411 283.773 0.714909 282.581 0.52938C282.559 0.449532 282.508 0.370858 282.425 0.292184C282.242 0.253434 281.538 0.241692 280.548 0.293358C279.797 0.332687 279.09 0.398897 278.645 0.44054L278.586 0.446009C279.183 0.524683 279.434 0.564607 280.002 0.656197C280.235 0.693768 280.47 0.737208 280.704 0.780648L280.704 0.780667ZM289.322 1.57562C289.314 1.4993 289.296 1.42297 289.267 1.34665C289.265 1.34782 289.26 1.349 289.257 1.35017C289.26 1.3443 289.264 1.3396 289.266 1.33608C289.296 1.41593 289.314 1.49578 289.322 1.57562ZM282.335 0.486634L282.33 0.485493C282.328 0.485053 282.327 0.484759 282.327 0.484759C282.326 0.484172 282.325 0.483291 282.324 0.48241C282.323 0.48153 282.322 0.480649 282.321 0.480062C282.326 0.483162 282.33 0.485353 282.335 0.486634ZM298.802 90.0884C298.736 90.1025 298.659 90.1154 298.596 90.1107C298.42 90.0966 298.394 89.9393 298.776 89.5482C298.837 89.4954 298.898 89.4414 298.959 89.3874C298.976 89.3709 298.994 89.3537 299.012 89.3359L299.012 89.3357L299.012 89.3355L299.013 89.3353L299.013 89.3352C299.121 89.2303 299.25 89.1054 299.324 88.9881C299.662 88.4548 299.013 88.5603 298.766 88.6004L298.765 88.6006C296.888 89.0339 294.806 89.4132 292.533 89.7255C288.888 90.2269 285.069 90.5123 281.254 90.6015C280.955 90.625 280.256 90.6814 279.791 91.0595C279.226 91.5186 279.349 92.4028 281.008 92.4545C281.305 92.4474 281.6 92.4392 281.853 92.4263C282.701 92.4662 283.086 92.7222 283.159 92.7786C283.876 93.3211 283 94.1066 281.581 94.3603C281.528 94.362 281.475 94.3641 281.422 94.3661C281.369 94.3682 281.316 94.3702 281.263 94.372C280.265 94.4436 279.971 94.7102 279.905 94.79C279.869 94.8335 279.585 95.2139 280.756 95.2128C282.796 95.1446 284.831 94.9803 286.782 94.7125C287.676 94.5892 288.52 94.4495 289.313 94.2933C290.371 94.065 291.179 93.7422 291.455 93.6321L291.457 93.6311C291.451 93.6334 291.444 93.6369 291.439 93.6393C292.105 93.3586 292.704 93.1273 293.166 92.97C294.255 92.7116 295.244 92.4275 296.128 92.1233C297.485 91.6208 298.788 90.9374 299.154 90.7389C300.851 89.8241 300.906 89.5735 300.932 89.4524L300.932 89.452C300.811 89.4602 300.653 89.5001 300.536 89.5341C299.962 89.7314 299.352 89.9228 298.802 90.0884ZM281.559 92.4237L281.536 92.4239C283.794 92.3578 286.048 92.2138 288.254 91.9874C286.052 92.2137 283.809 92.3575 281.588 92.4228H281.601C281.592 92.4228 281.584 92.423 281.574 92.4233L281.574 92.4233L281.559 92.4237ZM292.467 93.1641L292.503 93.146L292.544 93.125L292.591 93.1015H292.592C292.547 93.1243 292.502 93.1469 292.457 93.1693L292.415 93.1901L292.467 93.1641ZM293.605 92.8314C293.618 92.8277 293.633 92.8236 293.646 92.8195L293.67 92.8126L293.73 92.7973C293.709 92.8028 293.69 92.8081 293.673 92.813L293.672 92.8133L293.671 92.8135L293.67 92.8138L293.638 92.8225C293.627 92.8256 293.616 92.8286 293.605 92.8314ZM298.912 90.0614C298.887 90.0684 298.848 90.079 298.804 90.0896L298.826 90.084L298.867 90.073L298.912 90.0614ZM305.201 76.877C307.24 76.5072 307.274 77.9444 306.647 79.0823C306.599 79.1692 305.442 81.2276 303.106 81.8511C302.17 82.0613 301.194 82.2609 300.179 82.4488C297.951 82.7705 297.512 81.1384 298.715 79.5766C299.082 79.1011 300.138 77.9491 302.027 77.5252C303.128 77.3221 304.186 77.1048 305.201 76.877ZM303.676 88.1814C303.725 88.1709 303.786 88.1391 303.831 88.1157C304.154 87.9372 304.453 87.754 304.728 87.5696C305.843 86.8005 307.229 85.7155 308.363 84.8219C307.947 85.1319 307.473 85.4349 306.939 85.7308C305.972 86.3085 303.772 88.0053 303.676 88.1814ZM308.469 84.7403L308.47 84.7391L308.472 84.7373L308.64 84.6049L308.762 84.5084C308.636 84.6141 308.504 84.7186 308.364 84.8231L308.469 84.7403ZM317.45 69.5087C316.659 69.9538 315.94 71.1151 315.672 71.667C315.393 72.2388 314.829 73.7865 315.86 73.4072C316.373 73.1441 316.852 72.8753 317.294 72.6017C317.293 72.6052 317.291 72.6087 317.29 72.611C317.393 72.5735 317.544 72.5382 317.653 72.557C318.097 73.2862 315.893 76.5389 314.343 77.7472C314.342 77.7478 314.342 77.7486 314.341 77.7493L314.34 77.7513C314.339 77.7527 314.338 77.7542 314.337 77.7554C313.321 78.3836 312.099 78.986 310.68 79.5531C309.125 80.3105 308.176 81.9169 308.166 81.9333C307.908 82.3948 307.752 82.8985 308.47 82.686C311.141 81.6174 313.068 80.4162 314.167 79.1504L315.61 77.3937L317.036 75.4644C317.048 75.4503 317.058 75.4363 317.069 75.4222C317.107 75.3717 317.145 75.32 317.181 75.2695C318.056 73.9716 319.131 72.1791 319.938 70.8314L319.946 70.818L320.767 69.2563C321.306 68.1727 321.908 66.7511 322.426 65.5264L322.427 65.5251C322.514 65.3184 322.599 65.1173 322.682 64.9244C322.706 64.8698 322.729 64.8147 322.752 64.7589L322.682 64.9244C321.708 67.1111 319.448 68.3837 317.45 69.5087ZM325.616 41.0961L325.616 41.0958C325.588 40.8308 325.56 40.573 325.535 40.3266C325.661 42.0985 324.539 43.8493 322.289 45.4756C321.726 46.0357 321.481 47.0256 321.538 48.504C321.596 49.2132 321.638 49.9236 321.666 50.6376C321.666 50.6376 321.664 50.6376 321.664 50.6387C321.636 49.9084 321.592 49.1803 321.532 48.4558C321.605 49.4551 321.399 50.4133 321.018 51.0239C319.752 51.7484 318.255 52.4412 316.536 53.0941L316.536 53.0944C316.008 53.3738 315.461 53.6629 314.859 54.7486C313.583 57.043 313.851 60.7078 316.349 60.1383C317.238 59.8013 318.067 59.4526 318.804 59.0979C319.344 59.0157 319.674 59.5359 319.649 60.4225L319.633 60.5373L319.617 60.6539C319.612 60.6918 319.606 60.7298 319.601 60.7677C319.472 62.1216 319.734 62.65 320.402 62.3846C323.912 60.3023 324.465 58.7293 324.91 57.4661L324.91 57.4646L325.226 55.8535L325.669 52.7747C325.683 52.6972 325.694 52.6197 325.702 52.5434C325.84 51.0946 325.917 49.2008 325.98 47.6604L326 47.1712L325.952 44.8756C325.898 43.7523 325.748 42.3454 325.616 41.097L325.616 41.0966L325.616 41.0961ZM318.568 59.166L318.606 59.1496L318.616 59.1461C318.603 59.152 318.588 59.1578 318.568 59.166Z"
              fill="url(#paint0_linear)"/>
        <path fill-rule="evenodd" clip-rule="evenodd"
              d="M281.204 79.9808C277.36 89.6426 267.923 96.4722 256.891 96.4722C242.445 96.4722 230.734 84.7612 230.734 70.315C230.734 55.8688 242.445 44.1578 256.891 44.1578C271.337 44.1578 283.048 55.8688 283.048 70.315C283.048 70.8745 283.03 71.43 282.996 71.9808H279.212C279.253 71.4305 279.273 70.8748 279.273 70.3142C279.273 57.9527 269.252 47.9316 256.891 47.9316C244.529 47.9316 234.508 57.9527 234.508 70.3142C234.508 82.6758 244.529 92.6968 256.891 92.6968C265.79 92.6968 273.477 87.5028 277.084 79.9808H281.204Z"
              fill="black"/>
        <path d="M245.361 68.2292C244.349 68.2124 243.515 69.019 243.498 70.0307C243.482 71.0425 244.288 71.8763 245.3 71.8931L245.361 68.2292ZM333.674 48.7451C332.779 48.2724 331.67 48.6145 331.198 49.5092C330.725 50.4039 331.067 51.5124 331.962 51.9851L333.674 48.7451ZM245.3 71.8931C268.254 72.2744 299.962 72.4855 321.087 70.0144C326.375 69.3958 331.059 68.603 334.804 67.5841C338.461 66.5894 341.545 65.2988 343.31 63.4848C344.243 62.5267 344.889 61.3366 344.937 59.9309C344.984 58.5511 344.445 57.2464 343.576 56.0548C341.884 53.735 338.568 51.3308 333.674 48.7451L331.962 51.9851C336.778 54.5294 339.447 56.6122 340.615 58.2139C341.176 58.983 341.285 59.4977 341.275 59.8056C341.265 60.0875 341.147 60.4534 340.684 60.9293C339.659 61.9833 337.427 63.073 333.842 64.0482C330.347 64.9993 325.864 65.7662 320.661 66.3748C299.822 68.8125 268.364 68.6113 245.361 68.2292L245.3 71.8931Z"
              fill="black"/>
        <path d="M245.361 68.2292C244.349 68.2124 243.515 69.019 243.498 70.0307C243.482 71.0425 244.288 71.8763 245.3 71.8931L245.361 68.2292ZM333.674 48.7451C332.779 48.2724 331.67 48.6145 331.198 49.5092C330.725 50.4039 331.067 51.5124 331.962 51.9851L333.674 48.7451ZM245.3 71.8931C268.254 72.2744 299.962 72.4855 321.087 70.0144C326.375 69.3958 331.059 68.603 334.804 67.5841C338.461 66.5894 341.545 65.2988 343.31 63.4848C344.243 62.5267 344.889 61.3366 344.937 59.9309C344.984 58.5511 344.445 57.2464 343.576 56.0548C341.884 53.735 338.568 51.3308 333.674 48.7451L331.962 51.9851C336.778 54.5294 339.447 56.6122 340.615 58.2139C341.176 58.983 341.285 59.4977 341.275 59.8056C341.265 60.0875 341.147 60.4534 340.684 60.9293C339.659 61.9833 337.427 63.073 333.842 64.0482C330.347 64.9993 325.864 65.7662 320.661 66.3748C299.822 68.8125 268.364 68.6113 245.361 68.2292L245.3 71.8931Z"
              fill="url(#paint1_linear)"/>
        <path fill-rule="evenodd" clip-rule="evenodd"
              d="M12.5002 95.1444C13.1948 95.1444 13.4924 94.8467 13.4924 94.1522V26.6835C13.4924 25.989 13.1948 25.6913 12.5002 25.6913H10.0198C9.32524 25.6913 9.02759 25.989 9.02759 26.6835V94.1522C9.02759 94.8467 9.32524 95.1444 10.0198 95.1444H12.5002ZM31.9215 45.535H29.441C28.7465 45.535 28.4489 45.8327 28.4489 46.5272V94.1522C28.4489 94.7475 28.7465 95.1444 29.441 95.1444H31.9215C32.616 95.1444 32.9137 94.7475 32.9137 94.1522V68.9507C32.9137 58.8303 40.3551 48.9085 49.4832 48.9085C58.909 48.9085 62.8777 57.3421 62.8777 68.653V94.1522C62.8777 94.7475 63.2746 95.1444 63.8699 95.1444H66.3504C67.0449 95.1444 67.3426 94.7475 67.3426 94.1522V68.9507C67.3426 58.235 75.3793 48.9085 84.0113 48.9085C93.4371 48.9085 97.3066 57.3421 97.3066 68.653V94.1522C97.3066 94.7475 97.7035 95.1444 98.398 95.1444H100.779C101.474 95.1444 101.771 94.7475 101.771 94.1522V68.2561C101.771 53.671 96.116 44.5429 84.7058 44.5429C74.9824 44.5429 69.2277 51.6866 66.1519 58.8303C64.5644 51.2897 59.7027 44.5429 50.277 44.5429C40.6528 44.5429 35.1957 51.6866 32.9137 57.4413V46.5272C32.9137 45.8327 32.616 45.535 31.9215 45.535ZM155.999 95.1444H119.288C118.593 95.1444 118.296 94.8467 118.296 94.1522V26.6835C118.296 25.989 118.593 25.6913 119.288 25.6913H121.768C122.463 25.6913 122.76 25.989 122.76 26.6835V90.7787H155.999C156.693 90.7787 156.991 91.0764 156.991 91.7709V94.1522C156.991 94.8467 156.693 95.1444 155.999 95.1444ZM170.763 95.1444H173.144C173.838 95.1444 174.235 94.8467 174.235 94.1522V46.5272C174.235 45.8327 173.838 45.535 173.144 45.535H170.763C170.068 45.535 169.77 45.8327 169.77 46.5272V94.1522C169.77 94.7475 170.068 95.1444 170.763 95.1444ZM205.634 88.7944L220.913 46.5272C221.211 45.9319 221.409 45.535 222.203 45.535H225.18C225.874 45.535 226.073 46.0311 225.874 46.5272L208.61 93.6561C208.313 94.6483 207.916 95.1444 207.122 95.1444H204.245C203.451 95.1444 202.955 94.6483 202.558 93.6561L185.393 46.5272C185.195 45.9319 185.294 45.535 186.088 45.535H188.965C189.858 45.535 190.056 45.9319 190.255 46.5272L205.634 88.7944ZM172.246 34.5492C173.884 34.5492 175.211 33.2219 175.211 31.5846C175.211 29.9473 173.884 28.62 172.246 28.62C170.609 28.62 169.282 29.9473 169.282 31.5846C169.282 33.2219 170.609 34.5492 172.246 34.5492Z"
              fill="black"/>
        <rect x="0.892578" y="111.672" width="331.85" height="29.646" rx="1.73723" fill="#00B44D"/>
        <path d="M3.47044 136.041L10.9367 116.265H12.4569H13.9905L21.0935 136.041H19.6541H18.2147L16.2102 130.31H8.29998L6.22825 136.041H4.85607H3.47044ZM12.3358 119.171L9.16095 127.942H15.3896L12.3358 119.171ZM28.4592 136.431C26.531 136.431 24.9974 135.713 23.8584 134.278C22.7194 132.834 22.1499 130.888 22.1499 128.44C22.1499 126.278 22.7014 124.534 23.8045 123.207C24.9077 121.879 26.3471 121.216 28.1229 121.216C29.8897 121.216 31.2888 121.965 32.3201 123.462L32.5085 123.731V116.265H33.7192H34.93V136.041H33.8134H32.6834V134.076L32.3739 134.52C31.3784 135.794 30.0735 136.431 28.4592 136.431ZM28.5937 123.395C27.2395 123.395 26.2485 123.83 25.6207 124.7C24.9929 125.561 24.679 126.933 24.679 128.816C24.679 130.592 25.0153 131.96 25.6879 132.92C26.3695 133.879 27.3381 134.359 28.5937 134.359C29.7686 134.359 30.7148 133.92 31.4323 133.041C32.1497 132.153 32.5085 130.982 32.5085 129.529C32.5085 127.565 32.1677 126.054 31.4861 124.996C30.8134 123.929 29.8493 123.395 28.5937 123.395ZM40.5333 121.646V130.929C40.5333 132.139 40.7665 133.014 41.2329 133.552C41.6992 134.081 42.4571 134.346 43.5064 134.346C44.6723 134.346 45.596 133.897 46.2776 133C46.9592 132.094 47.3 130.87 47.3 129.328V121.646H48.5108H49.7215V136.041H48.5781H47.4211V133.848C47.2597 134.108 47.0803 134.355 46.883 134.588C45.8516 135.816 44.5602 136.431 43.0086 136.431C41.3763 136.431 40.1521 136.023 39.336 135.207C38.5199 134.39 38.1118 133.166 38.1118 131.534V121.646H39.3226H40.5333ZM53.1455 136.041V116.265H54.3563H55.567V136.041H54.3563H53.1455ZM64.2376 136.027C63.4125 136.153 62.8116 136.215 62.4349 136.215C61.3766 136.215 60.6278 135.982 60.1883 135.516C59.7578 135.05 59.5426 134.247 59.5426 133.108V123.624H57.5516V121.646H59.5426V117.61H61.9641V121.646H64.2376V123.624H61.9641V133.108C61.9641 133.431 62.0896 133.686 62.3408 133.875C62.6008 134.063 62.9461 134.157 63.3766 134.157H64.2376V136.027ZM75.1592 136.041L69.9799 116.265H71.4193H72.8722L76.3969 131.897C76.4596 132.157 76.509 132.408 76.5448 132.65C76.5897 132.884 76.6121 133.05 76.6121 133.148C76.6121 133.032 76.6345 132.852 76.6794 132.61C76.7242 132.368 76.778 132.13 76.8408 131.897L81.0246 116.265H82.5313H84.038L88.1949 131.816C88.2667 132.059 88.325 132.305 88.3698 132.556C88.4146 132.807 88.4371 132.991 88.4371 133.108C88.4371 133.009 88.455 132.834 88.4909 132.583C88.5357 132.332 88.5895 132.077 88.6523 131.816L92.2173 116.265H93.6567H95.0962L89.9169 136.041H88.4774H87.038L82.7466 120.745C82.6748 120.485 82.612 120.229 82.5582 119.978C82.5044 119.727 82.4775 119.552 82.4775 119.453C82.4775 119.57 82.4551 119.754 82.4102 120.005C82.3654 120.247 82.3071 120.494 82.2353 120.745L78.0381 136.041H76.5986H75.1592ZM102.933 136.431C100.897 136.431 99.2959 135.785 98.13 134.494C96.9641 133.202 96.3812 131.417 96.3812 129.139C96.3812 126.718 96.9955 124.794 98.2242 123.368C99.4619 121.933 101.121 121.216 103.202 121.216C105.085 121.216 106.605 121.915 107.762 123.314C108.919 124.713 109.498 126.552 109.498 128.83L109.471 129.691H98.9507C99.0493 131.126 99.3767 132.22 99.9327 132.973C100.614 133.888 101.691 134.346 103.161 134.346C104.085 134.346 104.892 134.085 105.583 133.565C106.273 133.045 106.695 132.381 106.847 131.574H109.242C108.883 133.153 108.166 134.359 107.09 135.193C106.013 136.018 104.628 136.431 102.933 136.431ZM106.969 127.74C106.897 126.404 106.565 125.364 105.973 124.619C105.318 123.794 104.359 123.382 103.094 123.382C101.821 123.382 100.803 123.857 100.04 124.808C99.4394 125.552 99.0762 126.529 98.9507 127.74H106.969ZM111.94 116.265H113.15H114.361V123.516C115.419 121.965 116.787 121.198 118.464 121.216C120.348 121.216 121.836 121.866 122.93 123.166C124.034 124.458 124.585 126.207 124.585 128.413C124.585 130.915 124.029 132.879 122.917 134.305C121.814 135.722 120.28 136.431 118.316 136.431C116.693 136.431 115.401 135.807 114.442 134.561L114.213 134.265V136.041H111.94V116.265ZM118.195 134.332C119.46 134.332 120.419 133.857 121.074 132.906C121.729 131.946 122.056 130.552 122.056 128.722C122.056 126.92 121.742 125.588 121.114 124.727C120.487 123.857 119.518 123.422 118.209 123.422C116.872 123.422 115.895 123.911 115.276 124.888C114.666 125.866 114.361 127.413 114.361 129.529C114.361 131.063 114.693 132.247 115.357 133.081C116.02 133.915 116.966 134.332 118.195 134.332ZM138.543 130.861C138.292 132.673 137.65 134.054 136.619 135.005C135.588 135.955 134.215 136.431 132.502 136.431C130.592 136.431 129.067 135.745 127.928 134.372C126.789 133 126.22 131.153 126.22 128.83C126.22 126.507 126.807 124.66 127.982 123.287C129.166 121.906 130.754 121.216 132.745 121.216C134.475 121.216 135.857 121.691 136.888 122.642C137.919 123.583 138.471 124.884 138.543 126.543H136.215C136.117 125.512 135.758 124.713 135.139 124.148C134.52 123.583 133.695 123.301 132.664 123.301C131.444 123.301 130.484 123.794 129.785 124.781C129.094 125.758 128.749 127.108 128.749 128.83C128.749 130.659 129.072 132.036 129.718 132.96C130.363 133.884 131.323 134.346 132.597 134.346C133.538 134.346 134.323 134.045 134.951 133.444C135.588 132.834 136.009 131.973 136.215 130.861H138.543ZM144.482 136.431C143.074 136.431 141.958 136.054 141.133 135.301C140.307 134.547 139.895 133.529 139.895 132.247C139.895 130.955 140.281 129.929 141.052 129.166C141.832 128.404 142.967 127.929 144.455 127.74L147.751 127.323C148.02 127.296 148.276 127.251 148.518 127.189C148.832 127.108 149.074 126.947 149.245 126.704C149.415 126.462 149.5 126.157 149.5 125.79V125.669C149.5 124.897 149.209 124.296 148.626 123.866C148.043 123.426 147.231 123.207 146.191 123.207C145.195 123.207 144.415 123.44 143.85 123.906C143.294 124.364 142.958 125.05 142.841 125.964H140.608C140.725 124.386 141.281 123.202 142.276 122.413C143.272 121.615 144.698 121.216 146.554 121.216C148.303 121.216 149.635 121.597 150.55 122.359C151.464 123.112 151.922 124.216 151.922 125.669V133.579C151.922 133.821 151.993 134.018 152.137 134.171C152.289 134.314 152.491 134.386 152.742 134.386C152.814 134.386 152.917 134.377 153.052 134.359C153.195 134.341 153.348 134.314 153.509 134.278V136.027C153.276 136.117 153.029 136.189 152.769 136.242C152.509 136.296 152.289 136.323 152.11 136.323C151.195 136.323 150.532 136.072 150.119 135.57C149.85 135.238 149.657 134.767 149.541 134.157C149.361 134.381 149.155 134.597 148.922 134.803C147.711 135.888 146.231 136.431 144.482 136.431ZM149.5 130.337V128.776C149.052 128.991 148.554 129.139 148.007 129.22L145.787 129.543C144.621 129.704 143.769 129.978 143.231 130.364C142.693 130.74 142.424 131.256 142.424 131.911C142.424 132.718 142.644 133.341 143.083 133.781C143.523 134.211 144.146 134.426 144.953 134.426C146.227 134.426 147.303 134.081 148.182 133.39C148.783 132.906 149.182 132.359 149.379 131.749C149.415 131.633 149.442 131.449 149.46 131.198C149.487 130.938 149.5 130.651 149.5 130.337ZM155.749 136.041V121.646H156.893H158.05V123.785L158.547 123.139C159.633 121.857 160.929 121.216 162.435 121.216C163.727 121.216 164.754 121.597 165.516 122.359C165.857 122.7 166.121 123.09 166.31 123.53L166.7 123.032C167.74 121.821 168.982 121.216 170.426 121.216C171.933 121.216 173.094 121.628 173.91 122.453C174.736 123.269 175.148 124.431 175.148 125.938V136.041H173.937H172.727V126.758C172.727 125.664 172.502 124.834 172.054 124.269C171.606 123.704 170.951 123.422 170.09 123.422C169.041 123.422 168.207 123.83 167.588 124.646C166.969 125.462 166.659 126.565 166.659 127.955V136.041H165.449H164.238V126.18C164.238 125.283 164.032 124.601 163.619 124.135C163.216 123.66 162.624 123.422 161.843 123.422C160.767 123.422 159.884 123.879 159.193 124.794C158.512 125.709 158.171 126.888 158.171 128.332V136.041H156.96H155.749ZM183.985 136.041V116.265H198.446V117.449V118.633H186.662V124.673H197.424V125.857V127.041H186.662V133.673H198.594V134.857V136.041H183.985ZM200.027 136.041L205.139 128.615L200.296 121.646H201.857H203.417L206.727 126.772L210.063 121.646H211.556H213.063L208.22 128.655L213.224 136.041H211.718H210.198L206.606 130.552L203.081 136.041H201.561H200.027ZM214.819 121.646H215.962H217.119V123.691L217.24 123.516C218.281 121.982 219.648 121.216 221.343 121.216C223.227 121.216 224.716 121.866 225.81 123.166C226.913 124.458 227.464 126.207 227.464 128.413C227.464 130.915 226.908 132.879 225.796 134.305C224.693 135.722 223.16 136.431 221.195 136.431C219.572 136.431 218.281 135.807 217.321 134.561L217.24 134.453V141.731H216.03H214.819V121.646ZM221.074 134.332C222.339 134.332 223.299 133.857 223.953 132.906C224.608 131.946 224.935 130.552 224.935 128.722C224.935 126.92 224.621 125.588 223.994 124.727C223.366 123.857 222.397 123.422 221.088 123.422C219.751 123.422 218.774 123.911 218.155 124.888C217.545 125.866 217.24 127.413 217.24 129.529C217.24 131.063 217.572 132.247 218.236 133.081C218.899 133.915 219.846 134.332 221.074 134.332ZM235.933 136.431C233.897 136.431 232.296 135.785 231.131 134.494C229.965 133.202 229.382 131.417 229.382 129.139C229.382 126.718 229.996 124.794 231.225 123.368C232.462 121.933 234.122 121.216 236.202 121.216C238.086 121.216 239.606 121.915 240.763 123.314C241.92 124.713 242.498 126.552 242.498 128.83L242.471 129.691H231.951C232.05 131.126 232.377 132.22 232.933 132.973C233.615 133.888 234.691 134.346 236.162 134.346C237.086 134.346 237.893 134.085 238.583 133.565C239.274 133.045 239.695 132.381 239.848 131.574H242.243C241.884 133.153 241.166 134.359 240.09 135.193C239.014 136.018 237.628 136.431 235.933 136.431ZM239.969 127.74C239.897 126.404 239.565 125.364 238.973 124.619C238.319 123.794 237.359 123.382 236.095 123.382C234.821 123.382 233.803 123.857 233.041 124.808C232.44 125.552 232.077 126.529 231.951 127.74H239.969ZM245.465 136.041V121.646H246.608H247.765V124.108C247.971 123.722 248.191 123.373 248.424 123.059C249.339 121.83 250.465 121.216 251.801 121.216C252.025 121.216 252.254 121.256 252.487 121.337V123.812L251.989 123.799C250.68 123.799 249.666 124.193 248.949 124.982C248.24 125.763 247.886 126.879 247.886 128.332V136.041H246.675H245.465ZM254.108 136.041V121.646H255.319H256.53V136.041H255.319H254.108ZM254.081 116.265H256.557V119.009H254.081V116.265ZM265.752 136.431C263.716 136.431 262.115 135.785 260.949 134.494C259.783 133.202 259.201 131.417 259.201 129.139C259.201 126.718 259.815 124.794 261.044 123.368C262.281 121.933 263.94 121.216 266.021 121.216C267.904 121.216 269.425 121.915 270.582 123.314C271.739 124.713 272.317 126.552 272.317 128.83L272.29 129.691H261.77C261.869 131.126 262.196 132.22 262.752 132.973C263.434 133.888 264.51 134.346 265.981 134.346C266.904 134.346 267.712 134.085 268.402 133.565C269.093 133.045 269.514 132.381 269.667 131.574H272.061C271.703 133.153 270.985 134.359 269.909 135.193C268.833 136.018 267.447 136.431 265.752 136.431ZM269.788 127.74C269.716 126.404 269.384 125.364 268.792 124.619C268.138 123.794 267.178 123.382 265.913 123.382C264.64 123.382 263.622 123.857 262.86 124.808C262.259 125.552 261.896 126.529 261.77 127.74H269.788ZM274.947 136.041V121.646H276.091H277.248V123.772L277.786 123.059C278.835 121.83 280.149 121.216 281.727 121.216C283.315 121.216 284.539 121.646 285.4 122.507C286.261 123.368 286.691 124.592 286.691 126.18V136.041H285.481H284.27V127C284.27 125.736 284.023 124.825 283.53 124.269C283.046 123.704 282.257 123.422 281.162 123.422C279.997 123.422 279.073 123.866 278.391 124.754C277.71 125.633 277.369 126.825 277.369 128.332V136.041H276.158H274.947ZM301.362 130.861C301.111 132.673 300.47 134.054 299.438 135.005C298.407 135.955 297.035 136.431 295.322 136.431C293.411 136.431 291.887 135.745 290.748 134.372C289.609 133 289.039 131.153 289.039 128.83C289.039 126.507 289.627 124.66 290.802 123.287C291.985 121.906 293.573 121.216 295.564 121.216C297.295 121.216 298.676 121.691 299.707 122.642C300.739 123.583 301.29 124.884 301.362 126.543H299.035C298.936 125.512 298.577 124.713 297.958 124.148C297.34 123.583 296.514 123.301 295.483 123.301C294.263 123.301 293.304 123.794 292.604 124.781C291.914 125.758 291.568 127.108 291.568 128.83C291.568 130.659 291.891 132.036 292.537 132.96C293.183 133.884 294.142 134.346 295.416 134.346C296.358 134.346 297.142 134.045 297.77 133.444C298.407 132.834 298.828 131.973 299.035 130.861H301.362ZM309.373 136.431C307.338 136.431 305.737 135.785 304.571 134.494C303.405 133.202 302.822 131.417 302.822 129.139C302.822 126.718 303.436 124.794 304.665 123.368C305.903 121.933 307.562 121.216 309.642 121.216C311.526 121.216 313.046 121.915 314.203 123.314C315.36 124.713 315.938 126.552 315.938 128.83L315.911 129.691H305.391C305.49 131.126 305.817 132.22 306.373 132.973C307.055 133.888 308.131 134.346 309.602 134.346C310.526 134.346 311.333 134.085 312.024 133.565C312.714 133.045 313.136 132.381 313.288 131.574H315.683C315.324 133.153 314.606 134.359 313.53 135.193C312.454 136.018 311.068 136.431 309.373 136.431ZM313.409 127.74C313.337 126.404 313.006 125.364 312.414 124.619C311.759 123.794 310.799 123.382 309.535 123.382C308.261 123.382 307.243 123.857 306.481 124.808C305.88 125.552 305.517 126.529 305.391 127.74H313.409ZM326.815 125.816C326.743 125.018 326.416 124.399 325.833 123.96C325.259 123.521 324.483 123.301 323.506 123.301C322.501 123.301 321.734 123.476 321.205 123.825C320.685 124.175 320.425 124.686 320.425 125.359C320.425 125.87 320.609 126.256 320.977 126.516C321.344 126.776 322.075 127.036 323.169 127.296L325.672 127.888C327.071 128.229 328.071 128.7 328.672 129.301C329.264 129.893 329.559 130.722 329.559 131.79C329.559 133.216 329.044 134.346 328.012 135.18C326.99 136.014 325.604 136.431 323.856 136.431C321.829 136.431 320.317 136.032 319.322 135.233C318.326 134.426 317.775 133.162 317.667 131.44H319.995C320.111 132.462 320.47 133.202 321.071 133.659C321.681 134.117 322.609 134.346 323.856 134.346C324.941 134.346 325.761 134.139 326.317 133.727C326.882 133.314 327.165 132.713 327.165 131.924C327.165 131.422 326.981 131.041 326.613 130.781C326.246 130.52 325.506 130.26 324.394 130L321.891 129.408C320.537 129.086 319.573 128.633 318.999 128.05C318.425 127.476 318.138 126.668 318.138 125.628C318.138 124.274 318.618 123.202 319.578 122.413C320.546 121.615 321.856 121.216 323.506 121.216C325.183 121.216 326.515 121.624 327.501 122.44C328.497 123.256 329.026 124.382 329.089 125.816H326.815Z"
              fill="#111F63"/>
        <defs>
            <linearGradient id="paint0_linear" x1="301.352" y1="8.6343" x2="254.383" y2="83.8191"
                            gradientUnits="userSpaceOnUse">
                <stop stop-color="#4BB862"/>
                <stop offset="1" stop-color="#208B42"/>
            </linearGradient>
            <linearGradient id="paint1_linear" x1="352.163" y1="50.3651" x2="294.219" y2="70.2924"
                            gradientUnits="userSpaceOnUse">
                <stop stop-color="white"/>
                <stop offset="1" stop-opacity="0"/>
            </linearGradient>
        </defs>
    </g>
    <g id="white" class="sprite">

        <path fill-rule="evenodd" clip-rule="evenodd"
              d="M264.959 4.74723C265.389 4.99617 265.891 5.22867 266.455 5.44355C266.589 5.45999 266.997 5.50814 268.328 4.76132L268.333 4.75839C268.433 4.70181 269.907 3.86361 270.074 3.48728L270.055 3.46438L270.037 3.44148C269.639 3.29001 269.286 3.12679 268.982 2.95065C268.703 2.78861 268.479 2.62186 268.308 2.45395L268.314 2.45219L268.32 2.45043C268.794 1.78933 273.623 0.9157 274.725 0.916874L274.727 0.916676L274.729 0.916287L274.732 0.915848L274.734 0.915699C274.798 0.979108 274.882 1.04017 274.987 1.10123L274.994 1.10514L275.001 1.10982L275.002 1.10985C275.009 1.11449 275.017 1.11924 275.026 1.12354C275.17 1.12706 275.17 1.12706 276.79 0.785359C277.792 0.573997 278.251 0.497671 278.585 0.442482C275.533 0.110173 274.794 0.235817 274.787 0.236991L274.784 0.239505C274.762 0.258536 274.741 0.276581 274.724 0.295703H274.694C274.636 0.301574 268.695 0.883995 268.311 0.797102C268.306 0.797645 268.301 0.798439 268.296 0.799252C268.29 0.800197 268.285 0.801167 268.278 0.801799C268.071 1.01551 267.944 1.23509 267.905 1.4582C267.952 1.17403 268.133 0.892215 268.443 0.619792C267.775 0.53055 264.912 1.06835 264.2 1.47698C262.971 2.51384 263.129 3.68455 264.959 4.74723ZM277.892 1.70949C277.903 1.71536 277.917 1.72358 277.927 1.72945C278.026 1.73415 278.124 1.73767 278.224 1.74119C278.224 1.74237 278.224 1.74354 278.223 1.74471C278.474 1.94199 278.786 4.31277 277.623 4.6486C277.623 4.64977 277.622 4.65065 277.622 4.65154C277.622 4.65242 277.621 4.6533 277.621 4.65447C276.961 4.63568 276.309 4.60046 275.674 4.54879C275.591 4.55818 275.479 4.58284 275.404 4.61924C274.72 4.96095 273.455 6.74109 274.452 7.01351C277.926 7.29885 281.762 7.23544 285.259 6.75518C285.594 6.70938 285.92 6.66007 286.237 6.6084C286.747 6.40643 286.173 5.72068 285.985 5.51519C285.607 5.10185 284.597 4.28224 283.978 4.26345C283.801 4.29281 283.619 4.31981 283.433 4.34682L283.428 4.34196C283.425 4.33844 283.422 4.33473 283.418 4.33156C282.077 4.03917 280.439 1.7999 280.416 1.63786L280.402 1.62729C280.679 1.58737 280.932 1.5404 281.161 1.48638C281.162 1.47934 281.163 1.46994 281.163 1.46407C280.958 1.2985 280.422 1.0801 280.01 0.926271C279.502 0.736435 278.997 0.577412 278.621 0.458789L278.621 0.458782L278.584 0.447183C278.144 1.03548 277.826 1.4629 277.892 1.70949ZM249.463 8.67067L249.371 8.74551C249.459 8.67036 249.551 8.59639 249.648 8.52124C249.587 8.57003 249.526 8.61988 249.463 8.67043L249.463 8.67067ZM246.065 17.5217C246.608 17.7742 247.447 17.0873 247.899 16.6563C247.916 16.6399 249.652 14.9279 249.216 14.1987C249.038 14.0401 248.877 13.8816 248.732 13.7219L248.74 13.7153L248.744 13.7114L248.749 13.707L248.755 13.7008C248.687 12.2588 252.417 9.42891 253.75 9.58978C253.757 9.58518 253.765 9.57987 253.771 9.57496L253.777 9.57099C254.082 9.90565 254.475 10.238 254.958 10.5656C255.497 10.7394 256.44 10.1734 256.953 9.81993L256.956 9.81804C257.039 9.75896 258.941 8.40805 258.605 7.90593C256.357 6.38294 256.424 4.73549 258.399 3.29705C258.406 3.27944 258.415 3.25713 258.422 3.24069C257.762 3.39451 255.616 4.50769 254.715 5.11712C254.484 5.28503 254.275 5.4553 254.089 5.62791L254.086 5.62962L254.085 5.63028C254.083 5.63137 254.081 5.63236 254.08 5.63378C253.535 6.06355 249.219 9.01441 249.057 9.03907L249.072 9.02199L249.072 9.02197C249.085 9.00672 249.1 8.98998 249.111 8.97566C249.194 8.89816 249.281 8.82183 249.372 8.74551C248.587 9.38808 247.674 10.1889 246.887 10.8795L246.886 10.8797L246.885 10.8814C246.723 11.0231 246.567 11.1601 246.418 11.2901L245.833 11.8478C243.955 13.6585 243.934 15.6324 246.065 17.5217ZM276.495 2.00775L276.51 2.01949C276.474 2.27313 275.808 3.0129 275.678 3.14793C274.975 3.88066 274.632 3.90766 274.519 3.91588C273.581 3.79141 272.708 3.62467 271.941 3.41918L271.918 3.39922L271.895 3.37926C272.056 2.83206 274.703 1.76116 275.144 1.73885C275.541 1.84571 275.994 1.93142 276.48 1.99601L276.495 2.00775ZM256.631 17.7472C257.671 18.0478 258.781 18.3249 259.946 18.5774C259.614 19.1622 259.289 19.7563 258.97 20.3599C258.433 21.5799 258.614 22.3256 259.526 22.6391C266.584 23.9965 275.277 24.5801 283.83 24.2137C285.196 24.0012 285.36 22.9784 285.367 22.5498C285.375 22.0954 285.037 20.3716 283.252 20.2472C281.106 20.3376 278.95 20.3611 276.928 20.3446C276.599 20.2906 276.124 20.1356 275.699 19.6683C274.47 18.3132 275.183 15.7252 276.724 15.0488C277.786 15.0723 278.855 15.0782 279.926 15.0641C280.982 14.9149 281.13 14.0354 281.144 13.6632C281.159 13.2886 280.959 11.8584 279.721 11.7105C275.533 11.7656 271.385 11.4721 267.788 10.8803C267.085 10.8697 266.397 11.3183 265.685 12.2518C265.362 12.7262 265.045 13.21 264.732 13.7043H264.731C265.051 13.1982 265.377 12.7039 265.707 12.2189C265.234 12.9 264.619 13.3931 264.06 13.5751C262.796 13.3239 261.605 13.0385 260.507 12.7215C260.226 12.6886 259.909 12.6522 259.335 12.8765C257.354 13.6456 254.669 16.7738 256.631 17.7472ZM277.255 20.374C277.191 20.3716 277.088 20.3669 276.963 20.3481C277.056 20.3599 277.168 20.3693 277.255 20.374ZM277.393 14.8832C277.408 14.8827 277.425 14.8827 277.443 14.8827C277.454 14.8827 277.466 14.8827 277.476 14.8825C277.432 14.8838 277.39 14.8858 277.349 14.8879C277.364 14.8868 277.378 14.8844 277.393 14.8832ZM306.903 39.1817C306.387 39.6725 306.052 40.5145 306.248 41.5502L306.238 41.5008C306.403 42.9581 305.872 43.8599 304.614 44.2579C302.716 44.6313 300.693 44.9672 298.55 45.2619C293.878 45.9054 289.004 46.2988 284.115 46.462C281.296 46.2823 281.122 43.6168 282.242 42.4813C282.822 41.893 283.387 41.819 283.932 41.7486L284.625 41.7239C284.515 41.7686 284.413 41.805 284.316 41.8367C286.834 41.0793 287.439 38.0615 285.675 36.2438C285.267 35.8246 284.58 35.3255 283.544 35.1799C283.113 35.194 282.682 35.2069 282.25 35.2175C279.488 35.0014 279.476 32.114 280.793 31.1617C281.2 30.8681 281.612 30.8153 281.943 30.7742C286.539 30.6673 291.139 30.3221 295.528 29.7185C298.266 29.3428 300.774 28.886 303.034 28.3635C304.127 28.2519 304.96 28.8238 305.58 30.1096L305.704 30.4301C306.174 31.2803 306.926 31.8169 307.645 31.8169C308.571 31.5539 309.448 31.2803 310.273 30.9949C312.864 30.5123 313.807 34.0844 313.815 34.1208C313.987 34.8699 314.212 36.7053 312.593 37.5542C310.895 38.1402 308.994 38.6862 306.903 39.1817ZM307.55 38.7836C307.489 38.8036 307.428 38.8294 307.368 38.8576C307.446 38.8236 307.537 38.7919 307.658 38.7519L307.626 38.7611C307.6 38.7684 307.572 38.7763 307.55 38.7836ZM307.714 31.8146C307.809 31.8052 307.916 31.7899 308 31.7723C307.907 31.7981 307.81 31.8099 307.714 31.8146ZM243.82 36.9471C243.536 36.8426 243.255 36.7358 242.981 36.6277C242.611 36.3647 242.412 36.0136 242.369 35.9314C241.165 33.637 243.493 29.6105 245.645 30.2622C245.661 30.2669 245.678 30.2731 245.696 30.2792C245.713 30.2854 245.731 30.2916 245.746 30.2963C245.389 30.1882 245.295 30.18 244.906 30.2223C249.004 31.8979 254.462 33.1966 260.632 34.0562C262.186 34.0949 262.8 33.0111 262.993 32.5426C263.002 32.5203 263.837 30.2317 261.719 29.681C254.238 28.6394 247.868 26.9086 243.924 24.6177C242.075 23.5432 240.898 22.4265 240.346 21.3051L240.346 21.305C240.113 21.2064 239.848 21.0945 238.831 22.5639L238.853 22.5287L238.833 22.5588L238.833 22.5588L238.833 22.559C238.788 22.6278 238.736 22.7056 238.668 22.8046C238.294 23.3471 237.885 23.8321 237.666 23.9249C237.538 23.2156 237.643 22.5099 237.967 21.8148C237.971 21.8007 237.975 21.7842 237.979 21.7678C237.984 21.7513 237.988 21.7349 237.992 21.7208L236.819 23.7851C236.333 24.7091 235.78 25.902 235.29 26.96L235.289 26.9602C235.147 27.2668 235.01 27.5621 234.882 27.8362C234.737 28.1756 234.642 28.5185 234.603 28.8343C234.496 29.2852 234.211 30.1976 233.892 31.1112C233.852 31.2179 233.813 31.3247 233.774 31.4315L233.774 31.4317C233.281 32.8537 233.073 33.7861 233.12 34.3662C233.485 36.0113 234.973 37.6658 237.685 39.2416C239.094 40.06 240.765 40.8174 242.656 41.5102C243.861 41.7615 244.439 40.7129 244.632 40.2503C244.644 40.2326 245.536 37.8677 243.82 36.9471ZM234.167 30.4524L234.406 29.8407L234.351 29.9832L234.351 29.9834C234.291 30.1367 234.23 30.2942 234.167 30.4524ZM234.637 28.6864L234.635 28.6962L234.636 28.6907L234.637 28.6864ZM234.636 28.6942L234.633 28.7092C234.628 28.7367 234.621 28.7674 234.613 28.8003L234.624 28.7472L234.629 28.7234L234.636 28.6942ZM237.569 23.9366C237.55 23.9284 237.534 23.9131 237.523 23.8873C237.538 23.9037 237.554 23.9213 237.569 23.9366ZM237.755 24.2983V24.2971L237.813 24.2055L237.79 24.2421C237.778 24.261 237.767 24.2796 237.755 24.2983ZM237.636 24.5002C237.618 24.4075 237.597 24.2989 237.577 24.1902C237.556 24.0816 237.535 23.973 237.518 23.8802L237.519 23.8814L237.636 24.5002ZM295.55 18.9661C292.81 19.2843 290.891 15.3388 292.011 14.1024C292.205 13.8863 292.397 13.8358 292.6 13.783C293.256 13.662 293.886 13.5329 294.49 13.3967C295.844 13.1994 297.471 14.6566 298.145 15.7029C298.647 16.4837 299.228 18.0713 297.838 18.4987C297.108 18.6631 296.344 18.8193 295.55 18.9661ZM315.077 28.9764C316.231 28.3365 317.174 27.6683 317.893 26.9791L317.894 26.9809C317.895 26.983 317.896 26.9855 317.897 26.9873C317.918 26.9803 317.94 26.9709 317.963 26.9612C318.013 26.9401 318.067 26.9173 318.113 26.9133C319.254 26.8006 321.669 31.0255 320.656 32.9594L320.656 32.9595C320.657 32.963 320.658 32.9665 320.661 32.97C320.384 33.2354 320.076 33.4972 319.738 33.7568C319.64 33.8671 319.52 34.0339 319.471 34.1748C319.03 35.416 319.978 38.7414 321.181 38.1895C323.491 36.4199 324.435 34.5071 323.847 32.5896L323.399 31.1981L322.277 28.2343L322.276 28.2334C322.269 28.2149 322.263 28.1964 322.256 28.1768L322.249 28.158L322.249 28.1577C322.246 28.1499 322.244 28.1422 322.241 28.1344C322.239 28.1297 322.237 28.1251 322.235 28.1204L322.229 28.1029C322.209 28.051 322.189 27.9984 322.166 27.9466V27.9455C321.766 27.0109 321.206 25.8661 320.706 24.8438L320.706 24.8432C320.551 24.5272 320.402 24.2229 320.266 23.9401L319.125 21.924C319.086 21.85 319.045 21.776 319 21.7032C318.342 20.6296 317.421 19.3 316.647 18.1839L316.485 17.9504C318.04 20.3528 316.686 22.7988 312.877 24.9101C312.773 25.0005 312.64 25.1414 312.589 25.2717C312.195 26.2992 313.529 29.4579 315.077 28.9764ZM316.281 17.6544C316.355 17.7519 316.423 17.8505 316.486 17.9492L316.415 17.8467L316.414 17.8446L316.412 17.842C316.368 17.7782 316.324 17.7156 316.281 17.6544ZM300.98 11.3535C301.288 11.195 301.575 11.0341 301.839 10.8709C301.843 10.8732 301.845 10.8756 301.849 10.8779C303.384 10.6501 307.373 13.9392 306.555 15.2801L306.561 15.286C305.767 15.7757 304.815 16.2465 303.709 16.6892L303.697 16.6973L303.684 16.7051C303.674 16.711 303.664 16.717 303.654 16.7231L303.653 16.7231C303.612 16.7472 303.568 16.773 303.539 16.8031C302.904 17.4642 304.599 20.637 306.398 20.2789C311.572 18.2099 313.733 15.6019 312.178 13.0444C311.763 12.4655 310.758 11.5331 310.562 11.3511C309.282 10.176 308.997 10.1077 308.904 10.0853L308.93 10.1546C309.028 10.3143 309.107 10.474 309.171 10.6337L309.167 10.6304L309.16 10.6249C309.157 10.6219 309.153 10.619 309.149 10.6161L309.124 10.6363C309.115 10.6437 309.105 10.6511 309.097 10.6572C308.362 10.5069 304.798 7.88245 304.039 7.02173C304.034 7.0188 304.03 7.01616 304.025 7.01351L304.019 7.01013L304.011 7.0053C303.873 6.66712 303.652 6.33011 303.34 5.99545C302.84 5.54689 301.695 4.92572 301.47 4.80595C300.663 4.37618 299.699 3.94406 299.499 3.99103C299.503 4.00085 299.509 4.01261 299.515 4.0235L299.515 4.02504L299.515 4.02543L299.523 4.04035C300.964 5.59739 300.165 7.21901 297.527 8.5729C297.519 8.58128 297.509 8.58979 297.499 8.59858C297.478 8.61688 297.456 8.63641 297.446 8.65862C297.26 9.09309 299.766 11.6341 300.98 11.3535ZM274.36 38.7508C274.21 39.7641 273.266 41.6793 270.759 41.6746C269.489 41.6077 268.231 41.5243 266.989 41.4268C266.919 41.4177 266.851 41.407 266.784 41.395C266.521 41.3153 266.257 41.2392 265.992 41.1668C263.618 40.1912 263.422 37.0928 265.412 35.457C266.401 34.6445 267.371 34.6703 267.786 34.682C268.943 34.7736 270.116 34.8511 271.299 34.9134C273.761 35.1693 274.571 37.3111 274.36 38.7508ZM282.402 53.8426C285.038 58.5415 286.229 63.9912 286.027 69.6417C290.41 69.4443 294.763 69.0637 298.957 68.4871C299.983 68.3462 300.983 68.1959 301.955 68.0362C303.703 67.5865 304.224 66.4029 304.366 65.9144C304.373 65.8897 304.972 63.4368 302.331 63.6176C301.547 63.7456 300.744 63.8689 299.925 63.9851L299.925 63.9773L299.925 63.9704C299.926 63.9655 299.926 63.9605 299.926 63.9558L299.922 63.9555C299.452 63.9215 298.808 63.8749 298.221 63.5107C296.238 62.2836 296.4 58.6106 300.039 57.2931V57.2579C303.321 56.7894 306.326 56.2258 309.036 55.5858C310.549 55.0421 310.845 53.7293 310.902 53.1904C310.904 53.1633 311.08 50.5307 308.767 50.8043C305.908 51.4807 302.716 52.069 299.215 52.5504C293.783 53.297 288.088 53.7189 282.402 53.8426ZM282.513 84.1785C282.079 85.1356 281.605 86.085 281.093 87.0237C282.106 87.0049 283.12 86.974 284.132 86.9309C285.652 86.7606 286.152 86.0608 286.296 85.7672C286.498 85.355 286.597 84.1667 284.462 84.1104C283.812 84.1377 283.161 84.1603 282.513 84.1785ZM231.247 42.4874C231.323 41.6236 231.407 40.7584 231.504 40.0102C231.256 42.1257 232.782 44.2905 236.291 46.3293C236.398 46.3915 236.506 46.453 236.616 46.5144C235.468 47.2435 234.34 48.0335 233.238 48.8841C231.956 47.5973 231.157 45.8301 231.132 43.8761C231.168 43.4278 231.206 42.9603 231.247 42.4923C231.247 42.4906 231.248 42.489 231.248 42.4874H231.247ZM231.518 39.9015C231.513 39.9377 231.508 39.9739 231.504 40.0102L231.518 39.9015ZM280.704 0.780667H280.702L280.733 0.786213C281.329 0.900166 281.736 1.00018 281.951 1.06835C281.922 1.08528 281.891 1.10201 281.859 1.11931L281.859 1.11933C281.782 1.16082 281.699 1.20562 281.617 1.26445C281.661 1.28794 286.26 3.55304 287.194 3.48258C287.395 3.40626 287.582 3.32758 287.738 3.24656C288.031 3.24891 288.805 3.4955 289.59 3.83603C289.688 3.88182 289.788 3.92879 289.887 3.97576C291.029 4.50417 291.868 4.84118 292.256 4.76485C293.509 4.02508 294.009 3.18668 293.631 2.35297C293.328 2.07702 291.96 1.71536 291.805 1.67543C290.659 1.37718 289.316 1.16934 289.193 1.2715C289.206 1.30085 289.22 1.33021 289.243 1.35604C288.808 1.44411 283.773 0.714909 282.581 0.52938C282.559 0.449532 282.508 0.370858 282.425 0.292184C282.242 0.253434 281.538 0.241692 280.548 0.293358C279.797 0.332687 279.09 0.398897 278.645 0.44054L278.586 0.446009C279.183 0.524683 279.434 0.564607 280.002 0.656197C280.235 0.693768 280.47 0.737208 280.704 0.780648L280.704 0.780667ZM289.322 1.57562C289.314 1.4993 289.296 1.42297 289.267 1.34665C289.265 1.34782 289.26 1.349 289.257 1.35017C289.26 1.3443 289.264 1.3396 289.266 1.33608C289.296 1.41593 289.314 1.49578 289.322 1.57562ZM282.335 0.486634L282.33 0.485493C282.328 0.485053 282.327 0.484759 282.327 0.484759C282.326 0.484172 282.325 0.483291 282.324 0.48241C282.323 0.48153 282.322 0.480649 282.321 0.480062C282.326 0.483162 282.33 0.485353 282.335 0.486634ZM298.802 90.0884C298.736 90.1025 298.659 90.1154 298.596 90.1107C298.42 90.0966 298.394 89.9393 298.776 89.5482C298.837 89.4954 298.898 89.4414 298.959 89.3874C298.976 89.3709 298.994 89.3537 299.012 89.3359L299.012 89.3357L299.012 89.3355L299.013 89.3353L299.013 89.3352C299.121 89.2303 299.25 89.1054 299.324 88.9881C299.662 88.4548 299.013 88.5603 298.766 88.6004L298.765 88.6006C296.888 89.0339 294.806 89.4132 292.533 89.7255C288.888 90.2269 285.069 90.5123 281.254 90.6015C280.955 90.625 280.256 90.6814 279.791 91.0595C279.226 91.5186 279.349 92.4028 281.008 92.4545C281.305 92.4474 281.6 92.4392 281.853 92.4263C282.701 92.4662 283.086 92.7222 283.159 92.7786C283.876 93.3211 283 94.1066 281.581 94.3603C281.528 94.362 281.475 94.3641 281.422 94.3661C281.369 94.3682 281.316 94.3702 281.263 94.372C280.265 94.4436 279.971 94.7102 279.905 94.79C279.869 94.8335 279.585 95.2139 280.756 95.2128C282.796 95.1446 284.831 94.9803 286.782 94.7125C287.676 94.5892 288.52 94.4495 289.313 94.2933C290.371 94.065 291.179 93.7422 291.455 93.6321L291.457 93.6311C291.451 93.6334 291.444 93.6369 291.439 93.6393C292.105 93.3586 292.704 93.1273 293.166 92.97C294.255 92.7116 295.244 92.4275 296.128 92.1233C297.485 91.6208 298.788 90.9374 299.154 90.7389C300.851 89.8241 300.906 89.5735 300.932 89.4524L300.932 89.452C300.811 89.4602 300.653 89.5001 300.536 89.5341C299.962 89.7314 299.352 89.9228 298.802 90.0884ZM281.559 92.4237L281.536 92.4239C283.794 92.3578 286.048 92.2138 288.254 91.9874C286.052 92.2137 283.809 92.3575 281.588 92.4228H281.601C281.592 92.4228 281.584 92.423 281.574 92.4233L281.574 92.4233L281.559 92.4237ZM292.467 93.1641L292.503 93.146L292.544 93.125L292.591 93.1015H292.592C292.547 93.1243 292.502 93.1469 292.457 93.1693L292.415 93.1901L292.467 93.1641ZM293.605 92.8314C293.618 92.8277 293.633 92.8236 293.646 92.8195L293.67 92.8126L293.73 92.7973C293.709 92.8028 293.69 92.8081 293.673 92.813L293.672 92.8133L293.671 92.8135L293.67 92.8138L293.638 92.8225C293.627 92.8256 293.616 92.8286 293.605 92.8314ZM298.912 90.0614C298.887 90.0684 298.848 90.079 298.804 90.0896L298.826 90.084L298.867 90.073L298.912 90.0614ZM305.201 76.877C307.24 76.5072 307.274 77.9444 306.647 79.0823C306.599 79.1692 305.442 81.2276 303.106 81.8511C302.17 82.0613 301.194 82.2609 300.179 82.4488C297.951 82.7705 297.512 81.1384 298.715 79.5766C299.082 79.1011 300.138 77.9491 302.027 77.5252C303.128 77.3221 304.186 77.1048 305.201 76.877ZM303.676 88.1814C303.725 88.1709 303.786 88.1391 303.831 88.1157C304.154 87.9372 304.453 87.754 304.728 87.5696C305.843 86.8005 307.229 85.7155 308.363 84.8219C307.947 85.1319 307.473 85.4349 306.939 85.7308C305.972 86.3085 303.772 88.0053 303.676 88.1814ZM308.469 84.7403L308.47 84.7391L308.472 84.7373L308.64 84.6049L308.762 84.5084C308.636 84.6141 308.504 84.7186 308.364 84.8231L308.469 84.7403ZM317.45 69.5087C316.659 69.9538 315.94 71.1151 315.672 71.667C315.393 72.2388 314.829 73.7865 315.86 73.4072C316.373 73.1441 316.852 72.8753 317.294 72.6017C317.293 72.6052 317.291 72.6087 317.29 72.611C317.393 72.5735 317.544 72.5382 317.653 72.557C318.097 73.2862 315.893 76.5389 314.343 77.7472C314.342 77.7478 314.342 77.7486 314.341 77.7493L314.34 77.7513C314.339 77.7527 314.338 77.7542 314.337 77.7554C313.321 78.3836 312.099 78.986 310.68 79.5531C309.125 80.3105 308.176 81.9169 308.166 81.9333C307.908 82.3948 307.752 82.8985 308.47 82.686C311.141 81.6174 313.068 80.4162 314.167 79.1504L315.61 77.3937L317.036 75.4644C317.048 75.4503 317.058 75.4363 317.069 75.4222C317.107 75.3717 317.145 75.32 317.181 75.2695C318.056 73.9716 319.131 72.1791 319.938 70.8314L319.946 70.818L320.767 69.2563C321.306 68.1727 321.908 66.7511 322.426 65.5264L322.427 65.5251C322.514 65.3184 322.599 65.1173 322.682 64.9244C322.706 64.8698 322.729 64.8147 322.752 64.7589L322.682 64.9244C321.708 67.1111 319.448 68.3837 317.45 69.5087ZM325.616 41.0961L325.616 41.0958C325.588 40.8308 325.56 40.573 325.535 40.3266C325.661 42.0985 324.539 43.8493 322.289 45.4756C321.726 46.0357 321.481 47.0256 321.538 48.504C321.596 49.2132 321.638 49.9236 321.666 50.6376C321.666 50.6376 321.664 50.6376 321.664 50.6387C321.636 49.9084 321.592 49.1803 321.532 48.4558C321.605 49.4551 321.399 50.4133 321.018 51.0239C319.752 51.7484 318.255 52.4412 316.536 53.0941L316.536 53.0944C316.008 53.3738 315.461 53.6629 314.859 54.7486C313.583 57.043 313.851 60.7078 316.349 60.1383C317.238 59.8013 318.067 59.4526 318.804 59.0979C319.344 59.0157 319.674 59.5359 319.649 60.4225L319.633 60.5373L319.617 60.6539C319.612 60.6918 319.606 60.7298 319.601 60.7677C319.472 62.1216 319.734 62.65 320.402 62.3846C323.912 60.3023 324.465 58.7293 324.91 57.4661L324.91 57.4646L325.226 55.8535L325.669 52.7747C325.683 52.6972 325.694 52.6197 325.702 52.5434C325.84 51.0946 325.917 49.2008 325.98 47.6604L326 47.1712L325.952 44.8756C325.898 43.7523 325.748 42.3454 325.616 41.097L325.616 41.0966L325.616 41.0961ZM318.568 59.166L318.606 59.1496L318.616 59.1461C318.603 59.152 318.588 59.1578 318.568 59.166Z"
              fill="#ffffff"/>
        <path fill-rule="evenodd" clip-rule="evenodd"
              d="M281.204 79.9808C277.36 89.6426 267.923 96.4722 256.891 96.4722C242.445 96.4722 230.734 84.7612 230.734 70.315C230.734 55.8688 242.445 44.1578 256.891 44.1578C271.337 44.1578 283.048 55.8688 283.048 70.315C283.048 70.8745 283.03 71.43 282.996 71.9808H279.212C279.253 71.4305 279.273 70.8748 279.273 70.3142C279.273 57.9527 269.252 47.9316 256.891 47.9316C244.529 47.9316 234.508 57.9527 234.508 70.3142C234.508 82.6758 244.529 92.6968 256.891 92.6968C265.79 92.6968 273.477 87.5028 277.084 79.9808H281.204Z"
              fill="#ffffff"/>
        <path d="M245.361 68.2292C244.349 68.2124 243.515 69.019 243.498 70.0307C243.482 71.0425 244.288 71.8763 245.3 71.8931L245.361 68.2292ZM333.674 48.7451C332.779 48.2724 331.67 48.6145 331.198 49.5092C330.725 50.4039 331.067 51.5124 331.962 51.9851L333.674 48.7451ZM245.3 71.8931C268.254 72.2744 299.962 72.4855 321.087 70.0144C326.375 69.3958 331.059 68.603 334.804 67.5841C338.461 66.5894 341.545 65.2988 343.31 63.4848C344.243 62.5267 344.889 61.3366 344.937 59.9309C344.984 58.5511 344.445 57.2464 343.576 56.0548C341.884 53.735 338.568 51.3308 333.674 48.7451L331.962 51.9851C336.778 54.5294 339.447 56.6122 340.615 58.2139C341.176 58.983 341.285 59.4977 341.275 59.8056C341.265 60.0875 341.147 60.4534 340.684 60.9293C339.659 61.9833 337.427 63.073 333.842 64.0482C330.347 64.9993 325.864 65.7662 320.661 66.3748C299.822 68.8125 268.364 68.6113 245.361 68.2292L245.3 71.8931Z"
              fill="#ffffff"/>
        <path d="M245.361 68.2292C244.349 68.2124 243.515 69.019 243.498 70.0307C243.482 71.0425 244.288 71.8763 245.3 71.8931L245.361 68.2292ZM333.674 48.7451C332.779 48.2724 331.67 48.6145 331.198 49.5092C330.725 50.4039 331.067 51.5124 331.962 51.9851L333.674 48.7451ZM245.3 71.8931C268.254 72.2744 299.962 72.4855 321.087 70.0144C326.375 69.3958 331.059 68.603 334.804 67.5841C338.461 66.5894 341.545 65.2988 343.31 63.4848C344.243 62.5267 344.889 61.3366 344.937 59.9309C344.984 58.5511 344.445 57.2464 343.576 56.0548C341.884 53.735 338.568 51.3308 333.674 48.7451L331.962 51.9851C336.778 54.5294 339.447 56.6122 340.615 58.2139C341.176 58.983 341.285 59.4977 341.275 59.8056C341.265 60.0875 341.147 60.4534 340.684 60.9293C339.659 61.9833 337.427 63.073 333.842 64.0482C330.347 64.9993 325.864 65.7662 320.661 66.3748C299.822 68.8125 268.364 68.6113 245.361 68.2292L245.3 71.8931Z"
              fill="#ffffff"/>
        <path fill-rule="evenodd" clip-rule="evenodd"
              d="M12.5002 95.1444C13.1948 95.1444 13.4924 94.8467 13.4924 94.1522V26.6835C13.4924 25.989 13.1948 25.6913 12.5002 25.6913H10.0198C9.32524 25.6913 9.02759 25.989 9.02759 26.6835V94.1522C9.02759 94.8467 9.32524 95.1444 10.0198 95.1444H12.5002ZM31.9215 45.535H29.441C28.7465 45.535 28.4489 45.8327 28.4489 46.5272V94.1522C28.4489 94.7475 28.7465 95.1444 29.441 95.1444H31.9215C32.616 95.1444 32.9137 94.7475 32.9137 94.1522V68.9507C32.9137 58.8303 40.3551 48.9085 49.4832 48.9085C58.909 48.9085 62.8777 57.3421 62.8777 68.653V94.1522C62.8777 94.7475 63.2746 95.1444 63.8699 95.1444H66.3504C67.0449 95.1444 67.3426 94.7475 67.3426 94.1522V68.9507C67.3426 58.235 75.3793 48.9085 84.0113 48.9085C93.4371 48.9085 97.3066 57.3421 97.3066 68.653V94.1522C97.3066 94.7475 97.7035 95.1444 98.398 95.1444H100.779C101.474 95.1444 101.771 94.7475 101.771 94.1522V68.2561C101.771 53.671 96.116 44.5429 84.7058 44.5429C74.9824 44.5429 69.2277 51.6866 66.1519 58.8303C64.5644 51.2897 59.7027 44.5429 50.277 44.5429C40.6528 44.5429 35.1957 51.6866 32.9137 57.4413V46.5272C32.9137 45.8327 32.616 45.535 31.9215 45.535ZM155.999 95.1444H119.288C118.593 95.1444 118.296 94.8467 118.296 94.1522V26.6835C118.296 25.989 118.593 25.6913 119.288 25.6913H121.768C122.463 25.6913 122.76 25.989 122.76 26.6835V90.7787H155.999C156.693 90.7787 156.991 91.0764 156.991 91.7709V94.1522C156.991 94.8467 156.693 95.1444 155.999 95.1444ZM170.763 95.1444H173.144C173.838 95.1444 174.235 94.8467 174.235 94.1522V46.5272C174.235 45.8327 173.838 45.535 173.144 45.535H170.763C170.068 45.535 169.77 45.8327 169.77 46.5272V94.1522C169.77 94.7475 170.068 95.1444 170.763 95.1444ZM205.634 88.7944L220.913 46.5272C221.211 45.9319 221.409 45.535 222.203 45.535H225.18C225.874 45.535 226.073 46.0311 225.874 46.5272L208.61 93.6561C208.313 94.6483 207.916 95.1444 207.122 95.1444H204.245C203.451 95.1444 202.955 94.6483 202.558 93.6561L185.393 46.5272C185.195 45.9319 185.294 45.535 186.088 45.535H188.965C189.858 45.535 190.056 45.9319 190.255 46.5272L205.634 88.7944ZM172.246 34.5492C173.884 34.5492 175.211 33.2219 175.211 31.5846C175.211 29.9473 173.884 28.62 172.246 28.62C170.609 28.62 169.282 29.9473 169.282 31.5846C169.282 33.2219 170.609 34.5492 172.246 34.5492Z"
              fill="#ffffff"/>
        <rect x="0.892578" y="111.672" width="331.85" height="29.646" rx="1.73723" fill="#ffffff"/>
        <path d="M3.47044 136.041L10.9367 116.265H12.4569H13.9905L21.0935 136.041H19.6541H18.2147L16.2102 130.31H8.29998L6.22825 136.041H4.85607H3.47044ZM12.3358 119.171L9.16095 127.942H15.3896L12.3358 119.171ZM28.4592 136.431C26.531 136.431 24.9974 135.713 23.8584 134.278C22.7194 132.834 22.1499 130.888 22.1499 128.44C22.1499 126.278 22.7014 124.534 23.8045 123.207C24.9077 121.879 26.3471 121.216 28.1229 121.216C29.8897 121.216 31.2888 121.965 32.3201 123.462L32.5085 123.731V116.265H33.7192H34.93V136.041H33.8134H32.6834V134.076L32.3739 134.52C31.3784 135.794 30.0735 136.431 28.4592 136.431ZM28.5937 123.395C27.2395 123.395 26.2485 123.83 25.6207 124.7C24.9929 125.561 24.679 126.933 24.679 128.816C24.679 130.592 25.0153 131.96 25.6879 132.92C26.3695 133.879 27.3381 134.359 28.5937 134.359C29.7686 134.359 30.7148 133.92 31.4323 133.041C32.1497 132.153 32.5085 130.982 32.5085 129.529C32.5085 127.565 32.1677 126.054 31.4861 124.996C30.8134 123.929 29.8493 123.395 28.5937 123.395ZM40.5333 121.646V130.929C40.5333 132.139 40.7665 133.014 41.2329 133.552C41.6992 134.081 42.4571 134.346 43.5064 134.346C44.6723 134.346 45.596 133.897 46.2776 133C46.9592 132.094 47.3 130.87 47.3 129.328V121.646H48.5108H49.7215V136.041H48.5781H47.4211V133.848C47.2597 134.108 47.0803 134.355 46.883 134.588C45.8516 135.816 44.5602 136.431 43.0086 136.431C41.3763 136.431 40.1521 136.023 39.336 135.207C38.5199 134.39 38.1118 133.166 38.1118 131.534V121.646H39.3226H40.5333ZM53.1455 136.041V116.265H54.3563H55.567V136.041H54.3563H53.1455ZM64.2376 136.027C63.4125 136.153 62.8116 136.215 62.4349 136.215C61.3766 136.215 60.6278 135.982 60.1883 135.516C59.7578 135.05 59.5426 134.247 59.5426 133.108V123.624H57.5516V121.646H59.5426V117.61H61.9641V121.646H64.2376V123.624H61.9641V133.108C61.9641 133.431 62.0896 133.686 62.3408 133.875C62.6008 134.063 62.9461 134.157 63.3766 134.157H64.2376V136.027ZM75.1592 136.041L69.9799 116.265H71.4193H72.8722L76.3969 131.897C76.4596 132.157 76.509 132.408 76.5448 132.65C76.5897 132.884 76.6121 133.05 76.6121 133.148C76.6121 133.032 76.6345 132.852 76.6794 132.61C76.7242 132.368 76.778 132.13 76.8408 131.897L81.0246 116.265H82.5313H84.038L88.1949 131.816C88.2667 132.059 88.325 132.305 88.3698 132.556C88.4146 132.807 88.4371 132.991 88.4371 133.108C88.4371 133.009 88.455 132.834 88.4909 132.583C88.5357 132.332 88.5895 132.077 88.6523 131.816L92.2173 116.265H93.6567H95.0962L89.9169 136.041H88.4774H87.038L82.7466 120.745C82.6748 120.485 82.612 120.229 82.5582 119.978C82.5044 119.727 82.4775 119.552 82.4775 119.453C82.4775 119.57 82.4551 119.754 82.4102 120.005C82.3654 120.247 82.3071 120.494 82.2353 120.745L78.0381 136.041H76.5986H75.1592ZM102.933 136.431C100.897 136.431 99.2959 135.785 98.13 134.494C96.9641 133.202 96.3812 131.417 96.3812 129.139C96.3812 126.718 96.9955 124.794 98.2242 123.368C99.4619 121.933 101.121 121.216 103.202 121.216C105.085 121.216 106.605 121.915 107.762 123.314C108.919 124.713 109.498 126.552 109.498 128.83L109.471 129.691H98.9507C99.0493 131.126 99.3767 132.22 99.9327 132.973C100.614 133.888 101.691 134.346 103.161 134.346C104.085 134.346 104.892 134.085 105.583 133.565C106.273 133.045 106.695 132.381 106.847 131.574H109.242C108.883 133.153 108.166 134.359 107.09 135.193C106.013 136.018 104.628 136.431 102.933 136.431ZM106.969 127.74C106.897 126.404 106.565 125.364 105.973 124.619C105.318 123.794 104.359 123.382 103.094 123.382C101.821 123.382 100.803 123.857 100.04 124.808C99.4394 125.552 99.0762 126.529 98.9507 127.74H106.969ZM111.94 116.265H113.15H114.361V123.516C115.419 121.965 116.787 121.198 118.464 121.216C120.348 121.216 121.836 121.866 122.93 123.166C124.034 124.458 124.585 126.207 124.585 128.413C124.585 130.915 124.029 132.879 122.917 134.305C121.814 135.722 120.28 136.431 118.316 136.431C116.693 136.431 115.401 135.807 114.442 134.561L114.213 134.265V136.041H111.94V116.265ZM118.195 134.332C119.46 134.332 120.419 133.857 121.074 132.906C121.729 131.946 122.056 130.552 122.056 128.722C122.056 126.92 121.742 125.588 121.114 124.727C120.487 123.857 119.518 123.422 118.209 123.422C116.872 123.422 115.895 123.911 115.276 124.888C114.666 125.866 114.361 127.413 114.361 129.529C114.361 131.063 114.693 132.247 115.357 133.081C116.02 133.915 116.966 134.332 118.195 134.332ZM138.543 130.861C138.292 132.673 137.65 134.054 136.619 135.005C135.588 135.955 134.215 136.431 132.502 136.431C130.592 136.431 129.067 135.745 127.928 134.372C126.789 133 126.22 131.153 126.22 128.83C126.22 126.507 126.807 124.66 127.982 123.287C129.166 121.906 130.754 121.216 132.745 121.216C134.475 121.216 135.857 121.691 136.888 122.642C137.919 123.583 138.471 124.884 138.543 126.543H136.215C136.117 125.512 135.758 124.713 135.139 124.148C134.52 123.583 133.695 123.301 132.664 123.301C131.444 123.301 130.484 123.794 129.785 124.781C129.094 125.758 128.749 127.108 128.749 128.83C128.749 130.659 129.072 132.036 129.718 132.96C130.363 133.884 131.323 134.346 132.597 134.346C133.538 134.346 134.323 134.045 134.951 133.444C135.588 132.834 136.009 131.973 136.215 130.861H138.543ZM144.482 136.431C143.074 136.431 141.958 136.054 141.133 135.301C140.307 134.547 139.895 133.529 139.895 132.247C139.895 130.955 140.281 129.929 141.052 129.166C141.832 128.404 142.967 127.929 144.455 127.74L147.751 127.323C148.02 127.296 148.276 127.251 148.518 127.189C148.832 127.108 149.074 126.947 149.245 126.704C149.415 126.462 149.5 126.157 149.5 125.79V125.669C149.5 124.897 149.209 124.296 148.626 123.866C148.043 123.426 147.231 123.207 146.191 123.207C145.195 123.207 144.415 123.44 143.85 123.906C143.294 124.364 142.958 125.05 142.841 125.964H140.608C140.725 124.386 141.281 123.202 142.276 122.413C143.272 121.615 144.698 121.216 146.554 121.216C148.303 121.216 149.635 121.597 150.55 122.359C151.464 123.112 151.922 124.216 151.922 125.669V133.579C151.922 133.821 151.993 134.018 152.137 134.171C152.289 134.314 152.491 134.386 152.742 134.386C152.814 134.386 152.917 134.377 153.052 134.359C153.195 134.341 153.348 134.314 153.509 134.278V136.027C153.276 136.117 153.029 136.189 152.769 136.242C152.509 136.296 152.289 136.323 152.11 136.323C151.195 136.323 150.532 136.072 150.119 135.57C149.85 135.238 149.657 134.767 149.541 134.157C149.361 134.381 149.155 134.597 148.922 134.803C147.711 135.888 146.231 136.431 144.482 136.431ZM149.5 130.337V128.776C149.052 128.991 148.554 129.139 148.007 129.22L145.787 129.543C144.621 129.704 143.769 129.978 143.231 130.364C142.693 130.74 142.424 131.256 142.424 131.911C142.424 132.718 142.644 133.341 143.083 133.781C143.523 134.211 144.146 134.426 144.953 134.426C146.227 134.426 147.303 134.081 148.182 133.39C148.783 132.906 149.182 132.359 149.379 131.749C149.415 131.633 149.442 131.449 149.46 131.198C149.487 130.938 149.5 130.651 149.5 130.337ZM155.749 136.041V121.646H156.893H158.05V123.785L158.547 123.139C159.633 121.857 160.929 121.216 162.435 121.216C163.727 121.216 164.754 121.597 165.516 122.359C165.857 122.7 166.121 123.09 166.31 123.53L166.7 123.032C167.74 121.821 168.982 121.216 170.426 121.216C171.933 121.216 173.094 121.628 173.91 122.453C174.736 123.269 175.148 124.431 175.148 125.938V136.041H173.937H172.727V126.758C172.727 125.664 172.502 124.834 172.054 124.269C171.606 123.704 170.951 123.422 170.09 123.422C169.041 123.422 168.207 123.83 167.588 124.646C166.969 125.462 166.659 126.565 166.659 127.955V136.041H165.449H164.238V126.18C164.238 125.283 164.032 124.601 163.619 124.135C163.216 123.66 162.624 123.422 161.843 123.422C160.767 123.422 159.884 123.879 159.193 124.794C158.512 125.709 158.171 126.888 158.171 128.332V136.041H156.96H155.749ZM183.985 136.041V116.265H198.446V117.449V118.633H186.662V124.673H197.424V125.857V127.041H186.662V133.673H198.594V134.857V136.041H183.985ZM200.027 136.041L205.139 128.615L200.296 121.646H201.857H203.417L206.727 126.772L210.063 121.646H211.556H213.063L208.22 128.655L213.224 136.041H211.718H210.198L206.606 130.552L203.081 136.041H201.561H200.027ZM214.819 121.646H215.962H217.119V123.691L217.24 123.516C218.281 121.982 219.648 121.216 221.343 121.216C223.227 121.216 224.716 121.866 225.81 123.166C226.913 124.458 227.464 126.207 227.464 128.413C227.464 130.915 226.908 132.879 225.796 134.305C224.693 135.722 223.16 136.431 221.195 136.431C219.572 136.431 218.281 135.807 217.321 134.561L217.24 134.453V141.731H216.03H214.819V121.646ZM221.074 134.332C222.339 134.332 223.299 133.857 223.953 132.906C224.608 131.946 224.935 130.552 224.935 128.722C224.935 126.92 224.621 125.588 223.994 124.727C223.366 123.857 222.397 123.422 221.088 123.422C219.751 123.422 218.774 123.911 218.155 124.888C217.545 125.866 217.24 127.413 217.24 129.529C217.24 131.063 217.572 132.247 218.236 133.081C218.899 133.915 219.846 134.332 221.074 134.332ZM235.933 136.431C233.897 136.431 232.296 135.785 231.131 134.494C229.965 133.202 229.382 131.417 229.382 129.139C229.382 126.718 229.996 124.794 231.225 123.368C232.462 121.933 234.122 121.216 236.202 121.216C238.086 121.216 239.606 121.915 240.763 123.314C241.92 124.713 242.498 126.552 242.498 128.83L242.471 129.691H231.951C232.05 131.126 232.377 132.22 232.933 132.973C233.615 133.888 234.691 134.346 236.162 134.346C237.086 134.346 237.893 134.085 238.583 133.565C239.274 133.045 239.695 132.381 239.848 131.574H242.243C241.884 133.153 241.166 134.359 240.09 135.193C239.014 136.018 237.628 136.431 235.933 136.431ZM239.969 127.74C239.897 126.404 239.565 125.364 238.973 124.619C238.319 123.794 237.359 123.382 236.095 123.382C234.821 123.382 233.803 123.857 233.041 124.808C232.44 125.552 232.077 126.529 231.951 127.74H239.969ZM245.465 136.041V121.646H246.608H247.765V124.108C247.971 123.722 248.191 123.373 248.424 123.059C249.339 121.83 250.465 121.216 251.801 121.216C252.025 121.216 252.254 121.256 252.487 121.337V123.812L251.989 123.799C250.68 123.799 249.666 124.193 248.949 124.982C248.24 125.763 247.886 126.879 247.886 128.332V136.041H246.675H245.465ZM254.108 136.041V121.646H255.319H256.53V136.041H255.319H254.108ZM254.081 116.265H256.557V119.009H254.081V116.265ZM265.752 136.431C263.716 136.431 262.115 135.785 260.949 134.494C259.783 133.202 259.201 131.417 259.201 129.139C259.201 126.718 259.815 124.794 261.044 123.368C262.281 121.933 263.94 121.216 266.021 121.216C267.904 121.216 269.425 121.915 270.582 123.314C271.739 124.713 272.317 126.552 272.317 128.83L272.29 129.691H261.77C261.869 131.126 262.196 132.22 262.752 132.973C263.434 133.888 264.51 134.346 265.981 134.346C266.904 134.346 267.712 134.085 268.402 133.565C269.093 133.045 269.514 132.381 269.667 131.574H272.061C271.703 133.153 270.985 134.359 269.909 135.193C268.833 136.018 267.447 136.431 265.752 136.431ZM269.788 127.74C269.716 126.404 269.384 125.364 268.792 124.619C268.138 123.794 267.178 123.382 265.913 123.382C264.64 123.382 263.622 123.857 262.86 124.808C262.259 125.552 261.896 126.529 261.77 127.74H269.788ZM274.947 136.041V121.646H276.091H277.248V123.772L277.786 123.059C278.835 121.83 280.149 121.216 281.727 121.216C283.315 121.216 284.539 121.646 285.4 122.507C286.261 123.368 286.691 124.592 286.691 126.18V136.041H285.481H284.27V127C284.27 125.736 284.023 124.825 283.53 124.269C283.046 123.704 282.257 123.422 281.162 123.422C279.997 123.422 279.073 123.866 278.391 124.754C277.71 125.633 277.369 126.825 277.369 128.332V136.041H276.158H274.947ZM301.362 130.861C301.111 132.673 300.47 134.054 299.438 135.005C298.407 135.955 297.035 136.431 295.322 136.431C293.411 136.431 291.887 135.745 290.748 134.372C289.609 133 289.039 131.153 289.039 128.83C289.039 126.507 289.627 124.66 290.802 123.287C291.985 121.906 293.573 121.216 295.564 121.216C297.295 121.216 298.676 121.691 299.707 122.642C300.739 123.583 301.29 124.884 301.362 126.543H299.035C298.936 125.512 298.577 124.713 297.958 124.148C297.34 123.583 296.514 123.301 295.483 123.301C294.263 123.301 293.304 123.794 292.604 124.781C291.914 125.758 291.568 127.108 291.568 128.83C291.568 130.659 291.891 132.036 292.537 132.96C293.183 133.884 294.142 134.346 295.416 134.346C296.358 134.346 297.142 134.045 297.77 133.444C298.407 132.834 298.828 131.973 299.035 130.861H301.362ZM309.373 136.431C307.338 136.431 305.737 135.785 304.571 134.494C303.405 133.202 302.822 131.417 302.822 129.139C302.822 126.718 303.436 124.794 304.665 123.368C305.903 121.933 307.562 121.216 309.642 121.216C311.526 121.216 313.046 121.915 314.203 123.314C315.36 124.713 315.938 126.552 315.938 128.83L315.911 129.691H305.391C305.49 131.126 305.817 132.22 306.373 132.973C307.055 133.888 308.131 134.346 309.602 134.346C310.526 134.346 311.333 134.085 312.024 133.565C312.714 133.045 313.136 132.381 313.288 131.574H315.683C315.324 133.153 314.606 134.359 313.53 135.193C312.454 136.018 311.068 136.431 309.373 136.431ZM313.409 127.74C313.337 126.404 313.006 125.364 312.414 124.619C311.759 123.794 310.799 123.382 309.535 123.382C308.261 123.382 307.243 123.857 306.481 124.808C305.88 125.552 305.517 126.529 305.391 127.74H313.409ZM326.815 125.816C326.743 125.018 326.416 124.399 325.833 123.96C325.259 123.521 324.483 123.301 323.506 123.301C322.501 123.301 321.734 123.476 321.205 123.825C320.685 124.175 320.425 124.686 320.425 125.359C320.425 125.87 320.609 126.256 320.977 126.516C321.344 126.776 322.075 127.036 323.169 127.296L325.672 127.888C327.071 128.229 328.071 128.7 328.672 129.301C329.264 129.893 329.559 130.722 329.559 131.79C329.559 133.216 329.044 134.346 328.012 135.18C326.99 136.014 325.604 136.431 323.856 136.431C321.829 136.431 320.317 136.032 319.322 135.233C318.326 134.426 317.775 133.162 317.667 131.44H319.995C320.111 132.462 320.47 133.202 321.071 133.659C321.681 134.117 322.609 134.346 323.856 134.346C324.941 134.346 325.761 134.139 326.317 133.727C326.882 133.314 327.165 132.713 327.165 131.924C327.165 131.422 326.981 131.041 326.613 130.781C326.246 130.52 325.506 130.26 324.394 130L321.891 129.408C320.537 129.086 319.573 128.633 318.999 128.05C318.425 127.476 318.138 126.668 318.138 125.628C318.138 124.274 318.618 123.202 319.578 122.413C320.546 121.615 321.856 121.216 323.506 121.216C325.183 121.216 326.515 121.624 327.501 122.44C328.497 123.256 329.026 124.382 329.089 125.816H326.815Z"
              fill="#C146BC" />
        <defs>
            <linearGradient id="paint0_linear" x1="301.352" y1="8.6343" x2="254.383" y2="83.8191"
                            gradientUnits="userSpaceOnUse">
                <stop stop-color="#4BB862"/>
                <stop offset="1" stop-color="#208B42"/>
            </linearGradient>
            <linearGradient id="paint1_linear" x1="352.163" y1="50.3651" x2="294.219" y2="70.2924"
                            gradientUnits="userSpaceOnUse">
                <stop stop-color="white"/>
                <stop offset="1" stop-opacity="0"/>
            </linearGradient>
        </defs>
    </g>
</svg>
