<svg xmlns="http://www.w3.org/2000/svg" viewBox="0 0 124.85 24.38" class="provider-logo stripchat" role="img">
    <title>Logo Stripchat</title>
    <defs>
        <style>
            .sprite { display: none; }
            .sprite:target { display: inline; }
        </style>
    </defs>
    <g id="default" class="sprite">
      <path fill="#a3262e"  fill-rule="evenodd" d="M34.59,14H32.06a3.92,3.92,0,0,0,.4,1.9,3.82,3.82,0,0,0,1.12,1.31,4.87,4.87,0,0,0,1.63.75,7.55,7.55,0,0,0,1.9.24,7.3,7.3,0,0,0,2.14-.28,4.48,4.48,0,0,0,1.54-.79,3.2,3.2,0,0,0,.94-1.2,3.62,3.62,0,0,0,.32-1.51,2.88,2.88,0,0,0-.43-1.64,3.6,3.6,0,0,0-1-1,4.42,4.42,0,0,0-1.17-.55,9.21,9.21,0,0,0-.92-.24l-1.81-.47a6.74,6.74,0,0,1-1.08-.36,1.2,1.2,0,0,1-.52-.4A1.07,1.07,0,0,1,35,9.16a1.14,1.14,0,0,1,.16-.63,1.53,1.53,0,0,1,.43-.41,1.59,1.59,0,0,1,.57-.23,2.7,2.7,0,0,1,.63-.07,4.91,4.91,0,0,1,.89.08,2.06,2.06,0,0,1,.72.29,1.39,1.39,0,0,1,.51.54,2.07,2.07,0,0,1,.22.88h2.53a3.65,3.65,0,0,0-.39-1.75A3.46,3.46,0,0,0,40.2,6.67,4.66,4.66,0,0,0,38.68,6a7.1,7.1,0,0,0-1.78-.2A6.28,6.28,0,0,0,35.3,6a4.77,4.77,0,0,0-1.43.66,3.69,3.69,0,0,0-1,1.13,3.06,3.06,0,0,0-.39,1.58,2.88,2.88,0,0,0,.31,1.39,3.05,3.05,0,0,0,.8,1,4.62,4.62,0,0,0,1.13.62,12.23,12.23,0,0,0,1.3.41l1.28.33a8.43,8.43,0,0,1,1.13.35,2.48,2.48,0,0,1,.81.5,1.06,1.06,0,0,1,.3.78,1.13,1.13,0,0,1-.23.74,1.71,1.71,0,0,1-.58.45,2.51,2.51,0,0,1-.75.23,5,5,0,0,1-.75.06,4.07,4.07,0,0,1-1-.13,2.4,2.4,0,0,1-.84-.38A2.07,2.07,0,0,1,34.8,15a2.26,2.26,0,0,1-.21-1ZM46.22,8.27v9.66h2.61V8.27h3.55V6.08H42.66V8.27Zm10.13,3.17V8.1h2.86a2,2,0,0,1,1.35.39A1.59,1.59,0,0,1,61,9.75,1.64,1.64,0,0,1,60.56,11a2,2,0,0,1-1.35.4ZM53.74,6.08V17.93h2.61V13.3H59a1.9,1.9,0,0,1,1.41.43,2.35,2.35,0,0,1,.57,1.36c.07.48.12,1,.15,1.49a4.69,4.69,0,0,0,.26,1.35H64a1.8,1.8,0,0,1-.27-.61,4.91,4.91,0,0,1-.13-.75q0-.39-.06-.78c0-.26,0-.48,0-.67a6.57,6.57,0,0,0-.12-.89,2.86,2.86,0,0,0-.29-.82,2.19,2.19,0,0,0-.52-.65,2,2,0,0,0-.79-.41v0a2.77,2.77,0,0,0,1.43-1.16,3.52,3.52,0,0,0,.44-1.81,3.3,3.3,0,0,0-.24-1.27,2.94,2.94,0,0,0-.7-1,3.43,3.43,0,0,0-1.09-.71,3.89,3.89,0,0,0-1.44-.25Zm12,0V17.93h2.61V6.08Zm7.51,5.57V8.1h2a4.83,4.83,0,0,1,.86.07,1.87,1.87,0,0,1,.73.26,1.33,1.33,0,0,1,.51.54,1.84,1.84,0,0,1,.19.91,1.86,1.86,0,0,1-.19.91,1.39,1.39,0,0,1-.51.54,2,2,0,0,1-.73.26,6,6,0,0,1-.86.06ZM70.64,6.08V17.93h2.61V13.68H76a5.14,5.14,0,0,0,1.9-.32,3.56,3.56,0,0,0,1.27-.86,3.4,3.4,0,0,0,.71-1.22,4.41,4.41,0,0,0,0-2.81,3.28,3.28,0,0,0-.71-1.21,3.56,3.56,0,0,0-1.27-.86A5.14,5.14,0,0,0,76,6.08ZM90.21,9.65h1.58A4.58,4.58,0,0,0,91.23,8a4.31,4.31,0,0,0-1.08-1.21A4.87,4.87,0,0,0,88.67,6a6.18,6.18,0,0,0-1.76-.24,5.78,5.78,0,0,0-2.42.48,5.12,5.12,0,0,0-1.76,1.34,5.92,5.92,0,0,0-1.07,2A7.75,7.75,0,0,0,81.29,12a8.58,8.58,0,0,0,.34,2.42,5.8,5.8,0,0,0,1,2,4.75,4.75,0,0,0,1.72,1.3,5.62,5.62,0,0,0,2.4.47A5,5,0,0,0,90.36,17a5.38,5.38,0,0,0,1.55-3.49H90.33a4.48,4.48,0,0,1-.3,1.36,3.26,3.26,0,0,1-.69,1.09,3.17,3.17,0,0,1-1,.72,3.5,3.5,0,0,1-1.38.25,3.86,3.86,0,0,1-1.83-.4,3.41,3.41,0,0,1-1.25-1.07,4.55,4.55,0,0,1-.73-1.57,8,8,0,0,1-.23-1.92,7,7,0,0,1,.23-1.79,4.66,4.66,0,0,1,.73-1.54,3.56,3.56,0,0,1,1.24-1.07,3.94,3.94,0,0,1,1.82-.4A3.66,3.66,0,0,1,89,7.75a2.87,2.87,0,0,1,1.17,1.9Zm3.66-3.57V17.93h1.58V12.5h6.24v5.43h1.58V6.08h-1.58v5.09H95.45V6.08Zm14,7,2-5.53h0l2,5.53Zm1.18-6.95-4.62,11.85h1.61l1.33-3.57h5l1.29,3.57h1.75L110.83,6.08Zm10.23,1.33V17.93h1.58V7.41h3.95V6.08h-9.48V7.41ZM10.2,22,10,22a1.86,1.86,0,0,0-1.27.17l-.19.09A18.37,18.37,0,0,1,6.8,23a27.06,27.06,0,0,1-5.29,1.39l.45-.7c.36-.6.83-1.46,1.37-2.5,0,0,.45-.8.63-1.21a1,1,0,0,0-.28-1c-.26-.25-.78-.82-.78-.82a10,10,0,0,1-2.9-7C0,5.09,5.83,0,13.21,0s13.2,5.09,13.2,11.14c0,5.73-5.21,10.59-12,11.1a.43.43,0,0,1-.45-.47c0-2.22,0-6.66,0-6.66a.73.73,0,0,1,.32-.57l5.06-5.86c.12-.14.07-.25-.12-.25H7c-.18,0-.23.11-.12.24l5.06,5.85a.77.77,0,0,1,.31.58s0,4.45,0,6.67a.48.48,0,0,1-.5.46C11.22,22.18,10.71,22.1,10.2,22Z"/>
    </g>
    <g id="white" class="sprite">
      <path fill="#fff"  fill-rule="evenodd" d="M34.59,14H32.06a3.92,3.92,0,0,0,.4,1.9,3.82,3.82,0,0,0,1.12,1.31,4.87,4.87,0,0,0,1.63.75,7.55,7.55,0,0,0,1.9.24,7.3,7.3,0,0,0,2.14-.28,4.48,4.48,0,0,0,1.54-.79,3.2,3.2,0,0,0,.94-1.2,3.62,3.62,0,0,0,.32-1.51,2.88,2.88,0,0,0-.43-1.64,3.6,3.6,0,0,0-1-1,4.42,4.42,0,0,0-1.17-.55,9.21,9.21,0,0,0-.92-.24l-1.81-.47a6.74,6.74,0,0,1-1.08-.36,1.2,1.2,0,0,1-.52-.4A1.07,1.07,0,0,1,35,9.16a1.14,1.14,0,0,1,.16-.63,1.53,1.53,0,0,1,.43-.41,1.59,1.59,0,0,1,.57-.23,2.7,2.7,0,0,1,.63-.07,4.91,4.91,0,0,1,.89.08,2.06,2.06,0,0,1,.72.29,1.39,1.39,0,0,1,.51.54,2.07,2.07,0,0,1,.22.88h2.53a3.65,3.65,0,0,0-.39-1.75A3.46,3.46,0,0,0,40.2,6.67,4.66,4.66,0,0,0,38.68,6a7.1,7.1,0,0,0-1.78-.2A6.28,6.28,0,0,0,35.3,6a4.77,4.77,0,0,0-1.43.66,3.69,3.69,0,0,0-1,1.13,3.06,3.06,0,0,0-.39,1.58,2.88,2.88,0,0,0,.31,1.39,3.05,3.05,0,0,0,.8,1,4.62,4.62,0,0,0,1.13.62,12.23,12.23,0,0,0,1.3.41l1.28.33a8.43,8.43,0,0,1,1.13.35,2.48,2.48,0,0,1,.81.5,1.06,1.06,0,0,1,.3.78,1.13,1.13,0,0,1-.23.74,1.71,1.71,0,0,1-.58.45,2.51,2.51,0,0,1-.75.23,5,5,0,0,1-.75.06,4.07,4.07,0,0,1-1-.13,2.4,2.4,0,0,1-.84-.38A2.07,2.07,0,0,1,34.8,15a2.26,2.26,0,0,1-.21-1ZM46.22,8.27v9.66h2.61V8.27h3.55V6.08H42.66V8.27Zm10.13,3.17V8.1h2.86a2,2,0,0,1,1.35.39A1.59,1.59,0,0,1,61,9.75,1.64,1.64,0,0,1,60.56,11a2,2,0,0,1-1.35.4ZM53.74,6.08V17.93h2.61V13.3H59a1.9,1.9,0,0,1,1.41.43,2.35,2.35,0,0,1,.57,1.36c.07.48.12,1,.15,1.49a4.69,4.69,0,0,0,.26,1.35H64a1.8,1.8,0,0,1-.27-.61,4.91,4.91,0,0,1-.13-.75q0-.39-.06-.78c0-.26,0-.48,0-.67a6.57,6.57,0,0,0-.12-.89,2.86,2.86,0,0,0-.29-.82,2.19,2.19,0,0,0-.52-.65,2,2,0,0,0-.79-.41v0a2.77,2.77,0,0,0,1.43-1.16,3.52,3.52,0,0,0,.44-1.81,3.3,3.3,0,0,0-.24-1.27,2.94,2.94,0,0,0-.7-1,3.43,3.43,0,0,0-1.09-.71,3.89,3.89,0,0,0-1.44-.25Zm12,0V17.93h2.61V6.08Zm7.51,5.57V8.1h2a4.83,4.83,0,0,1,.86.07,1.87,1.87,0,0,1,.73.26,1.33,1.33,0,0,1,.51.54,1.84,1.84,0,0,1,.19.91,1.86,1.86,0,0,1-.19.91,1.39,1.39,0,0,1-.51.54,2,2,0,0,1-.73.26,6,6,0,0,1-.86.06ZM70.64,6.08V17.93h2.61V13.68H76a5.14,5.14,0,0,0,1.9-.32,3.56,3.56,0,0,0,1.27-.86,3.4,3.4,0,0,0,.71-1.22,4.41,4.41,0,0,0,0-2.81,3.28,3.28,0,0,0-.71-1.21,3.56,3.56,0,0,0-1.27-.86A5.14,5.14,0,0,0,76,6.08ZM90.21,9.65h1.58A4.58,4.58,0,0,0,91.23,8a4.31,4.31,0,0,0-1.08-1.21A4.87,4.87,0,0,0,88.67,6a6.18,6.18,0,0,0-1.76-.24,5.78,5.78,0,0,0-2.42.48,5.12,5.12,0,0,0-1.76,1.34,5.92,5.92,0,0,0-1.07,2A7.75,7.75,0,0,0,81.29,12a8.58,8.58,0,0,0,.34,2.42,5.8,5.8,0,0,0,1,2,4.75,4.75,0,0,0,1.72,1.3,5.62,5.62,0,0,0,2.4.47A5,5,0,0,0,90.36,17a5.38,5.38,0,0,0,1.55-3.49H90.33a4.48,4.48,0,0,1-.3,1.36,3.26,3.26,0,0,1-.69,1.09,3.17,3.17,0,0,1-1,.72,3.5,3.5,0,0,1-1.38.25,3.86,3.86,0,0,1-1.83-.4,3.41,3.41,0,0,1-1.25-1.07,4.55,4.55,0,0,1-.73-1.57,8,8,0,0,1-.23-1.92,7,7,0,0,1,.23-1.79,4.66,4.66,0,0,1,.73-1.54,3.56,3.56,0,0,1,1.24-1.07,3.94,3.94,0,0,1,1.82-.4A3.66,3.66,0,0,1,89,7.75a2.87,2.87,0,0,1,1.17,1.9Zm3.66-3.57V17.93h1.58V12.5h6.24v5.43h1.58V6.08h-1.58v5.09H95.45V6.08Zm14,7,2-5.53h0l2,5.53Zm1.18-6.95-4.62,11.85h1.61l1.33-3.57h5l1.29,3.57h1.75L110.83,6.08Zm10.23,1.33V17.93h1.58V7.41h3.95V6.08h-9.48V7.41ZM10.2,22,10,22a1.86,1.86,0,0,0-1.27.17l-.19.09A18.37,18.37,0,0,1,6.8,23a27.06,27.06,0,0,1-5.29,1.39l.45-.7c.36-.6.83-1.46,1.37-2.5,0,0,.45-.8.63-1.21a1,1,0,0,0-.28-1c-.26-.25-.78-.82-.78-.82a10,10,0,0,1-2.9-7C0,5.09,5.83,0,13.21,0s13.2,5.09,13.2,11.14c0,5.73-5.21,10.59-12,11.1a.43.43,0,0,1-.45-.47c0-2.22,0-6.66,0-6.66a.73.73,0,0,1,.32-.57l5.06-5.86c.12-.14.07-.25-.12-.25H7c-.18,0-.23.11-.12.24l5.06,5.85a.77.77,0,0,1,.31.58s0,4.45,0,6.67a.48.48,0,0,1-.5.46C11.22,22.18,10.71,22.1,10.2,22Z"/>
    </g>
</svg>
