<svg viewBox="0 0 315.45 47.3" xmlns="http://www.w3.org/2000/svg">
    <defs>
        <style>
            .sprite { display: none; }
            .sprite:target { display: inline; }
        </style>
    </defs>
    <g id="default" class="sprite">
        <path d="M29.9 41.7L21 29.4l-8.9 12.3H0L15 21 .7.9H13l8.1 11.3L29.3.9h12.1L27.3 20.7l15 20.9-12.4.1z"/>
        <path d="M70.7 41.7l-8.8-12.3L53 41.7H40.8l15-20.7L41.5 1H54l8 11.3L70.2 1h12.1L68.1 20.7l15 20.9H70.7z"/>
        <path d="M111.5 41.7l-8.8-12.3-8.9 12.3H81.7l15-20.6L82.3.9h12.5l8.1 11.3L111.1.9h12.1L109 20.6l15 20.9-12.5.2z"/>
        <linearGradient id="a" x1="167.668" x2="275.522" y1="-25.235" y2="82.619" gradientTransform="matrix(1 0 0 -1 0 50)" gradientUnits="userSpaceOnUse">
            <stop offset=".1" stop-color="#bf8819"/>
            <stop offset=".56" stop-color="#dab335"/>
            <stop offset=".82" stop-color="#e5c641"/>
        </linearGradient>
        <path fill="url(#a)" d="M122.1 21.3C122.1 9.8 132.3.1 144.4.1c6-.1 11.9 2.4 16 6.9l-7.6 6.5c-2.1-2.3-5.2-3.7-8.4-3.8-6 0-11 5.3-11 11.5 0 6.3 5 11.7 11.1 11.7 3.3-.1 6.4-1.5 8.6-3.9l7.6 6.4c-4.2 4.7-10 7.3-16.3 7.2-12.1 0-22.3-9.8-22.3-21.3zM206.2.9v40.6h-11.4v-5.9c-3.3 4.4-8.3 6.9-13.7 6.8-10.9 0-18.7-8.8-18.7-21.3S170.3 0 181.1 0c5.4-.1 10.5 2.4 13.7 6.8V.9h11.4zm-11.5 20.4c0-6.8-4.4-11.5-10.4-11.5-6.4 0-10.9 4.8-10.9 11.5s4.5 11.6 10.9 11.6c6.1 0 10.4-4.8 10.4-11.6zm82.2-5.6v26h-11v-24c0-4.7-3-8-7.3-8-4.6 0-7.9 3.1-7.9 7.4v24.6h-11v-24c0-4.7-3-8-7.2-8-4.7 0-7.9 3.1-7.9 7.4v24.6h-11.5V.9h11.5v5.4c2-3.9 6-6.3 11-6.3 5.4-.1 10.3 2.8 12.9 7.4 2.1-4.5 7.2-7.3 13.2-7.3 8.7-.1 15.2 6.4 15.2 15.6zm3.5 21.7l4.9-7.9c3.9 2.9 8.7 4.6 13.6 4.6 3.1 0 5.3-1.3 5.3-3.1 0-2.5-3-3.3-7.2-4.4-8.4-2-14.8-4.3-14.9-12.4 0-7.7 6.4-13.2 16-13.2 5.8.1 11.3 1.9 16.1 5l-4.7 8.2c-3.4-2.2-7.3-3.4-11.4-3.6-2.8 0-4.8 1-4.8 2.4 0 2.2 1.7 2.8 7.2 4.3 7 1.9 14.8 4.2 14.8 13 0 8-6.5 13.1-16.6 13.1-6.6.1-13-2-18.3-6zM151.1 19c-.8 1.7-2.9 2.3-4.6 1.5-1.7-.8-2.3-2.9-1.5-4.6.3-.7.8-1.1 1.5-1.5-.7-.3-1.5-.4-2.3-.4-4 0-7.3 3.3-7.2 7.3.1 4 3.3 7.3 7.3 7.2 4 0 7.2-3.3 7.2-7.2.1-.7-.1-1.6-.4-2.3z"/>
    </g>
    <g id="white" class="sprite">
        <path fill="#fff" d="M29.9,41.7L21,29.4l-8.9,12.3H0L15,21L0.7,0.9H13l8.1,11.3l8.2-11.3h12.1L27.3,20.7l15,20.9L29.9,41.7z"/>
        <path fill="#fff" d="M70.7,41.7l-8.8-12.3l-8.9,12.3H40.8l15-20.7l-14.3-20h12.5L62,12.3l8.2-11.3h12.1L68.1,20.7l15,20.9H70.7z"/>
        <path fill="#fff" d="M111.5,41.7l-8.8-12.3l-8.9,12.3H81.7l15-20.6L82.3,0.9h12.5l8.1,11.3l8.2-11.3h12.1l-14.2,19.7l15,20.9L111.5,41.7
		L111.5,41.7z"/>
        <path fill="#fff" d="M122.1 21.3C122.1 9.8 132.3.1 144.4.1c6-.1 11.9 2.4 16 6.9l-7.6 6.5c-2.1-2.3-5.2-3.7-8.4-3.8-6 0-11 5.3-11 11.5 0 6.3 5 11.7 11.1 11.7 3.3-.1 6.4-1.5 8.6-3.9l7.6 6.4c-4.2 4.7-10 7.3-16.3 7.2-12.1 0-22.3-9.8-22.3-21.3zM206.2.9v40.6h-11.4v-5.9c-3.3 4.4-8.3 6.9-13.7 6.8-10.9 0-18.7-8.8-18.7-21.3S170.3 0 181.1 0c5.4-.1 10.5 2.4 13.7 6.8V.9h11.4zm-11.5 20.4c0-6.8-4.4-11.5-10.4-11.5-6.4 0-10.9 4.8-10.9 11.5s4.5 11.6 10.9 11.6c6.1 0 10.4-4.8 10.4-11.6zm82.2-5.6v26h-11v-24c0-4.7-3-8-7.3-8-4.6 0-7.9 3.1-7.9 7.4v24.6h-11v-24c0-4.7-3-8-7.2-8-4.7 0-7.9 3.1-7.9 7.4v24.6h-11.5V.9h11.5v5.4c2-3.9 6-6.3 11-6.3 5.4-.1 10.3 2.8 12.9 7.4 2.1-4.5 7.2-7.3 13.2-7.3 8.7-.1 15.2 6.4 15.2 15.6zm3.5 21.7l4.9-7.9c3.9 2.9 8.7 4.6 13.6 4.6 3.1 0 5.3-1.3 5.3-3.1 0-2.5-3-3.3-7.2-4.4-8.4-2-14.8-4.3-14.9-12.4 0-7.7 6.4-13.2 16-13.2 5.8.1 11.3 1.9 16.1 5l-4.7 8.2c-3.4-2.2-7.3-3.4-11.4-3.6-2.8 0-4.8 1-4.8 2.4 0 2.2 1.7 2.8 7.2 4.3 7 1.9 14.8 4.2 14.8 13 0 8-6.5 13.1-16.6 13.1-6.6.1-13-2-18.3-6zM151.1 19c-.8 1.7-2.9 2.3-4.6 1.5-1.7-.8-2.3-2.9-1.5-4.6.3-.7.8-1.1 1.5-1.5-.7-.3-1.5-.4-2.3-.4-4 0-7.3 3.3-7.2 7.3.1 4 3.3 7.3 7.3 7.2 4 0 7.2-3.3 7.2-7.2.1-.7-.1-1.6-.4-2.3z"/>
    </g>
</svg>
